<?xml version="1.0" standalone="no"?>
<!DOCTYPE svg PUBLIC "-//W3C//DTD SVG 1.1//EN" "http://www.w3.org/Graphics/SVG/1.1/DTD/svg11.dtd" >
<svg>
<metadata>
Created by FontForge 20110222 at Mon Sep  3 15:27:43 2012
 By Colm O Neill
Pierre Huyghebaert (Typography, initiative, testing)
Pierre Marchand (Development and typography, Fonzie software)
Delphine Platteeuw (Design and testing)
Gregoire Vigneron (Scanning and assembling)

OSP: December 2010 - Version 1.0 (http://ospublish.constantvzw.org/foundry/univers-else)

Univers Else is released under the OFL 1.1 -- http://scripts.sil.org/OFL

For information on what you're allowed to change or modify, 
consult the OFL-1.1.txt and OFL-FAQ.txt files.  The OFL-FAQ also gives a very general rationale and various recommendations regarding why you would want to contribute to the project or make your own version of the font.
</metadata>
<defs>
<font id="UniversElse-Bold" horiz-adv-x="500" >
  <font-face 
    font-family="Univers Else"
    font-weight="700"
    font-stretch="normal"
    units-per-em="1000"
    panose-1="2 0 8 3 0 0 0 0 0 0"
    ascent="800"
    descent="-200"
    x-height="501"
    cap-height="735"
    bbox="-48 -205 897 951"
    underline-thickness="50"
    underline-position="-250"
    unicode-range="U+0020-20AC"
  />
<missing-glyph 
d="M100 50h300v433h-300v-433zM50 0v533h400v-533h-400z" />
    <glyph glyph-name=".notdef" 
d="M100 50h300v433h-300v-433zM50 0v533h400v-533h-400z" />
    <glyph glyph-name=".null" horiz-adv-x="0" 
 />
    <glyph glyph-name="nonmarkingreturn" horiz-adv-x="333" 
 />
    <glyph glyph-name="uni0020" unicode=" " horiz-adv-x="278" 
 />
    <glyph glyph-name="uni0021" unicode="!" horiz-adv-x="316" 
d="M121 107q8 4 12 4h4q8 -2 25 -2q15 -2 25 -4q5 -1 12 -6q6 -2 6 -4q2 -2 2 -10q0 -10 1 -13q2 -2 2 -5.5t-2 -10.5q-2 -12 -2 -15q0 -8 -1 -14q-2 -11 -4 -15q-4 -6 -6 -7q-3 -3 -23 -3q-18 0 -24 -2q-4 -1 -7 -1h-3q-4 0 -12 2q-6 0 -10 4t-7 10q-5 10 -5 14q-2 6 0 11
q0 6 -0.5 9t-0.5 5t1 12q3 8 3 17q0 6 2 14q3 5 12 10zM117 665q6 1 21 1h16q31 0 37 -3q6 -2 10 -9q2 -8 2 -12q-2 -5 3 -16q3 -9 3 -12q0 -2 -1 -5t-1 -13v-11q-2 -4 -2 -53q-1 -47 -4 -56t-3 -61l-2 -56v-6q2 -6 2 -36q2 -34 2 -35q2 -4 1 -8q-3 -9 -3 -27q-2 -24 -4 -30
q-2 -8 -4 -12t-7 -9q-4 -4 -16 -7q-13 -2 -24 1q-12 2 -14 4q-1 1 -5 9q0 1 -3 5.5t-4 5.5q-5 7 -5 14q0 2 -0.5 6.5t-1.5 6.5q0 1 0.5 5t0.5 6q2 8 2 42t-3 45q-2 9 -1 15q2 6 2 20q0 13 -2 23q-1 3 -3 34q0 23 2 29q2 5 1 11q0 1 -3 19q-2 9 -2 17q0 5 1 17q1 11 1 27
q0 2 -1 6.5t-2 6.5q-2 3 -2 29q-1 13 -1 40q0 16 2 22q2 5 5 7q2 1 10 3z" />
    <glyph glyph-name="uni0022" unicode="&#x22;" horiz-adv-x="414" 
d="M82 735q1 1 12 1t25 -1q33 0 39 -2q4 -4 7 -10q4 -8 4 -14t-2 -8q-1 -2 -1 -20q0 -15 -2 -19q-2 -2 -4 -10q-3 -7 -3 -15q0 -10 -1 -12q-2 -4 -2 -34q-1 -31 -3 -37q-3 -12 -3 -13t-1 -5t-2 -6q-3 -5 -8 -8t-11 -3h-7q-16 2 -18 3q-6 4 -10 9q-6 6 -7 18v23q0 7 -2 15
q-3 6 -3 30q-2 25 -3 31q-2 6 -2 19q1 12 -1 19q-1 2 -2 5t-2 4l-4 10q-2 11 -1 13q0 4 4 8q5 5 7 6q6 3 7 3zM273 738q4 2 25 2t28 -3q8 -2 10 -2q4 0 7 -5q4 -4 4 -17q0 -11 -2 -19q-2 -3 -2 -20q0 -13 -4 -25q-4 -9 -4 -27v-34q-1 -16 -3 -23q-3 -5 -3 -18q0 -15 -2 -18
q-1 -2 -5 -6l-10 -5q-5 -2 -13 -4q-8 0 -17 5q-8 3 -12 9q-3 6 -3 26q0 21 -4 29q-3 6 -2 20q1 10 -1 20q-1 1 -2.5 5t-1.5 5l-4 29q-2 34 -3 38q0 14 2 18q2 7 9 12q6 6 13 8z" />
    <glyph glyph-name="uni0023" unicode="#" horiz-adv-x="507" 
d="M309 397q-4 3 -17 3q-3 0 -12 -1t-12 -2q-18 -3 -21 -3q-10 -3 -15 0q-4 1 -10 1q-2 -1 -8 -7q-4 -6 -5 -19q0 -10 -3 -19q-2 -3 -6 -23q0 -4 -1 -8.5t-2.5 -9.5t-1.5 -6q-3 -6 -3 -12q0 -3 4 -13q5 -9 10 -12q7 -1 23 -1h22q39 0 43 4q5 3 8 11q3 6 3 14t3 14q3 15 3 21
q2 14 3 16t4 15q2 15 4 18q1 4 1 5q0 2 -2 5l-5 5q-1 1 -3.5 2t-3.5 2zM178 655q8 3 11 3q7 0 27 -3q21 -2 28 -5q5 -2 10 -7q5 -6 4 -12q0 -9 -3 -13q-3 -7 -5 -17q0 -2 -1 -9.5t-2 -10.5q-3 -18 -3 -28q-1 -19 -6 -29q-5 -11 -4 -22q2 -11 4 -15q4 -4 9 -4q4 -1 18 -1h29
q20 0 23 1q4 0 16 8t12 10q1 1 3 28q0 26 3 35q7 19 8 23q5 13 6 30q0 16 2 22q2 4 9 9q5 5 17 8q10 2 16 0t11 -2t11 2q8 2 12 2q6 0 13 -4q8 -4 10 -8q1 -2 3 -10q1 -5 -3 -15q-3 -7 -5 -18q0 -2 -3 -23q-2 -19 -5 -28q-4 -16 -6 -28q-4 -14 -2 -20q0 -6 4 -14q3 -7 7 -8
q1 -1 11 -3q7 -1 12 1q6 3 17 3q9 0 15 -5q2 -2 8 -11q2 -8 2 -27q1 -10 1 -14q0 -7 -3 -11q-2 -6 -6 -10q-1 -1 -10 -7q-6 -3 -15 -3q-17 0 -27 1q-19 1 -25 0q-6 -3 -11 -10q-6 -8 -8 -14q-1 -6 -4 -11q-2 -3 -1 -11q2 -8 -1 -15q-2 -8 -2 -18t-1 -11q-1 0 -3 -7
q-1 -3 -1 -11q4 -8 9 -12q6 -8 11 -10q6 -2 21 -2q18 0 21 -2q4 -2 6 -7q1 -1 4 -12q0 -7 4 -15q3 -4 5 -15q1 -8 -1 -14q-3 -3 -3 -6l-4 -6q-1 -1 -10 -7q-2 -1 -7 -2.5t-7 -1.5q-4 -1 -12 -1l-12 4q-7 3 -12 3q-2 -1 -14 -3q-9 -1 -15 -7q-4 -4 -6 -11q0 -4 -2 -8
q-2 -3 -6 -13q-6 -10 -4 -14v-12q0 -6 -2 -26q-1 -19 -6 -31q-4 -14 -4 -17q0 -5 -4 -13q-4 -9 -7 -10q-4 -2 -10 -4q-8 -2 -8 -3t-12 -1t-15 2q-6 3 -19 3q-14 0 -17 3q-4 2 -8 11q-4 8 -4 13q-2 3 1 6q0 2 2 6t2 16q1 9 6 21q5 7 5 10l2 8q3 5 5 14q1 4 1 18q0 7 2 15
q3 5 1 10q-3 5 -7 8q-5 5 -14 5q-5 1 -36 1q-28 0 -33 -3q-9 -3 -10 -3q-4 -1 -7 -7q0 -1 -1.5 -6.5t-2.5 -8.5q0 -7 -4 -15q0 -2 -1.5 -7.5t-2.5 -7.5q0 -3 -3 -15q-3 -8 -3 -15t-2 -13q-3 -9 -3 -22q-2 -20 -3 -23l-5 -10q-2 -2 -5 -4.5t-4 -3.5q-2 -1 -8 -2q-3 -1 -4 -1
q-16 0 -28 2q-26 2 -29 1q-6 -1 -13 5q-5 5 -7 12q0 9 1 14q1 2 2 5.5l1 3.5q2 2 4 12q4 14 5 17q1 4 1 23q-1 17 3 25q1 2 3 6.5t2 5.5q2 4 2 15t-4 16q-4 3 -29 3q-22 0 -30 3q-1 1 -4.5 3.5t-4.5 3.5q-4 2 -4.5 4.5t-0.5 14.5q0 16 2 18l0.5 5.5t0.5 9.5q2 15 3 16
q2 5 6 6q3 2 33 2t36 2q7 2 13 8q6 7 9 17q1 8 6 22l3 18q0 9 3 18q1 8 4 16q1 7 -1 12q0 1 -2 5l-3 6q-4 6 -8 7q-4 2 -12 2q-7 0 -19 -2q-11 -1 -17 2q-9 6 -10 7q-3 2 -3.5 6t-0.5 27q0 31 2 34q1 3 6 8q4 4 21 5q5 0 16 -0.5t14 -0.5q15 -1 21 1q7 2 12 7q5 4 7 12
q2 6 2 15t3 17q3 12 3 13t0.5 4t0.5 4q1 2 3 19q0 15 2 23q1 2 3 9.5t3 10.5q4 14 4 17t2 9q2 4 6 6z" />
    <glyph glyph-name="uni0024" unicode="$" 
d="M292 254q-4 2 -10 2t-9 -3q-1 -1 -6 -12q-1 -3 -4 -20q0 -14 1 -20q2 -9 1 -13q-1 -2 -1 -20v-23q0 -12 -1 -18v-7q0 -5 2 -15q1 -3 2.5 -8.5t1.5 -6.5q1 -4 3 -6q4 -2 9 -2h3q5 0 13 2q2 1 8.5 3t8.5 3q6 1 18 13q13 15 16 21q4 8 5 33q0 25 -3 39t-11 24q-4 5 -12 13
q-4 4 -11 4q-5 1 -13 9t-11 8zM226 546q-6 2 -16 2q-13 0 -19 -4q-8 -4 -12 -8l-13 -13q-8 -8 -9 -10q-3 -1 -5 -8l-4 -12q-2 -4 -2 -25q0 -20 4 -33q7 -18 8 -20q2 -5 9 -12q5 -5 19 -11q18 -4 21 -4q7 0 15 2q5 0 9 4q3 3 4 26q1 12 1 16q0 8 -3 15q-4 12 -2 23
q0 4 0.5 12.5t0.5 10.5q0 9 2 17q2 6 2 17q-2 9 -3 10q-2 3 -7 5zM241 704q5 4 11 4t10 -4q5 -5 7 -14q4 -11 4 -25t2 -22q1 -7 6 -10q3 -3 16 -3t18 -2q6 -4 15 -4q10 -2 11 -2q1 -1 15 -5t16 -4l2.5 -1.5t4.5 -1.5l15 -10q4 -2 12 -8q2 -1 3 -2q7 -5 19 -19q13 -13 13 -17
q2 -6 5 -12q5 -8 8 -18q4 -12 4 -13q0 -2 5 -9t5 -10t-3 -8q-1 -2 -6 -10q-3 -3 -9 -5q-4 -2 -13 -2q-2 0 -7 -1t-7 -2q-6 -3 -15 -3q-8 0 -10 2q-4 2 -8 3q-6 2 -11 4q-1 1 -6 2q-2 1 -3 1q-4 0 -8 4q-4 6 -7 15q-4 12 -6 14q-4 8 -6 13q-5 10 -11 16q-7 7 -15 8
q-5 0 -13 2q-2 1 -6 2t-5 1q-5 2 -10 0t-8 -7q-5 -7 -6 -14q-1 -3 -3 -12q-1 -3 -1 -4q0 -2 -0.5 -7.5t-0.5 -7.5q0 -8 2 -14q2 -5 2 -18q-1 -3 -2 -13t-1 -13q-2 -11 -2 -32q0 -3 0.5 -11.5t1.5 -10.5q0 -4 4 -10q2 -6 11 -10q7 -3 18 -5q10 0 20 -5q16 -8 24 -11
q13 -7 22 -8q7 0 13 -2q1 -1 3 -2t2 -2l4 -2t7 -3q9 -3 13 -7q2 -3 13 -9q10 -7 13 -16q4 -10 8 -14q7 -7 8 -10q1 -1 8 -17q3 -13 7 -17q1 -1 2 -5t1 -5q0 -2 0.5 -5.5t1.5 -5.5q0 -3 2 -25q1 -11 1 -17.5t-1 -13.5q-1 -3 -2 -8t-1 -6q-1 -1 -3.5 -7t-4.5 -10q-5 -9 -8 -20
q-3 -8 -5 -10q-4 -4 -8 -12q-6 -8 -25 -27q-20 -20 -23 -20l-4.5 -1t-7.5 -2q-9 -3 -15 -9q-8 -6 -10 -6q-1 -1 -6 -2t-8 -2l-18 -6q-5 -3 -21 -3q-4 0 -11 -0.5l-7 -0.5q-6 -2 -10 -6q-4 -3 -10 -15q-4 -9 -3 -20q2 -10 0 -12l-0.5 -5.5t-0.5 -9.5q0 -10 -2 -18
q-3 -7 -7 -8q-4 -2 -8 -2q-5 0 -8 3t-6 9t-3 15q0 8 2 14q1 2 1.5 10.5t0.5 12.5q0 18 -4 22q-3 3 -9 6q-3 2 -10 0q-6 -2 -7 -3q0 -1 -4 -1q-1 0 -3.5 0.5l-2.5 0.5q-4 2 -13 5q-8 5 -20 5q-2 0 -7 0.5t-6 1.5q-3 0 -10 7q-11 8 -15 9q-8 3 -11 6t-11 5q-8 1 -14 7
q-5 7 -5 8t-12 13q-13 12 -18 23q-5 10 -7 18t-3 9q-1 0 -3.5 6t-4.5 9q-7 13 -6 21q0 8 2 16q2 10 3 12t5 6q3 3 12 3q5 0 21 -1h16.5h14.5h9q11 0 15 -2q2 -1 5 -4q4 -4 5 -9q1 -1 4 -14q2 -9 7 -23q5 -13 5 -16l15 -15q17 -15 21 -17q5 -3 18 -3q14 0 17 2q3 1 5 6
q2 4 2 8q0 5 3 11q2 6 2 48q0 41 -2 46q-3 4 -2 16q0 10 2 20q2 8 0 13q-2 6 -4 8q-2 5 -8 6q-4 3 -21 7q-16 4 -18 5q-2 2 -15 6q-17 7 -18 8l-10 5q-1 1 -3 2l-2 2l-4 3q-4 2 -7 3q-5 1 -10 6q-3 3 -11 6q-8 4 -13 9t-11 13t-10 12q-2 1 -9 14q0 1 -3 8t-4 9q-2 8 -3 9
q-1 3 -1 5q0 6 -3 17q-3 13 -3 32q0 18 2 24q0 1 1 6.5t2 9.5q1 13 8 23q7 11 8 15q1 2 3 5l1 4q0 1 3 5t5 7q5 6 10 17q1 1 9 14q11 7 13 8q2 2 6 4l4 2q1 1 6 3q4 3 6 4q12 8 14 8q4 4 9 4q8 3 10 4l10 5q2 1 6.5 2t6.5 1t11 3q6 2 13 2q8 0 12 2l8 4q1 1 3 4t2 4
q3 6 2 24q0 19 3 26q2 7 8 11z" />
    <glyph glyph-name="uni0025" unicode="%" horiz-adv-x="816" 
d="M644 274q-7 3 -19 5q-12 0 -14 -1q-5 -3 -17 -10q-2 -2 -9.5 -7.5t-8.5 -7.5q-5 -7 -7 -12q-2 -6 -2 -18q0 -13 -1 -14q-1 -2 -3 -19t-3 -18q-2 -2 -2 -7q-1 -3 1 -9q2 -5 3 -25q0 -15 3 -27q3 -9 3 -13q1 -8 9 -16q2 -1 8 -6t8 -7q6 -3 12 -7q3 -2 19 -2q17 0 20 1
q5 1 12 6q6 3 11 13q6 12 9 17q5 10 5 14l1.5 5.5t2.5 7.5q2 8 0 16q-3 8 0 13q1 2 3 23q2 24 2 28.5t-5 19.5q-7 18 -8 19t-3 10q0 5 -3 11q-6 6 -10 8l-7 5zM589 332q4 3 15 3q6 0 25 -1q36 0 42 -2q4 -2 13 -5q1 0 14 -5q3 -1 12 -6q3 -1 4 -2q8 -6 19 -17q12 -12 17 -23
q6 -12 6 -13q0 -3 3 -9q1 -2 2.5 -5.5t3.5 -8.5t3 -7q3 -11 3 -14q0 -2 -1 -7q-2 -8 -2 -14q0 -2 0.5 -7.5t0.5 -7.5q0 -23 -1 -40q0 -31 -3 -40q-2 -6 -6 -15l-8 -16q-5 -10 -6 -14l-3 -9q-1 -1 -8 -11q-7 -7 -9 -7q-1 0 -3 -2q-1 -1 -5 -3q-1 0 -11 -5q-8 -4 -11 -7
q-8 -3 -17 -4q-13 -3 -23 -8q-9 -6 -23 -7h-7q-10 0 -22 2q-4 0 -25 4l-12 5q-3 3 -11 6q-10 6 -11 7q-4 2 -6 4q-3 3 -9 6q-8 5 -9 8q-4 4 -13 24q-2 4 -5.5 11.5t-6 12t-3.5 6.5t-2 5q-3 8 -4 10l-2 8q-2 2 -2 14q-2 15 -3 16q-3 4 -3 17t3 22q3 7 3 15t3 17l3 9t2 7
q2 3 4 18q1 14 5 19q5 7 7 12q4 6 15 17q14 12 17 13q2 1 9 8q6 6 18 9q14 4 15 4q3 0 9 3zM217 640q-15 3 -17 3q-11 0 -15 -1q-3 0 -15 -3l-12 -6q-6 -4 -7 -8q0 -1 -2.5 -5t-3.5 -6q-2 -2 -6 -9t-4 -8q-4 -9 -3 -25q1 -14 -2 -24q-2 -5 -2 -7.5t2 -6.5q1 -3 3 -23v-18
q-2 -5 -1 -17q1 -15 5 -22l4.5 -6.5t6.5 -8.5q6 -8 8 -10q1 -1 9 -7q6 -4 22 -4q15 0 28 4q13 5 18 10q1 3 6 10q2 3 3 5q3 7 5 18q2 15 4 18q2 8 2 17q0 3 0.5 9t0.5 8q3 6 0 19q-2 12 -2 32q-1 22 -7 38q-5 18 -12 25q-6 6 -16 9zM173 699q4 1 14 1h13q21 0 27 -3
q2 -1 8 -2q3 -1 4 -1q7 0 17 -4q4 -1 20 -7q11 -7 20 -14l15 -12q2 -1 5 -9q2 -7 7 -16t5 -18q0 -10 1 -11q0 -1 3 -11q1 -6 4 -11q1 -3 1 -38q0 -29 -2 -47q-2 -8 -5 -27q-2 -18 -3 -20q0 -5 -4 -11l-10 -15q-4 -4 -12 -16l-6 -6q-2 0 -11 -9q-12 -10 -15 -12q-2 -1 -7 -3
t-7 -3q-18 -7 -21 -8q-14 -5 -40 -5t-38 4q-9 2 -11 4q-1 1 -18 5q-13 4 -16.5 5.5t-10.5 9.5q-14 11 -15 12q-2 1 -6 5q-3 6 -3 8q-3 6 -5 9q-4 7 -6 13q-1 2 -3.5 7.5t-3.5 7.5q-4 7 -5 27q-1 18 -4 26q-3 6 -3 36q0 28 3 34q1 2 4 15q0 1 1 7.5t2 8.5l6 12l4 8q1 1 3 6
q1 3 2 4l4 10q0 1 14 17q13 13 25 21q10 6 21 9q3 0 11 1t11 2q13 2 16 4zM560 701q8 4 13 4t11 -6q7 -7 7 -10q0 -1 -6 -15l-9 -22l-5 -15q-1 -1 -2.5 -4t-2.5 -4q-2 -2 -3 -6q0 -3 -5 -15q-4 -11 -8 -15q0 -1 -2 -3q-4 -7 -5 -10q-4 -10 -7 -13q-2 -2 -2 -6t-3 -7
q-3 -6 -4 -9q-3 -6 -7 -16q-2 -3 -4 -7l-2 -4l-2 -3.5t-5.5 -10.5t-6.5 -12q-5 -10 -15 -34q-1 -3 -8 -17q-2 -3 -10 -16q-1 -3 -3 -7.5l-2 -4.5q-1 -1 -5 -9q-5 -8 -5 -9l-1.5 -3.5t-2.5 -5.5q-3 -9 -3 -13q-2 -8 -6 -12q-2 -3 -7 -13q-2 -7 -8 -15q-6 -7 -9 -16
q-2 -4 -6 -15q0 -3 -3 -9q0 -1 -8 -11q-6 -8 -6 -11q-4 -8 -5 -9q-7 -10 -7 -11l-5 -10q0 -1 -1 -2q-4 -6 -5 -10q-5 -7 -7 -15q-2 -9 -5 -16q-2 -8 -7 -13l-7 -10q-3 -9 -4 -15q-1 -3 -2.5 -8t-1.5 -6q-1 -1 -2.5 -3l-1.5 -2q-3 -3 -8 -16q-7 -14 -9 -16q0 -1 -1.5 -4
t-1.5 -4q-2 -5 -7 -10l-4 -8t-5 -9q-3 -12 -9 -23q-6 -12 -7 -13t-3 -7q-3 -5 -4 -5q-2 -2 -2 -6q-4 -8 -6 -10q-8 -10 -9 -13q-4 -7 -9 -9q-3 -3 -9 -3t-12 3q-8 2 -10 8q-3 7 -1 12q0 6 4 12q3 4 5 11q0 4 8 14q5 7 18 32q13 26 15 31l6 15q1 1 3.5 6.5t4.5 8.5q2 5 6 13
q2 2 4 6q2 2 4 8q0 3 6 11q4 5 6 14q3 9 4 10q2 4 2 5q0 3 3 9l5 7q1 1 3 6q1 1 3 5t4 6q4 8 6 14q1 4 6 14l5 8q0 2 2 4q2 1 4 9q0 1 12 27l10 22q0 1 6 9t8 13l3 9q0 2 8 18q9 18 12 21q1 1 3 5l3 6q1 1 4 9q3 9 4 14q4 9 9 18q9 18 10 21q3 7 8 15q3 3 6 9q2 4 2 8
q0 6 1 8t7 10q4 4 12 22q6 16 8 20l6 12q5 7 5 9l5 7q6 6 11 18q7 16 11 30q6 17 11 22q5 7 6 11q2 7 6 11q3 5 12 10z" />
    <glyph glyph-name="uni0026" unicode="&#x26;" horiz-adv-x="673" 
d="M235 313q-3 1 -9 1q-4 0 -11 -3q-1 0 -5.5 -1.5t-5.5 -1.5l-2 -1.5t-3 -2.5q-2 -1 -8 -9q-3 -5 -18 -22q-12 -12 -14 -19t-6 -13q-4 -8 -4 -13q0 -6 -3 -14q-2 -7 -2 -12q0 -3 1.5 -13t1.5 -12q1 -13 6 -23l5 -8q2 -5 5 -11q5 -10 11 -18q2 -2 6.5 -7t5.5 -6q4 -3 13 -9
q2 -1 6 -3.5t5 -2.5q7 -5 12 -6q7 0 15 -4q8 -2 14 -4t11 1q6 2 12 2q8 0 12 -2q4 -3 12 -3q2 0 7.5 1.5t6.5 1.5q8 3 14 9t12 7t21 9l25 11q10 5 16 9q5 7 6 11t1 6t-2 4q-2 4 -7 6q-4 2 -13 11l-8 10q0 2 -7 11l-8 10q-8 6 -16 14q-13 11 -23 19q-7 4 -14 15q-8 12 -15 16
q-8 6 -13 14q-6 7 -13 13q-6 4 -9 7q0 1 -2 3.5t-3 4.5q-2 4 -7 10q-5 5 -12 7zM293 612q-12 2 -25 2q-12 0 -25 -3q-12 -4 -13 -4q-2 0 -8 -4q-4 -2 -10 -8q-5 -5 -6 -9q0 -2 -0.5 -5t-0.5 -4q0 -4 -4 -14q-3 -9 -2 -24q2 -16 3 -18l3 -5t5 -8.5t5 -9t3 -6t3.5 -5.5t5.5 -9
q2 -3 5.5 -7.5l3.5 -4.5q0 -1 10 -8q7 -4 10 -7q0 -1 8 -7q7 -6 12 -6q3 0 9 4q4 3 7 3q3 2 6 5q4 3 9 12q4 9 12 13q6 4 11 12q5 10 6 11l4 7t6 12q8 14 9 25q0 8 -5 24q-7 19 -8 20q-2 5 -6 9t-8 6l-6 3t-5 3q-6 3 -10 3t-14 2zM254 689q2 1 9.5 1.5t10.5 0.5q14 0 27 -4
q16 -4 22 -4q8 0 14 -3q7 -3 24 -4q16 0 21 -3l6 -4q0 -1 5 -4q1 -1 4 -2t5 -2t14 -11q9 -7 15 -15q6 -9 14 -16l9 -10q0 -1 2 -7q3 -5 3 -9l1 -5t2 -8l6 -18q1 -2 2 -8.5t1 -8.5q0 -11 -3 -16q-3 -9 -4 -14q0 -6 -5 -14q-6 -6 -6 -11l-1.5 -4t-2.5 -6l-4 -12q-2 -6 -23 -28
l-14.5 -14.5t-9.5 -8t-10 -5.5q-11 -6 -20 -13q-8 -7 -12 -9q-6 -3 -9 -6q-3 -1 -5 -8q-1 -3 -1 -8q2 -4 8 -13q6 -10 15 -17l9 -7l6 -4q1 -1 3.5 -3t3.5 -3q3 -3 8 -11q7 -10 16 -17q2 -3 5 -6t6 -5.5t4 -3.5l23 -24q18 -19 24 -20q8 -2 12 -2q7 0 10 3q4 4 6 8t4 14
q2 12 5 18q2 5 5 15q0 6 3 15q2 5 -1 13q-2 7 0 12q3 8 3 37q1 34 3 37q3 6 7 7q4 3 17 3q10 0 16 2q3 1 13 1q7 0 15 -2q3 -1 19 -3q10 -1 19 -5q8 -5 10 -10q4 -7 4 -18t-4 -16q-3 -5 -3 -24q-1 -17 -4 -24q0 -1 -1.5 -5t-1.5 -6q0 -4 -2 -10q-3 -9 -3 -12q0 -1 -1 -5
l-2 -8t-1 -7q-2 -13 -5 -17q-3 -6 -3 -12q-1 -9 -8 -17q-8 -8 -9 -15q-2 -6 -8 -14q-8 -8 -13 -21q-2 -4 -4 -10.5t-2 -7.5q0 -3 2 -11q4 -8 25 -29q12 -12 28 -32q8 -11 18 -18q2 -2 6 -5.5t7 -6t5 -3.5q1 -2 4.5 -6t4.5 -5q3 -6 3 -8q0 -4 -5 -9q-6 -6 -12 -9t-12 -3
q-2 0 -5 0.5t-4 0.5q-2 2 -11 4q-8 2 -20 2q-20 0 -29 -1q-16 -1 -26 2q-5 2 -13 6l-6 6q-2 1 -7 9q-3 6 -13 16q-11 11 -14 12q-4 3 -11 5q-6 1 -14 -4q-8 -6 -13 -11q-7 -5 -12 -7q-1 0 -5.5 -2t-6.5 -3q-9 -6 -13 -8q-5 -4 -12 -7q-3 -1 -10 -4q-3 -1 -5 -2l-9 -4
q-5 0 -26 -8q-22 -7 -31 -9q-8 -2 -23 -2q-14 0 -20 -2q-5 -2 -24 -2q-19 2 -24 4t-33 3q-26 1 -33 3q-2 1 -6.5 3.5t-5.5 3.5q-7 5 -12 7q-5 3 -12 5q-2 1 -6 2.5t-5 1.5q-7 2 -11 5q-1 1 -4 2.5t-3.5 2t-3 2t-3.5 2.5q-4 2 -10 8q-5 5 -25 27q-20 20 -26 33q-6 14 -6 24
q0 9 -5 18q-4 9 -4 34q0 8 0.5 21.5t0.5 16.5q3 19 3 20q2 8 9 22q2 3 5.5 11t4.5 10q1 5 17 21q16 17 19 24q4 9 23 27q18 18 27 22q10 4 13 7q2 1 6 6l2 2q2 4 1 9q0 1 -3 10q-4 8 -8 12q-6 7 -13 13q-7 3 -11 10l-4 7q0 2 -2 4q-1 1 -4 5.5t-5 6.5q-1 2 -4 7t-4 6
q-1 2 -6 14q-4 11 -6 19q-3 7 -3 27q0 17 5 31q6 16 8 19q3 5 5 14q1 6 3 10t14 16q18 18 20 19q6 3 15 9q7 4 17 9q2 1 10 2q3 1 5 1q8 1 19 6q8 5 21 6q7 0 19 3t15 3z" />
    <glyph glyph-name="uni0027" unicode="'" horiz-adv-x="291" 
d="M149 718q16 1 29 1h10q19 0 25 -2t9 -6q4 -4 4 -8q0 -1 -2 -6.5t-3 -7.5q-6 -11 -8 -17q-4 -8 -4 -12l-1.5 -4t-2.5 -6l-2 -4t-2 -3q-1 0 -3 -8t-7 -15q-5 -5 -5 -8t-5 -8q-6 -8 -9 -14q-4 -8 -4 -9t-2 -3l-1.5 -4t-2.5 -6q-1 -3 -3 -12q-1 -3 -1 -4q-1 -2 -3.5 -8
t-3.5 -8q-7 -12 -16 -21q-12 -13 -18 -14h-5q-4 0 -17 1q-15 2 -22 5q-6 2 -8 6q-2 2 -2 7v5q0 10 2 12q1 1 3 8q2 9 7 17q1 2 6 17q0 5 4 15q3 12 3 14q0 4 2 14q3 6 3 14q0 5 5 17q4 10 9 25q3 14 6 19l2 6l4 6q3 3 7 5q2 2 23 4z" />
    <glyph glyph-name="uni0028" unicode="(" horiz-adv-x="278" 
d="M165 782q6 2 14 2h8q16 -1 22 -4q9 -6 11 -8q4 -6 4 -8q0 -5 -5 -18q-3 -14 -7 -22q-1 -2 -4 -13q0 -7 -4 -19q-5 -15 -5 -23q-1 -7 -6 -24l-3 -9t-3 -7q-2 -4 -5 -7l-3 -12q0 -4 -3 -16q0 -3 -2 -9.5t-3 -8.5q-3 -9 -3 -24q0 -4 -0.5 -11t-0.5 -9q0 -1 -1.5 -6.5
t-2.5 -8.5q-3 -9 -1 -19q3 -10 0 -18l-4 -12q-3 -4 -3 -21v-39q0 -7 0.5 -18t0.5 -12q2 -8 0 -17q0 -1 -0.5 -18t-0.5 -29q1 -40 3 -42q2 -5 4 -13q2 -12 2 -22q2 -12 2 -13q2 -2 4 -10q3 -12 3 -15q0 -5 6 -17q5 -9 5 -21t2 -20q2 -3 4 -23q2 -15 3 -19q1 -1 6 -11
q0 -1 2.5 -7.5t3.5 -9.5l4 -20q2 -8 4 -10l5 -10q1 -2 2.5 -7t2.5 -6q3 -9 4 -14q1 -4 1 -13q0 -6 -5 -11q-5 -6 -21 -7q-10 -1 -30 -1q-14 1 -18 4q-5 2 -8 9q-3 6 -7 12q-4 4 -4 10q-1 1 -2 5t-1 6q0 1 -1 4t-1 4q-2 2 -4 8q0 2 -2 7.5t-3 8.5q-3 9 -9 29q-12 33 -13 36
q-3 9 -6 27q-2 13 -4 15q-4 4 -7 12q-4 8 -4 21q0 15 -3 22t-5 16q-1 4 -1 22q0 14 -3 23q-4 10 -5 18q-2 8 -6 18q-3 9 -3 15q0 3 2 13q2 8 2 24q1 15 -2 21q-2 6 -2 7q0 4 3 10q3 9 3 25q0 19 2 22q3 9 3 20q2 16 3 19q2 3 4 23q0 12 3 27q2 8 2 15q0 8 3 11q2 4 2 15
q1 11 5 20q5 9 7 16q1 5 6 12t5 14q1 4 4 13q3 5 3 13q-2 8 2 14l4 12q0 4 2 6q1 1 3 7q3 9 6 13q4 12 4 20q2 13 5 20q2 8 12 16t17 10z" />
    <glyph glyph-name="uni0029" unicode=")" horiz-adv-x="267" 
d="M73 762q1 1 5.5 1t10.5 -1q14 0 20 -2q5 -1 16 -12q11 -13 12 -15q3 -6 3 -11q3 -14 6 -18q7 -13 8 -19q3 -6 3 -14t5 -21l9 -23l7 -18q3 -15 3 -18q1 -8 6 -19q6 -11 6 -17q0 -5 4 -19q3 -10 6 -17q1 -2 1 -15q-1 -12 2 -21q4 -10 5 -30q0 -6 0.5 -19t0.5 -17
q0 -14 2 -30t3 -16v-18v-29q0 -5 -3 -23q-3 -15 -3 -19l-3 -18q-3 -9 -3 -31q-1 -24 -4 -30q-3 -5 -5 -10q-3 -6 -3 -19q-1 -10 -4 -21q-3 -8 -6 -13q-3 -7 -6 -23q-1 -5 -7 -31q-7 -20 -8 -22q-4 -8 -4 -16q-2 -12 -3 -13q-3 -6 -5 -8q0 -2 -1.5 -6t-2.5 -5q0 -5 -6 -17
q-7 -17 -7 -18q-1 -7 -6 -16q-4 -8 -12 -12q-7 -4 -11 -4h-4q-12 0 -17 1q-10 2 -16 2q-2 0 -6 0.5t-5 0.5q-4 0 -5 4q-3 5 -3 12t2 9l1 4q1 3 2 5q3 10 4 11q2 4 2 10q3 8 4 16q4 12 6 15q3 6 4 9q3 3 3 14q0 10 6 21q2 5 5 15q1 3 1 4q3 11 4 13q3 5 3 18q2 16 4 21
q2 8 2 11q0 1 1.5 5.5t1.5 5.5q3 6 3 24q0 17 3 23q1 3 3 23q2 19 4 22q2 10 2 32q0 24 -3 34q-3 12 -3 15q0 9 3 13q3 12 3 16q2 10 2 14q0 2 -2 25q-2 24 -3 27t-3 24q-1 19 -3 24q-2 4 -4 22q-2 20 -2 21l-5 15q-1 3 -3 10.5t-3 10.5q0 1 -1.5 8t-1.5 9q-3 9 -7 17
q-5 9 -5 26q-2 16 -3 20q-3 5 -3 15q-1 11 -9 26q-9 18 -9 24q0 8 -2 16q-3 12 -3 14q-1 5 3 9t12 5z" />
    <glyph glyph-name="uni002A" unicode="*" horiz-adv-x="509" 
d="M317 724h7q9 -3 15 -6q12 -8 13 -8q2 -3 4 -3t8 -6q6 -5 6 -10q0 -4 -4 -14q-7 -12 -22 -26q-16 -16 -24 -26l-12 -16q-6 -6 -8 -12q-3 -6 -3 -10t3 -7q4 -3 21 -4q6 0 15 0.5t10 0.5l15 3q2 0 8.5 2.5t10.5 3.5q12 4 19 4q5 1 17 -1q13 -3 15 -4q3 -1 8 -6q2 -4 2 -8
q0 -1 -3 -10q-3 -7 -3 -19q0 -11 -3 -17q-3 -5 -12 -4q-14 0 -35 3q-28 2 -36 2q-11 0 -16 3q-6 2 -12 2q-7 0 -11 -4q-3 -5 -3 -10q0 -8 4 -15q4 -10 9 -15l6 -8q0 -2 10 -12q10 -12 15 -17q6 -6 10 -12q1 -2 3.5 -5.5t2.5 -4.5q3 -3 3 -9t-4 -10l-11 -11q-6 -5 -17 -9
q-12 -4 -16 -4q-6 0 -10 2q-5 2 -7 6q-1 1 -3 11q-3 11 -4 12q-2 4 -5 7l-5 10q-4 6 -4 12q-3 9 -5 13q-2 2 -4.5 8t-2.5 7q-2 7 -6 11q-5 5 -14 6q-8 3 -12 1q-3 -1 -5 -6q-2 -2 -4 -11q-3 -10 -9 -23q-8 -16 -8 -19q0 -1 -1 -3.5t-2 -3.5l-5 -10l-4 -12q-2 -4 -7 -9
q-4 -4 -9 -6q-6 -2 -15 1q-8 2 -13 4l-9 6q-7 7 -8 9q-3 3 -3 9q0 5 3 13q6 10 12 15q2 2 14 17q6 10 10 14l8 12l10 14q5 5 7 12v11q-2 4 -4 6q-3 2 -27 1q-25 -2 -27 -3t-17 -3t-17 -3q-3 -2 -14 -4q-5 -1 -14 -1l-8 4q-5 5 -8 12q-5 10 -5 22t3 19q4 9 8 11q4 5 10 5
q5 0 13 2q7 1 11 0l8 -4q2 0 6 -0.5t5 -0.5q7 0 19 -5q14 -6 20 -5q4 1 17 1q10 0 14 2q4 1 6 5q1 2 1 9q0 8 -1 10l-6 9q-4 4 -14 12q-8 5 -13 17q-4 11 -10 16q-6 4 -10 8q-4 6 -7 15q-3 12 -1 14q1 4 5 6q3 2 7 4q1 1 4 3l2 2q4 3 7 5q6 4 10 6q1 0 4 0.5t4 0.5
q4 0 10 -2q7 -2 9 -6q4 -4 6 -10q1 -2 4 -15q1 -11 7 -21q4 -6 10 -21q2 -5 8 -17q6 -9 10 -11q3 -3 9 -3t9 3q5 4 8 14q4 7 6 24q1 13 7 22q7 12 10 19q6 10 8 12q3 1 3 4q0 2 3 5q1 1 3.5 2.5t3.5 1.5z" />
    <glyph glyph-name="uni002B" unicode="+" horiz-adv-x="533" 
d="M248 498q2 1 27 1q23 0 30 -6q9 -7 10 -10q2 -4 2 -24q0 -19 3 -29q2 -11 -1 -21q-3 -9 -3 -45v-18.5t0.5 -15.5t0.5 -7q2 -7 8 -11q6 -6 27 -6q19 0 28 3t24 2q14 0 29 -5q13 -5 20 -4q1 0 7 2l9 3q8 2 18 0q5 -1 14 -4q4 -2 6 -7q3 -3 3 -7q0 -5 -3 -12q-4 -9 -2 -12
l1 -9v-15q0 -21 -5 -28q-7 -7 -9 -8q-4 -2 -18 -2t-22 -3q-7 -2 -15 0q-4 1 -41 3q-32 0 -38 2q-4 2 -11 2t-11 -2q-6 -4 -8 -5q-4 -2 -8 -5t-4 -58q0 -57 2 -64q3 -10 1 -14q0 -1 -3 -17q-1 -13 -4 -17l-7 -7q-5 -3 -38 -4h-19q-13 0 -19 1q-4 1 -9 6q-4 6 -5 8q-2 5 -4 11
q0 5 -3 8l-0.5 3.5t-0.5 5.5q0 11 3 18q1 5 4 17q2 7 0 16q-2 10 -2 12q0 4 3 12q2 7 2 18q-2 10 -2 18q0 9 -2 13q-1 2 -1 8q0 4 -4 8q-3 3 -20 4q-16 2 -40 2q-43 0 -65 -1q-42 0 -47 3q-3 1 -9 7q-3 5 -3 42q0 38 3 42q1 3 10 10q10 5 16 5q6 1 14 -2q8 -4 16 -3
q5 0 14 3q6 3 9 3l9 -3q3 -2 40 -3h19q17 0 23 1t11 5q4 4 4 16q0 11 -2 17q-1 3 -1 8q0 1 1.5 5.5t1.5 6.5q2 8 1 26q0 16 -2 24q-2 6 -1 25q2 22 2 33q0 13 3 18t7 5q5 3 13 1q11 0 13 1z" />
    <glyph glyph-name="uni002C" unicode="," horiz-adv-x="202" 
d="M121 115q10 2 16 2q5 0 17 -3q1 0 6.5 -1.5t7.5 -1.5q5 -2 10 -5q4 -4 4 -9q0 -6 -3 -12q-1 -1 -3 -5.5t-3 -6.5l-5 -10q-2 -2 -4 -6q-4 -4 -7 -15q-4 -12 -4 -14t-8 -12q-7 -9 -9 -17q-4 -10 -5 -13q-4 -4 -6 -11q-3 -5 -5 -12q-3 -8 -8 -12q-2 -2 -5 -6.5t-4 -5.5
q-1 -2 -2 -5.5t-1 -5.5q0 -1 -3 -10q-3 -5 -6 -7l-3 -3l-3 -2q-5 -2 -14 -4q-6 -1 -28 -1q-17 0 -20 3q-3 4 -3 18t4 23q4 11 7 15q2 8 7 18q1 3 3.5 10t2.5 9q3 15 4 18q2 8 6 19l3 9t2 7q1 2 2 6t1 5q0 4 2 14q3 6 3 11q0 1 3 10q4 8 8 11q2 3 8 6h16q12 -1 19 2z" />
    <glyph glyph-name="uni002D" unicode="-" horiz-adv-x="297" 
d="M59 314h10q8 -2 11 -3t19 -1q3 0 10 0.5t9 1.5q6 2 66 2t65 -3q6 -4 9 -7q3 -4 3 -37q-1 -33 -3 -36q-5 -5 -7 -6q-3 -3 -42 -3q-37 0 -44 -3q-6 -2 -9 -2q-6 0 -12 3q-7 2 -15 2q-5 0 -27 -1h-39l-9 3q-3 1 -7 10q-3 6 -3 10t-3 13q-1 7 -1 9t1 6q1 2 4 15v13q0 4 5 9
q8 5 9 5z" />
    <glyph glyph-name="uni002E" unicode="." horiz-adv-x="245" 
d="M83 115q2 2 11 2q4 -1 34 -3q26 -1 32 -5t9 -7q3 -4 4 -19q0 -15 2 -21t2 -17q1 -5 1 -8q0 -5 -3 -10q-2 -7 -6 -9q-2 -4 -9 -6q-6 -3 -23 -3q-15 0 -21 -3q-8 -2 -10 -3q-8 0 -11 1q-9 2 -15 7q-8 6 -10 8q-4 4 -4 8q-1 1 -1 5.5t1 8.5q3 15 3 34q1 24 4 29q2 4 4 6l3 2
z" />
    <glyph glyph-name="uni002F" unicode="/" horiz-adv-x="363" 
d="M287 664q6 2 14 2t20 -6q10 -5 15 -10q3 -3 3 -8q0 -6 -4 -13q-4 -10 -4 -12t-4 -8q-4 -7 -5 -17t-8 -24q-7 -10 -9 -19q-1 -4 -4 -13l-4 -6q-1 -2 -3 -9q-2 -8 -3 -9t-3 -11q-1 -2 -7 -17q-4 -6 -6 -15q0 -4 -5 -19q-2 -3 -5 -8t-3 -6q-4 -4 -4 -10l-2 -7.5t-4 -12.5
q-5 -13 -5 -19q0 -5 -7 -17q-1 -3 -4 -9.5t-4 -7.5q-3 -3 -3 -7t-5 -11q-1 -1 -9 -20q-3 -12 -3 -16q0 -2 -2 -6q-2 -2 -4 -6q0 -1 -3 -10q-4 -8 -4 -14q-3 -12 -6 -17q-5 -10 -5 -12q0 -4 -5 -12q-1 -3 -4 -10t-4 -9q-1 -6 -7 -15q-3 -4 -5 -13q0 -5 -3 -14q-3 -5 -3 -10
t-3 -11q-1 -5 -8 -14q-6 -9 -6 -18l-2 -10q0 -1 -4 -9q-4 -6 -6 -14q-2 -6 -6 -13q-3 -5 -5 -14q0 -3 -3 -15l-3 -6t-2 -5q-3 -3 -3 -5t-4 -6q-5 -5 -13 -7q-7 -2 -19 -2h-13q-25 1 -29 4q-3 3 -4 15v7q0 4 1 10q3 3 7 18q5 12 5 17t5 15q6 12 7 13q2 4 5 13q2 8 4 13
q2 2 6 10q6 8 6 13q2 6 4 11q3 9 3 12q2 9 7 20q6 14 7 15l5 10q1 5 6 17q2 10 4 18q2 10 4 14l8 16q5 10 5 12q0 1 4 9q4 7 7 19q0 3 1.5 8t1.5 6q0 2 5 9q4 6 6 14q3 11 7 18q5 10 7 12l1 4q1 4 2 7t2.5 9t1.5 7q1 2 8 17q6 10 6 17q3 10 6 16q1 2 3 8.5t3 8.5q2 9 5 16
q2 9 7 17q3 6 11 26q7 21 7 25q0 5 2 11q3 6 5 8q3 3 3 6t5 13q6 12 9 21q4 10 8 18q4 9 8 12q2 1 5 2l2 1q1 0 3 0.5t3 0.5q6 3 9 3z" />
    <glyph glyph-name="uni0030" unicode="0" horiz-adv-x="569" 
d="M321 629q-5 4 -29 5h-18l-11 -1q-7 -2 -11 -5l-15 -9q-5 -4 -12 -11q-3 -3 -7 -9q-2 -6 -6 -14q-1 -5 -5 -13q-4 -6 -4 -16q-2 -12 -5 -21q0 -3 -4 -17l-3 -15q-2 -10 -2 -24q0 -15 -2 -21q-1 -2 -3 -28q0 -28 1 -33t-1 -17q-3 -13 -5 -19q-1 -6 -1 -10t1 -14
q0 -12 5 -27q3 -11 5 -13l1 -3q1 -4 2 -6q3 -6 1 -14q-2 -3 -4 -20q-1 -15 2 -22q4 -8 4 -26q1 -19 5 -27q5 -9 7 -18q2 -8 6 -16q4 -9 10 -13q2 -1 5.5 -4.5t5.5 -4.5q4 -2 8 -6q1 -3 8 -5l12 -6l6 -3q5 -3 6 -4q4 -1 18 -3q8 -1 11 -1t8 2l21 11q14 8 18 13q1 2 6 7l4 6
q6 6 8 10q3 6 6 15q4 14 4 17q0 2 4 12l6 12q3 5 3 17q2 16 3 19q3 6 2 24q0 20 3 27q4 8 4 27q1 12 1 44q0 5 -0.5 18.5t-1.5 17.5q-2 17 -5 25q-4 8 -4 16q0 5 2 19t2 31q0 16 -2 22q-1 1 -3 4.5t-3 4.5q0 1 -2 6t-3 7q-4 8 -4 22q-2 16 -3 18l-3 6q-3 6 -5 11
q-7 12 -11 15l-13 13q-4 3 -13 9q-4 1 -11 6zM251 737q4 1 16 1t25 -1q28 0 36 -2q2 -2 12 -4q9 0 19 -5q12 -6 22 -6q12 -1 17 -6q6 -4 11 -9q6 -3 12 -7t12 -10q10 -8 11 -8q4 -2 7 -5l6 -9q1 -2 2.5 -6t1.5 -5q2 -5 8 -9t12 -12q7 -9 8 -16l6 -12q0 -1 1.5 -2.5t1.5 -2.5
l7 -11q7 -11 7 -24q1 -13 6 -25q6 -11 6 -23l3 -18q2 -2 4 -12q3 -9 3 -11q3 -6 3 -27q2 -24 2 -36q0 -14 -2 -18q-1 -3 -1 -52q0 -43 -2 -55q-2 -4 -4 -28q0 -20 -2 -22q-1 -1 -3 -12q-1 -3 -2 -8t-2 -6t-3 -13q0 -7 -5 -17q-3 -7 -5 -16q0 -7 -7 -19l-8 -14l-1 -4t-2 -7
l-4 -16q-2 -6 -7 -13q-4 -7 -10 -12q-8 -8 -8 -10q-2 -4 -4 -6q-2 -5 -5 -6q-2 -2 -8 -5q-2 -1 -8 -7q-2 -2 -4.5 -5t-3.5 -4q-6 -6 -18 -12q-16 -7 -21 -12q-7 -4 -13 -6q-6 -3 -16 -5l-6 -2l-4 -1q-2 -2 -9 -2q-11 -3 -13 -4q-3 -2 -8 -2q-3 0 -9 1h-11l-6 1l-6 -1h-12
q-7 -1 -10 -1q-6 0 -11 2q-6 3 -16 3q-8 0 -14 2q-8 4 -11 4q-7 2 -11 5q-6 4 -14 8q-10 4 -12 5q-2 0 -17 11q-14 12 -20 15q-9 7 -14 13q-6 8 -10 14q-4 8 -9 13q-5 7 -5 8q0 2 -7 16q-6 15 -11 24q-1 2 -4.5 10t-5.5 11q-6 13 -6 18q0 10 -3 16l-3 15q0 1 -1 5t-2 5
q-2 3 -2 12l-3 18q-3 9 -3 21q0 8 -6 18q-6 8 -6 18t3 19q3 8 1 19q-1 12 1 22q1 12 -1 20q-2 10 -2 14q0 3 2 13t5 16q2 6 0 13q-2 6 -2 9q0 4 3 10q1 4 3 18q0 10 2 20q3 12 3 18q0 10 4 22q6 14 8 16q3 6 5 8q2 6 2 11q0 8 3 17q2 11 5 15q1 4 6 11q4 6 4 8q1 2 5 12
q4 9 13 16q8 6 8 9q0 1 13 14q12 12 24 22q7 6 23 14q3 1 10 3t9 3q7 0 15 6q5 4 17 11q10 3 20 5z" />
    <glyph glyph-name="uni0031" unicode="1" horiz-adv-x="573" 
d="M297 723q5 2 18 2q12 -2 14 -3q1 0 5.5 -0.5t7.5 -0.5q8 0 16 2q8 3 27 3q20 0 24 -4l4 -6q0 -1 1 -4q2 -3 2 -4q3 -4 3 -12q0 -5 -2 -15q0 -2 -1.5 -7t-2.5 -7q-1 -7 1 -17q2 -12 2 -15q0 -1 -3 -14q-1 -9 0 -16q1 -2 2 -5l1 -2q2 0 2 -16q0 -14 -3 -24q-3 -9 -3 -14
l2 -4q1 -4 2 -6q2 -5 4 -13q2 -5 2 -8t-2 -9q-2 -10 -2 -20q0 -12 -3 -17q-1 -2 -2 -8t-1 -8q0 -11 2 -17q2 -9 0 -15q-2 -5 -1 -27q2 -24 2 -29v-17v-23q0 -3 0.5 -10.5t1.5 -9.5q1 -5 -2 -17q-4 -10 -1 -19q0 -2 1.5 -7.5t1.5 -6.5q1 -4 -1 -9q-3 -4 -3 -9q0 -4 2 -8
q3 -3 3 -15q0 -13 -4 -21q-3 -12 -1 -19q3 -10 0 -23q-1 -8 -1 -22q0 -11 3 -21q3 -15 2 -30q0 -26 1 -35q1 -10 1 -22q-3 -7 -13 -15q-9 -10 -17 -10h-9q-4 0 -14.5 1t-14.5 1q-16 2 -34 2q-21 2 -23 3q-6 3 -10 6q-7 5 -8 8q-2 4 -2 9q0 6 2 12q1 3 3 30q0 7 0.5 22
t0.5 19q0 22 -1 28q-1 5 -4 14q-1 3 1 13q3 9 3 53q0 45 -2 53q-3 9 -3 23t3 23q2 8 2 55q-1 52 -3 59q-2 11 0 19q2 6 2 32q0 8 0.5 21t0.5 15t3 31q0 19 -4 24t-11 5q-8 2 -13 0q-4 -1 -13 -8q-8 -7 -16 -10q-5 -1 -15 -6q-6 -3 -11 -10q-3 -7 -10 -11q-9 -6 -12 -7
l-12 -8q-7 -5 -11 -6q-2 -1 -16 -6q-15 -3 -18 -3q-8 0 -14 3q-4 5 -7 12q-1 5 -1 7t2 7t2 42q0 35 3 41q2 4 6 8q3 1 14 10q11 7 19 8q9 0 17 4q5 4 9 4l6 4l6 5q2 2 9 5l18 12l12 8l10 4l10 5q8 4 13 6q8 4 12 8q3 3 8 4l12 8q7 7 11 8z" />
    <glyph glyph-name="uni0032" unicode="2" horiz-adv-x="581" 
d="M231 739q4 1 16 1h16q29 0 33 -2t38 -2q35 -2 36 -3l3 -1t5 -1q2 -1 7 -3t6 -2q7 -3 21 -7q12 -3 19 -8q6 -4 7 -4l2 -1q0 -1 11 -6.5t15 -11.5q4 -4 12 -14l9 -10q0 -2 5 -9q3 -4 9 -16q3 -7 3 -10q0 -2 4 -8q5 -7 6 -7q2 -2 3 -5q4 -6 4 -11q1 -1 2 -5t1 -6q2 -5 2 -36
q0 -9 -0.5 -24.5t-0.5 -17.5q-1 -12 -3 -15q-2 -5 -7 -8q-2 -3 -7 -8q-3 -4 -4 -16q0 -12 -5 -18q-6 -9 -9 -14q-1 -2 -3.5 -5.5t-3.5 -4.5q-2 -2 -2 -4q0 -3 -11 -12q-11 -11 -13 -16q-1 -3 -12 -16q-8 -6 -19 -20q-4 -4 -12 -16q-5 -7 -14 -15l-11 -9q-2 0 -9 -9l-10 -8
q-4 -3 -8 -7q-7 -5 -12 -16q-2 -5 -8 -14q-2 -4 -10 -8q-9 -6 -13 -9q-3 -3 -12 -9q-1 -2 -5.5 -5.5t-5.5 -4.5q-7 -5 -8 -5q-4 -2 -7 -6q-6 -6 -6 -7q0 -2 -3 -4q-1 -1 -6 -4.5t-7 -5.5q-3 -2 -7 -4l-3 -2q-1 0 -3 -2q-2 -3 -11 -7q-10 -6 -15 -11q-3 -5 -10 -9
q-7 -2 -11 -5q-8 -4 -10 -6t-4 -8q-1 -2 -4 -15q-2 -9 1 -13q2 -5 7 -6q6 -2 47 -2q43 1 48 3q6 3 29 3q14 1 42 1h59h23q18 0 23 2q6 3 32 3t31 -3q3 -1 7 -5q2 -4 2 -11l3 -18q3 -10 3 -24q0 -11 -3 -22q-3 -10 -8 -15q-3 -4 -12 -6q-1 0 -7 -0.5t-9 -0.5t-12.5 1.5
t-10.5 1.5q-11 3 -20 2q-3 0 -9 -1.5t-8 -2.5q-9 -2 -25 -1q-18 2 -51 2q-36 0 -40 2q-6 2 -9 2t-7 -2q-6 -3 -32 -3t-32 -3q-6 -2 -15 -2q-11 0 -14 2q-8 3 -16 4h-21q-10 -1 -16 2q-8 2 -10 2t-10 -4q-6 -3 -13 -3q-5 0 -9 2t-17 2q-15 0 -18 -1q-1 0 -3 -1l-9 -3
q-4 -2 -6 -2q-3 0 -15 4q-13 4 -20 9q-5 4 -5 18q0 12 2 22q2 8 2 44t5 44q2 6 11 15q4 3 11 10t10 12q1 1 4 5.5t4 5.5q3 4 8 5l6 3q2 1 12 7q7 5 16 13q6 8 9 11q1 3 6 8q4 4 10 7q8 6 13 11q6 6 12 10t14 12q7 6 15 16q4 8 14 17l15 12l15 12q8 8 14 11q7 5 10 9
q4 4 8 10t18 20l21 21q4 5 13 12q4 2 10 8q1 3 7 13q7 11 15 18q12 12 13 15q2 4 2 10t3 10q1 2 3 5.5t3 5.5q2 4 2 17q0 11 3 19q3 6 3 23q0 15 -4 23l-9 15q-5 10 -7 12q-1 4 -6 11q-4 5 -12 8q-10 5 -11 6t-3.5 2.5t-3.5 1.5q-4 2 -14 2t-22 4q-13 4 -18 3q-3 -1 -19 -1
q-15 0 -28 -11t-17 -17q-3 -2 -6 -8q0 -1 -2 -5l-3 -6t-2.5 -7t-2.5 -6q0 -2 -1 -5t-2 -5q-3 -3 -3 -14q-1 -10 -5 -15q-3 -3 -13 -7l-15 -5q-6 -3 -17 -3q-12 2 -19 -2q-8 -2 -13 -2q-6 0 -16 4q-5 2 -14 5q-5 2 -11 -1q-6 -2 -12 -1q-4 1 -11 8q-6 6 -6 20q1 15 4 19
q2 4 4 6q1 0 5 6q4 8 6 13q3 9 5 17q0 7 2 9q2 1 5 12l6 12q1 1 7 9q5 8 9 10q1 1 4.5 4t5.5 5q2 1 5.5 4t4.5 4q5 3 11 4q10 2 18 9q10 7 21 8q11 2 18 6q10 5 17 6q8 0 14 2q2 2 9 4q7 0 10 3z" />
    <glyph glyph-name="uni0033" unicode="3" horiz-adv-x="572" 
d="M248 744q4 1 31 3q21 0 28 -3q3 -2 13 -2q13 0 17 1q6 1 20 -3q12 -3 27 -11q4 -1 9 -4t6 -3q2 -2 18 -9q14 -6 31 -23q5 -5 10 -11l6 -6q6 -6 12 -11q10 -10 14 -19q4 -10 6 -10q2 -1 3 -6q2 -2 4 -15q0 -9 2 -15q3 -5 3 -12q0 -1 1 -5t2 -5q3 -6 3 -23q0 -16 -3 -26
q-3 -6 -3 -14q0 -5 -5 -18q-5 -10 -11 -18q-4 -8 -11 -14l-6 -6l-4 -5q-4 -5 -19 -19q-17 -15 -19 -16q-1 0 -5.5 -1.5t-6.5 -2.5q-11 -2 -14 -1q-1 0 -4 0.5t-4 0.5q-4 0 -10 -4t-11 -9q-4 -8 -4 -10q0 -6 4 -10l8 -8q3 -3 9 -7q7 -4 13 -5q5 0 17 -4q9 -3 15 -6q4 -2 5 -2
l5 -5q6 -4 18 -16t14 -16q1 -1 2.5 -3.5t1.5 -3.5t9 -8q8 -5 10 -9q1 -1 3 -13q0 -7 3 -16q1 -2 3 -7t3 -7q4 -10 5 -28q0 -21 -1 -27q-1 -5 -6 -17l-8 -20q-1 -4 -3 -9l-2 -5l-4 -10q-1 -3 -3.5 -10t-3.5 -9q-6 -12 -14 -20q-4 -6 -18 -20q-12 -10 -18 -13q-7 -3 -15 -11
q-9 -7 -16 -11q-10 -6 -10 -7l-2 -1l-4 -2q-1 -1 -6 -2.5t-8 -2.5q-15 -3 -18 -3q-9 -2 -20 -7q-11 -4 -27 -5q-16 -2 -20 -4t-34 -2q-25 0 -33 2t-17 2q-10 0 -16 3q-5 3 -22 5q-17 3 -22 6q-4 3 -11 5l-13 5l-6 3t-5 2q-3 0 -13 8q-7 4 -16 13q-11 9 -15 10q-6 3 -11 8
q-3 6 -4 9q0 5 -6 11q-5 5 -9 11q-1 1 -8 18q-6 14 -6 24q0 2 -1 9.5t-2 10.5q-2 8 -2 15t7 15q8 7 21 8q5 1 15 1t20 -1q13 -1 43 -1q20 1 24 -2q4 -2 8 -6q4 -6 5 -8q0 -3 2 -11t5 -15q5 -7 5 -9l3 -8q3 -7 8 -11q9 -7 11 -10q6 -6 9 -8q2 -1 16 -10q10 -6 35 -7
q26 0 34 3q8 1 15 4q6 0 14 8q10 7 16 9q9 3 15 9q6 5 11 22l4 12t4 11q2 10 2 12q0 5 3 8q0 1 1 5t2 5q0 2 -2 12q-4 8 -4 20q0 14 -1 17q-2 6 -5 9t-8 13q-1 2 -7 12l-4 7q0 3 -5 6q-5 6 -13 7l-6 3t-5 2l-10 5q-7 3 -18 5t-13 3q-3 3 -23 3q-22 0 -30 -2q-11 -2 -17 0
t-8 6q-1 0 -6 8q-3 6 -3 23q-1 20 -4 28q-3 7 -3 17q0 7 1 8q2 0 6 9q1 1 4 5.5t4 5.5q4 4 6 5q6 2 12 2q7 0 8 -1q3 -2 10 -4q6 -3 14 -3q7 0 12 4q7 4 19 4q14 2 17 3q5 3 12 4q8 2 21 14q12 12 20 22q7 11 16 18q6 6 7 12t1 37q0 41 -2 45q-2 5 -3 5l-10 12
q-12 14 -14 17q-4 4 -11 6q-6 2 -11 4q-4 2 -5 3q-1 0 -4.5 2.5t-5.5 3.5q-7 4 -16 4h-20q-12 1 -16 -1q-6 -3 -9 -5q-2 -1 -5.5 -2.5t-4.5 -1.5q-9 -3 -19 -8q-12 -5 -17 -10t-8 -14q-8 -13 -10 -16q-4 -5 -6 -13q0 -5 -3 -11t-5 -8q-5 -5 -7 -6q-4 -2 -25 -2h-29h-36
q-29 0 -35 6q-6 7 -7 14q-2 7 0 15q2 6 8 15q6 12 8 19q1 2 4 8.5t4 8.5q6 6 7 10q3 6 11 14q12 14 13 16t5 7t5 6l8 7l10 6q8 6 18 10l20 8q12 4 14 5q4 0 16 6q11 5 34 6q19 0 31 2z" />
    <glyph glyph-name="uni0034" unicode="4" horiz-adv-x="578" 
d="M326 568q-8 4 -11 4q-4 0 -16 -12q-12 -14 -12 -15l-7 -7q-4 -6 -6 -10q-2 -6 -2 -11t-3 -10q-6 -9 -9 -14q-5 -9 -7 -9l-8 -16q-2 -5 -6 -12l-4 -7l-6 -9q-1 -1 -3 -3.5t-3 -3.5l-3 -3q-4 -2 -6 -4q-6 -3 -12 -9q-2 -2 -7 -12q-3 -6 -5 -14q-2 -7 -6 -11q-8 -8 -11 -12
q-6 -6 -14 -18q-9 -9 -9 -11q-2 -5 -5 -9q-1 -2 -11 -15q-6 -6 -8 -14q0 -2 -3 -11q-1 -4 -1 -5.5t1 -3.5q2 -4 9 -6q4 -3 14 -3l8 2q7 1 10 2q10 3 22 2q12 0 17 2q10 2 26 2q19 0 24 -3q5 -1 7 -4q0 -2 5 -2q4 0 8 2q5 1 12 0t20 0l15 4l7 7q5 7 5 13q1 5 -1 11
q-3 4 -3 15q0 13 -3 25q-3 21 -3 23q0 11 3 16q2 7 5 11t1 13l-4 16q-1 9 0 30q1 12 1 38q0 13 2 21q3 4 3 22t-1 20q0 4 -6 8zM425 742q1 1 5 1.5t5 0.5q6 0 11 -4l7 -10q3 -4 3 -19t2 -21q3 -7 1 -15q-2 -4 -4 -26q-2 -18 2 -26t3 -15q0 -3 -3 -18q-2 -7 -2 -16
q0 -7 1 -29q2 -40 2 -56q0 -21 -3 -29t-2 -15q2 -5 2 -82q0 -76 4 -80q3 -3 9 -5q1 0 5.5 -1.5t5.5 -1.5q6 -2 12 2t28 5q23 0 27 -2q4 -1 10 -9q4 -6 5 -43q0 -37 -5 -43q-5 -7 -9 -9q-5 -3 -14 -3q-11 0 -15 3q-3 1 -15 3q-10 0 -14 2q-3 3 -6 3t-11 -5q-11 -4 -12 -7
q-4 -2 -6 -11q-2 -5 -2 -13q0 -1 3 -14q0 -1 0.5 -12t0.5 -19q0 -19 2 -27q3 -6 3 -18q0 -14 -3 -22q-2 -10 -5 -13q-3 -5 -7 -7q-1 0 -5 -2l-6 -3q-8 -2 -17 -2q-8 0 -14 2q-4 3 -22 3q-20 0 -27 -2q-9 -2 -16 0q-10 7 -11 8q-4 3 -6 11l-3 12q-2 3 -2 10q0 5 2 13
q3 7 3 44q0 38 -2 46q-4 12 -4 15q-2 4 -5 7t-9 5q-3 1 -27 1q-22 -2 -23 -3q-2 -2 -10 -2q-3 0 -12 -3q-4 -3 -10 -3q-1 0 -6 1.5t-7 1.5q-11 3 -34 3h-35q-10 -2 -18 0q-2 1 -7 2t-7 1q-7 2 -15 0q-6 -3 -18 -3q-3 0 -9.5 -0.5t-9.5 -0.5h-14q-6 2 -8 4q-5 5 -6 7l-2 5
q-2 5 -4 9q-3 10 -3 19q0 8 2 14q3 5 2 15q0 11 -2 17t-2 16q0 12 3 17q6 10 11 15q6 6 12 21q7 15 14 23q6 5 16 20q2 4 6.5 10.5t5.5 8.5q6 9 9 12q3 6 6 9l6 10q0 1 10 17q11 11 15 16q8 8 9 14q0 6 7 13t10 9q3 1 7 10l4 8q0 3 3 9q1 2 4 6.5t4 6.5q5 5 7 11q2 4 10 13
q7 7 13 17q5 9 9 18q5 10 12 16q10 10 12 17q3 8 11 14q2 2 5.5 6t4.5 5l3 6l2 3q8 12 11 18q9 16 10 17q0 1 1.5 2.5t1.5 2.5q2 4 5 8l5 8q0 2 5 5q1 1 10 7q7 3 13 5q10 2 49 2z" />
    <glyph glyph-name="uni0035" unicode="5" horiz-adv-x="572" 
d="M97 742q4 0 10.5 0.5t8.5 0.5q11 -3 12 -4q5 -3 31 -4q30 0 43 2q15 3 28 3q9 1 15 -2q5 -2 57 -2h26q27 0 40 2q16 2 30 2q14 1 19 -1q2 -1 14 -3q12 -1 20 2l10 3l5 -2t8 -3q8 -4 15 -11q4 -4 4.5 -6.5t0.5 -15.5q0 -15 -2 -23q-2 -4 -2 -14q2 -9 -1 -13q-2 -5 -3 -5
l-2 -2q0 -4 -7 -6q-6 -4 -22 -3q-15 0 -23 2q-6 2 -14 -2q-7 -4 -12 -3q-7 0 -14 5q-12 4 -40 4q-17 1 -23 1q-11 0 -20 -3q-11 -3 -23 -3q-9 0 -19 2q-7 3 -37 3t-36 -4t-11 -9q-6 -9 -7 -12q-4 -6 -4 -20q-1 -8 -1 -35q0 -15 3 -27q2 -8 -1 -16q-5 -12 -5 -14
q-1 -2 -3 -16q0 -11 -2 -13q-1 -1 -3 -8q-2 -8 0 -12q1 -4 4 -10q4 -4 10 -7q8 -4 11 -4q4 0 16 7q10 4 21 13q8 9 16 13q7 5 21 6q7 1 18 1q3 -1 23 5q18 7 23 7q3 0 11 -2q12 -3 16 -3q12 -3 17 -5q10 -5 14 -5l5.5 -2.5t9.5 -4.5l8 -2.5t10 -3.5q6 0 12 -4q4 -4 8 -10
q7 -9 10 -10q5 -4 11 -5q7 -2 16 -11q10 -9 20 -27l4.5 -9t5 -9.5t2.5 -5.5q3 -12 3 -14q3 -8 4 -9q0 -1 2 -3.5t2 -3.5q2 -2 4 -16q0 -12 3 -17q3 -9 3 -15t3 -15q2 -6 2 -11q0 -4 -2 -12q-3 -9 -3 -24q-2 -20 -3 -22q-2 -4 -2 -15q-2 -12 -3 -14q-1 -1 -5 -11
q-1 -4 -4 -12q-1 -2 -1 -3q0 -5 -4 -13l-4 -8q0 -2 -5 -7q-4 -6 -4 -11q0 -1 -2 -5.5t-3 -6.5q-4 -9 -9 -12l-5 -5q-1 0 -8 -5l-8 -8q-2 -5 -6 -8q-1 -1 -5.5 -4.5t-6.5 -5.5q-3 -2 -8 -6t-6 -5q-3 -5 -6 -5q-3 -2 -5 -4q-6 -4 -12 -7q-4 -1 -10 -4q-1 0 -8 -3.5t-11 -6.5
q-13 -7 -17.5 -8t-21.5 -1q-24 -1 -27 -3q-4 -3 -9 -3q-6 0 -12 -3q-6 -1 -8 -1q-3 0 -9 2l-16 4q-8 3 -34 3t-39 6q-4 2 -12.5 6t-10.5 5t-7.5 4t-6.5 4q-6 4 -10 4q-7 2 -11 5q-3 2 -12 11q-5 7 -8 7q-2 0 -20 18q-17 17 -21 23q-5 8 -8 16q-2 9 -7 14q-6 9 -8 13
q-3 7 -3 14q0 5 2 11q1 2 9 10l5 5l4 2q4 2 14 2q7 0 17 -2q6 -3 14 0q8 2 13 2q7 0 13 -2q7 -2 13 0q8 2 9 2t11 -4t12 -8q3 -3 7 -9l3 -9q0 -4 3 -8q4 -6 8 -10q4 -2 10 -11q6 -8 7 -9q0 -2 6 -8q8 -8 12 -9q5 -3 11 -3q5 0 13 2q8 1 20 0q12 -2 20 0q10 2 19 4t18 5
q8 3 14 9q2 2 5.5 5t4.5 4q5 5 7 8q4 8 5 9l14 27q12 25 12 38q0 12 2 20q1 3 1 10q-1 2 3 13q4 9 2 16q-2 6 -3 7l-2 7q-3 6 -5 11q-6 16 -6 26q0 8 -2 14q0 1 -7 10q-6 6 -9 12q-4 6 -10 10q-6 3 -12 9q-5 6 -10 7q-3 2 -13 7q-7 4 -21 6q-4 0 -12 0.5t-11 0.5l-15 -3
q-2 -2 -12 -4q-7 0 -15 -5q-6 -5 -13 -7q-5 -2 -10 -7q-6 -6 -6 -8l-1 -3l-3 -3q-3 -6 -7 -10q-1 -2 -4 -7t-4 -7q-5 -8 -9 -11q-4 -2 -61 -2q-57 1 -61 3q-5 5 -6 7q-3 4 -3 21q-1 13 1 24q2 7 1 23q-2 18 -2 20q-1 3 1 12q0 2 3 17q3 12 3 75q1 66 4 73q2 7 2 22
q0 13 -2 17q-1 3 2 20q4 14 2 25l-3 18q-2 6 0 21q0 14 5 19q3 3 9 5q2 0 11 3q2 1 18 3z" />
    <glyph glyph-name="uni0036" unicode="6" horiz-adv-x="574" 
d="M316 376q-4 2 -7 2q-1 0 -3.5 -1t-4.5 -2q-4 -2 -13 -2q-7 0 -17 -2q-8 -2 -14 -4q-7 0 -15 -6q-12 -9 -17 -14q-8 -7 -11 -12q-3 -6 -5 -8q-5 -9 -5 -11l-8 -16q-4 -8 -8 -18q-3 -8 -3 -14q0 -3 2 -11q2 -7 1 -13q-3 -5 -1 -16q0 -9 2 -37q1 -26 6 -35q6 -12 6 -14
q1 -4 11 -14q2 -2 9.5 -8.5t10.5 -8.5q12 -8 22 -11q15 -5 18 -5q6 -2 14 -4q7 -2 11 -2h3q4 0 10 3q4 2 13 2t13 2q6 2 11 7q3 4 8 7q4 2 15 13q12 11 18 20q5 5 8 14l4 12q2 3 4 23l3 27q2 8 2 20v12q0 20 -6 34t-6 20q-2 8 -4 10q0 1 -2.5 4.5t-3.5 5.5q-4 8 -21 24
q-18 17 -23 18q-6 0 -6 2q-1 1 -10 3q-2 1 -6 2t-5 2zM272 736q10 5 49 5q35 0 45 -3q9 -3 20 -3q12 0 26 -7q16 -9 18 -11q3 -3 11 -5q5 0 15 -5q10 -6 12 -7q1 -3 6 -5l6 -3q4 -4 6 -7q5 -3 7 -7q1 -1 7 -13q7 -12 10 -19q6 -14 8 -18t10 -18q6 -9 6 -14q0 -7 -1 -9
q-3 -6 -6 -9l-8 -8q-6 -3 -55 -3q-50 0 -59 5q-7 4 -11 8l-5 10q-2 6 -4 14q0 5 -3 11q-2 2 -8 6q-3 1 -9 4l-6 3q-2 1 -8 5q-5 4 -20 4q-18 2 -20 3t-20 3q-14 0 -24 -7q-9 -6 -19 -10q-9 -3 -15 -7q-4 -2 -12 -10q-7 -7 -9 -14q-1 -2 -3 -9.5t-3 -10.5q0 -3 -2 -13t-3 -13
q-1 -10 -4 -23q-1 -5 -4 -14q-4 -8 -6 -13q-3 -8 -3 -37t3 -32q2 -5 12 -6q8 -2 20 4q3 2 8.5 4.5t6.5 2.5q2 2 10 8q10 7 11 8q4 2 7 2q2 1 20 9q15 8 34 9q11 1 29 1q17 0 27 -1q18 -1 23 -6q4 -2 22 -10q13 -4 27 -12l15 -12l12 -8q8 -4 17 -15q11 -11 14 -17q2 -5 7 -12
q4 -6 6 -10q3 -3 5 -15q6 -18 8 -22q6 -12 6 -13q2 -4 2 -16q0 -13 3 -23q0 -2 1.5 -7t1.5 -6q0 -7 3 -15l3 -18q0 -8 -2 -12q-1 -1 -4 -10q0 -6 -4 -14q-1 -2 -3.5 -10t-2.5 -9q-2 -12 -2 -19q0 -9 -4 -17l-6 -12q0 -3 -5 -10q-2 -2 -5.5 -7.5t-4.5 -6.5q-8 -14 -10 -18
q-6 -10 -9 -11q-2 -2 -16 -14q-10 -11 -21 -18l-10 -8l-6 -4l-5 -3q-1 0 -15 -7q-16 -9 -17 -11q-6 -4 -12 -7l-16 -4q-5 0 -14 -3q-6 -2 -17 -2t-22 -3q-6 -3 -11 -3q-2 0 -7 1q-2 0 -12 0.5t-16 0.5q-18 0 -32 2q-11 0 -23 5q-2 1 -26 10q-15 4 -20 9l-14 7q-12 6 -18 10
q-12 6 -17 13q-7 7 -13 16q-2 3 -6 8t-4 6q-6 10 -10 18q-8 13 -11 25q-2 7 -6 15q-1 1 -3 5q0 1 -3 7q-1 1 -3 7q0 8 -3 21q-2 17 -3 18q-3 5 -4 12t-6 14q-4 6 -4 9q-1 3 1 10q2 6 2 10q0 3 -2 7q-2 3 -3 49q0 51 1 59q2 14 4 23q2 10 2 13q0 1 -1.5 5.5t-1.5 6.5
q-3 8 0 15q3 8 3 22q0 15 4 22q3 8 3 12q-1 4 1 9q0 1 1 4.5t1 5.5q3 10 4 25q4 20 5 21l4 12q2 10 4 14q6 9 10 14q6 8 10 16q4 7 4 11q0 2 7 16q8 16 9 19q4 6 14 13q10 8 17 16q4 7 10 13q1 1 25 14q19 9 29 11q9 0 12 3q6 3 9 5q8 4 20 4q13 1 24 6z" />
    <glyph glyph-name="uni0037" unicode="7" horiz-adv-x="577" 
d="M58 724h15q13 0 18 -3q12 -3 16 -3q7 -1 18 2q9 3 38 3q27 0 39 -2q3 0 9.5 -1.5t8.5 -2.5q10 -1 19 0q5 1 14 4q6 2 13 2q8 0 16 -2q6 -1 12 1q3 1 17 1q11 0 23 -2q11 -3 46.5 -3t42.5 3q8 2 13 2q9 0 16 -3q11 -3 17 -2q4 0 13 3q8 2 19 2q12 0 18 -5q5 -5 8 -12
q3 -9 3 -46q0 -40 -1 -41l-6 -12q-4 -12 -4 -14q0 -5 -3 -9q-2 -6 -4 -16t-4 -15q-4 -6 -4 -8q0 -1 -1.5 -3t-2.5 -2q-1 -1 -6 -11q-4 -7 -4 -13q0 -4 -3 -7q-2 -5 -4 -14q-2 -10 -7 -19q-1 -2 -5.5 -12t-5.5 -13l-6 -18q0 -2 -5 -9t-5 -9q-3 -6 -6 -13q-6 -10 -6 -15
q0 -2 -2 -8q-4 -6 -5 -8q-4 -4 -7 -15q-1 -3 -9 -19q-5 -7 -5 -10q-2 -5 -4 -9q-4 -9 -6 -17q-1 -2 -3 -8.5t-3 -8.5q-1 -1 -4 -11q0 -4 -2 -8q0 -1 -5 -14l-9 -22q-5 -9 -9 -18q-4 -10 -4 -15q-2 -7 -3 -7l-1 -3l-2 -6l-4 -12q-3 -6 -4 -7q0 -1 -1 -2l-5 -10q-4 -8 -5 -8
q-3 -4 -5 -10q-1 -3 -4.5 -9.5t-5.5 -8.5q-5 -7 -7 -14q0 -1 -0.5 -6t-0.5 -7v-6l-1 -3q-2 0 -4 -9q-1 -7 -8 -18q-7 -12 -10 -15q-3 -6 -5 -16q-2 -8 -4 -13q-4 -4 -12 -7q-9 -4 -16 -4q-4 0 -16 1q-13 1 -16 1q-8 0 -16 -3q-14 -3 -34 -3q-23 0 -31 4q-9 4 -10 7
q-3 6 -3 9q-1 3 2 11q4 8 5 9q2 2 4 9q1 2 2.5 7t1.5 7q1 2 11 14q7 9 9 15q1 2 2 6.5t1 5.5q1 2 3 7.5t3 7.5q4 9 9 15l6 15q1 6 7 17q5 8 5 11q0 1 6 13t8 14q3 6 3 13q2 12 3 13t2 4.5t1 5.5q2 7 8 13q7 9 14 21q6 12 8 21q0 7 4 17q1 2 3 6.5t2 5.5l3 4q3 3 5 7
q5 7 9 18q4 12 4 14q0 3 5 13q3 11 8 15q3 6 3 9q1 5 3 7q2 4 3 8q2 10 6 13q4 5 7 14q4 8 4 15q1 6 4 11q3 3 5 7q3 3 6 11l9 21q3 6 7 18q0 1 1.5 6.5t2.5 8.5q3 8 9 14q5 5 12 17q7 14 10 18q5 7 5 11q0 3 -6 9q-4 4 -16 11q-7 3 -19 5q-12 0 -19 -3q-12 -3 -38 -3
q-28 0 -38 3q-8 3 -15 2q-2 -1 -5 -2l-2 -1q-2 -2 -24 -2q-20 0 -26 2q-5 3 -7 3t-6 -2q-5 -2 -15 -4h-10h-14h-16q-29 0 -33 -2l-12 -3q-5 0 -11 3q-2 1 -9 8q-7 14 -8 17q-3 13 -2 23q0 13 2 15q1 3 0 10q-3 6 -3 13q0 5 3 10q1 5 8 11q3 3 9 6z" />
    <glyph glyph-name="uni0038" unicode="8" horiz-adv-x="567" 
d="M315 323q-2 2 -26 3q-23 0 -33 -3q-10 -4 -12 -4q-1 0 -13 -4q-10 -4 -16 -8q-3 -2 -11 -10q-6 -6 -11 -16q-5 -6 -8 -15t-6 -12l-6 -12q-2 -8 -2 -41q0 -34 4 -45q6 -14 11 -19q2 -2 7 -9t6 -8q7 -11 12 -14q8 -8 12 -10q5 -5 13 -7q1 0 6 -1t7 -2q7 -3 39 -3q34 0 43 3
q11 4 18 9l11 11l3 4t5 5q1 1 4 3l2 2q3 0 12 11q8 8 11 14q0 1 0.5 5t0.5 7q0 11 3 15q2 10 2 31q0 27 -2 30q0 1 -3 14q-2 12 -5 18q-3 5 -10 15q-2 2 -7.5 6.5t-7.5 5.5q-5 3 -15 13q-4 7 -12 11q-3 2 -14 4q-3 0 -12 3zM297 643q-5 0 -12.5 0.5t-8.5 0.5h-4q-3 0 -9 -1
q-2 -1 -6.5 -3t-6.5 -3l-14 -7q-2 -1 -7 -3t-6 -2q-4 -1 -11 -8q-8 -6 -12 -10q-7 -5 -10 -14q-3 -5 -8 -22q-4 -12 -3 -25q2 -13 3 -14l2 -12q0 -2 3 -20q2 -13 7 -21q5 -10 16 -21q11 -9 18 -14q6 -3 13 -3q8 0 14 -3q3 -1 9.5 -3t7.5 -2q11 -3 27 -3q17 0 26 4q8 4 10 6
q2 1 16 9t16 10t8 10q6 10 10 14q5 5 7 11t2 14q1 8 4 16q4 8 4 12q1 4 -6 25q-8 24 -10 28q-3 6 -9 14t-7 8l-2 1q-6 5 -10 10q-10 10 -14 12q-9 3 -13 3q-13 3 -14 3q-3 1 -20 3zM324 738q2 1 8 1q7 0 12 -4q7 -5 17 -6q16 -3 20 -4q9 -2 14 -5q1 0 7 -2.5t9 -3.5l9 -3
t7 -2q2 -1 18 -13q4 -3 12 -8.5t10 -6.5q8 -4 11 -7q6 -4 8 -6q3 -3 5 -8q1 -1 4 -12q1 -8 8 -15l5 -7q0 -3 5 -10q1 -3 4 -8.5t4 -6.5q3 -6 7 -12q2 -5 2 -22q0 -15 2 -25q2 -9 -2 -14q-4 -6 -5 -15q0 -9 -2 -13q-2 -2 -4 -9q-4 -7 -8 -13q-8 -12 -10 -16q-4 -12 -8 -16
q-4 -6 -9 -8q-6 -4 -13 -11q-2 -1 -7.5 -5t-7.5 -5q-2 0 -7 -1.5t-7 -2.5q-10 -2 -14 -3q-3 -1 -13 -1q-8 0 -12 -3q-5 -1 -6 -8q-1 -2 -2 -5.5l-1 -3.5q-2 -2 -2 -6q0 -3 9 -11q3 -2 7.5 -5.5l4.5 -3.5q2 -1 12 -5q4 -2 13 -5q5 0 7 -2q1 -1 11 -5q9 -4 14 -12q6 -6 14 -12
t11 -9q4 -6 13 -13q9 -9 10 -11l5 -15l5 -20q0 -4 5 -19q2 -6 5 -21v-6v-6v-6q-2 -8 -2 -16q0 -9 -3 -17l-4 -12q-1 -4 -2 -6q-1 -3 -3 -10t-2 -9q-6 -15 -7 -17q-5 -10 -12 -17q-10 -12 -11 -13q-1 -2 -5 -8q-1 -1 -8 -6.5t-11 -9.5q-12 -8 -19 -15q-1 -2 -11 -10
q-2 -1 -6 -4t-5 -3q-2 -1 -10 -3q-9 -2 -16 -5l-6 -3t-5 -2q-6 -3 -11 -4q-6 -3 -15 -3l-15 -3q-6 -3 -12 -3t-15 -3t-17 -3q-5 0 -13 2q-3 2 -10 2q-1 0 -2 -1q-7 -3 -10 -5q-10 -4 -14 -4q-2 0 -10 2q-3 1 -9 4q0 1 -7 4q-4 2 -12 2q-9 0 -20 5q-14 6 -21 6q-16 3 -18 4
q-3 0 -8 1.5t-6 1.5q-3 1 -14 10q-6 7 -15 14q-6 3 -19 16q-12 12 -12 14q-4 5 -9 9q-9 7 -9 9t-3 5q-1 1 -11 19q-9 20 -13 31q-5 15 -7 25q-1 6 -1 17q0 14 1 22q1 4 2 11t1 8q1 2 3 16q0 7 3 16q1 3 6 13q3 8 12 17q2 3 5.5 6t3.5 4l4 6q1 1 3 5.5t3 5.5q4 8 14 18t20 16
q12 5 13 5q6 2 9 2t11 2l12 3q5 2 10 5q3 5 5 10q1 5 0 11q-2 6 -8 10q-3 3 -16 8q-5 1 -17 7q-4 3 -18 10q-10 4 -29 22l-20 20l-2 3.5t-3 5.5q-1 3 -6 16q-1 3 -3 9.5t-2 7.5q-3 11 -4 20q-3 19 -3 20q-2 7 -1 12q1 1 4 9q0 6 2 6l2 5t3 8t5 19q0 5 3 11t5 8t5 8
q1 1 4 4.5t4 4.5q2 2 9.5 14.5t10.5 15.5q5 7 7 7q0 1 3.5 3.5t5.5 4.5t8 6.5t9 5.5q6 5 11 7q1 0 5 1t6 1q9 2 11 4l2.5 2t3.5 3l9 3t14 6q9 4 24 5q18 2 20 3q7 3 45 4q38 0 42 2z" />
    <glyph glyph-name="uni0039" unicode="9" horiz-adv-x="573" 
d="M314 640q-1 1 -13 3q-14 0 -20 -2q-4 -1 -30 -3q-18 -1 -28 -5t-12 -6l-8 -10q-6 -8 -10 -14q-3 -6 -8 -11q-1 -2 -4 -6t-4 -5q-4 -7 -6 -13q-3 -12 -5 -17q-3 -9 -2 -27q0 -19 -2 -22t-2 -14q0 -10 3 -19t9 -17q8 -11 9 -15q2 -5 6 -13q1 -1 3 -4t2 -4q3 -3 5 -3
q1 0 4 -3l8 -8q9 -6 15 -8q5 -3 17 -6q12 -2 14 -3q3 -1 17 -1t16 1q1 1 14 3q12 2 13 3q2 1 10 4q1 0 15 7q2 2 7 5.5t6 4.5t3 4t3 4q1 4 8 15t8 15q3 5 5 15q2 11 3 12l2 14q0 6 3 27q1 11 1 15q0 5 -6 14q-4 7 -4 13q0 1 -1 8t-2 11q-4 18 -6 20q-2 6 -7 11q-8 8 -12 9
q-5 3 -14 7q-12 6 -14 8zM226 739q4 2 15 2q13 0 20 -3q12 -2 26 -2h25q9 2 16 0q9 0 18 -3q12 -4 16 -4q3 0 13 -2t13 -2t10 -5q6 -6 12 -9q9 -4 11 -9q4 -5 17 -15q7 -5 15 -13q1 -3 14 -16l18 -21q7 -9 8 -21q1 -10 5 -21q1 -3 4 -7l2 -4q1 -4 1 -6q0 -5 2 -11l8 -16
q8 -10 8 -19q0 -14 1 -21q2 -15 3 -17q2 -4 2 -31t3 -34q2 -6 2 -14q0 -7 -2 -13q-3 -4 -3 -24q-1 -18 2 -29q2 -9 0 -18q0 -2 -3 -23q0 -17 -2 -23q-3 -7 -3 -20t-3 -22q-1 -3 -3.5 -8.5t-2.5 -6.5l-3 -12q0 -8 -3 -12q-1 -3 -3 -17q0 -13 -3 -19t-5 -16q0 -8 -4 -14
q-1 -1 -3.5 -7t-3.5 -8l-10 -21q-5 -10 -13 -20q-9 -11 -13 -18q-5 -8 -11 -12l-7 -4q-3 0 -9 -6q-8 -6 -17 -9l-12 -6q-1 -2 -4 -5q-1 -1 -13 -7l-18 -9q-9 -5 -19 -5q-12 0 -20 -2t-19 -2t-20 -3q-6 -3 -11 -3q-4 0 -9 3q-9 3 -47 3q-41 0 -45 2q-1 1 -3.5 3t-3.5 3
q0 1 -8 3q-2 0 -14 5q-6 1 -19 9q-5 3 -17 9q-12 9 -16 13q-13 13 -17 18q-10 10 -13 18q-4 10 -4 11t-2 4.5t-3 6.5q-5 11 -6 19q0 4 -3 13q-2 3 -2 17q0 13 4 17q3 3 10 5q6 2 15 2h21q11 0 20 -5q8 -4 10 -4q4 0 8 3q6 4 8 5q4 2 14 2t19 -6q7 -5 13 -10q2 -1 7 -12
q2 -8 2 -9q0 -3 5 -8q1 -2 6 -11q0 -3 2 -5q0 -1 8 -7t16 -10q9 -3 35 -3t32 3t16 7l10 4q5 2 11 4l16 8q5 2 8 10q2 8 5 11q1 4 8 11q8 10 8 11q3 5 3 17q2 14 2 16q2 4 5 7q3 6 4 10q1 6 -2 13q-3 11 -2 25q0 12 3 24q2 6 2 28q0 21 -1 23q-2 4 -6 5q-6 2 -9 2
q-5 0 -10 -5q-6 -4 -7 -4q-5 -3 -9 -6q-2 -2 -5.5 -5t-4.5 -4q-2 -1 -6 -5q-1 -1 -7.5 -3.5t-9.5 -3.5q-12 -6 -27 -7q-17 -2 -20 -4q-5 -2 -11 -1q-6 3 -10 1q-2 0 -26 -2q-24 0 -25 1q-3 0 -9 4q-5 4 -14 6l-21 6l-14 7q-2 3 -7 4q-1 1 -6.5 3.5t-8.5 4.5q-8 3 -18 13
l-9 10q0 1 -4 7t-6 8l-5 5q-2 4 -7 9l-9 12q0 1 -3 6.5t-4 8.5l-6 12q-2 2 -2 9q-1 2 -2 8t-1 8q-3 8 -5 19q-1 3 -3 10t-3 9q-3 8 -3 34t3 34q6 18 8 22q4 12 6 23q0 8 4 18q4 6 10 16l7 11q0 2 15 17q16 16 16 18q0 3 14 17q19 16 22 18q10 5 11 5l12 4q6 2 9 5q2 2 8 4
q1 1 5 2t5 1q5 0 17 6q3 1 9.5 3.5t7.5 2.5q8 0 11 3z" />
    <glyph glyph-name="uni003A" unicode=":" horiz-adv-x="243" 
d="M91 125q2 1 12.5 1t22.5 -1q28 0 36 -4q6 -3 10 -7q3 -4 3 -14q0 -3 -0.5 -8t-0.5 -6q-2 -6 1 -16q2 -10 2 -17v-6q0 -7 -3 -16q-1 -3 -9 -11q-5 -4 -7.5 -5t-12.5 0q-7 1 -19 1q-13 0 -21 -1q-10 -2 -15 -2q-3 0 -6 1q-7 2 -10 7q-5 7 -6 17q-2 7 -2 10.5t2 7.5
q2 5 4 29q0 25 3 29q2 6 6 7q2 2 10 4zM80 468q7 7 10 7q4 0 10 -2q7 -2 20 -2h14q26 0 32 -3q7 -5 8 -8q3 -4 2 -23q-2 -22 -3 -25q-2 -4 -2 -11q1 -1 2 -5t1 -6q1 -7 -1 -12q-1 -1 -6 -8q-2 -3 -3 -4q-5 -5 -7 -6t-9 0h-40q-23 0 -27.5 0.5t-6.5 3.5q-2 2 -3 24
q0 19 -2 29v12q1 2 3 18q1 13 8 21z" />
    <glyph glyph-name="uni003B" unicode=";" horiz-adv-x="202" 
d="M111 103q2 1 5 2l4 1q2 0 8 -2q5 -2 17 -2q12 1 16 -2q6 -4 8 -8q2 -6 2 -11q0 -7 -2 -9q-3 -6 -5 -8t-4 -9q0 -3 -3 -12q-4 -8 -10 -17q-7 -8 -11 -17q-5 -12 -5 -13l-4 -12l-7 -11l-4 -8l-2 -3q-1 -4 -2 -6t-3.5 -6t-2.5 -5l-4 -6q0 -2 -3 -8q-4 -8 -6 -10
q-3 -6 -3 -11q-1 -7 -6 -11q-6 -4 -9 -7q-2 -1 -6 -5q-4 -2 -17 -2q-15 0 -15 2l-3 1q-4 1 -6 2q-9 2 -11 4q-3 1 -5 6q-3 4 -3 12t3 12q0 1 2 6t3 7q4 10 5 11q4 8 6 14q4 11 4 23q1 11 6 23q4 10 7 21q0 3 1 7t1 5q1 1 3 11q0 3 3 15q2 7 4 9l4 8q2 6 3 6q2 0 2 2t8 6
q4 3 13 5q9 0 12 -1q4 -1 12 1zM119 458h3q3 1 5 1t14 -3q9 -6 10 -7q5 -8 6 -10q1 -1 2.5 -6t2.5 -8q1 -9 -1 -16q-2 -9 -1 -14q0 -3 3 -12q3 -3 3 -9t-5 -14q-1 -2 -9 -14q-5 -3 -41 -3q-35 0 -39 4q-3 1 -5 10q-1 2 -2 5l-1 3q-2 4 -2 13q1 6 1 34q-1 22 2 28q4 6 12 9
q9 5 26 6q16 2 16 3z" />
    <glyph glyph-name="uni003C" unicode="&#x3c;" horiz-adv-x="539" 
d="M489 565q6 2 12 2t10 -3q4 -6 4 -11q1 -2 1 -13t-1 -25q-1 -29 -3 -36l-6 -9q-2 -3 -13 -9q-10 -5 -12 -7q-5 -3 -11 -5q-7 -3 -16 -5q-10 -2 -15 -5q-4 -2 -19 -7q-10 -2 -19 -6l-15 -6q-7 -4 -13 -6q-9 -2 -15 -7q-9 -5 -15 -5q-10 0 -13 -1q-2 -1 -7 -3t-7 -3
q-5 -4 -18 -8l-16 -4q-2 -1 -24 -8q-6 -1 -15.5 -4l-9.5 -3q-7 -2 -16 -7q-11 -4 -19 -6q-10 -4 -16 -7q-5 -3 -7 -9q-1 -3 -1 -11q2 -5 11 -12q10 -9 21 -11q2 0 9.5 -1t10.5 -2q10 0 18 -6q11 -7 20 -9q12 -4 18 -4q1 0 3 -1q5 -1 6 -2t5 -2t5 -1q15 -5 21 -8q14 -8 18 -8
q9 -3 11 -4q1 0 5.5 -2t6.5 -3q8 -4 12 -4q9 -3 13 -4q8 -3 10 -5l3.5 -1t5.5 -2q6 0 18 -6q4 -2 15 -6q15 -4 21 -6q13 -5 17 -5q5 0 9 -3q4 -1 14 -11q3 -3 11 -15q3 -6 0 -14q-2 -10 -1 -18q0 -10 2 -14q2 -2 2 -12t-4 -17q-2 -7 -6 -9q-3 -3 -7 -3q-5 0 -11 3
q-5 2 -14 5q-3 3 -12 3q-1 0 -4 1q-6 1 -8 2q-1 1 -5 2t-5 1q-4 0 -15 9q-9 8 -16 8q-8 2 -11 2q-1 0 -11 5q-8 5 -11 5l-9 3q-4 2 -6 2q-1 0 -13 4q-11 3 -19 9q-3 3 -12 6q-3 0 -12 3q-4 2 -7 4q-2 2 -14 6t-13 4q-4 1 -7 2q-8 4 -17 7q-11 3 -19 9q-5 4 -12 6q-4 0 -10 6
q-5 4 -12 6q-5 0 -9 2q-1 0 -13 2q-13 3 -14 3q-1 1 -3.5 2.5t-3.5 1.5t-7 3l-2.5 2t-3.5 3q-2 2 -12 4q-2 1 -7 2t-6 1q-6 2 -10 2q-5 0 -13 4q-2 1 -11 5q-1 2 -9 4q-6 0 -12 4q-1 0 -5 2.5t-6 3.5l-9 9l-5 15q-1 3 -3 10.5t-3 9.5q-2 7 -2 11q0 2 1 4q2 4 2 15
q0 10 -2 18q-1 3 -1 5t2 8q4 6 7 9q2 4 20 11l25 10q4 3 16 6q8 0 16 4q12 6 17 7q11 3 12 5q1 0 9 2q8 1 16 8q6 5 11 7q2 1 12 5q8 2 14 4q6 0 14 8q6 6 13 8q4 0 18 4q12 3 18 7q4 2 18 6q9 1 24 7l10 5l4 4q6 3 9 4q2 1 4.5 2t2.5 2q2 2 9 4l15 3l12 3q4 2 7 2h7
q6 2 9 5t7 5l4 3q4 2 7 3q7 3 15 3t12 2q1 1 7 4q5 3 11 7q6 5 16 6q9 0 15 4z" />
    <glyph glyph-name="uni003D" unicode="=" horiz-adv-x="538" 
d="M105 289l6 3q6 -1 14 -2q16 -5 17 -5q4 -2 16 -2q13 0 20 3q10 2 46 2q16 1 33.5 1t25.5 -1q11 -1 20 -1q10 0 20 1q20 1 27 0q4 -1 19 -1t41 1h28.5h25.5h15q16 -1 23 -7q8 -8 8 -9q1 -1 1 -11.5t-1 -23.5q-1 -34 -4 -40l-6 -9q-4 -5 -9 -6q-3 -1 -5 -1q-3 0 -10 2
q-8 2 -169 2h-212q-54 0 -57 2q-5 2 -7 6q-5 8 -6 10q-1 3 -1 4q0 2 2 8t2 30t1 26q2 4 8 8q5 5 9 5q2 0 12 2q9 2 17 1q8 -2 15 -2q8 0 15 4zM166 510q1 1 8 1t14 -3q12 -3 55 -3q14 0 37.5 0.5t26.5 0.5h85q37 1 72 1q1 1 5 2t5 1q6 1 11 -1q5 0 10 -5l9 -9q4 -6 6 -14
q2 -10 3 -13q2 -4 2 -9q0 -6 -2 -10q-2 -6 -2 -19q0 -16 -5 -20q-5 -5 -9 -5q-3 0 -13 -2q-7 -2 -15 -4q-6 -2 -10 -2t-12 3q-7 2 -57 2q-73 0 -102 1q-55 0 -58 -1q-2 0 -7.5 -0.5t-8.5 -0.5q-7 0 -13 2q-2 2 -10 2q-6 -2 -40 -2q-38 -2 -41 -2h-6.5t-14 0.5t-15.5 0.5
q-29 1 -34 4q-6 2 -8 6q-3 3 -5 8q-1 5 0 15q3 7 3 21t-3 20q-2 9 -1 11q0 1 5 9q6 6 11 7q8 3 41 3h19q15 0 23 -1q5 -2 13 -2q1 0 14 3q9 1 14 4z" />
    <glyph glyph-name="uni003E" unicode="&#x3e;" horiz-adv-x="534" 
d="M36 595q3 3 9 3q4 0 10 -4t15 -6q12 -5 13 -6q9 -4 11 -5q9 -3 10 -4q1 0 3.5 -1.5t3.5 -2.5t9 -5q6 -3 16 -5q7 -1 15 -4q1 0 7.5 -3t9.5 -5q15 -5 17 -5l18 -6q11 -3 18 -8q4 -4 14 -6q7 -3 13 -3q4 0 8 -3q2 -1 10 -4q4 0 10 -4q6 -3 7 -4q4 -2 13 -5q8 -3 11 -6t8 -3
q14 -4 17 -4q15 -5 16 -6q3 -1 7 -5l3 -2q4 -2 7 -3q6 -4 18 -6q5 0 14 -3q4 -1 7 -4q0 -1 13 -5q12 -4 16 -4q5 0 11 -3q1 -1 4.5 -3t4.5 -2l12 -5q9 -3 19 -7q7 -2 12 -7l9 -12q4 -7 3 -21q-1 -8 -1 -18q0 -3 2 -9q3 -3 3 -11t-3 -12l-3 -15q0 -9 -3 -12q-2 -4 -6 -6
q-3 -3 -7 -5q-1 0 -5 -2.5t-6 -3.5q-1 0 -5 -2t-6 -2q-7 -2 -9 -4q-5 -2 -11 -4q-6 -3 -13 -3q-3 0 -17 -4q-13 -4 -18 -9q-10 -6 -18 -10q-10 -7 -21 -9q-5 -2 -14 -5q-2 0 -7.5 -1.5t-7.5 -1.5q-2 -1 -8.5 -3t-8.5 -3q-5 -1 -15 -6q-6 -2 -7 -2l-10 -6q-13 -7 -13 -8
q-9 -3 -13 -4q-9 -2 -10 -3q-2 -2 -10 -5l-16 -4q-6 0 -9 -3q-2 -2 -8 -4q-1 -1 -12 -4q-7 -2 -14 -7q-8 -5 -19 -5q-13 -1 -24 -8l-16 -11q-2 -1 -13 -4q-11 -2 -14 -4q-7 -2 -12 -7q-7 -5 -17 -8q-12 -4 -14 -4q-1 0 -4.5 1.5t-5.5 1.5q-8 6 -10 8t-5 8v12q2 8 2 27t6 32
q5 12 10 17t10 6q5 3 10 3q3 0 17 6q10 5 20 9l20 8q10 5 14 5t10 3q12 3 16 3q9 2 29 9q4 1 14.5 5t12.5 5t7.5 2.5t7.5 1.5q10 5 13 6q10 5 15 8q3 1 10 3.5t9 3.5q12 4 19 4q12 2 13 3q1 0 3.5 2t4.5 3q1 1 11 6q4 3 13 3q2 0 6 0.5t5 0.5q4 2 12 8q7 5 9 9q3 4 -1 10
q-4 7 -7 8q-1 1 -15 6q-11 2 -12 3t-10 3q-2 0 -23 7q-16 7 -19 7q-2 0 -6 2q-3 1 -13 3q-12 2 -24 9q-18 8 -22 8q-8 2 -9 3q-5 2 -10 3q-8 2 -21 9l-16 8q-6 2 -10 2q-5 0 -13 4q-24 10 -29 11q-18 7 -27 11q-6 3 -10 3q-2 0 -8 2q-9 3 -14 4l-14 7q-7 7 -9 10q-3 5 -5 18
q-1 7 -1 19v22q0 14 3 23q2 7 8 11z" />
    <glyph glyph-name="uni003F" unicode="?" horiz-adv-x="454" 
d="M149 113q3 1 10 1q1 0 5.5 -0.5t11.5 -1t12 -0.5q25 -1 30 -4q3 -1 9 -7q3 -4 3 -13q0 -8 -3 -13l-3 -15q0 -13 1 -18q2 -5 2 -12q0 -4 -5 -6q-3 -3 -34 -4q-30 0 -36 2q-1 1 -5 3t-5 3q-5 2 -7 6q-2 5 -4 16q-1 7 -1 12.5t1 9.5q2 10 2 19t2 13q1 3 6 6q6 3 8 3z
M161 697q10 2 13 2h2q5 0 11 -2q15 -3 22 -5q13 -2 33 -4q25 -2 28 -3q4 -1 10 -4q8 -4 20 -8q22 -10 23 -10q6 -3 12 -7q4 -2 8 -6q3 -2 6 -7q4 -7 8 -9q4 -4 6 -4q3 -1 6 -4q5 -6 13 -16l8 -14q0 -1 4 -7t6 -14q2 -7 7 -24q5 -13 5 -19t-3 -12q-3 -9 -3 -21q0 -10 -5 -23
q-6 -11 -6 -19q-1 -7 -9 -16q-4 -3 -17 -19q-6 -9 -18 -23q-7 -10 -17 -20q-2 -1 -15 -11q-11 -7 -21 -18q-12 -12 -16 -18q-9 -12 -10 -13q-7 -7 -9 -11q-3 -3 -9 -7q-5 -1 -14 -10q-8 -8 -9 -15q-2 -8 -4 -13q-2 -3 -3 -39v-35q-2 -3 -5 -6q-1 -2 -5 -5l-4 -3
q-4 -2 -27 -2q-22 0 -30 4q-7 4 -11 9q-3 4 -4 27v40q0 17 3 30q5 13 10 19q2 3 5 8l4 5q4 4 6 11q6 9 8 11q4 6 12 10q8 5 12 11q3 6 17 20q9 10 23 29q8 14 15 21q1 2 4 6t3 5q1 2 3.5 7.5t4.5 7.5q1 2 4.5 9.5t4.5 10.5q6 11 5 18q-2 8 1 13q2 6 2 11q0 6 -2 16
q-1 5 -1 15q1 7 -3 12q-2 2 -6 7t-6 7l-8 8l-1 2l-2 4l-6 6q-3 3 -15 8q-13 7 -27 8q-14 0 -23 4q-12 5 -22 6q-8 1 -22 1q-10 -2 -13 -3q-5 -3 -17 -3q-19 -3 -20 -3q-6 -3 -12 -3q-5 0 -15 -2t-13 0q-5 2 -7 7q-2 4 -2 21q0 15 6 29q5 12 9 16q1 1 4.5 3t4.5 3q6 3 27 3
q23 2 25 3q6 2 19 2q14 0 24 4z" />
    <glyph glyph-name="uni0040" unicode="@" horiz-adv-x="1020" 
d="M567 365q-4 2 -21 2q-14 0 -22 -2q-6 -2 -14 -4q-5 -1 -15 -6q-1 -1 -4 -2.5t-4 -2.5q-4 -2 -7 -3q-5 -3 -12 -11q-6 -5 -12 -14q-3 -6 -7 -12q-4 -7 -4 -14q0 -9 4 -18q3 -10 7 -12q1 -2 4 -5q0 -1 1 -2q2 -2 2 -3q2 -4 10 -9q10 -6 11 -8q3 -3 9 -3q4 -1 15 -1
q10 3 11 3l8 4q9 6 12 9l8 6q0 2 8 10q6 6 9 12q0 1 5 9q4 6 6 11q0 1 1.5 5t2.5 6q2 4 2 23q0 18 -4 24q-4 4 -10 8zM452 750q4 2 55 2q52 0 57 -2q2 -1 22 -3q13 0 22 -3t15 -3q3 0 10 -1.5t10 -2.5q14 -5 16 -6q7 -2 9 -4q1 0 7 -2l9 -3q8 -4 17 -7q6 -2 11 -7
q9 -6 10 -7q6 -6 10 -8q6 -3 20 -17q9 -9 21 -18q7 -4 36 -33q27 -28 29 -35q0 -1 3.5 -8.5t5.5 -11.5l6 -14q0 -1 2 -3t5 -10q5 -7 7 -18q1 -2 3 -6.5t2 -5.5q2 -2 6 -10q2 -5 7 -20q2 -11 4 -13l2 -12q3 -13 4 -15q2 -4 2 -68q-1 -63 -3 -71q-3 -8 -3 -13q0 -6 -5 -21
q-3 -15 -6 -23q0 -2 -5 -17l-8 -20q-5 -13 -9 -18q-6 -10 -6 -13q-2 -6 -5 -12t-9 -16t-23 -27q-15 -16 -33 -25q-15 -8 -25 -8l-15 -3q-6 -3 -18 -3q-14 0 -18 3q-6 2 -22 3q-16 0 -28 4q-13 4 -24 11l-13 7q-2 0 -13 11q-12 12 -15 19q-1 2 -4 9.5t-4 10.5q-4 11 -7 13
q-2 1 -8 1q-6 -3 -10 -8l-7 -7q0 -1 -5 -4l-15 -3q-7 0 -13 -3q-4 -2 -49 -2t-52 3q-4 2 -13 8q-2 2 -10 6l-9 3q-4 2 -10 8q-1 2 -4.5 8t-5.5 9q-3 11 -6 13q-2 0 -2 3q0 1 -2 5q-3 3 -7 13l-5 13q-1 0 -5 14q-3 12 -3 27q0 14 3 20q1 2 3 18q1 12 5 24q5 12 7 14l4 8l3 5
q2 0 2 3q2 4 7 9q2 2 5.5 5t4.5 4l4 2l11 7q2 2 9.5 6.5t9.5 5.5q5 3 13 7q2 1 12 5q6 3 16 3q7 0 17 2t16 5q7 4 38 5q30 1 39 6q5 3 13 11q4 6 4 21q0 16 -4 25q-4 10 -14 21q-10 10 -15 11q-6 2 -28 2q-17 -1 -21.5 -2.5t-14.5 -11.5q-12 -12 -18 -24q-4 -8 -11 -15
q-7 -5 -9 -5q-1 0 -5.5 -1.5l-7.5 -2.5q-12 -3 -32 -3q-21 0 -28 3q-5 3 -5 5q0 3 -3 4q-2 2 -1 28q1 30 3 32q1 5 11 14q9 9 9 11q0 1 7 6q11 7 13 10q9 7 11 7l8 1h15q19 0 27 4q6 3 12 3q5 0 11 2q6 3 19 3q14 0 19 2q7 3 19 1l27 -3q11 0 20 -3t13 -3q7 0 9 -2l10 -4
q9 -1 13 -7q1 -1 7 -7.5t9 -9.5q11 -12 12 -18q2 -5 0 -7q2 -7 5 -15q5 -14 6 -44q1 -32 3 -35q3 -4 3 -16t-3 -21q-3 -8 0 -18q3 -7 3 -15q0 -7 -3 -15q-2 -7 -3 -68q0 -61 3 -69l4 -16q2 -10 3 -11t2 -5.5t1 -5.5q0 -6 5 -13q8 -5 10 -6q6 -2 12 0q3 1 20 16q16 18 18 21
q2 2 5 8q0 3 3 6q3 6 7 18q3 8 9 26q4 6 6 20q2 10 5 16q0 2 1.5 7.5t2.5 7.5q3 6 3 43q0 38 -2 42q-1 2 -4 14q0 5 -3 11q-1 2 -3 12q0 8 -4 18q-2 3 -4.5 8.5t-3.5 6.5q-5 10 -7 15q-4 8 -4 13q-2 5 -7 14q-9 12 -12 15q-6 8 -6 9q-1 3 -4 6q-4 6 -15 17l-14 14q0 1 -4 7
q-2 4 -11 11l-18 11l-12 6l-3 3q-3 2 -5 4q-6 6 -18 11q-18 10 -22 13q-9 6 -15 7q-4 0 -10 3q-9 3 -15 3q-13 2 -16 4l-6 4q0 1 -7 3q-5 1 -23 1q-18 -2 -20 -3q-4 -1 -31 -3q-24 0 -33 -4q-8 -4 -9 -4q-1 -1 -7 -5l-10 -5q-6 -2 -12 -5q-4 -2 -13 -8l-12 -8l-15 -9l-18 -9
q-13 -8 -20 -15q-17 -17 -25 -24q-13 -15 -18 -23q-6 -10 -8 -14l-5 -10q-3 -7 -10 -12q-9 -9 -10 -14q0 -5 -3 -11q-2 -3 -4 -14q0 -6 -3 -12l-4 -6q-1 0 -3 -9q-2 -8 -4 -12q-3 -6 -3 -14q-2 -12 -3 -13q-2 -2 -2 -8t2 -10q1 -4 3 -41q1 -36 5 -46t6 -13q1 -1 5 -11
q2 -5 8 -14q4 -7 6 -13q2 -8 7 -15q6 -9 8 -13q5 -10 7 -12q1 -1 2.5 -3.5t1.5 -3.5t1 -2q2 -2 2 -3q1 -2 19 -22q17 -17 27 -25q6 -3 15 -12q8 -8 17 -13q13 -9 17 -10q5 -2 13 -4t12 -4q1 -1 4 -3t4 -2q2 -2 12 -4l16 -4q6 -3 18 -7q12 -5 16 -5q3 -1 11 -1q9 3 13 7
q2 2 8 5.5t7 4.5l16 8q8 4 29 4q20 0 27 -4q3 -1 10 -10q1 -1 9 -13q3 -8 3 -27q0 -21 -8 -30t-17 -17q-8 -6 -17 -10q-4 -2 -23 -4q-10 0 -19 -3q-5 -3 -14 -3q-10 0 -15 3q-5 2 -36 2q-29 0 -35 3t-12 3l-9 2q-1 1 -9 3q-9 2 -12 5q-5 2 -7 4q-4 2 -13 5q-10 4 -11 4
q-7 3 -15 7q-18 9 -22 12q-10 6 -14 10q-9 6 -13 8q-3 2 -14 10q-6 6 -11 8q-6 4 -24 22q-19 20 -24 31q-2 3 -6.5 9.5t-5.5 8.5q-9 12 -17 24q-12 17 -15 26q-1 3 -4 8.5t-3 6.5q-2 3 -6 15q-1 3 -2 7l-1 4q-1 1 -3 9q-1 5 -4 11q-2 2 -4 10q-3 12 -3 18q-2 10 -3 12
q-1 3 -3 35q0 32 -3 38q-2 4 -2 20q0 18 2 24q3 7 3 24q0 16 2 16l1 3q1 4 2 6q2 9 3 10q3 5 4 14q2 6 5 19q2 12 5 17q2 4 8 18l4 9q0 1 6 7q3 4 9 16q3 11 11 19q7 7 11 15q5 8 35 36q32 32 43 39q10 8 13 8l9 7q6 6 17 10q9 4 20 11q2 1 8 4.5t8 4.5q4 1 13 4q4 0 10 3
q1 1 5 2t5 1q7 0 10 3q6 2 13 2q12 2 13 3q6 3 15 3t15 3z" />
    <glyph glyph-name="uni0041" unicode="A" horiz-adv-x="747" 
d="M363 599q-1 1 -5 1q-3 0 -6 -3t-5 -9q-1 -1 -4 -7.5t-5 -9.5q-5 -11 -7 -20q-2 -8 -9 -22q-6 -13 -8 -23q0 -9 -2 -11q-3 -6 -5 -11l-4 -10q0 -1 -2 -3t-4 -9q-2 -9 -5 -13l-4 -8q-3 -3 -3 -10q-3 -14 -4 -15q-2 -7 -7 -16q-6 -10 -6 -15q0 -2 -1.5 -6t-2.5 -5
q-2 -5 -4 -11q0 -7 -6 -19q-6 -14 -8 -16q-1 -2 -2 -8q-1 -3 -1 -4q0 -7 -4 -15t-4 -12q0 -3 5 -10q7 -7 9 -8q3 -1 40 -1q36 0 43 3q7 2 28 2t30 -3q8 -2 11 -2t11 2q11 4 16 1q3 -1 19 -1q15 0 22 3q9 2 11 6q4 4 4 10q1 3 1 5q0 3 -2 5q-1 2 -3 5l-2 4q-1 1 -3 5t-3 5
q-3 6 -3 12q-1 9 -10 26q-9 18 -9 20q0 4 -7 14l-8 14l-4 8q-2 3 -4 15q0 4 -3 16q-3 4 -5 11q-3 4 -3 14q-2 11 -5 18q-2 5 -6 13q-2 6 -2 7l-4 10l-3 6t-2 5q-2 2 -2 8q-2 8 -5 14q-5 10 -6 14q-1 3 -4.5 10t-4.5 10q-5 10 -9 14zM313 721q1 1 8 1q2 -1 11 -1q10 0 14 1
q8 0 13 -2q7 -2 13 0q5 2 33 2q27 0 29 -1q1 -1 3.5 -3t3.5 -2q3 -3 5 -7q1 -1 3.5 -7.5t3.5 -8.5q3 -12 6 -17t3 -7.5t3 -6.5q2 -3 7 -13l7 -17q5 -13 6 -16q2 -8 3 -9t3 -8q2 -9 5 -13q1 -2 3 -4.5t2 -3.5l5 -12l6 -12q0 -2 2 -8q0 -5 6 -19q2 -4 4.5 -9.5l2.5 -5.5l3 -6
q2 -2 4 -8q3 -9 4 -14q2 -10 7 -20q9 -16 11 -18q4 -5 5 -13q0 -6 3 -12q0 -1 2 -5.5t3 -6.5q3 -8 3 -13q0 -2 0.5 -6t0.5 -5q2 -9 10 -18q1 -2 5 -8.5t5 -8.5q3 -5 4 -11q3 -8 5 -10q2 -4 6 -8q4 -2 6 -10q3 -4 5 -13q4 -12 7 -19q5 -12 5 -19q0 -8 1 -12q2 -6 4 -8
q3 -3 6 -14q4 -12 5 -13q0 -1 2 -7l2 -5.5t4 -8.5q1 -2 4 -7.5t4 -7.5q2 -2 8 -14q2 -8 2 -11t7 -19q8 -20 10 -23l7 -11q4 -5 5 -15q0 -10 6 -18q5 -6 9 -19q1 -3 3.5 -9t2.5 -7q1 -1 3 -15q0 -10 -5 -15q-4 -4 -24 -5q-11 -1 -50 -1q-23 0 -27.5 0.5t-8.5 4.5q-9 6 -13 8
q-7 3 -9 8q-3 3 -3 8q-3 9 -6 14q-2 4 -6 15q0 4 -4 12q0 1 -1.5 4t-1.5 4q0 3 -3 6q-4 6 -5 8q-2 5 -6 19q-6 18 -8 20l-5 15q-4 10 -12 18q-10 8 -11 8h-47h-76q-31 0 -35 2q-7 3 -25 3q-4 0 -14.5 -0.5t-12.5 -1.5q-7 -3 -58 -3q-50 -1 -58 -5q-10 -6 -11 -10
q-2 -4 -2 -11q0 -9 -5 -15q-1 -2 -3 -7t-3 -7q0 -5 -3 -11q-1 -1 -2.5 -4t-2.5 -4q-2 -2 -4 -11q-2 -8 -6 -17q-4 -6 -12 -31q-6 -20 -11 -27q-2 -2 -10 -8q-15 -3 -23 -3q-22 -2 -25 -3q-7 -3 -14 -3q-1 0 -6 1.5t-7 1.5q-6 3 -14 3q-6 0 -13 6q-6 6 -8 10q-1 2 -1 4t4 15
q8 20 8.5 22t4.5 11l4 8q2 6 2 9q0 4 5 16q6 14 11 19q6 10 8 18q1 6 4 18q3 7 3 8q1 2 3 8q1 2 6 16q2 3 4 9t2 7q2 6 4 10q2 3 5 9q3 3 3 12l3 11q0 4 4 6q1 2 9 16q5 10 8 19q0 1 3 13l3 6t2 5t2 6l3 6q3 8 6 11q1 0 5 12q6 11 7 17q4 6 4 13q0 6 2 10t5 13q2 2 4 6t2 5
l2 4q2 3 3 5q3 5 5 16q1 3 5 19q2 6 4 11q2 4 5 7q4 6 4 11l3 12q1 3 4 6t5 12q2 6 6 14q3 3 5 10q3 9 7 17l6 18q0 7 5 14q5 8 10 19q6 15 9 20q2 3 5 9q0 3 2 5l1 3.5t2 5.5q2 8 5 14q2 6 10 16l14 22q6 13 10 16q5 5 10 6q8 2 8 3z" />
    <glyph glyph-name="uni0042" unicode="B" horiz-adv-x="678" 
d="M338 331q-7 -1 -26 -1q-3 0 -13.5 0.5t-15.5 0.5h-34q-19 -2 -27 -5q-9 -3 -15 -7q-4 -6 -4 -8q0 -5 3 -8q2 -6 2 -52q0 -44 -2 -54q-3 -6 -1 -14q1 -4 3 -39l1 -32l5 -5q3 -3 10 -5q5 0 17 -2q3 0 9 -0.5t8 -0.5q3 1 50 1q46 1 53 3q10 3 18 1t17 3q13 5 16 6q9 3 12 5
q2 1 5.5 3t4.5 3t13 6q2 0 15 7q5 4 12 13q7 10 8 10q1 1 2 4q2 3 3 4q0 1 2 6.5t3 7.5q2 8 2 16q0 9 3 15q1 4 1 6t-1 5l-3 6v4q-1 3 -1 5q-3 11 -4 13q-1 1 -3 11q-2 5 -9 18q-6 11 -16 16q-10 6 -13 8q-4 2 -7 5q-2 2 -16 6l-29 7q-9 2 -24 5q-10 2 -15 2q-3 1 -19 1z
M247 634q-6 2 -15 2q-10 0 -12 -1q-4 0 -9 -7q-5 -4 -7 -10q-2 -5 2 -10q2 -7 1 -9q0 -5 -2 -9q0 -7 1 -10q1 -2 1 -10t-1 -22q0 -30 1 -32q0 -1 2 -35q0 -8 0.5 -15.5t0.5 -12.5v-5q0 -2 4 -4l6 -3q5 -3 9 -5q12 -6 33 -7q12 -1 26 -1q23 0 45 1q42 1 51 5q12 5 13 5
q2 2 9 2q10 3 15 5q8 4 14 8q7 7 10 9q4 6 5 9q0 3 2 5q1 1 5 11q4 9 6 19q0 2 1.5 8t1.5 8q0 3 -2 17q-2 7 -5 22q-2 14 -3 15q-1 2 -12 13l-12 12q-1 1 -7 5t-8 4q-4 2 -6 4l-8 4q-9 3 -15 4q-4 1 -30 3l-33 3q-12 2 -42 2q-32 1 -36 3zM140 727q4 2 49 2q44 0 56 -3
q6 -3 16 -3q8 0 14 3t16 3q5 0 24 -1q36 0 40 -1q1 0 8.5 0.5t12.5 0.5q16 1 20 -1t20 -4t23 -5q10 -5 13 -6q6 -2 13 -2q6 0 18 -5q10 -4 12 -4q3 0 9 -3q6 -2 10 -4q2 0 8 -3q1 -1 8 -7.5t10 -8.5q15 -15 19 -25q5 -10 13 -15q9 -7 10 -9q2 -2 4 -11q0 -9 5 -14
q3 -5 7 -16q5 -13 5 -18q3 -9 0 -31q-1 -20 -6 -35q-2 -4 -4 -9l-2 -6q0 -3 -5 -13q-6 -12 -9 -15q-3 -4 -3 -6q-2 -3 -3 -6q-1 -1 -3.5 -4t-3.5 -4q0 -1 -14 -12l-11 -10l-3 -2l-3 -3q-5 -3 -14 -7q-8 -6 -14 -9q-6 -4 -6 -8q0 -5 2 -7l10 -5q1 -1 4 -2.5t4 -2.5l6 -3
q1 0 3 -1l3 -1q3 -3 11 -6q16 -10 28 -18q19 -12 22 -15q4 -4 9 -12q5 -6 8 -13q2 -6 5 -9q4 -8 5 -13q4 -10 6 -12q3 -3 4 -8q2 -7 4 -17q0 -1 3 -31q1 -11 1 -15q0 -6 -2 -10q-3 -6 -3 -19q-2 -12 -2 -14q-1 0 -3 -8l-4 -12q-1 -2 -3 -5l-1 -3q-2 -2 -4 -8t-11 -17
q-4 -7 -18 -21q-4 -5 -21 -19q-3 -2 -11 -8.5t-11 -8.5q-9 -8 -18 -12q-2 -1 -5 -2l-4 -1q-2 -2 -9 -2q-10 -2 -14 -4q-1 0 -6 -2t-7 -3q-2 0 -9 -2t-10 -3q-7 -2 -32 -4q-21 -2 -25 -3q-3 -2 -80 -3q-75 0 -81 -3q-6 -2 -16 -2t-18 2t-12 2q-3 0 -9 -2q-5 -2 -14 -1h-20
q-10 0 -14 2q-2 2 -27 2q-25 1 -28 4t-7 9q-3 8 -2 21q1 9 1 22q0 14 -1 25q-1 14 -4 25q-2 4 -2 27q1 12 1 39q0 29 -1 46q-1 13 -1 32t1 41q1 29 1 52v13q0 8 1 11q0 1 0.5 5.5t0.5 7.5q2 8 -1 13q-2 5 -2 23t2 21q2 6 2 11l-3 15q-1 8 1 16q3 11 3 83q0 75 3 85
q2 10 0 22q-3 15 -3 24q-1 14 2 18q5 7 7 8q4 3 28 4q24 0 28 2z" />
    <glyph glyph-name="uni0043" unicode="C" horiz-adv-x="662" 
d="M336 740q6 3 16 3q4 -1 31 -1l25 -2q2 -2 13 -4q3 0 10 -0.5t9 -0.5q8 0 14 -2q12 -3 14 -3q9 -2 17 -5q9 -5 16 -7q2 0 13 -4q9 -6 11 -8q2 -1 14 -10q11 -7 15 -7q7 -1 23 -17q11 -11 14.5 -16t11.5 -22q11 -20 11 -23q0 -1 6 -9q6 -6 9 -12q2 -6 2 -10q0 -7 3 -13
q2 -12 2 -27q0 -18 -2 -22l-2 -2.5t-3 -3.5q-2 -4 -9 -6q-5 -3 -31 -3q-28 0 -32 2q-5 3 -14 1q-2 0 -7 -0.5t-6 -0.5q-6 -1 -14 3q-3 1 -13 8q-7 11 -10 18q-6 10 -8 24q-1 3 -5 16q-4 8 -5 9q-2 5 -7 11q-4 9 -14 16q-8 7 -15 10l-11 7q-2 1 -7.5 4t-9.5 4l-18 6
q-6 2 -21 2q-13 -1 -21 2q-6 3 -11 3q-4 0 -8 -2q-2 -2 -10 -6q-12 -6 -17 -7q-11 -3 -13 -6q-1 -1 -7 -3q-6 -3 -9 -4q-6 -4 -10 -8q-1 -1 -8 -6q-3 -2 -4 -3q-4 -2 -11 -9q-2 -2 -4 -5l-2 -3q0 -1 -5 -9q-2 -4 -7 -15q-3 -5 -14 -27q-3 -6 -6.5 -14.5l-3.5 -8.5
q0 -6 -2 -8q-1 -2 -3 -14q0 -2 -1 -8.5t-2 -8.5q-2 -3 -4 -26t-3 -26t-3 -49q0 -48 1 -55q3 -18 3 -30q2 -18 4 -30q0 -7 5 -17q3 -6 5 -19q1 -11 4 -16q1 -1 3.5 -4l2.5 -3q0 -1 1 -3t1 -3q2 -2 4 -8l3 -7q0 -2 6 -10l6 -10q4 -5 10 -11q10 -10 10 -13v-6q0 -3 2 -5
q2 -4 11 -4q5 -1 14 -4q4 -2 24 -2q17 0 32 -4q18 -4 20 -6q5 -2 10 -5q4 -2 9 -2q6 0 14 8q7 7 14 10q2 1 7.5 2.5t7.5 1.5q10 4 12 6q3 3 5 3q1 0 9 8q3 2 8.5 7.5t8.5 7.5q5 4 13 12q3 3 9 13q10 16 10 17q5 9 5 23q1 15 5 18q1 1 11 4q4 0 16 3q3 1 26 3q18 2 19 3
q4 0 7 -1t23 -3q18 -1 21 -4q6 -6 7 -9q4 -7 3 -14q0 -5 -2 -25q-2 -17 -5 -25q-2 -7 -5 -11l-5 -10q-1 -1 -2 -4q-5 -9 -6 -12q-5 -10 -14 -19q-8 -10 -13 -17q-4 -6 -18 -20q-18 -15 -20 -17q-1 -1 -5 -4t-5 -4t-4 -3t-4 -3l-9 -3q-3 0 -9 -4q-5 -5 -13 -8q-10 -4 -23 -5
q-11 0 -23 -5q-10 -4 -12 -5q-4 -2 -7 -2q-3 -1 -26 -1t-28 -2q-7 -2 -27 -2h-24q-46 0 -53 2q-10 2 -13 5q-1 1 -6 2.5t-7 2.5q-2 0 -22 9q-12 7 -15 7t-9 3q-4 2 -7 4q0 1 -14 9t-16 9q-1 2 -11 10q-3 2 -8 6t-6 5q-4 3 -11 14q-9 12 -16 17q-8 5 -14 17l-6 12l-6 6
q-4 5 -4 13q0 5 -3 14q-2 8 -5 11q-4 8 -7 13q-4 10 -9 25q-1 3 -3 9.5t-3 7.5q-1 0 -1 5q0 2 -1.5 6.5t-1.5 6.5q-1 2 -4 20q0 3 -1 9.5t-1 8.5q-2 6 -4 14q-1 6 -1 33v30q0 5 -2 11q-1 3 -1 5q0 3 2 9q2 14 2 36q0 24 3 35l5 15l5 20q2 7 5 22q0 8 4 16q1 2 3 7t2 6l2 5
q0 2 2 4q3 3 6 12q3 8 6 11q3 6 3 9l4 12q1 1 3 5t3 5q5 8 18 19q12 12 20 22q6 10 13 15q3 3 15 12q12 7 17 11q9 7 12 7q5 2 16 11q13 9 18 11l16 4q7 3 11 3t11 3q12 3 15 3q9 2 11 4q6 2 16 2t18 -2q5 -2 15 1z" />
    <glyph glyph-name="uni0044" unicode="D" horiz-adv-x="761" 
d="M257 624q-10 2 -20 2t-16 -2q-4 0 -7 -3q-2 -2 -4 -2q-1 0 -5 -4t-4 -61q0 -18 -0.5 -51.5t-0.5 -41.5q0 -33 -2 -41q0 -8 1 -9q2 -2 2 -106q0 -108 1 -119q1 -15 0 -26q-1 -12 2 -19q3 -11 2 -14q-2 -5 0 -14q1 -9 5 -11q5 -5 7 -5q4 -2 20 -2q13 0 25 2q6 3 21 5
q18 3 35 4q33 0 47 -1q8 0 19 -1h11q4 0 12 4q7 3 15 5q7 2 9 4t3 2q5 2 9 5q3 2 7 5t5 3q2 2 10 4q4 0 14 5q13 8 16 10q3 1 16 12q10 6 14 14q4 6 9 15q4 8 5 9l5 10q1 2 4.5 10t4.5 10q2 5 5 11l3 7q0 2 6 20q5 15 5 51q2 39 3 42t1 5.5t-1 6.5t-3 30q0 21 -3 27
q-1 2 -2 7t-1 6q0 9 -3 13q-2 6 -2 14q-2 12 -4 16q-6 9 -9 12q-7 10 -12 22q-5 10 -14 22q-8 6 -9 10q-3 3 -9 11q-10 10 -14 13q-5 5 -12 7l-7 3q-7 3 -12 5l-22 11q-2 0 -7.5 1.5t-7.5 2.5q-5 1 -16 1q-2 0 -24 6q-17 6 -37 6q-18 0 -26 2q-4 3 -17 3q-11 0 -17 -3
q-8 -2 -14 -1q-3 0 -15 3zM100 719q12 4 16 4q5 0 9 -2q1 0 4.5 -0.5t8.5 -1t9 -0.5q5 0 16.5 -0.5t15.5 -0.5q9 -1 30 1q9 1 16.5 1t17.5 -1q19 -1 30 0q12 2 14 2l3 0.5t5 0.5q6 2 13 -1q8 -3 18 -3q9 0 13 2q3 2 20 -1q18 -2 32 -2q13 0 23 -2q8 -2 16 -2q10 0 16 -3
q10 -4 19 -4q7 0 19 -3q2 -1 9.5 -3t10.5 -3q8 -2 23 -8l10 -4q2 0 5 -3l14 -7q10 -5 16 -9q6 -6 11 -7q7 -4 21 -19q3 -3 10.5 -10t9.5 -8q6 -6 9 -10q1 -2 4 -7t4 -7q3 -6 11 -14q5 -4 12 -17q5 -10 9 -16q2 -2 4 -11q2 -7 7 -12l6 -9q0 -3 2 -11q1 -2 2.5 -8.5t2.5 -8.5
q0 -2 1.5 -9t2.5 -10q2 -12 2 -21q0 -8 2 -20q2 -5 4 -22q0 -12 2 -18q1 -3 1 -10q0 -13 1 -23q0 -27 -1 -36q0 -11 -3 -26q-1 -4 -4 -12q-1 -2 -1 -3q-2 -8 -2 -10q0 -4 -3 -11.5t-3 -16.5q0 -7 -2 -13q-3 -9 -4 -14t-6 -15q-6 -8 -6 -12q-2 -6 -6 -10q-1 -1 -11 -19
q-5 -13 -9 -19q-2 -4 -6 -8q-3 -3 -3 -5q0 -3 -3 -8q-1 -5 -10 -12q-5 -3 -13 -11q-1 -2 -5 -6t-5 -6q-8 -6 -9 -6q-5 -1 -10 -3q-8 -4 -14 -8l-7 -5l-3 -2t-5 -3q-7 -5 -8 -5q-3 -2 -5 -4q-2 -1 -6 -4l-4 -3q-3 -2 -13 -7q-3 -1 -7 -2l-4 -1q-2 0 -16 -4q-14 -5 -16 -7
t-8 -4q-9 -3 -18 -3q-19 -3 -22 -4t-9.5 -3t-7.5 -2q-11 -3 -42 -3q-34 0 -38 -2q-5 -3 -12 -3q-6 0 -14 2q-6 2 -12 2q-7 0 -16 -3q-11 -3 -26.5 -3t-22.5 3t-13 1q-7 -3 -42 -3h-59q-22 -1 -28 2q-3 2 -12 11q-6 6 -9 12v10q0 1 3 13q2 5 2 15q0 3 -1 9.5t-2 8.5
q-2 8 -2 178q1 93 1 181q-1 6 -1 25q0 17 3 33q2 21 1 23q0 6 -3 10q-1 7 -1 24v24q0 39 2 51q2 8 0 17q-1 4 -1 11t1 10q3 6 0 13q-1 8 1 15q2 9 7 14q3 4 8 7q1 1 5.5 3t7.5 3z" />
    <glyph glyph-name="uni0045" unicode="E" horiz-adv-x="626" 
d="M276 715q3 2 14 2q2 0 8.5 -1t8.5 -2q11 -3 45 -3q38 0 42 -2q6 -2 13 -2t13 2q8 3 19 4h14q10 0 19 -1q17 0 21 -3q6 -2 8 -2q4 0 10 2q3 2 17 2q13 0 19 -4q4 -3 10 -9q1 -1 3 -4t3 -4q2 -6 2 -22q1 -15 -2 -26q-1 -2 -3 -8t-3 -8q-4 -7 -8 -9q-8 -4 -12 -5
q-10 -4 -17 -4q-8 0 -18 -2q-12 -2 -17 -2l-12 3q-4 1 -16 1q-10 0 -15 3q-5 2 -18 2q-13 -2 -14 -3q-4 -2 -69 -2q-61 0 -75 3q-12 3 -26 2q-16 0 -21 -4q-5 -5 -8 -12q-4 -7 -3 -23q0 -4 0.5 -17.5t0.5 -19.5l2 -24q2 -2 2 -45q1 -32 1.5 -38t3.5 -10q3 -5 9 -7
q6 -1 28 -1h24q32 1 52 1q13 0 20 -1q9 -1 21 2q1 0 19 4q9 0 13 -2q5 -2 9 -1q2 1 11.5 1.5t13.5 0.5q23 0 27 -1q8 -2 12 -2q2 0 28 -2q23 -1 28 -5q5 -5 7 -9q3 -6 3 -32q0 -28 -3 -32q-3 -5 -10 -10l-12 -8q-5 -2 -120 -2q-117 0 -126 -2q-6 -1 -14 -1q-2 2 -18 0
q-14 -2 -19 -5q-4 -1 -6 -5q0 -1 -0.5 -11.5t-1.5 -17.5q-1 -15 -1 -31v-60q2 -58 3 -61q2 -5 7 -9q7 -4 25 -5q19 0 24 -3q2 -1 12 -3q10 0 16 3q13 3 41 3t38 -2q4 -3 11 -3q5 0 10 3q6 2 15 2q10 0 18 -3q8 -2 14 1q7 2 46 2q36 0 43 -3q9 -3 20 -3q16 -2 17 -2
q3 -3 4 -5q2 -5 1 -7t-1 -5.5t-1 -4.5q0 -5 4 -14q5 -10 5 -22q0 -15 -3 -19q-2 -6 -5 -9q-3 -4 -13 -7q-9 -2 -194 -3h-42.5h-39t-34 -0.5t-29 -0.5h-22h-14.5h-5h-3t-8 0.5t-9 0.5q-21 2 -23 3q-5 2 -18 1q-11 -1 -18 4q-7 4 -8 7q-2 2 -4 13q-2 10 -4 12q-1 0 -1 60
q0 57 -2 75t-2 19t0.5 5.5t1 14t0.5 15.5q0 10 0.5 27.5t0.5 20.5q0 15 -3 21q-2 5 -2 33t2 33q2 4 2 21q-2 16 -2 27q0 10 -2 24q-1 7 -1 37q0 33 -1 43q0 22 -2 26q-1 3 -1 6.5t1 9.5q0 10 2 12v3t0.5 7t0.5 10v12q1 16 1 51q0 24 3 33q4 12 6 15q5 4 9 6q7 2 17 2h14
q13 -1 28 -1q29 0 59 1q55 1 59 4z" />
    <glyph glyph-name="uni0046" unicode="F" horiz-adv-x="564" 
d="M445 727q4 1 12 1h7q3 0 13 -0.5t14 -0.5q14 0 18 -2t12 -2q9 0 13 -5q3 -3 6 -9q0 -6 -1 -9q0 -8 3 -18q2 -9 2 -14q0 -4 -1 -9q-2 -10 -2 -14q0 -5 -4 -9t-13 -5q-6 0 -15 -3q-4 -2 -20 -2q-10 0 -40 1q-13 0 -27.5 0.5t-23 0.5h-9.5q-4 0 -34 -2q-29 -1 -35 -4
q-7 -2 -12 -1q-2 1 -19 3q-13 1 -19 -1q-3 -1 -25 -3q-21 -1 -24 -4q-4 -2 -8 -8q-3 -4 -3 -14t-2 -16t0 -22q2 -18 2 -36q0 -17 -2 -27q-2 -8 -2 -18t2 -22q0 -1 3 -8.5t4 -9.5q3 -8 7 -10q2 -2 6 -2q3 0 13 -2q7 -2 24 -2q15 1 27 6q11 4 22 2l21 -6q11 -3 20 -2q9 0 17 2
q1 0 9.5 0.5t21.5 1t24 0.5q50 2 54 3q8 0 10 -1q1 -1 13 -3q11 -1 15 -6q1 -1 3.5 -4t3.5 -4q2 -6 2 -34q0 -30 -2 -34q0 -1 -1 -2l-4 -8t-6 -6l-2 -2q-4 -2 -18 -2q-14 -2 -29 0q-13 1 -23 4q-6 2 -18 1q-12 -2 -16 -2q-4 -2 -11 -2q-2 -1 -8.5 -2t-7.5 -1q-7 -1 -20 1
q-11 1 -30 0q-20 -2 -29 0q-7 3 -12 3q-3 0 -13 -4q-9 -4 -21 -3q-12 2 -19 2q-8 0 -13 -4q-6 -3 -9 -10q-3 -4 -5 -15q-1 -4 -1 -12.5t1 -21.5q0 -8 0.5 -19.5l0.5 -11.5v-13.5t-0.5 -33t-0.5 -39.5q0 -86 1 -94q0 -15 -2 -21q-1 -7 -9 -13q-6 -7 -19 -9q-12 -3 -20 0
q-4 1 -17 1q-9 0 -15 -2t-15 -2t-17 3l-12 5q-2 2 -6 8q-2 7 -3 32q-1 15 -1 36q1 4 1 31q0 23 -2 31q-1 5 -1 12t1 20t1 21.5t-1 14.5q-2 12 -2 18v29q-1 23 1 29q2 7 1 14q-1 5 -3 47l-2 42v11q0 1 0.5 10.5t0.5 24.5v29q1 56 3 63q2 6 2 15q0 13 -1 16q-1 5 0 17
q2 11 1 24q-2 14 -2 16q-1 1 -3 38v19q0 17 1 23q2 7 7 12q4 6 15 9q12 4 28 3q15 0 25 2q12 3 17 3q31 0 74 -1h33q33 0 41 1q2 0 7 1t7 1q5 1 12 -1t9 -4q4 -2 8 -2t10 2q5 3 11 3q8 0 10 1q6 1 13 -1q10 -2 12 -1q1 0 7 0.5t9 0.5q10 0 18 2z" />
    <glyph glyph-name="uni0047" unicode="G" horiz-adv-x="739" 
d="M320 733q10 2 76 2q70 0 78 -3q6 -3 12 -3q2 0 5 -1h3l12 -6q8 -4 21 -4q17 -2 21 -4q8 -2 14 -6q4 -2 10 -7q3 -2 17 -9q11 -5 18 -12q7 -5 15 -17q11 -13 16 -17q2 -2 5 -5.5t4 -4.5l4 -8q2 -4 4 -6t8 -12q6 -14 6 -20q2 -11 5 -18q1 -3 2.5 -6.5t1.5 -4.5q2 -2 2 -25
q0 -17 -1 -21t-7 -10q-8 -8 -20 -8q-7 -1 -55 -1q-43 0 -47 3l-8 8q-4 7 -6 13t-2 14q0 6 -2 10q0 1 -1 5t-1 6q-3 12 -6 17q-3 8 -9 14t-6 7q0 3 -7 8q-9 6 -13 11q-5 5 -15 9q-14 5 -16 7q-6 3 -26 4q-18 0 -24 3q-3 2 -26 3q-23 0 -34 -4q-7 -2 -19 -6q-1 0 -5.5 -1
t-5.5 -2q-4 0 -18 -6q-12 -6 -16 -6q-2 0 -11 -7q-10 -8 -11 -9q-1 -3 -8 -7q-4 -3 -7 -8q-3 -6 -9 -12q-8 -8 -10 -12q-4 -5 -7 -14q-2 -9 -9 -18q-5 -8 -8 -19q-2 -10 -7 -19q-4 -7 -5 -19q0 -7 -3 -19q-3 -6 -3 -32q0 -22 -3 -32q-2 -6 -2 -45q0 -38 2 -43q3 -4 3 -20
q1 -14 5 -23q4 -10 5 -11q2 -2 2 -8q1 -1 2.5 -6t2.5 -7q2 -4 8 -13q5 -8 5 -11q3 -9 5 -14q4 -9 11 -17q9 -12 11 -20q4 -10 7 -13l9 -9l8 -6q3 0 7 -3q3 -3 15 -5q8 0 20 -6q15 -5 18 -5q2 0 7.5 -1.5t7.5 -2.5q10 -4 11 -5l8 -2l12 -4q2 -2 16 -4q9 0 19 -4q5 -3 11 -3
q2 1 14 3q2 0 6.5 1t5.5 1q7 3 16 6q12 3 18 6q2 1 20 3q18 3 26 8q8 4 13 9q3 3 3 51l2 52q2 4 2 11t-2 9q-1 2 -3 12q-1 10 -6 16q-4 7 -9 9q-6 2 -31 2t-29 2t-15 2q-13 2 -21 0q-11 -2 -14 -1q-5 0 -10 5q-6 6 -7 9q-3 5 -3 10q0 1 -1.5 5.5t-1.5 6.5q-3 8 0 16
q3 12 3 15q0 8 3 14q1 5 6 10q2 2 8 5q5 0 5 2q1 1 32 1q32 0 36 -2q6 -2 11 0q4 2 61 2q57 1 64 4q6 4 18 3q9 0 18 -3q6 -4 9 -7l2 -3l3 -6q3 -5 3 -45q0 -38 -2 -46q-1 -6 0 -13q1 -3 3 -45v-40q0 -15 1 -30v-36q0 -1 -0.5 -17t-0.5 -26q-1 -32 -4 -39t-9 -11
q-5 -3 -16 -7q-12 -4 -13 -5q-5 -2 -11 -3q-7 -3 -18 -5q-12 -2 -13 -3q-4 -2 -12 -2t-12 2q-6 3 -9 3q-3 2 -16 -2q-9 -3 -14 -3q-3 0 -11 -2q-15 -3 -22 -4q-18 -2 -20 -3q-6 -3 -30 -3q-25 0 -30 2q-6 3 -45 4q-40 0 -44 2q-2 1 -15 4q-11 2 -13 3q-4 2 -15 2
q-15 2 -17 4q-6 2 -8 4t-12 4q-7 1 -16 6q-4 2 -15 7q-14 5 -17 8q-10 4 -12 5q-1 1 -3 2.5t-3 1.5q-1 2 -9 6q-6 3 -12 9q-5 5 -11 9q-6 6 -7 9q-1 1 -3.5 4t-3.5 4q-4 6 -9 11q-3 6 -12 15q-10 8 -15 13q-7 9 -8 15q-3 9 -9 15q-5 5 -11 15q-1 2 -5 14q0 7 -4 13
q-3 6 -3 13q0 6 -4 16l-5 12q-1 1 -2 9.5t-2 12.5q-2 20 -2 28v17q0 16 -1 25q-2 16 -4 22q-2 5 -2 7t2 7q3 14 4 32q2 27 3 29q2 8 2 16q2 13 6 21q5 10 5 20q0 9 2 19q1 3 3 8t2 7q1 2 6 14q5 9 9 15q6 10 7 13q0 4 6 16q3 7 8 17q3 8 8 12q9 12 10 14q5 9 14 17
q3 3 9 8.5t8 7.5q6 6 12 14q3 7 10 12q4 4 10 6q1 1 5.5 3t6.5 2q2 1 7.5 3.5t7.5 4.5q8 6 21 12q3 1 9.5 4t8.5 4q5 3 7 3q1 0 9 4q9 5 23 8q18 4 22 5q2 0 11 3z" />
    <glyph glyph-name="uni0048" unicode="H" horiz-adv-x="743" 
d="M566 727q4 2 8 2q8 0 23 -3q17 -3 33 -3q13 0 19 -3q6 -2 11 -13q6 -12 6 -14t2 -10t2 -12q0 -5 -2 -11q-3 -5 -3 -13q0 -7 2 -13q3 -5 3 -54q0 -37 -0.5 -44t-4.5 -12q-5 -8 -4 -12q0 -6 3 -7q1 -1 3 -7q1 -6 -1 -13q-2 -10 -2 -26q0 -27 1 -39q1 -7 2 -17t1 -11
q1 -6 0 -14t0 -14q2 -8 2 -22q0 -15 -3 -21q-2 -3 -2 -18q0 -13 2 -17q3 -5 3 -60q1 -31 1 -73v-13q0 -15 -1 -56q-1 -55 -4 -64q-4 -12 -6 -13q-4 -4 -13 -4q-11 -2 -14 -4q-6 -2 -14 -2q-9 0 -17 2q-6 2 -28 2q-19 0 -33 6q-14 7 -17 10q-2 4 -4 13q-2 10 -2 15q-1 7 3 12
q4 7 5 23q2 20 2 46q1 15 1 36v15v25v32q0 4 0.5 12t0.5 10q1 7 0 16q-2 8 -2 19q-2 14 -3 15l-8 8q-5 5 -9 5q-2 1 -53 1q-47 0 -56 3q-6 2 -28 3q-22 0 -31 -3q-13 -3 -35.5 -3t-33.5 3q-7 3 -19 3q-14 -2 -20 -5q-7 -3 -14 -9q-4 -6 -6 -11v-8t-0.5 -17.5t-0.5 -19.5
q-1 -22 -1 -44t1 -44q0 -10 0.5 -43.5t0.5 -48.5q0 -52 -3 -56q-2 -4 -8 -8q-6 -3 -12 -7q-5 -2 -47 -2q-41 0 -46 2q-1 1 -4.5 3t-5.5 2q-4 4 -6 9q-2 8 -4 24q-3 15 -3 27q0 8 2 14q1 4 0 10q-3 6 -3 34v14.5t-0.5 12.5t-0.5 6l0.5 5t0.5 12v13q2 29 3 33q1 8 0 14
q-2 4 -3 91q0 89 -1 93q-1 7 1 16q1 8 -1 18q-2 9 -2 11q0 3 1 6q2 4 3 116q0 108 2 116q2 7 6 10t18 6q9 2 49 2q37 -1 44 -4q7 -2 10 -5t5 -12q1 -3 2.5 -8.5t1.5 -6.5q0 -9 -2 -15q-2 -10 -1 -21q2 -10 0 -21q-1 -7 -1 -24q0 -10 2 -16t2 -79q1 -74 4 -78q4 -3 84 -3
q86 -2 89 -2q8 -3 13 -1q3 2 43 2q39 0 43 -2q6 -2 9 -2t13 4t16 13q5 6 5.5 14t0.5 49v30q0 26 -2 33q-1 2 -2 8t-1 8q0 12 1 15q2 5 0 23q0 20 1 24q1 6 -1 12q-3 4 -3 16q0 10 -2 16t0 14l2.5 5t2.5 4q2 3 11 5q7 2 9 4q2 0 8 2q5 0 11 3z" />
    <glyph glyph-name="uni0049" unicode="I" horiz-adv-x="269" 
d="M93 735h8h13.5h17.5q29 0 35 -2q6 -3 9 -3l12 -4q6 -4 10 -8q4 -5 4 -10.5t3 -13.5q3 -9 3 -20q0 -13 -2 -17q-3 -4 -3 -26v-143v-70v-68v-50q0 -21 0.5 -55t0.5 -39t0.5 -17t1.5 -14t1 -16q-2 -11 0 -25v-28q0 -26 -1 -39t-1 -25q0 -5 1 -9q0 -7 -2 -13q-2 -5 -5 -10
q-2 -3 -7 -6q-9 -3 -21 -3q-16 -2 -23 -2q-8 -2 -30 -2t-28 2q-8 2 -11 5q-7 5 -8 8q-1 2 -3 5t-2 5q-2 8 -2 12q0 5 2 11q2 4 2 7t-2 9q-2 4 -2 29q3 36 3 38q2 11 -1 24q-2 14 -2 41q0 33 2 38q2 7 0 16q-2 8 -2 75v109q0 43 2 49q1 5 0 10q-2 8 -2 47t-3 50q-3 7 -3 19
q0 10 3 19q3 8 3 38q0 32 -1 36q-1 7 2 13q2 6 12 14q9 9 16 9z" />
    <glyph glyph-name="uni004A" unicode="J" horiz-adv-x="488" 
d="M304 725q1 0 4 0.5t4 0.5q5 0 13 -4q11 -4 36 -4q27 -1 33 -5q3 -3 9 -6l6 -6q4 -6 4 -8q0 -4 1 -4q1 -1 5 -7q4 -8 4 -11q0 -7 -3 -13q-2 -8 0 -14q2 -10 2 -50q1 -22 1 -33.5t-1 -13.5q-2 -4 -2 -11q0 -10 1 -15q2 -9 -1 -17q-3 -9 0 -17q2 -5 3 -117q1 -110 3 -114
q3 -3 3 -8q0 -3 -4 -11q-3 -6 -2 -29q0 -19 -2 -29q-3 -6 -3 -17l-4 -20q-1 -3 -3 -9.5t-2 -7.5q-1 -5 -8 -17q-5 -7 -7 -16q-3 -11 -4 -13q-1 -3 -10 -14q-9 -9 -9 -10q0 -3 -3 -7q-1 -1 -4 -3t-4 -3q-4 -2 -12 -10q-7 -8 -16 -13q-12 -5 -14 -5q-1 0 -4.5 -1t-4.5 -2
q-4 -2 -14 -6q-2 -1 -8.5 -3t-8.5 -3q-7 -1 -34 -3q-21 0 -33 -3q-8 -2 -20 -2l-14 1q-1 1 -14 5q-10 5 -18 5q-2 0 -6.5 1t-6.5 2q-6 2 -12 2t-11 5q-2 2 -11 8q-3 3 -6 3q-1 0 -12 11q-12 10 -13 10t-14 13q-12 11 -17 20q-5 10 -5 15q-1 2 -2 6l-1 3q-2 0 -6 13
q-4 10 -6 21q0 7 -3 16q-1 2 -2 5l-1 4q-2 0 -2 26t1 27q2 2 4 10q1 6 4 9q3 2 21 0q19 -1 27 4q7 5 11 4q2 0 5 -0.5t4 -0.5q5 -1 7 1q3 3 3 5t4 4q6 4 8 4q4 0 7 -3q6 -2 9 -5q7 -5 8 -7q1 -1 7 -9q2 -7 4 -17q1 -12 0 -22q-1 -5 -1 -19q2 -12 5 -21q5 -13 9 -17
q3 -5 13 -9t13 -7q4 -4 11 -6q8 -4 11 -4q3 -1 13 2q7 3 17 3q8 0 10 -2q0 -1 6 -1q5 0 10 7q7 6 8 14q1 2 2 7.5t1 7.5q2 8 5 14q2 6 2 27v31v52q0 42 -2 46q-2 6 -2 27q0 20 2 28q3 9 3 17q0 15 -2 21q-3 10 0 14q1 3 1 22q2 14 -1 24q-2 8 -2 15q-1 4 1 16q2 10 1 11
q-3 3 -1 17q0 15 -3 19q-2 3 -1 16q0 9 3 21q1 4 3 39q1 20 1 28t-1 13q-1 9 0 17q2 11 5 18q5 12 11 17q6 7 11 10z" />
    <glyph glyph-name="uni004B" unicode="K" horiz-adv-x="669" 
d="M508 727q6 2 20 2q12 0 18 -2q4 -3 13 -3q9 -2 10 -3q2 -2 14 -2q17 0 23 -1q10 0 12 -2q2 0 5 -3q2 -3 -1 -11q-3 -4 -3 -13q0 -6 -7 -13q-5 -4 -14 -15q-5 -6 -18 -17q-11 -7 -20 -18q-9 -9 -9 -11l-4 -6q-1 -1 -6.5 -7.5t-8.5 -9.5q-5 -6 -16 -17q-2 -2 -5.5 -6
t-4.5 -5q-4 -5 -9 -9q-6 -4 -15 -15q-5 -6 -20 -26q-4 -4 -8 -10l-4 -6q0 -1 -4 -7q-6 -9 -14 -17l-14 -14t-16 -17q-11 -10 -26 -25q-7 -4 -9 -11v-11q2 -5 5 -10q0 -1 1.5 -2.5t1.5 -2.5q4 -7 10 -14t18 -19q9 -6 15 -16q8 -10 8 -11l4.5 -5.5t7.5 -9.5q3 -3 10 -10.5
t9 -10.5q9 -9 17 -22q9 -15 11 -15t8 -8t14 -14q5 -4 13 -12q7 -7 10 -13q4 -8 9 -13l6 -4q1 0 3.5 -2t3.5 -3q4 -4 8 -12q1 -1 3 -5t3 -5l3 -6q1 -1 3 -5t7 -9q8 -10 10 -15q5 -8 11 -9q2 -1 6 -2.5t5 -1.5q4 -1 11 -14q3 -8 14 -22q8 -8 14 -16q2 -3 9 -10q4 -4 8 -12
q3 -6 3 -11q0 -1 -0.5 -3.5t-0.5 -3.5q-2 -3 -5 -5q-4 -4 -9 -5q-8 -4 -30 -5q-13 -1 -30 -1l-12 0.5t-20 0.5q-21 1 -32 4q-5 3 -10 3t-9 2q-1 1 -4.5 4t-5.5 5q0 1 -4.5 6t-5.5 7q-1 1 -4 5t-5 5l-7 11q-3 6 -16 19q-4 4 -10 10.5t-7 7.5q-4 6 -11 13q-1 2 -4 6t-3 5
q-2 4 -9 11q-2 3 -6 8t-5 6l-10 14q-3 5 -19 21q-12 13 -14 17q0 4 -2 8q-1 2 -24 27q-25 27 -28 31q-6 6 -11 16q-2 7 -5 10q-3 6 -14 20q-12 17 -18 20q-3 2 -9 5q-5 3 -7 6q-2 4 -9 8q-5 3 -10 5q-5 1 -9 -1q-5 -2 -6 -5q-2 -4 -2 -20q1 -9 1 -26v-17q0 -5 -2 -27
q-1 -19 0 -23q1 -3 3 -24q1 -7 3 -59q0 -40 -2 -46q-2 -8 -2 -12q0 -5 2 -9q3 -6 3 -37q0 -32 -2 -34l-2.5 -1.5t-2.5 -2.5q-4 -2 -56 -2q-40 0 -47 0.5t-11 4.5q-5 4 -9 11q-3 5 -3 24q0 17 -3 26t-2 16q1 4 1 29q0 7 -0.5 24t-0.5 23v28q0 17 -1 34q-2 32 -3 34
q-2 4 -2 28v15q0 9 2 19q3 8 1 19q-1 10 0 18t0 15q-2 6 -3 7v7q0 6 -0.5 16.5t-0.5 20.5q0 43 2 47q2 6 2 10q0 3 -2 9q-2 5 -3 63v29.5t-0.5 25.5t-0.5 11l1 14v26q1 30 5 45q4 11 8 14q2 1 12 5q8 1 17 0q6 -2 31 -2q24 2 28 3q6 2 11 2q6 0 13 -8q9 -7 11 -14
q3 -6 3 -55q0 -50 -2 -55q-2 -6 -2 -17q0 -12 2 -18q2 -4 2 -39q0 -30 2 -54q1 -5 2 -14t2 -11q2 -6 4 -8q2 -1 8 1q4 1 11 6t7 10q3 6 15 18q15 13 15 16q1 2 7 12q9 12 10 14q4 7 8 9l12 12q2 2 7 8t7 8q2 3 5 7t3 5q0 2 5 5q1 1 7 4l6 3q2 2 8 12l15 21q3 4 7 9l5 6
q0 3 2 3q0 1 2 3q2 3 3 4q2 2 8 11l11 12q11 12 19 20q8 9 18 20l10 11l9 12q4 4 13 10q12 3 14 3q8 0 14 2z" />
    <glyph glyph-name="uni004C" unicode="L" horiz-adv-x="597" 
d="M115 721q6 2 8 2q1 0 3 -0.5t3 -0.5q2 -2 22 -2q6 0 15.5 -0.5t10.5 -0.5q1 -1 5.5 -3t6.5 -2q7 -4 9 -7q4 -4 6 -8l7 -10q3 -9 3 -10q0 -5 2 -11t2 -16q0 -12 -3 -19q-3 -9 -3 -30q0 -22 3 -32q2 -12 1 -21q0 -3 -0.5 -9.5t-0.5 -7.5t-0.5 -6.5t-1 -15t-0.5 -16.5
q0 -34 3 -41q2 -6 2 -14q0 -5 -1 -23q0 -9 -0.5 -23.5t-0.5 -15.5q1 -5 -1 -17q-1 -9 1 -17q2 -14 2 -32q0 -24 -2 -27q-1 -1 -2 -5t-1 -5q-1 -6 2 -19q4 -18 4 -34q1 -12 1 -44q-1 -12 -1 -36q0 -16 3 -19q4 -4 6 -4q1 -1 7 -4t91 -3q88 0 91 1t26 3q21 1 25 -1q3 -2 14 -2
h24q13 -1 21 1q12 3 17 3q9 1 15 -4q1 -1 3 -2q5 -3 6 -4q5 -2 6 -5q3 -5 3 -37q0 -34 -3 -41q-3 -6 -7 -12q-3 -3 -9 -7q-5 -2 -31 -2q-14 1 -30 1q-10 0 -17 -1q-5 -1 -15 -2.5t-12 -1.5q-16 -2 -25 -2q-12 0 -23 3q-14 3 -20 2q-4 0 -13 -3q-6 -2 -28 -1q-19 0 -45 2
q-23 0 -25 2q-6 0 -10 -2q-5 -2 -29 -2h-29h-31q-14 -1 -19 -1q-8 0 -15 2q-8 3 -16 1q-2 0 -7 -1t-7 -2q-5 0 -11 3q-1 0 -11 7q-4 6 -7 9q-2 4 -3 49q0 44 -3 50q-2 4 -1 12q0 2 0.5 6.5t0.5 5.5v7q-1 6 -1 11q-1 14 1 20t1 12q-1 4 -1 15q0 2 -0.5 13.5t-0.5 18.5
q-1 22 1 28t2 24q0 5 0.5 18t0.5 17v39v116q0 90 -2 96q-1 3 0 12q2 8 2 9q0 5 -1 11q-2 8 -1 14q1 4 1 27q-2 22 -2 23q-2 4 -2 11q0 9 3 15q2 6 8 12q2 2 11 8q9 3 10 3q5 0 9 2z" />
    <glyph glyph-name="uni004D" unicode="M" horiz-adv-x="840" 
d="M88 724q20 0 40 -1q12 0 30 -0.5t20 -0.5q15 0 19 -1q5 0 17 2q10 2 24 2q15 0 18 -3q4 -2 8 -6q3 -2 8 -17q5 -10 7 -23q2 -8 6 -19q4 -10 7 -16l3 -9q0 -3 5 -15q5 -16 6 -26q2 -12 4 -16q3 -3 5 -11q2 -7 4 -17q1 -10 6 -18q5 -5 5 -12q3 -11 6 -15q4 -7 4 -14.5
t3 -11.5q4 -7 5 -13q0 -2 1 -5l1 -3q1 -1 3 -9q0 -3 3 -12q2 -4 2 -12q1 -4 4 -13q3 -4 5 -15q3 -15 3 -16q1 -2 2 -5.5t1 -4.5t2 -5.5t3 -6.5q3 -12 3 -18q1 -5 6 -23q5 -15 9 -23q4 -9 8 -30q4 -20 5 -23q1 -2 2 -6t1 -5q2 -7 8 -7t11 6q5 10 5 12q4 12 5 14q4 10 4 14
t2 8q3 6 5 9q3 12 3 13q0 6 2 14q2 9 7 21q6 21 7 24q3 9 5 19q2 8 2 10q0 1 2 5.5t3 6.5q5 9 7 19q2 8 2 16q3 12 5 16q3 6 5 16q0 3 3 15q1 2 2 5t2 4l2 4q0 4 3 8q1 2 2.5 7.5t1.5 7.5q2 10 4 12q0 1 2 5l3 6q0 1 1.5 5.5t1.5 5.5q0 5 6 17q5 15 7 23q0 3 3 15q4 8 4 10
q1 0 3 8q1 1 2.5 5.5t1.5 5.5l4 12q0 6 4 18q2 9 6 18q3 8 9 16q5 7 11 14q9 6 15 8q9 3 45 3q8 0 18.5 0.5t16 1t7.5 0.5q18 0 34 -1q28 -1 34 -4t11 -13t5 -19v-40v-40q-1 -5 -1 -54q0 -12 0.5 -44t0.5 -45q2 -47 3 -49q1 -4 1 -17q-1 -4 -2 -14t-1 -14q-2 -9 -2 -20
q0 -6 1 -14q0 -33 -1 -52q-1 -17 -1 -26q0 -13 2 -23q0 -9 3 -27q1 -6 1 -15t-1 -23q-1 -11 -1 -25t1 -26q0 -7 0.5 -23.5t0.5 -21.5q0 -17 -2 -23q-2 -4 -2 -12t-4 -16q-1 -6 -8 -15q-5 -6 -10 -8q-4 -2 -13 -2q-10 -1 -15 1q-4 2 -13 1q-8 -3 -14 0q-1 0 -6.5 1t-8.5 1
q-11 2 -14 4q-6 6 -8 9q-4 5 -4 14q0 4 1 17v15q0 9 -1 22q-2 11 -1 17q0 1 2 88q0 81 2 89q2 5 0 13q-1 5 -1 21q1 7 1 22v95q0 89 2 101q2 17 1 20q-1 1 -2 4.5t-1 4.5q-1 3 -1 10q0 5 -2 9t-3 3l-5 -5q-4 -6 -4 -7q-2 -4 -5 -8q-2 -2 -4.5 -7t-3.5 -6q-3 -12 -3 -17
q-1 -6 -4 -15q-1 -1 -4 -10q0 -7 -7 -21q-6 -18 -8 -21l-3 -12q0 -9 -2 -9l-4 -12q-2 -6 -6 -14q-3 -3 -5 -13q-1 -4 -2 -11l-2 -6q-2 -8 -4 -14q0 -1 -1.5 -6.5t-2.5 -8.5q-2 -10 -7 -22l-6 -16q-1 -1 -5 -9q-2 -4 -5 -14t-3 -11q-3 -6 -3 -11l-3 -12q-2 -3 -2 -12
q0 -2 -3 -14q-4 -8 -4 -12q-1 -1 -2 -5t-1 -5q-2 -3 -5 -12q-3 -6 -3 -8q-1 -4 -3 -7q0 -2 -1.5 -5.5t-2.5 -5.5q0 -4 -6 -18l-6 -21q-3 -13 -6 -20l-5 -15q-3 -6 -6 -9q-5 -5 -6 -15q0 -2 -0.5 -9t-0.5 -10q0 -9 -3 -15l-4 -7q-2 -2 -2 -5q-2 -4 -4 -10q-3 -8 -9 -11
q-7 -6 -16 -9q-9 -5 -25 -5q-13 0 -23 2t-15 2t-13 4q-7 3 -10 10l-7 14q-4 10 -5 13q-2 4 -2 15l-3 15l-5 15q-3 13 -4 24q-1 13 -4 18q-2 1 -6 11q-1 4 -4 13q0 4 -3 10q-3 5 -5 15q-1 2 -2.5 9.5t-1.5 9.5q-1 3 -2.5 8.5t-1.5 6.5l-3 12q-3 5 -3 9q0 1 -6 21
q-7 18 -11 33q-2 4 -4.5 12.5t-3.5 10.5q-3 15 -3 17q-1 4 -4 13l-5 15q-1 3 -2.5 8.5t-1.5 6.5q0 5 -3 11q-3 9 -3 11l-3 7l-5 7q-3 12 -3 13q0 5 -4 19l-6 15q-2 2 -2 7t-2 11q-3 7 -4 15l-3 6l-1 5q-2 5 -4 13q0 2 -1 8.5t-2 8.5q-2 9 -5 12q-3 8 -9 19q-7 14 -7 16t-3 5
q-2 3 -5 3q-2 0 -4 -4q-2 -3 0 -12q0 -3 0.5 -7.5t0.5 -5.5v-9q-1 -9 -1 -16q-2 -22 -2 -25q-2 -4 -2 -13v-13v-22q0 -21 -1 -27q-3 -9 0 -18q0 -1 0.5 -11t0.5 -16q1 -8 1 -18.5t-1 -18.5q0 -6 0.5 -15t0.5 -10q1 -7 0 -22q-1 -4 -2 -10l-1 -6q-1 -1 -3 -5q0 -6 2 -9
q2 -8 2 -23q0 -21 2 -29q2 -11 -1 -25t-1 -22q1 -4 1 -12q-2 -4 -2 -45q0 -10 -1 -27.5t-1 -19.5q-2 -9 -1 -16q0 -13 -1 -18l-4 -16l-3 -6l-2 -3q-3 -3 -9 -5q-3 0 -12 -3l-15 -3q-17 0 -26 1q-16 1 -23 6l-7 7q0 2 -2 4l-5 10q-2 10 -2 30q0 41 -1 63q0 12 -0.5 34
t-0.5 27q2 26 3 30q1 7 0 23q-1 8 -1 21v45q0 40 2 45q2 7 0 13q0 1 -3 20q-1 12 3 25q3 11 3 81q0 69 2 89q0 6 0.5 16t0.5 11q0 11 -1 14v10v28q0 27 1 34q0 3 0.5 9t0.5 7l3 9q3 6 4 7q3 3 8 5q2 1 5 2z" />
    <glyph glyph-name="uni004E" unicode="N" horiz-adv-x="747" 
d="M94 725q8 3 14 3q2 0 10 -2q4 -1 30 -1q26 2 29 2q6 2 17 2q12 0 16 -2q6 -2 9 -2q7 0 9 1q4 3 15 -1q12 -2 15 -5q4 -4 7 -11q4 -10 7 -16q3 -8 9 -13q2 -2 11 -17q4 -10 4 -11q0 -2 5 -9q4 -6 10 -19q4 -12 7 -18l3 -7q3 -5 6 -9l6 -10q0 -1 6 -9q4 -4 9 -14
q2 -6 10 -20l9 -18q0 -1 7 -11q3 -3 10 -19q1 -2 3 -9t2 -8q2 -6 7 -11q3 -3 11 -15q7 -11 9 -17l6 -12l4 -7t6 -12q3 -4 6.5 -11t3.5 -8q2 -2 4 -6q1 -2 3 -10q2 -7 3 -8q2 -2 2 -7q2 -7 7 -13q1 -3 6 -9q1 -2 2 -3q4 -6 4 -10l2 -4.5t3 -6.5t3.5 -5.5t2.5 -4.5q1 -1 4 -6
q1 -2 2 -3t3.5 -5.5t3.5 -6.5q3 -4 5 -11t7 -13q8 -10 11 -19q2 -3 5 -10t4 -9q5 -10 7 -15q2 -6 8 -15q4 -9 8 -11q4 -3 7 -1t3 4q1 1 1 10q0 8 2 22q2 10 2 47q0 32 -2 38q-1 4 -1 11q1 2 1 31q0 30 -1 34q-2 3 -2 14q0 7 1 21q0 7 0.5 15t0.5 13v5q0 3 -2 15q-2 14 -2 19
t2 23q0 19 -1 24q-2 8 0 31q1 20 -2 31q-2 8 -2 14v12v8q0 8 -1 46v27q0 20 1 26q2 4 6 8q5 4 9 6t14 4t41 2q17 1 24 1q10 0 12 -2q5 -2 9 -8q5 -3 5 -7v-61q1 -59 3 -62q2 -6 2 -43q1 -22 1 -29q0 -13 -3 -20q-3 -8 -2 -27q2 -20 3 -21q2 -2 2 -75q0 -72 -3 -77
q-2 -4 -2 -23t2 -22q3 -4 3 -15t-3 -18t-2 -23q2 -17 3 -18q2 -4 2 -26q0 -24 -3 -30q-2 -8 -2 -19q3 -19 3 -20q2 -10 2 -31t-4 -33q-2 -5 -6 -13l-9 -6q-5 -3 -78 -3q-72 0 -82 4q-12 7 -17 14q-6 6 -15 22q-1 2 -13 22q-5 7 -7 12q-3 3 -9 24q-6 20 -16 30q-9 8 -15 20
q-1 3 -5 11t-5 11q-7 14 -10 23q-3 12 -7 19q-3 6 -5 8q-1 0 -3 4q-3 6 -5 9q-1 1 -2.5 4t-2.5 4q0 1 -4 7q-4 4 -6 11q-4 6 -6 8l-1 2l-3 3q-3 5 -4 12q-1 4 -4 13q-4 6 -7 9q-6 5 -7 10q-3 9 -6 13q-3 5 -10 19q-5 10 -7 18t-3 8q-2 0 -2 7q-2 7 -9 14q-8 9 -9 15
q0 5 -6 15q-1 3 -3.5 9t-2.5 7q-1 5 -7 10q-4 6 -8 10l-2 4l-1 2q-3 7 -7 15q-6 12 -12 21q-4 6 -6 10q-3 6 -4 9q0 2 -3 11q-3 5 -3 8q0 2 -7 11t-9 16t-6 11q-1 0 -2.5 1.5t-2.5 1.5t-2 -0.5t-2 -0.5q-2 -2 -2 -6l1 -7v-12q1 -15 -1 -21q-3 -6 -3 -12t3 -10q2 -5 3 -40
q0 -33 2 -39t2 -40q0 -4 0.5 -60t0.5 -94q0 -119 2 -121l1 -4v-11v-13q0 -32 1 -38q3 -11 0 -21q-2 -12 -2 -13l-1 -2v-2q0 -2 -3 -5q-5 -5 -7 -6l-27 -4q-14 -1 -42 -1q-20 2 -22 3q-6 3 -8 5q-4 4 -6 8l-2 56q0 13 -0.5 26.5t-0.5 22v9.5q-2 5 0 23q2 11 2 18t-2 18
q-3 17 -1 22q1 2 3 25q0 21 2 23v9q-1 5 -3 144q0 45 -0.5 108.5t-0.5 67.5q0 36 -2 60q-1 10 -1 19t1 13q0 10 2 12l2 12q1 12 5 16q4 5 15 9z" />
    <glyph glyph-name="uni004F" unicode="O" horiz-adv-x="779" 
d="M433 641q-4 2 -28 2h-28q-1 -1 -5 -2t-5 -1q-2 0 -19 -3q-8 0 -20 -3q-6 -2 -15 -6q-6 -3 -11 -3q-4 0 -16 -7q-14 -7 -24 -18q-8 -7 -17 -19q-1 -2 -3.5 -5.5t-2.5 -4.5q-3 -6 -4 -7q-1 -2 -7 -10l-8 -12q-4 -6 -4 -11q-2 -7 -6 -11q-5 -8 -5 -9q-2 -4 -2 -8t-4 -14
q-5 -11 -7 -17q-1 -4 -4 -13t-3 -63l2 -63q0 -8 2 -12q3 -6 3 -27q2 -25 4 -32q0 -2 2.5 -11.5t3.5 -13.5q3 -17 7 -24q5 -5 5 -12q1 -1 2 -5t1 -5q1 -2 3 -7t3 -7q6 -10 12 -16q9 -12 12 -17q1 -2 6 -8t7 -8q6 -6 14 -8q8 -3 14 -7q13 -8 16 -11q4 -4 12 -7q1 0 6 -0.5
t8 -0.5q8 0 19 -6q11 -5 48 -5t46 3l12 5l8 4q2 2 8 5l3 2l6 3q1 1 4.5 3t4.5 3q1 0 11 7q2 1 7.5 5.5t6.5 5.5l16 16q12 12 17 21l12 21q1 2 4 7t4 7q5 7 6 13q2 8 2 10l1 4q1 3 2 5q4 10 4 20q0 9 3 18t3 21q0 14 3 20q2 4 2 12q0 6 -2 14q-2 4 -2 26q0 34 -2 50
q-2 34 -2 39q0 7 -2 15q0 6 -4 18q-2 10 -4 14l-3 6q-2 3 -3 5l-4 6q-2 0 -4 5q-2 4 -2 10q0 8 -1 11q0 2 -3 8q-3 1 -7 10q-3 6 -11 16q-10 12 -18 19q-11 11 -12 11t-14 11q-12 11 -24 14q-7 2 -22 5q-5 1 -14 4zM373 741q7 0 15.5 0.5t14 0.5h6.5q8 0 21 -3
q3 0 11.5 -1.5t10.5 -1.5q7 0 13 -3q7 -3 23 -4q15 -1 25 -6q2 -1 7 -3t7 -3q3 -3 18 -7q13 -5 18 -5q6 0 9 -3l11 -7q8 -5 16 -12q9 -9 17 -13q8 -6 16 -14q11 -11 12 -15q1 -1 2.5 -4t2.5 -4l2 -2.5t5.5 -6l6.5 -6.5q12 -12 12 -14t4 -6l3 -6l4 -6q6 -9 8 -11q1 -2 3 -5
l2 -3q0 -2 2 -6q1 -2 3 -10q0 -1 3 -13q5 -9 6 -16q5 -10 6 -13q2 -4 4 -10q3 -6 3 -24q1 -19 4 -23q2 -3 3 -32q2 -30 2 -38q2 -7 2 -10t-2 -5q-2 -3 -3 -39q0 -34 -2 -38q-2 -5 -4 -18q0 -13 -4 -25l-4 -23q-1 -9 -4 -17l-6 -12q-4 -8 -4 -11l-3.5 -7t-5.5 -12l-10 -18
l-2 -3t-3 -4q-1 -5 -9 -12q-9 -11 -10 -15q-5 -6 -7 -13l-6 -6q-5 -3 -8 -8q-6 -8 -13 -15q-10 -10 -19 -16l-15 -12q-1 -1 -4 -3.5t-4 -3.5q-5 -3 -12 -5l-9 -3q0 -1 -9 -3q-8 0 -13 -5t-9 -7q-4 -3 -7 -3t-9 -3t-14 -5q-10 -2 -11 -3q-6 -2 -10 -2q-6 0 -12 -3
q-12 -3 -41 -3q-33 0 -38 2q-6 2 -11 2q-6 0 -12 -3q-7 -2 -12 -2h-8l-21 3q-15 3 -23 3q-20 3 -24 4l-12 3l-10 5q-9 6 -15 7q-6 2 -14 6q-5 2 -14 7q-5 2 -13 6q-1 1 -3 2.5t-3 1.5q-1 2 -13 8q-7 4 -19 13q-3 3 -7.5 6.5t-5.5 4.5q-5 2 -11 10q-5 9 -8 9q-4 4 -6 8
q-1 1 -4 5.5t-4 5.5q-6 4 -9 12q-3 4 -9 13q-1 3 -5 7q-1 1 -2 4q-2 3 -3 4q-3 4 -3 8t-3 10q-2 4 -7 15q-3 4 -8 19q-4 14 -4 16q0 5 -3 12q-3 12 -3 14q0 6 -2 20q-1 5 -4 22q-2 11 -4 13q-2 4 -2 9q0 4 2 10q1 4 -1 13q0 1 -3 20q-2 14 -2 25q0 12 -1 12q0 6 2 10
q1 4 3 30q0 19 2 29q1 2 4 16q2 10 2 11q1 1 3 9q0 7 4 17q5 15 6 17q2 6 4 11l3 9q1 6 4 11q1 4 7 10q5 3 7 10l6 15q1 2 4 7.5t4 7.5q1 1 3.5 4t3.5 4q0 1 2 4t3 5q2 7 9 18q6 13 17 20t18 9t17 10q9 7 18 12q6 3 9 6q1 0 3.5 2t3.5 3q1 0 6.5 2.5t8.5 3.5q11 4 20 9
q10 5 14 5q5 0 12 3q8 2 30 4q22 1 26 4q3 3 7 5q6 2 35 2z" />
    <glyph glyph-name="uni0050" unicode="P" horiz-adv-x="582" 
d="M238 629q-4 1 -11 1q-4 0 -8 -2q-2 0 -6 -1t-5 -2q-6 0 -6 -2q-1 -1 -3 -14q-1 -13 0 -24q0 -12 -1 -14q-2 -4 -2 -6q-1 -1 1 -8q2 -4 2 -38q0 -35 -1 -38q-2 -4 -2 -23q0 -4 -0.5 -14t-1.5 -12q0 -9 2 -15q4 -10 4 -15q2 -7 5 -12q4 -6 9 -6q6 -2 9 -2q5 0 13 3
q6 3 39 4q29 0 41 3q7 3 13 3q1 0 14 5q11 7 16 8q9 2 10 5l9 9q6 6 10 12q1 1 4 4.5t4 4.5q6 9 7 11q3 5 5 16q2 10 3 13q1 2 3 12q2 8 2 14t-2 16q-3 16 -5 24q-4 14 -9 24q-5 11 -16 20q-10 10 -23 15q-14 6 -16 8q-6 3 -9 4q-7 0 -9 2q-4 2 -17 4q-13 3 -18 1l-5 -1h-9
q-12 0 -16 2q-5 2 -11 0q-8 -2 -13 1zM109 724q7 1 23 1q6 -1 43 -1h41h12h24h31q59 -1 64 -3q3 -3 16 -3q16 -2 18 -3q6 -2 10 -2q3 0 9 -2q7 -3 19 -8q11 -5 20 -7q6 -3 16 -7q12 -6 14 -8l6 -3l4 -4q4 -2 8 -9q3 -5 12 -9q4 -3 16 -16q12 -16 15 -23q2 -3 4 -6.5t4.5 -8
t3.5 -5.5l7 -21q3 -12 5 -31q0 -4 0.5 -14t1.5 -12q0 -4 -2 -18t-2 -21q0 -9 -2 -15q-2 -7 -1 -15q2 -8 0 -11q-1 -1 -3 -3.5l-2 -2.5q-3 -6 -3 -11q-2 -10 -3 -12q-2 -4 -8 -10l-6 -8l-6 -10q-7 -7 -9 -13q-3 -6 -11 -14q-12 -12 -15 -14q-10 -5 -15 -7q-2 -1 -8.5 -4.5
t-9.5 -5.5q-9 -6 -12 -9q0 -1 -2 -2t-3 -2q-4 -2 -14 -4q-6 -1 -17 -1q-8 0 -18 -5q-10 -4 -14 -4q-6 0 -10 -3q-6 -2 -80 -3q-73 -1 -76 -4q-2 -1 -4 -8q0 -1 -0.5 -9.5t-0.5 -21.5v-25q-1 -28 -1 -60q0 -37 1 -70q0 -60 -3 -70l-3 -6q-3 -5 -4 -6q-3 -3 -9 -6
q-8 -4 -19 -4t-17 -2q-10 -2 -26 -2q-21 0 -29 4t-14 10q-2 3 -5 9q-2 5 1 14q2 11 1 16q0 7 -2 9q-2 4 -2 28q0 23 -2 51q-1 17 -1 33q1 4 1 24q-1 10 -1 20q2 2 2 23q2 24 2 26q0 1 -0.5 7.5t-0.5 16v18.5q-1 19 -1 27q0 12 2 16q2 7 1 11q-1 2 -3 18t-2 22q0 2 0.5 9
t0.5 10q1 12 -1 20q-3 9 -3 24q0 16 2 21q2 9 3 73q0 67 3 75t3 14q0 9 -3 16q-3 10 -1 16q3 7 2 16q-1 10 3 14q2 4 9 8q8 4 9 4q7 2 17 4z" />
    <glyph glyph-name="uni0051" unicode="Q" horiz-adv-x="783" 
d="M391 635q-6 2 -29 2h-12q-13 0 -17 -1q-1 0 -4.5 -1.5t-5.5 -2.5q-1 -1 -4.5 -3.5t-5.5 -4.5q-3 -4 -11 -6q-4 -2 -13 -5q-5 0 -15 -5q-10 -6 -20 -16q-12 -12 -16 -14q-1 -1 -3.5 -3t-3.5 -3l-7 -14q-1 -2 -3.5 -8t-3.5 -8q-6 -9 -8 -13q-5 -8 -6 -20q-3 -12 -3 -15
q-1 -1 -3 -17q-2 -17 -5 -24l-4 -16q-3 -6 -3 -15q0 -2 -1 -8t-2 -8q-2 -6 -2 -9q0 -1 1 -4q1 -2 3 -41t3 -42q3 -5 4 -24q0 -18 3 -27q3 -7 3 -16q0 -5 2 -11q4 -6 7 -17l11 -22q3 -7 14 -20l19 -22q10 -10 14 -16q2 -3 7 -8q6 -3 9 -3q10 -2 17 -6q11 -6 21 -6q9 -1 21 -7
q10 -5 45 -5q32 0 40 3q1 0 7 2.5t9 3.5l9 3t7 2q5 0 5 2q1 1 7 1q4 0 10 2q2 1 10 7q5 5 15 9q10 3 14 9q6 8 9 14q4 9 7 10q6 3 9 4q5 1 10 11q5 12 5 20q1 11 8 19t9 13q1 3 1 14q0 9 3 17q3 6 3 35q0 25 2 35q2 5 2 7.5t-2 8.5q-2 8 0 16t1 15q-1 6 0 13q1 4 1 14
q0 7 -2 13q-1 4 -3 28q-1 24 -5 33q-3 6 -8 24q-4 16 -4 21q-1 7 -8 15q-2 2 -6.5 7.5t-6.5 7.5l-9 12q-2 3 -17 16q-11 11 -17 15l-5 4q-3 0 -6 3q-6 4 -7 4t-2 1q0 2 -7 5q-6 5 -18 6q-3 1 -8.5 2.5t-6.5 1.5q-1 1 -23 3q-23 2 -25 3zM356 737q7 1 8.5 1h1.5q1 0 19 -2
q4 0 16.5 -0.5t17.5 -0.5q16 0 26 -2q3 -2 24 -4q15 0 17 -2l3.5 -1t6.5 -2q8 -2 15 -7q7 -4 14 -5l16 -4q8 -2 10 -4l10 -4q10 -3 15 -8q3 -4 9 -10q4 -5 13 -8q10 -3 15 -8l9 -6q4 -2 7 -5t7 -9q1 -2 3 -5.5l2 -3.5l2 -4t4 -7q3 -6 8 -11q3 -2 8 -7q3 -3 9 -15
q7 -14 7 -18q2 -7 9 -17q8 -12 11 -23l4 -14l2 -6q4 -8 5 -12q5 -12 6 -19q1 -3 4 -21q0 -2 1 -9.5t2 -9.5q2 -7 2 -66t-1 -62q-2 -5 -4 -13q-2 -12 -5 -21q-5 -13 -5 -14l-1 -5.5t-1 -9.5q-2 -13 -3 -15q-2 -2 -2 -5q0 -2 -2 -8q-1 -1 -3 -4.5t-3 -5.5q-4 -4 -4 -7
q-2 -2 -7 -12q-4 -7 -11 -17q-1 -1 -8 -8.5t-11 -11.5q-14 -14 -18 -22q-2 -4 -15 -19q-9 -8 -12 -13q-1 -1 -1 -5q1 -1 12 -1q14 2 18 4q7 2 33 3q20 0 38 3q12 1 19 0q12 -3 16 -3q7 -1 12 -4q2 -2 4 -8q2 -8 2 -21q-1 -14 2 -25q2 -7 2 -11q0 -2 -1 -5q-1 -5 -6 -12
q-3 -7 -14 -12q-8 -4 -15 -4.5t-40 -0.5h-25q-20 0 -26 2q-7 3 -31 3q-30 -2 -34 -3q-8 -2 -15 -2q-6 0 -12 2t-11 2q-3 0 -11 -2q-3 -1 -28 -3q-23 -2 -27 -3q-3 -2 -32 -3q-28 0 -32 -2q-4 -3 -39 -3t-39 2q-6 3 -14 3q-11 1 -19 7q-10 5 -20 5q-9 -2 -19 1q-10 2 -25 9
q-4 3 -12.5 7t-10.5 5q-2 2 -15 8q-9 4 -14 7q-9 6 -12 9l-9 6q-8 4 -10 6q-5 2 -10 10q-2 2 -15 18q-11 12 -13 16q-3 6 -9 12q-8 8 -13 21q-2 4 -6 13l-4 8q-3 12 -3 13q-2 8 -4 9q-2 4 -5 7q-4 9 -5 12q-1 2 -4 14l-3 12q-1 2 -2 7t-1 6q0 3 -3 15q-2 10 -2 25
q0 16 -3 26q-3 8 -4 31q0 19 -3 28q-2 6 -2 11q0 2 2 8q1 4 1 6q3 8 3 19q0 10 2 16q3 9 3 11q2 8 3 11q2 3 4 18q0 12 5 23q6 11 6 25q1 11 9 24q8 14 8 17l4 12q1 2 6 8.5t7 9.5q8 8 12 16q4 4 4 7q1 1 4.5 5t4.5 6q6 8 9 11l21 23q20 20 23 22q4 3 11 5q4 0 17 9l11 9
q3 0 7 3q2 0 8.5 3t10.5 4q12 5 21 7q1 0 6.5 1.5t7.5 1.5q5 2 13 4q4 1 10.5 2.5t7.5 1.5q13 3 16 4q8 2 16 2q10 0 18 2z" />
    <glyph glyph-name="uni0052" unicode="R" horiz-adv-x="676" 
d="M240 634q-6 2 -8 3q-5 0 -7 -1q-5 -2 -10 -5q-5 -2 -9 -8t-3 -15q0 -12 -2 -18q-2 -7 -2 -81q1 -74 4 -84q4 -10 7 -13q2 -3 9 -5q3 -1 20 -1q16 0 23 2q6 3 23 5q16 2 21 2q1 0 7 -0.5t9 -0.5q1 0 26 -3q15 -1 24 2q8 2 15 1q4 -1 9 -1q2 0 12 4q1 0 8 3t9 4q9 2 11 5
q2 2 4 2q5 1 9 4q2 1 6 3.5t5 2.5q3 2 12 14q9 9 14 19q3 7 5 16q0 9 2 17t2 28q0 21 -1 23q0 2 -5 9q-4 4 -6 12q-3 7 -10 11q-8 6 -12 10q-3 3 -19 12q-12 6 -24 8q-6 0 -15 3q-6 3 -17 3q-15 2 -18 4q-8 2 -16 -1t-15 -3q-5 0 -17 2q-3 1 -8 2l-4 1q-1 1 -32 1
q-32 0 -36 2zM317 729q33 1 53 1q25 0 31 -1q12 0 20 -2q4 -3 15 -3q8 1 16 -2q5 -4 19 -4q16 -2 23 -5q12 -5 14 -8q3 -2 9 -5l13 -5q8 -6 12 -6q1 0 5 -2.5t6 -3.5l12 -8q6 -4 15 -13q3 -3 8 -9t7 -8q3 -4 9 -16q2 -2 4.5 -7.5t3.5 -6.5q2 -3 8 -9q4 -4 6 -9q1 -2 5 -22
q3 -16 3 -25q-1 -2 -2 -10t-1 -9q-1 -7 -1 -22q0 -6 -4 -18q-1 -2 -2.5 -7t-2.5 -6q-2 -2 -7 -18q-2 -3 -5.5 -11.5t-5.5 -11.5q-6 -8 -8 -10q-7 -7 -12 -10q-3 -2 -8 -6t-6 -5q-6 -6 -16 -10q-6 -2 -22 -10q-11 -6 -13 -9q-3 -3 -3 -5t5 -9q5 -5 17 -11t18 -12q7 -7 13 -11
l11 -11q3 -6 11 -14t10 -16q4 -11 5 -11q2 -6 3 -11l3 -18q0 -2 1 -7t2 -7q3 -5 5 -22q3 -27 3 -41q1 -22 4 -32q2 -5 5 -15l3 -21l3 -24q2 -14 5 -22l3 -9t2 -7l3 -12q1 -4 1 -6t-1 -5q-5 -7 -6 -8q-3 -3 -7 -5q-3 -2 -15 -2q-27 0 -48 -1h-44q-6 1 -15 9q-10 10 -11 13
q-1 4 -3 21q0 17 -3 23t-3 29q-1 23 -4 28q-2 6 -1 25q0 19 -3 27q0 1 -1.5 8t-2.5 11q-1 5 -4 17q-1 5 -4 14q-3 4 -3 10q0 7 -1 10q-2 5 -4 7q-1 0 -5 8q-5 8 -12 15q-8 6 -14 10q-6 3 -11 8t-7 6q-9 3 -13 3q-2 0 -8 1t-8 2q-5 1 -20 1h-11q-11 0 -49 1h-18.5t-15.5 0.5
t-10.5 0.5h-4.5q-4 0 -7 -1q-5 -1 -14 2q-9 2 -17 -1t-12 -7t-4 -12q0 -1 -1 -6t-2 -7q-2 -3 -2 -9q0 -2 2 -8q2 -3 2 -13q0 -6 -1 -22q0 -9 -0.5 -23.5t-0.5 -15.5q0 -2 0.5 -10.5t0.5 -12.5q1 -14 0 -17q-1 -2 -3 -22q0 -3 -0.5 -26.5t-0.5 -37.5q-1 -47 -3 -50
q-5 -5 -9 -7l-10 -5q-7 0 -12 1q-4 2 -24 2q-17 0 -23 -3q-6 -2 -9 -2q-2 0 -8 2q-1 1 -11 3q-4 0 -10 3q-5 6 -6 7t-3 37q-2 35 -3 39q-2 6 -1 23q2 20 1 23q0 2 0.5 6.5t0.5 6.5q2 8 -2 16q-3 12 -2 26q2 20 3 23q3 6 3 17q1 10 -2 22q-3 7 -3 14q0 5 2 11q2 8 2 14
q0 10 -1 13q-2 6 -2 18q-1 7 -1 41t1 41q0 3 1 13t2 14q0 16 -2 21q-2 4 -2 15q1 4 1 15q0 18 -1 36q-2 30 -4 36q-2 8 -2 14q0 7 2 13q3 4 3 15v22q1 22 1 38q0 52 2 55q3 5 7 8q2 2 5.5 4.5t4.5 3.5q5 3 72 3t72 -2q6 -3 12 -1q3 1 75 3z" />
    <glyph glyph-name="uni0053" unicode="S" horiz-adv-x="607" 
d="M250 747h75q56 0 62 -2q6 -3 14 -3q7 0 14 -5l8 -5q3 0 7 -3q1 0 7 -3t9 -4q1 -1 5.5 -3t4.5 -3q1 -1 9 -3q6 -1 11 -4q6 -6 9 -11q9 -11 13 -13l15 -12q7 -7 7 -9q3 -4 5 -8q6 -8 6 -13q1 -1 3 -11q2 -7 3 -8l1 -4t2 -7q3 -7 3 -24t2 -23q3 -6 3 -13q0 -4 -2 -8
q-6 -6 -8 -7q-3 -3 -18 -8q-11 -4 -38 -4q-23 0 -31 2t-12 2q-2 0 -6.5 1t-6.5 2q-6 2 -8 7q-4 9 -5 11q-3 6 -3 14q0 9 -3 15q0 1 -1.5 6.5t-1.5 7.5q-4 11 -6 15q-2 5 -6 13l-3 3.5t-5 5.5t-6.5 6t-5.5 5q-10 5 -13 6q-6 2 -14 2q-7 0 -17 2q-10 4 -28 4q-21 1 -26 -1
q-11 -4 -15 -6q-2 -1 -10.5 -4t-11.5 -4q-13 -4 -15 -6q-1 0 -10 -12q-8 -12 -8 -13q-2 -2 -8 -12q-6 -8 -6 -11v-18q0 -13 -2 -21q-3 -3 -3 -7q0 -3 4 -11q1 -2 5 -8t5 -8q6 -6 9 -12q1 -4 15 -16q12 -11 19 -15l6 -4q1 0 3 -2q1 0 4 -2t5 -3q9 -6 14 -10q9 -7 14 -8
q2 0 5.5 -0.5t4.5 -0.5q6 0 12 -3q2 -1 5 -2q7 -3 10 -4q10 -5 14 -8q7 -5 9 -5l20 -6q15 -6 24 -9q2 -1 13 -4q3 0 15 -5q9 -3 13 -7t13 -7q13 -7 15 -10q1 -1 16 -13q1 -1 8.5 -6.5t9.5 -7.5q9 -7 10 -7l2.5 -2t7.5 -6.5t8 -7.5q17 -17 19 -23q4 -9 8 -15q3 -4 5 -11
q1 -1 2 -5t1 -5q1 -1 2.5 -6t2.5 -7q3 -8 4 -31v-12q0 -10 -2 -12q-3 -3 -3 -8q-3 -5 0 -15q1 -10 -1 -20q0 -4 -3 -13q-1 -4 -1 -6q-5 -10 -11 -15l-11 -11q-2 -1 -9 -8q-4 -6 -6 -12q0 -4 -3 -10q-1 -5 -15 -18q-16 -14 -19 -15q-7 -3 -7 -5q-1 -1 -9 -5t-10 -4
q-1 -1 -4 -2q-3 -2 -4 -3q-7 -5 -12 -6q-3 -2 -16 -4q-10 -1 -14 -4l-9 -6q-2 -1 -14 -5q-8 -4 -14 -4q-3 0 -11 1t-67 1q-53 0 -72 5q-10 3 -28 6q-7 0 -26 7l-26 13q-12 8 -14 10q-1 1 -15 9q-10 4 -28 21q-16 16 -19 22t-5 8q-2 0 -6 9q-1 2 -4 6.5t-4 5.5q-4 5 -5 11
q-3 9 -4 13q-1 2 -3 24q-1 9 -1 23q0 12 1 19l3 17q2 6 11 10q10 5 21 5q12 0 18 -2t10 -2t8 2q6 2 17 2q12 0 23 -5q2 -1 8 -3.5t8 -3.5q6 -3 8 -7q1 -2 1 -9q0 -4 2 -12q2 -4 2 -12q-1 -4 2 -14q1 -2 3 -8.5t3 -8.5q2 -9 5 -13q1 -5 14 -18q11 -11 21 -17q8 -3 11 -6
t11 -6q10 -6 12 -7q1 0 30 -2q25 0 38 3q9 3 17 3q4 0 16 4q5 2 13 6q3 3 11 7q6 4 11 7q4 2 7 8q2 6 9 13q6 6 10 14q3 6 5 14q0 2 1 7.5t2 7.5q2 7 -1 14q-2 7 -4 17q-2 14 -7 22q-6 12 -10 14q-1 1 -5.5 5t-7.5 7q-6 6 -16 11q-12 6 -17 9q-14 7 -16 7q-4 1 -18 8
q-13 5 -18 9l-11 7q-1 0 -4 2t-4 2t-6.5 2t-9.5 4q-14 4 -15 5q-1 0 -9 4q-6 1 -18 6t-13 5l-10 5q-8 6 -20 11l-15 7q-1 0 -7 2q-2 2 -22 18q-17 15 -19 15q-1 0 -19 18t-18 19l-7 11q-4 6 -10 18q-1 5 -4 11q-2 2 -4 7q-3 9 -3 17q0 7 -3 16q-3 8 -3 29q0 23 4 36
q1 8 5 20l5 15q5 10 7 16q1 1 3 5t3 5q1 2 6 10q10 10 17 16q13 11 14 13q1 1 4.5 5t5.5 6q4 5 17 14q11 8 19 10t10 4q2 3 7 5q12 6 19 8q14 6 20 6q9 2 10 3q2 1 23 3z" />
    <glyph glyph-name="uni0054" unicode="T" horiz-adv-x="636" 
d="M393 738q3 3 8 3l4.5 -1t7.5 -2q8 -3 16 -3q6 0 16 2q9 3 15 1q8 -2 15 -2q2 0 8 0.5t8.5 0.5t9.5 -0.5t9 -0.5q8 0 16 2q9 3 40 3q29 0 37 -2q1 -1 3 -2l9 -6q5 -5 7 -11q1 -5 0 -13q-2 -12 0 -21q2 -16 2 -21q1 -5 -1 -11q-1 -5 -6 -9q-3 -3 -9 -7q-7 -4 -19 -5
q-1 0 -16 -0.5t-38.5 -0.5h-44.5q-85 0 -91 -2q-3 0 -6 -5q-2 -2 -2 -38v-22v-25.5v-22.5q2 -38 3 -41q2 -6 2 -21q0 -16 -3 -22q-2 -4 -2 -22q0 -16 2 -22q0 -8 -1 -10q0 -1 -0.5 -5.5t-0.5 -6.5q0 -7 2 -15q3 -6 0 -13q-2 -5 0 -12q3 -8 3 -28q0 -23 -1 -25v-53
q0 -48 -2 -54q-2 -4 -2 -14t2 -16q2 -4 2 -26q-2 -22 -2 -36q-2 -16 0 -18q2 -4 0 -11q0 -3 -0.5 -7.5t-0.5 -5.5q0 -6 -2 -8q0 -1 -3 -10q-3 -6 -7 -10t-12 -4q-6 0 -20 2q-10 3 -14 3q-1 1 -10 -1t-18 1q-12 3 -24 2q-15 -1 -21 5q-5 5 -7 12q-3 6 -3 26q0 19 3 25
q2 8 1 14q0 3 -0.5 7.5t-0.5 5.5q0 2 -2 12q-2 6 -2 38q2 31 3 33q0 2 2 10q1 7 -1 13q-3 8 -3 48q0 44 -1 47q0 2 -1 5.5t-2 4.5q-2 5 0 16q2 12 2 15q1 1 1.5 6.5t0.5 7.5q1 9 -2 20q-2 8 -2 46v54q0 30 -1 45q0 30 2 37q2 6 2 22q0 4 -4 25q-2 7 -7 14q-4 3 -81 4h-102
q-25 0 -29 4q-5 3 -5 10l-3 12q-2 2 -4 18q-1 7 -1 14.5t1 14.5q2 13 4 20t8 8q5 3 8 3q5 0 9 3q5 2 14 -1q7 -2 18 -2q9 2 25 0q17 -1 25 1q9 3 28 3q20 0 28 -2q8 -1 13 0q3 2 48 2q47 0 51 -1q5 0 33 2t33 2q2 0 8 -0.5t9 -0.5q8 0 16 2z" />
    <glyph glyph-name="uni0055" unicode="U" horiz-adv-x="771" 
d="M140 739h7q2 -1 20 -3q5 0 13 -2h2q2 -2 8 -4q6 0 10 -4t4 -5l-1 -4t-2 -7q-3 -9 -2 -14q0 -5 6 -13q5 -9 5 -31q0 -23 3 -31q2 -9 1 -15q-2 -6 -2 -29q-1 -13 -1 -72q-1 -22 -1 -37.5t1 -19.5q2 -10 2 -26q0 -4 -0.5 -13.5t-0.5 -12.5q-1 -11 1 -16q3 -6 2 -24
q0 -18 -2 -24q-1 -6 0 -18q2 -8 2 -43q0 -27 3 -43q5 -16 5 -17q0 -2 3 -9q1 -5 2 -8q6 -14 6 -18q3 -7 20 -24t27 -25q2 -1 7.5 -5t7.5 -5q7 -4 14 -5q5 0 17 -3q8 -3 18 -3t18 -2q6 -3 14 -3q6 0 12 3q8 2 23 2q13 0 25 2q5 1 14 4q8 2 11 3q2 1 16 7q8 2 20 10
q11 6 18 17q8 10 16 19q6 6 8 13q2 6 2 11q0 7 5 14q5 13 6 16q0 5 6 15q5 7 5 14q0 6 -2 12q-2 5 -2 23v25q1 24 1 50q0 12 -1 18q-1 8 2 21q4 10 1 18q-3 11 -2 16q2 7 0 24q0 12 2 24q2 8 2 23q0 22 -1 29q-2 14 -3 16q-2 4 -2 53q0 55 -2 67q0 4 -1.5 12.5t-1.5 10.5
q0 7 1 8t2 5t2 6q3 8 7 14q1 1 5.5 3.5t6.5 3.5q12 2 46 2q36 0 45 -3q3 -1 9 -4l2 -4q2 -3 3 -5q3 -6 4 -41q0 -34 3 -41q2 -7 0 -12q-3 -5 -3 -13q-1 -8 2 -16q3 -9 3 -126q0 -109 -2 -131q-1 -14 0 -31q1 -10 1 -13q0 -6 -5 -20q-6 -15 -6 -24t3 -17q0 -1 1.5 -6.5
t1.5 -7.5q0 -6 -3 -10l-3 -12q-3 -12 -5 -17q-4 -8 -4 -16q-1 -5 -4 -14q-2 -2 -5 -11q-4 -11 -9 -16q-9 -13 -19 -22q-11 -13 -11 -14t-4 -5t-14 -8q-10 -6 -15 -12q-4 -6 -12 -11q-6 -4 -11 -9q-3 -3 -11 -6q-2 -1 -9 -4q-2 -3 -7 -5q-6 -3 -11 -3q-4 0 -12 -5
q-8 -6 -14 -6q-2 -1 -7 -2t-7 -1q-8 -2 -13 -2q-8 0 -14 -3q-10 -2 -19 -2q-15 0 -20 -1t-17 -4q-10 -2 -24 -2q-15 0 -25 -2q-4 -1 -7 -1q-5 0 -15 3q-14 2 -19 2q-6 -2 -17 2q-6 1 -18 4q-6 3 -20 9q-8 5 -19 8q-10 4 -11 4q-2 1 -7.5 3.5t-8.5 3.5q-14 7 -19 10
q-12 9 -26 23q-18 18 -20 18q-3 1 -5 3t-5 8q-2 4 -10 12l-9 9q0 3 -3 6q-2 3 -10 13q-8 8 -8 13q-1 1 -2.5 5.5t-1.5 5.5q-3 12 -3 13q0 5 -2 13q0 1 -1 6t-2 7q0 8 -5 15q-3 6 -4 24q0 15 -2 19q-2 2 -2 24q0 21 -2 25t-2 17q0 14 3 20q2 5 2 79v40q0 33 -1 40q-2 8 -2 13
l-0.5 12.5t-0.5 33.5v40q-1 45 -1 58q0 24 3 28q3 6 3 21q1 16 4 19q1 3 9 7q2 1 16 3q3 0 11 0.5t11 0.5q12 0 12 2z" />
    <glyph glyph-name="uni0056" unicode="V" horiz-adv-x="718" 
d="M621 731h25h12q9 0 15 -1q3 -2 14 -2q7 0 14 -4q5 -3 7 -9q2 -3 2 -7q0 -3 -1 -7q0 -6 -3 -15l-4 -6q-3 -3 -8 -20q-5 -20 -9 -27q-4 -8 -4 -13q-1 -2 -3 -7t-3 -7l-7 -17q-2 -8 -7 -19q-5 -10 -5 -13t-3 -6q-4 -6 -4 -8q-5 -10 -9 -20q-2 -5 -5.5 -13t-3.5 -9
q-2 -2 -4 -12q0 -6 -4 -14q-4 -6 -7 -12l-6 -18q-3 -9 -5 -17q0 -2 -3 -11q-3 -6 -9 -15q-7 -10 -7 -19q-2 -13 -3 -14q-3 -9 -3 -11q0 -1 -1 -5t-2 -5q-2 -6 -4 -6q-1 -1 -2 -4q-2 -3 -3 -4q-2 -8 -5 -14q-2 -8 -7 -18q-7 -17 -7 -18q-3 -8 -3 -13q0 -4 -6 -20
q-2 -11 -7 -20q-6 -12 -10 -22q-11 -22 -13 -24q-5 -7 -8 -18q-3 -9 -6 -16q0 -1 -3 -8t-5 -11q-7 -12 -7 -17q0 -3 -4 -11q-3 -6 -3 -12q0 -2 -3 -11l-4 -8q-3 -3 -3 -7q-4 -8 -7 -12q-6 -8 -11 -20q-9 -14 -11 -15l-15 -10q-10 -6 -35 -7q-24 0 -30 -2t-9 -2q-2 0 -23 2
q-18 2 -25 4q-6 2 -8 6q-3 3 -5 3t-6 4q-1 1 -7 10q-4 6 -4 8t-2 4l-2 4q-1 4 -3.5 11.5l-4.5 13.5q-3 9 -6.5 21t-3.5 13q0 3 -3 9q-3 3 -3 5t-2 4l-2 3q-2 3 -3 5q-4 8 -4 11q0 6 -3 12q-1 5 -4 14q-1 3 -9 23q-9 16 -9 18q0 4 -3 13l-5 15q-2 2 -4 8q0 3 -8 17
q-2 4 -5.5 10.5t-4.5 8.5q-2 3 -4 15q-4 17 -4 19q-8 20 -10 24q-7 15 -9 23q-1 2 -3 6.5t-2 5.5q-2 3 -6 13t-7 16q-5 9 -6 15t-6 15q-4 8 -4 13l-8 24q-2 5 -6 15.5t-4 11.5q-1 3 -4 9.5t-4 9.5q-4 10 -4 12q-3 6 -3 7q-1 1 -2.5 3.5t-1.5 3.5l-6 9q-3 4 -8 14q-3 9 -4 14
q-2 8 -4 8q0 1 -4 7q0 2 -2.5 8.5t-3.5 10.5q-4 14 -4 16q0 4 -4 10q-7 14 -8 17q-5 13 -5 14t-2 8t-4 12q-5 13 -5 19q0 4 2 8q1 2 6 7q2 1 28 4q14 1 22.5 1t14.5 -1q14 -2 32 -2q20 0 23 -3q4 -2 8 -8l6 -9q2 -2 4 -6q0 -2 5 -12l7 -14q4 -6 4 -11l6 -15q6 -12 6 -17
q2 -6 7 -17q4 -8 7 -17q3 -6 7 -20q6 -21 7 -24q5 -10 5 -13q2 -2 2 -6q2 -5 5 -10q4 -4 4 -6q0 -3 7 -15q7 -13 8 -23q0 -11 3 -15q2 -1 5 -7q1 -1 3 -13q2 -10 7 -20l6 -12l6 -14l6 -13q0 -3 3 -7q0 -2 2 -6.5t3 -6.5l3 -15q0 -6 4 -16l4 -16q2 -9 5 -14q0 -1 2 -6t3 -7
q2 -8 4 -10q3 -6 3 -10q2 -7 5 -12q7 -10 7 -11q4 -6 9 -23q8 -26 8 -27q3 -7 5 -18q4 -15 5 -18q3 -11 7 -12q3 -3 6 -3q2 0 7 5q3 4 3 7q0 1 8 17q9 16 9 25q3 14 6 18q1 3 3 7.5t2 5.5q1 2 5 12q5 12 6 18q3 12 3 15q1 7 4 12q3 3 3 5q1 2 2 3q4 7 6 18q5 20 6 25
q2 9 6 13q3 5 3 7t4 10q2 5 8 14q3 6 3 13q0 8 4 12q3 4 5 13q1 6 7 17q5 10 5 15t2 11q4 8 5 11q3 3 7 16q1 3 3.5 9.5t2.5 7.5q3 5 3 7q0 1 4 11q1 2 4 9t4 10q1 2 4 7.5t4 6.5q3 4 5 15t5 15q6 12 10 18q6 12 6 14l4 14l7 21q3 7 5 18q2 10 3 12l6 12q6 10 12 16
q7 8 16 13q2 1 6.5 3t5.5 2z" />
    <glyph glyph-name="uni0057" unicode="W" horiz-adv-x="837" 
d="M21 715q6 6 10.5 7t23.5 1q28 0 32 -2l15 -3q3 0 6 -1l4 -1q1 -1 11 -3t13 -5q2 -1 7 -8q3 -8 4 -16q4 -12 4 -17q2 -10 4 -14q2 -6 2 -20q2 -17 3 -20q1 -1 4 -14q0 -9 2 -13q1 -3 3 -23q2 -22 5 -33q4 -16 5 -17q1 -2 1 -12t2 -14q2 -6 2 -23q2 -21 4 -27q3 -13 4 -31
q3 -24 7 -33q5 -10 6 -31q0 -22 3 -28q2 -12 2 -33q1 -28 3 -32q3 -5 3 -17q0 -10 2 -26q2 -12 4 -22q0 -7 3 -10q2 -2 5 -1q2 1 4 5q2 5 -1 13q-2 8 -2 19q-1 9 3 16q4 8 6 11q2 6 2 13q0 6 4 18q5 14 6 16q2 8 2 19t4 22q3 6 8 21q3 8 5 28q0 15 4 27q4 11 6 19q5 12 6 24
q2 15 4 17q1 1 3 15t3 15t3 11q0 5 3 14q2 3 4 19t6 27q4 14 4 19q0 7 3 11q3 3 5 14q0 2 0.5 6t1.5 9t1 8q1 5 3 14l2 9q3 6 3 14q0 5 5 15q6 10 6 12q0 3 3 9q1 5 8 12q6 6 12 6q5 0 13 -2q9 -1 18 2q8 3 16 1t17 -2q11 -2 16 2q6 2 10 2q1 0 4 -0.5t4 -0.5q6 -3 17 -3
q10 -1 18 -4l9 -9q4 -6 6 -10q2 -5 4 -13q0 -8 3 -14l2 -5l3 -9q3 -7 3 -14q0 -2 2 -8q1 -4 1 -6q4 -10 4 -19q2 -12 3 -14q1 -1 3 -13q0 -5 3 -14q2 -6 2 -11q0 -7 3 -13q3 -8 2 -21q0 -13 3 -20q2 -4 5 -13q0 -1 1.5 -7.5t2.5 -9.5q2 -13 5 -16q0 -1 2 -6t3 -7t2 -8.5
t1 -8.5q0 -5 3 -17q2 -8 2 -12q0 -7 3 -14l6 -18q2 -12 2 -15q-1 -3 3 -15q4 -8 5 -26q0 -17 3 -21q2 -6 2 -10t3 -12q3 -9 3 -25q2 -19 3 -21q3 -12 3 -14q2 -8 3 -10l5 -5q2 -1 5 -1q2 1 6 7q3 6 3 23q0 5 1 17.5t1 17.5q2 20 1 22q0 7 1 10q0 6 4 16l5 15q0 2 4 16
q1 4 4 26q0 14 3 20q3 9 4 14q0 2 1 9.5t1 10.5q1 6 4 18q2 7 4 15q1 5 1 20q0 10 2 16q2 2 4 17q2 17 4 20q2 10 2 18q0 9 2 13q1 2 3 23q1 19 6 30q5 10 6 23q0 13 2 15q1 2 3 12q3 15 4 21q2 12 5 18q2 7 6 11q1 3 12 9q10 4 40 5q31 0 35 -3q6 -4 7 -6q3 -1 5 -8
q2 -4 2 -14q0 -8 -2 -16q-2 -9 -4 -29q0 -16 -3 -28t-3 -17q-1 -3 -2 -10t-1 -10q-2 -12 -2 -17q0 -6 -4 -16q-5 -15 -6 -22q-2 -13 -5 -19t-3 -12t-3 -18t-3 -21v-6l-1 -3q-5 -9 -6 -11q-4 -10 -4 -16q-3 -14 -4 -15q-3 -9 -3 -24q0 -18 -1 -21q-1 -2 -3 -25q-2 -22 -3 -23
q0 -1 -1.5 -5t-2.5 -6q-1 -5 -4 -14q-2 -6 -2 -15t-2 -15q-2 -3 -4 -20q-3 -19 -4 -22t-2.5 -9t-1.5 -9q0 -2 -1 -8.5t-2 -8.5q0 -9 -4 -17q-4 -10 -5 -13q-2 -4 -4 -14q0 -4 -3 -19q-2 -13 -1 -23q0 -11 -3 -20q-4 -6 -4 -13q0 -2 -3 -11q-2 -6 -2 -15q0 -10 -4 -18
q-3 -6 -10 -12q-7 -5 -14 -6q-3 -1 -7 -1t-5 1q-1 0 -8 0.5t-18 0.5h-21q-39 0 -47 2q-7 2 -12 7q-7 4 -11 14q-2 3 -4.5 8.5t-3.5 6.5q-4 4 -4 11q0 4 -2 14q-2 8 -4 18l-4 13q0 1 -2 17q0 15 -3 21q-2 3 -6 13q-3 9 -2 20q1 10 -3 18q0 1 -3 9t-4 12q-4 16 -4 23
q0 9 -3 14l-2 8q-2 4 -3 7q-2 4 -2 12q0 9 -3 15q-2 9 -7 21q-4 13 -4 26q0 12 -2 26q-1 11 -6 24q-1 3 -3 7.5t-3 5.5q-2 2 -2 19t-4 30t-3 23q0 11 -3 20q-2 6 -6 14l-1 3t-1 5q-3 12 -5 19q-3 14 -2 21q1 8 -1 14l-4 12q0 5 -3 11q-3 3 -8 3q-4 0 -5 -1l-1 -4
q-1 -3 -2 -5q-2 -8 -4 -14t-2 -13q0 -10 -3 -14q-2 -7 -3 -25q0 -20 -3 -26q-2 -6 -4 -8q-1 -1 -5 -15q-3 -13 -5 -27q-2 -12 -4 -19q-3 -6 -3 -14t-5 -18q-5 -12 -6 -26q0 -13 -5 -31q-1 -6 -4 -15t-3 -11q-1 -2 -3 -7t-2 -6q0 -2 -0.5 -6t-0.5 -5q0 -2 -1 -5v-3l-6 -12
q-4 -9 -4 -23q-2 -16 -4 -23l-3 -12q0 -2 -4 -22q-4 -17 -7 -22q-2 -6 -2 -12q0 -5 -4 -17q-5 -15 -5 -20q-3 -15 -6 -22q-3 -9 -8 -20q-3 -7 -2 -14q0 -9 -5 -20q-8 -14 -11 -16q-6 -5 -14 -4q-7 1 -18 -1q-6 -2 -38 -2t-42 3q-6 1 -14 5q-5 5 -7 8q-2 7 -4 17q-2 14 -3 16
q-3 3 -3 10q0 6 -2 14l-4 16q0 5 -6 23q-5 14 -7 25q-3 8 -3 16q0 9 1 12q1 6 -4 17q-2 4 -5 12t-3 9q-1 3 -3 28q-1 5 -2 11.5t-1 7.5q-2 2 -4 6q-3 9 -4 13q-3 12 -4 23q-1 4 -4 25q-2 8 -6 17q-3 5 -4 25q0 16 -2 22q-3 3 -3 22q-2 20 -5 33q-1 4 -5 22q-3 12 -3 18
q-2 12 -3 13q0 1 -4 13q-2 13 -4 23q0 11 -3 17q-3 9 -5 13q0 2 -2 7t-2 7t-3 14q-2 5 -2 28q0 21 -3 36q-5 23 -6 25q-3 7 -3 16v12q0 5 8 12z" />
    <glyph glyph-name="uni0058" unicode="X" horiz-adv-x="727" 
d="M609 745q4 1 35 1h17q12 0 19 -7q8 -8 8 -12l-3 -12q-1 -4 -4 -13l-8 -12q-4 -5 -13 -12q-9 -5 -12 -12q-4 -9 -11 -17q-10 -17 -11 -19q-5 -10 -16 -21t-18 -25q-9 -15 -16 -24q-10 -12 -11 -13q-2 0 -6 -10l-6 -10q-1 -1 -7 -9q-8 -10 -15 -19q-11 -13 -11 -14t-1 -2
q-3 -4 -6 -9l-7 -8q-2 0 -6 -9q-4 -8 -9 -13q-6 -6 -6 -9t-9 -12l-9 -14q-1 -2 -1 -16q2 -15 3 -17q3 -6 5 -9l14 -21q7 -14 18 -24q8 -8 12 -16l5.5 -7.5t8.5 -11.5q7 -11 14 -17l4 -6q1 -2 2 -3q4 -4 6 -8q2 -2 5 -7t4 -6q5 -8 7 -9q3 -1 8 -12q8 -13 9 -14q2 -3 14 -17
t13 -17q1 -1 7 -10q4 -6 4 -7q1 0 3 -5q2 -3 3 -5q2 -4 12 -17q6 -8 8 -13q0 -5 4 -9q5 -8 6 -10q1 -1 4 -5.5t4 -5.5q7 -7 11 -14q9 -12 14 -18q8 -8 10 -15v-11q-1 -6 -6 -8q-4 -4 -12 -4q-10 -3 -11 -3t-29 -2q-7 0 -25.5 -0.5t-26.5 -0.5q-23 0 -34 3q-9 3 -15 10
q-8 8 -11 14q-1 2 -4 6l-3 4q-6 6 -7 9q-4 6 -4 7q0 3 -5 10q-6 6 -6 9q-3 6 -5 11q-6 11 -14 23q-11 15 -17 26l-9 18q-2 2 -14 18l-15 22q-3 6 -9 12q-4 4 -6 10q-4 6 -7 12q-4 6 -4 7q-2 3 -4 5q-1 2 -3 4.5t-2 3.5l-3 6q-1 2 -7 10q-1 1 -10 13q-4 6 -10 10q-5 4 -13 4
t-13 -6q-2 -2 -7 -6.5t-7 -5.5q-6 -8 -9 -11q-1 -4 -6 -11q-2 -2 -8 -14q-1 -1 -4 -6t-5 -7q-7 -7 -15 -25q-6 -12 -14 -24q-7 -7 -8 -9q-3 -3 -5 -10t-12 -17q-9 -9 -12 -15q-2 -4 -7 -15q-3 -9 -12 -20q-8 -10 -10 -14q-1 -3 -4 -9q-1 -2 -4 -6l-3 -4q-6 -6 -9 -13
q-1 -2 -10 -14q-8 -8 -9 -10q-5 -5 -11 -8q-11 -5 -20 -7q-15 -5 -19 -6q-3 -1 -8 -1q-6 0 -18 2q-14 0 -23 3q-2 1 -19 1q-15 0 -19 2q-3 2 -8 7q-3 4 -5 11q-1 3 -1 11q1 4 3 6l10 8q5 4 13 12l4 5q0 1 4 7l4 4l2 3q0 1 4 7q1 2 7 11t9 14q9 12 11 14q7 10 8 12q6 9 10 13
q7 9 7 10l4 6q6 6 10 13q1 1 11 18q4 9 8 11q6 6 11 15q9 11 9 13q0 1 2 7q6 9 10 14q2 2 6 6.5t5 5.5l4 5l6 6q8 10 14 16q8 8 9 11q2 4 8 12q6 7 6 10q1 2 2 3q0 1 3 4.5t4 6.5q5 10 7 12q0 1 2 3.5t3 3.5q2 4 6 8q4 6 4 9q0 6 -3 12q-4 10 -9 15l-5 7q-3 3 -11 16
q-10 16 -13 22q-4 10 -6 13q-3 3 -9 11q-3 4 -9 13q-2 3 -10 16q-12 15 -15 18q-9 11 -11 16q0 1 -2 4q-1 2 -1 3l-2 3l-4 4q-4 4 -6 8l-1 3q-2 3 -3 4l-3 5q-2 0 -7 5q-7 10 -7 11q-1 1 -2.5 5.5t-1.5 5.5q-4 6 -7 9q-4 2 -10 12q-9 12 -10 13q-4 6 -7 12q-8 12 -9 13
l-9 12q-2 2 -7 12t-8 13q-6 9 -8 13q-4 8 -3 14t8 9q8 5 21 5q3 0 21 0.5t29 0.5q19 1 44 1q9 0 16 -3q6 -3 11 -8q1 -1 3.5 -4.5t4.5 -5.5l15 -22q8 -12 17 -24q3 -5 11 -13q6 -6 9 -14q7 -13 8 -13l9 -12q2 -3 5 -7l3 -4q0 -3 6 -9q1 -2 4 -5.5t3 -4.5q4 -2 8 -11
q1 -1 4.5 -6.5t5.5 -7.5q6 -9 7 -13q4 -8 4 -10q0 -5 3 -9l5 -5q1 0 3 -4q0 -2 6 -8q1 -2 5 -7t5 -6q6 -8 9 -14q5 -7 9 -9t8 -2q5 0 7 1q1 1 7 9q2 5 7 10q3 2 10 12l14 18q7 8 9 13q4 6 7 12q2 9 9 16q2 3 12 20q5 12 13 22q2 2 10 14q3 5 7 11q5 5 5 7q0 1 9 19
q10 19 17 27q3 3 7 8l3 4l3 6q4 4 7 10q1 1 3 4t3 4q2 2 8 5l9 6q1 1 23 3q23 2 26 3z" />
    <glyph glyph-name="uni0059" unicode="Y" horiz-adv-x="694" 
d="M652 721q6 2 9 2q4 0 8 -2q4 -3 9 -13q4 -10 5 -12q1 -1 1 -9q0 -7 -3 -14q-1 -2 -3.5 -6t-2.5 -5l-7 -11q-2 -2 -7 -14q-3 -10 -3 -11q-5 -5 -9 -8q-8 -8 -10 -12q-6 -9 -10 -17q-7 -14 -10 -19q-1 -1 -4.5 -6.5t-5.5 -7.5q-1 -2 -4.5 -7t-4.5 -7q-2 -3 -10 -16
q-4 -8 -11 -14l-3 -3q-3 -5 -4 -7q-3 -6 -4 -10q-3 -9 -7 -17q-10 -17 -11 -18l-12 -15q-1 -2 -10 -14q-7 -9 -10 -17q-3 -5 -9 -14l-10 -15q-1 -2 -13 -22q-8 -15 -9 -15q-1 -1 -2 -4q-2 -3 -3 -4q-1 -3 -9 -14q-7 -7 -7 -11q-1 -3 -9 -13q-8 -8 -10 -16q-2 -4 -5 -13
l-2 -4q-1 -4 -2 -5q-2 -4 -2 -81t-3 -81q-2 -6 -2 -8v-16q0 -11 2 -17t2 -10q0 -5 -3 -11q0 -2 -2 -5t-3 -5q-3 -6 -3 -11q-2 -8 -3 -10q-2 -4 -9 -6q-8 -3 -21 -3q-14 0 -22 2q-6 3 -27 3l-24 2q-3 0 -10 7q-9 9 -11 12q-1 1 -3.5 4.5t-3.5 4.5q-5 5 -5 10q0 3 3 9
q3 8 2 27v35q0 25 1 38q2 26 4 32q2 7 1 17q-2 14 -3 16q-2 6 -2 24q0 22 -1 25q-2 7 -5 10q-2 3 -12 17q-10 12 -13 18l-9 12q-6 6 -9 14l-6 12q0 3 -8 13q-8 11 -9 18q-2 8 -4 9q-2 2 -2 3q0 2 -8 12q-8 15 -9 18q-3 9 -5 12l-8 12q-1 1 -5.5 6t-6.5 7q-1 2 -4 5.5t-4 4.5
q-2 2 -4 6l-3 6q-2 2 -10 12q-8 12 -9 15q0 1 -9 17q-12 17 -14 19l-8 12q-5 5 -7 9q-1 1 -2 5t-1 5q-2 7 -4 9l-2 4q0 2 -8 10q-7 8 -9 13q-6 9 -10 13q-7 7 -11 17l-9 15q-5 7 -5 11q-2 8 -5 10q-3 3 -5 7q-1 2 -1 7q0 6 3 10q3 5 10 9q10 5 14 6q7 2 50 2q46 -2 53 -3
q13 -2 17 -6q7 -4 9 -7q2 -2 10 -14q6 -9 8 -15q0 -5 9 -14q9 -12 10 -13q3 -5 4 -12q7 -13 8 -15q5 -6 9 -15q2 -4 8 -13q2 -2 8 -11q3 -3 9 -15q4 -8 14 -26l8.5 -17l9.5 -19q12 -22 13 -23q2 -2 4 -6q1 -1 9 -13q3 -5 13 -20q6 -9 12 -21q5 -10 11 -17q3 -4 8 -7
q4 -1 9 1t11 8q2 2 4 6l3 3q3 6 6 9q3 6 9 14q1 2 3.5 5.5t2.5 4.5q2 1 4 7l5 15q5 10 7 16q2 4 8 12q8 11 10 12q5 7 6 12q5 10 6 11q0 1 4 6.5t6 9.5t12 19q6 6 9 16l10 20q3 7 7 11q0 1 3 8q1 1 2.5 4.5t1.5 5.5q3 6 8 11q6 8 6 10t5 7q1 1 3.5 5t3.5 5q4 6 9 11
q4 4 7 10q2 3 10 13q11 11 13 12q5 3 40 3q33 0 40 3z" />
    <glyph glyph-name="uni005A" unicode="Z" horiz-adv-x="638" 
d="M130 721q6 2 15 2q8 0 24 -2q12 -2 19 -4q1 0 7.5 -0.5t9.5 -0.5h18h7q7 0 30 1q28 1 34 4q4 2 31 2q28 0 36 -3t33 -3q11 1 34.5 1t47.5 -1q14 0 28.5 0.5t23.5 0.5h9q1 1 8 1.5t10 0.5q14 2 19 2q6 1 14 -7q6 -6 7 -13t1 -44q0 -49 -2 -53q-1 -3 -5 -11q-1 -1 -3.5 -4
t-3.5 -4t-5 -11q-5 -11 -11 -16q-2 -2 -10 -10.5t-12 -12.5q-16 -14 -16 -16q0 -1 -5 -6q-4 -6 -8 -8q-3 -1 -15 -15l-12 -14q-3 -3 -7 -10l-13 -17q-9 -12 -12 -14l-13 -13q-9 -9 -12 -15q-7 -12 -13 -19q-8 -10 -10 -17q-2 -6 -7 -9q-10 -10 -18 -17q-17 -17 -21 -22
q-8 -10 -17 -19l-11 -12q0 -1 -7 -12q-4 -5 -10 -14q-2 -3 -5 -6l-14 -16q-4 -4 -16.5 -17t-17.5 -19q-16 -16 -28 -25q-7 -4 -9 -7q0 -2 -10 -14q-8 -12 -8 -13l-1 -2q-1 0 -11 -8l-13 -13q-5 -5 -5 -10q-1 -4 1 -12q2 -5 6 -7q3 -3 24 -3q23 -1 30 2q10 3 22 4q20 2 29 1
q15 -1 21 2q6 2 22 1q9 -1 40 -1q12 1 41 1h23q21 0 41 1q32 0 41 3q7 1 16 -1q10 -2 19 -2t17 2q6 2 11 2q4 0 11 -7q9 -9 11 -12q2 -5 2 -25q0 -22 -2 -26q-2 -8 -2 -15t-3 -13q-6 -6 -10 -8q-5 -3 -19 -2q-18 2 -20 3q-4 2 -15 2q-5 -1 -10 -1h-7q-1 0 -5 1t-5 1
q-5 1 -13 -2q-10 -3 -35 -4q-8 0 -20.5 -0.5t-13.5 -0.5q-11 0 -15 1q-6 0 -12 3t-18 3q-14 0 -20 -3q-6 -2 -11 -2q-4 0 -12 -2q-6 -2 -7 -3t-9 -1q-5 0 -13 2q-3 2 -9 5q-3 2 -7 1q-4 0 -16 -2q-6 -1 -27 -1q-19 2 -25 4q-9 3 -20 2q-12 0 -18 -3q-3 -1 -17 -3
q-11 0 -17 -2q-5 -3 -14 0q-8 3 -13 3q-7 0 -15 -3q-10 -2 -19 0q-6 3 -18 3q-11 0 -20 3q-12 4 -14 6l-6 6q-1 2 -3 24v16l-1 10q0 9 1 13t-1 12q-3 5 -3 20t3 19q1 1 5.5 6.5t6.5 7.5q2 3 7.5 8.5t6.5 7.5q5 5 5 7q7 9 16 18q18 20 18 21q4 6 16 18t16 20q9 12 21 24
q17 16 21 24q2 4 12 17q5 4 14 13q4 2 10 13q5 10 7 12q2 6 5 6t9 8q6 9 16 18q11 14 12 15t3.5 4t3.5 4q3 2 8 9q6 8 7 9q0 1 1.5 2.5t1.5 2.5q0 2 6 8l11 11l14 14q4 3 9 7.5t5 5.5q4 1 6 5t15 17q15 18 17 20q5 5 5 6q2 4 4 7q3 4 14 15q10 8 20 18q10 12 15 17l4 8
q0 2 5 5l5 4q2 0 5 5q4 3 4 8q-2 4 -7 9t-16 8h-18q-5 0 -17 -3q-12 -2 -78 -2q-67 0 -81 -2q-10 -2 -11 -1l-6 1h-10q-7 1 -28 1q-16 0 -20 -2q-5 -3 -17 -3q-13 0 -19 3q-5 1 -23 3q-16 0 -26 5q-10 4 -12 8q-2 2 -5 24q-2 20 0 28q4 11 7 15q2 4 8 10q8 5 10 6
q1 0 11.5 1t16.5 2q8 0 17 1z" />
    <glyph glyph-name="uni005B" unicode="[" horiz-adv-x="293" 
d="M70 761q6 2 7 2q5 0 15 -3q16 -1 26 -1h17q8 0 30.5 0.5t32.5 0.5q34 0 40 -4t8 -9t4 -18q1 -13 -1 -17q-1 -4 -9 -10q-5 -5 -18 -5h-23q-36 0 -39 -1q-6 -2 -9 -5q-3 -2 -3.5 -12.5t-0.5 -69.5q-1 -33 -1 -60.5t1 -34.5v-12v-17.5v-19.5q-2 -36 -3 -39q0 -8 2 -14
q2 -7 1 -24q-1 -8 -1 -20t1 -26q1 -19 1 -38v-61q0 -63 1 -75q0 -24 -3 -34q-2 -12 -1 -22q2 -11 0 -27q-3 -14 -3 -22q0 -6 2 -12q3 -9 3 -11q1 -8 4 -10q3 -3 9 -5q3 -1 27 -1q24 2 30 2q9 1 13 0q5 -2 11 -11q7 -9 9 -14q3 -9 3 -13t-3 -13q-4 -6 -9 -11q-2 -1 -5.5 -3.5
t-4.5 -2.5q-6 -3 -16 -3q-7 -1 -9 -1q-6 0 -11 3q-3 1 -9 4q-8 0 -15 -1q-11 0 -17 -3q-2 -2 -38 -2q-35 0 -39 2q-6 3 -10 4q-7 4 -9 7q-3 4 -3 50q0 47 2 49q1 4 3 20q0 13 -2 21q-3 9 -3 19q-1 12 2 21q2 10 0 13l-1 7v16.5v21.5q0 38 -2 58q-1 12 -1 39q1 11 1 75v64v30
v31q1 5 1 62q0 49 -2 67q-2 16 -2 26q0 14 3 20q2 11 1 20q0 13 -2 17q-2 6 1 17q2 15 4 17q3 6 5 8q2 4 7 4z" />
    <glyph glyph-name="uni005C" unicode="\" horiz-adv-x="231" 
d="M64 674q4 2 11 2q9 0 15 -3q5 -1 10 -6l5 -10q1 -2 8 -14q4 -6 7 -11l4 -8l5 -15q1 -2 6 -17q0 -7 2 -11q3 -9 4 -14q3 -12 5 -16q1 -7 8 -16q5 -9 5 -16q0 -9 6 -16q6 -8 6 -12q0 -1 2 -5.5t3 -6.5q4 -5 6 -12q0 -3 6 -17q5 -18 5 -19q1 -2 2.5 -6t1.5 -5q3 -5 3 -12
q0 -6 3 -9q1 -2 7 -10q1 -2 3.5 -6t2.5 -5q2 -2 4 -6t2 -7q0 -4 2 -10q2 -8 3 -8q1 -1 5 -11q0 -3 6 -19q1 -3 4 -10t4 -9q6 -12 6 -18q2 -9 4 -11q4 -4 6 -11q2 -8 4 -15q1 -2 4 -15q3 -9 5 -14q3 -6 6 -16q0 -1 1 -4q1 -6 2 -8q1 -1 6 -16q4 -14 4 -16l3 -4q2 0 4 -4
q4 -8 5 -14q4 -12 4 -17q2 -7 7 -14q5 -8 6 -15q0 -7 4 -15l11 -15q8 -8 8 -15q0 -2 -3 -14q-4 -7 -13 -10q-8 -4 -13 -4h-4h-24q-13 0 -19 3q-3 1 -10 8q-5 7 -6 14q-1 2 -2 6l-2 4q-2 2 -7 12q-6 15 -8 21q-1 3 -3 10t-2 9q-2 6 -4 11q-3 1 -5 6q-3 7 -6 16t-3 14
q0 3 -3 6q-4 13 -5 19q-3 12 -7 23q-1 1 -3 6t-3 7t-2 6l-1 3q0 4 -5 14q-1 3 -4.5 12.5t-4.5 12.5q-4 16 -7 22q-2 9 -8 17l-7 14q-1 2 -4 13q0 5 -6 13q-3 4 -6 13q0 4 -5 11q-4 8 -4 15q-2 12 -3 13q-2 5 -4 7q-1 1 -3 10q0 7 -4 15q-2 8 -9 20q-5 11 -8 14q-2 2 -4 6
q-2 7 -1 10t1 9l-4 12q-4 9 -6 15l-3 6t-2 5q-2 2 -6 10q-5 5 -5 13q-2 10 -2 12q0 1 -0.5 4t-0.5 4q-1 1 -3 6t-3 7t-4.5 7t-4.5 7q-5 6 -6 15q0 5 -5 18q-1 2 -3 6.5t-2 5.5l-2 5l-3 9q-3 7 -3 10q0 2 1 4q3 5 7 8q5 4 17 5q4 0 9 1z" />
    <glyph glyph-name="uni005D" unicode="]" horiz-adv-x="294" 
d="M70 763q0 1 5 1q6 0 9 -1q5 -2 18 0q6 1 9.5 1t9.5 -2q5 -3 11 -3q7 0 10 3q8 2 16 2q11 0 20 -3q7 -2 18 -2q13 2 15 3q6 2 8 2t8 -4q5 -5 8 -15q4 -12 4 -42q0 -35 2 -40q1 -6 -1 -14q-2 -14 -1 -25q0 -14 2 -24q1 -4 1 -7t-3 -12l-2.5 -10t-1.5 -7q-3 -5 0 -12
q1 -6 3 -38q0 -32 2 -34l0.5 -6.5t1.5 -10.5q1 -10 1 -13q0 -4 -2 -12q-3 -10 -2 -21q0 -6 3 -15q2 -4 2 -6.5t-2 -8.5q-2 -8 -2 -20q-1 -7 -1 -22v-20v-10v-16.5v-19.5q-1 -20 -1 -74v-24.5v-28.5v-26v-98q0 -56 -4 -61q-2 -5 -9 -8q-5 -3 -48 -3q-41 0 -50 -3q-4 -1 -7 -1
t-8 1q-10 2 -26 1q-6 0 -14.5 0.5t-9.5 0.5q-5 2 -11 6q-5 5 -8 14q-2 8 -2 20q0 13 2 16q2 5 11 9t27 5q14 1 26 -1q3 0 9 -0.5t8 -0.5q8 0 12 3q3 2 8 9l3 12q0 5 2 11q2 4 2 16q-4 25 -4 27q-2 18 -1 25v13.5t0.5 32t0.5 37.5q0 74 -3 82q-3 6 -3 15q0 8 3 14q3 10 3 35
q0 28 2 34q2 8 0 14q-1 4 -3 29q0 7 -0.5 21t-0.5 17q0 5 0.5 16.5t0.5 15.5q0 20 -1 26q0 2 0.5 12t0.5 16q2 19 3 21q2 4 -2 13q-1 6 -4 15q-2 4 0 11q3 8 3 34q0 30 -1 32q-2 5 -7 7q-4 3 -13 5q-2 0 -13 4q-3 3 -11 3t-14 -3q-15 -3 -17 -3q-8 0 -15 4q-6 6 -7 8
q-3 5 -3 7t-2 6t0 18q2 13 6 17q5 3 12 5q8 2 9 3z" />
    <glyph glyph-name="uni005E" unicode="^" horiz-adv-x="496" 
d="M219 739q4 2 6 2q7 0 11 -3q10 -2 25 -2q18 0 25 -3q8 -3 12 -9q4 -4 7 -12q1 -4 4 -13q1 -1 2.5 -4t2.5 -4t5 -11l4 -16q1 -2 3 -7t2 -6l7 -14q3 -5 5 -15q1 -4 4 -13q2 -3 5 -10q3 -9 5 -14q4 -8 4 -10q0 -5 3 -13q1 -3 3.5 -8.5t2.5 -6.5q3 -5 5 -10q3 -6 5 -9
q2 -4 4 -10t3 -7t3 -5.5t3 -7.5q5 -10 9 -20q6 -11 7 -19q1 -3 2 -10l2 -7q2 -6 6 -12q5 -5 9 -11q0 -1 2.5 -5t3.5 -6q3 -6 3 -8t5 -9q6 -8 6 -12q1 -2 3 -10t2 -11t-5 -10q-6 -5 -43 -5q-37 1 -43 4q-9 6 -10 7q-4 4 -6 10t-2 12q-1 7 -7 14t-9 16q-1 3 -3.5 9t-2.5 8
q-3 7 -5 16q0 2 -3 17q-1 4 -4 10l-1 2q-2 3 -3 4l-6 12q-3 4 -7 19q-1 3 -3 10t-2 8q-1 4 -6 11l-3 6l-2 3q-2 2 -4 13q0 9 -4 19q-3 8 -8 13q-3 4 -13 4t-16 -7t-7 -15q-2 -10 -3 -12q-3 -6 -3 -11l-2 -9q-1 -1 -5 -13q-2 -3 -4 -8t-2 -6q-1 -1 -6 -13q-4 -10 -5 -12
q0 -4 -6 -12q-5 -8 -4 -15q1 -3 1 -11q-1 -2 -2 -6t-1 -6q-2 -7 -5 -10l-6 -9q-2 -4 -4 -12t-5 -11q-5 -7 -6 -13q0 -2 -2 -7.5t-3 -7.5t-2.5 -6t-1.5 -5t-4 -7q-4 -4 -21 -3h-25q-4 -1 -24 -1q-19 2 -21 3q-4 2 -6 7q-1 2 -1 5t1 9q2 9 5 14q4 8 6 13l5 10q3 3 4 8
q3 10 4 11q2 5 11 20q9 17 9 25q3 13 3 14q1 1 2 4t1 4q0 2 7 14q6 8 8 15q3 8 5 10q0 1 1.5 4t1.5 4q0 7 1 10q2 6 6 10q5 7 6 12q1 2 3.5 6t2.5 5q2 3 5 10q0 4 6 18q7 17 8 18q1 2 2.5 7t1.5 7q2 6 6 13q2 3 7 13q3 6 3 11q0 3 2 7l7 16q8 20 8 21q2 6 8 10q4 4 11 6t8 3
z" />
    <glyph glyph-name="uni005F" unicode="_" horiz-adv-x="455" 
d="M374 27q8 2 21 2q15 0 18 -2q6 -3 12 -3q9 -2 14 -5q5 -2 9 -8q4 -4 6 -9q2 -4 2 -7q0 -5 -3 -8q-3 -5 -9 -10q-2 -2 -6 -5l-3 -2l-23 -2q-4 0 -26.5 -0.5t-35.5 -0.5q-43 0 -50 -3t-16 0q-6 2 -30 2q-25 0 -31 -2t-60 -3q-49 0 -57 -2q-7 -2 -16 0q-11 2 -14 1
q-2 -1 -13 -1q-5 1 -13 -1q-6 -2 -9 -2q-6 0 -12 3q-4 2 -13 8q-5 5 -10 15q-6 14 -6 15q0 3 3 6q1 1 4.5 3.5t4.5 3.5q7 4 13 6t21 2q8 1 25 1q9 0 13 2q3 2 19 2q14 0 26 -2q11 -2 22 -1q11 3 52 3q43 0 47 -1q6 -2 9 0q4 2 55 2q55 1 60 3z" />
    <glyph glyph-name="uni0060" unicode="`" horiz-adv-x="174" 
d="M5 707q3 1 12 1q10 -2 27 -2q16 0 24 -3q7 -2 16 -11t9 -11q0 -1 2 -3q1 -1 5 -7q3 -6 3 -7q2 -2 9 -18q12 -23 14 -25q7 -11 7 -14q0 -4 -2 -8q-1 -2 -5 -6q-3 -2 -15 -5q-10 -3 -13 -3q-2 0 -5 1q-4 1 -11 6q-6 4 -15 13q-8 8 -14 16q-2 3 -21 24q-21 21 -24 26
q-3 4 -10 11q-5 5 -5 7q-1 1 -1 3t1 4l6 6q2 1 6 5z" />
    <glyph glyph-name="uni0061" unicode="a" horiz-adv-x="515" 
d="M297 252q-1 0 -5 1t-5 1q-2 0 -12 -5q-11 -5 -21 -5q-12 0 -18 -3q-3 -1 -8.5 -2.5t-6.5 -1.5q-6 0 -14 -4l-6 -3.5t-8 -5.5q-10 -8 -11 -8q-3 -3 -3 -5l-6 -8q-3 -3 -8 -15q-3 -8 -5 -21q-2 -12 -2 -15q0 -8 1 -13q2 -10 5 -16q5 -10 10 -15q6 -8 6 -9t7 -8q6 -6 7 -6
q2 0 6 -3q3 -3 12 -5q6 0 16 -4q6 -2 8 -2t9 2q3 1 16 4q7 0 17 4q6 3 24 19q16 18 18 22q3 6 7 16q3 13 4 24q2 13 4 20q1 3 1 6t-1 6q-1 6 0 24q1 9 1 12q0 6 -4 11t-9 7q-6 2 -11 2t-15 2zM243 518h24h4q6 0 14 -3q11 -4 26 -4q16 -2 24 -4q2 -1 10 -3.5t12 -4.5
q2 -1 9.5 -4t9.5 -4l8 -4q1 0 4.5 -2t4.5 -3q4 -1 19 -14q14 -14 16 -17q7 -14 8 -17q5 -9 9 -27q3 -14 6 -20q1 -2 3 -25q1 -11 1 -28v-37v-38v-51v-74q0 -33 3 -41q0 -2 2 -9.5t3 -10.5q2 -11 -1 -19q-3 -11 -1 -16q2 -8 3 -8q1 -1 1 -7t-2 -10q-4 -4 -7 -5q-5 -2 -18 -4
q-15 -1 -22 1t-16 0q-4 -1 -15 -1q-8 0 -15 4q-9 4 -11 7l-6 9q-2 4 -2 14q2 10 -1 18t-9 10t-12 0q-7 -2 -11 -10q-5 -10 -7 -12t-14 -12q-3 -2 -9.5 -7.5t-7.5 -6.5q-6 -6 -14 -10q-12 -5 -18 -5q-8 -2 -19 -7q-9 -5 -14 -5q-1 0 -5 1q-6 0 -16 2h-12q-2 -2 -21 0
q-19 1 -24 4q-2 1 -11 4q-1 0 -6 2q-2 1 -3 1q-1 1 -3 2t-2 2t-6 5q-7 5 -9 5t-7 3q-1 1 -8 7q-3 5 -3 6q-3 4 -6 7q-2 2 -5 5.5t-4 4.5l-3 6q0 1 -5 8q-6 8 -7 13q-4 11 -6 14q-4 9 -4 40q0 32 2 35q3 9 3 13t5 19l7 14q3 1 7 10q3 6 13 18q9 9 11 13l6.5 4.5t10.5 7.5
q12 9 19 11q4 1 10 4q2 1 12 7q9 7 22 10q22 7 26 8q12 4 26 4t24 2q3 1 26 3q10 1 37 1q13 -1 16 0t8 6q7 8 7 13q0 6 -2 12q-2 5 -2 17q1 8 -3 24q-4 9 -4 15q0 2 -4 12t-7 13t-7 5q-3 2 -9 2q-4 0 -15 7q-10 6 -21 5q-14 -2 -26 -5q-4 -1 -12 -3.5t-10 -2.5q-9 -3 -12 -8
q-5 -7 -5 -8q-2 -5 -5 -10l-10 -20q-7 -13 -9 -14q-3 -4 -21 -4q-31 0 -48 -1q-16 -1 -20 -1q-10 0 -14 5q-1 1 -7 10q-2 6 0 13q2 3 4 18q0 12 2 14q2 4 4 6q4 4 9 16q6 12 13 16q1 1 7.5 4.5t9.5 5.5q12 8 13 9q1 2 11 6q5 1 15 6q6 3 12 7q5 4 29 4q25 1 30 4q5 2 20 3z
" />
    <glyph glyph-name="uni0062" unicode="b" horiz-adv-x="585" 
d="M342 421q-7 3 -34 4q-10 1 -19 1t-10 -1q-4 0 -8 -2q-2 -1 -13 -4q-9 -2 -12 -5q-1 0 -2.5 -1.5t-2.5 -1.5q-1 2 -11 -8l-7.5 -7.5t-6.5 -7.5q-6 -5 -9 -14q-1 -6 -4 -11q-2 -5 -5 -6q-3 -6 -3 -9q-3 -13 -4 -15q-3 -9 -3 -24q0 -19 -3 -26t-3 -15q0 -4 1 -17
q0 -22 3 -28q2 -7 4 -22q0 -9 3 -24q1 -2 2 -5q3 -8 4 -10l7 -14q4 -8 4 -11q1 -1 3 -9q1 -5 18 -22q17 -16 22 -17q7 -2 13 -6q5 -4 20 -7q9 -2 15 -2q4 0 11 1t19 4q9 3 13 3q9 2 12 5q5 4 9 9q3 5 10 10q8 6 13 14q6 9 14 25q8 14 10 25q1 8 4 16q1 6 3 23q0 20 1 24
q0 6 -2 14q-3 9 -3 20q-2 16 -4 19q-2 5 -2 21q1 17 -1 25t-4 10l-2 6q0 6 -5 16q-3 10 -14 22q-11 11 -11 12t-1 2q-2 2 -2 3q-3 3 -11 9q-7 6 -16 9zM87 725h3h5h7q6 -1 41 -1h17q13 0 18 -2t7 -9q3 -6 3 -52q0 -48 2 -54q1 -9 0 -19q-2 -6 -2 -20q0 -10 1 -26
q0 -37 -2 -42q-2 -8 -1 -22q0 -17 3 -20q1 -2 8 -7q1 0 5.5 -1.5t5.5 -1.5q3 0 9 4q1 2 4.5 6t5.5 5q1 2 4.5 5.5t4.5 5.5q3 2 13 8q2 1 7 4t7 4q5 6 10 7q6 3 14 3q12 3 14 4q6 2 20 2q18 0 23 2q9 2 12 1q8 0 17 -3q3 0 7.5 -1t9.5 -2t7 -1q12 -4 17 -7q8 -5 10 -6l4.5 -2
t6.5 -3q6 -2 19 -16q12 -12 14 -12l10 -6q11 -6 13 -10q0 -1 1 -2l4 -8q0 -1 1 -3.5t2 -3.5q3 -3 6 -11q8 -13 11 -17q7 -10 8 -17q2 -8 4 -13q1 -1 3 -6q1 -3 2 -4q1 -3 3 -21q3 -19 3 -20q2 -8 0 -11v-7q0 -1 1.5 -5t2.5 -6q4 -8 4 -18t-2 -16q-3 -4 -3 -10q0 -8 3 -23
q2 -18 -1 -26q-3 -7 -3 -14t-5 -20q-1 -2 -4 -11t-4 -11q0 -1 -2 -7.5t-3 -9.5q-1 -2 -2.5 -7t-2.5 -6v-7q0 -3 -8 -11q-8 -10 -10 -15q-6 -9 -7 -10q-1 -2 -9 -6q-9 -6 -13 -10q-5 -4 -10 -9q0 -1 -8 -5t-13 -9q-2 -2 -5 -4.5l-3 -2.5q-4 -4 -9 -5q-4 -3 -13 -5l-15 -3
q-8 -2 -13 -4q-9 -3 -14 -5t-24 -4q-15 0 -17 1q-1 0 -9 4q-7 5 -11 6q-3 1 -10 2q-3 1 -5 1q-11 2 -13 4q-4 2 -10 4q-8 2 -10 2q-7 3 -7 4q-2 2 -10 12q-5 8 -9 12q-4 6 -7 9q-2 3 -9 10l-10 5q-7 0 -8 -1q-4 -2 -4 -6q-1 -1 -2 -4t-1 -4q-1 -2 -3 -16q0 -8 -3 -17
q-1 -6 -8 -9q-6 -4 -21 -4h-25q-10 1 -15 0q-6 -2 -21 -2q-16 0 -19 1q-6 3 -9 8q-2 2 -8 11l-3 9q0 3 2 7q3 6 3 28q1 14 1 30q0 9 -1 16q0 13 2 16q2 6 2 8q0 4 -2 8q-2 3 -2 53q0 16 -0.5 38t-0.5 23q0 12 3 21q2 9 0 14t-2 52q0 45 2 53q1 7 -1 14q-3 6 -3 15q0 5 3 14
q3 5 3 11q0 4 -2 10q-2 5 -2 103v55q0 41 2 46q2 4 2 7q0 5 -3 11q-3 12 -3 14q0 5 6 12q8 8 11 9q8 4 10 4z" />
    <glyph glyph-name="uni0063" unicode="c" horiz-adv-x="459" 
d="M253 514q4 2 7 2q4 0 11 -3q12 -3 16 -5q10 -2 16 -2q7 0 10 -3q1 -1 5 -2t5 -1q2 0 8 -2q4 -1 6 -1q10 -4 15 -10q1 -1 6.5 -5.5t7.5 -5.5l7 -4l11 -7q9 -6 13 -10q1 -2 5 -8l8 -12q2 -3 9 -13q7 -7 8 -10q1 -1 2.5 -6t2.5 -8q2 -14 3 -16q0 -5 4 -13q2 -6 2 -13
q0 -8 -2 -10q-2 -4 -7 -7t-24 -2q-26 3 -28 3q-3 2 -31 4q-23 0 -27 3q-2 1 -6 5l-5 12q-4 12 -4 17q-4 12 -5 14q-2 5 -7 15q-2 7 -9 10q-5 5 -7 5q-3 0 -8 3q-6 3 -29 4q-24 0 -27 -1q-4 -1 -12 -11q-4 -4 -13 -16q-3 -6 -9 -14q-5 -6 -6 -15q0 -7 -3 -16q-3 -7 -3 -22
t-2 -19q-1 -2 -3 -14q0 -3 -2 -10.5t-2 -10.5q-3 -9 -3 -16q-1 -4 1 -13q3 -8 2 -16q-1 -7 1 -12q2 -6 2 -20q2 -15 4 -19q3 -9 3 -15q0 -8 3 -14l3 -12q0 -6 11 -28q8 -19 17 -26q1 -1 14 -11q7 -4 29 -4q24 1 30 4q7 5 17 13q11 11 12 17q0 2 1.5 6t2.5 5q2 6 2 11t3 10
t3 8t3 9q2 6 7 8t31 3q27 0 37 2q3 1 9.5 2t8.5 1q10 0 15 -3q7 -2 9 -6q2 -3 2 -21q0 -15 -2 -21q-1 -1 -3 -4.5t-3 -5.5q-4 -6 -4 -11q0 -4 -5 -16q-5 -8 -5 -12q0 -3 -13 -16q-8 -8 -20 -17q-7 -4 -15 -14q-4 -5 -11 -12q-9 -3 -13 -3q-10 -2 -13 -4q-6 -3 -10 -3
q-12 -4 -16 -6q-12 -6 -26 -7q-3 0 -13.5 -1t-13.5 -2q-10 0 -20 2q-7 1 -13 0q-6 -2 -21 3q-20 5 -22 5l-12 4q-6 2 -8 4q-1 1 -4.5 3.5t-6.5 3.5q-10 6 -11 7l-4 2q-2 0 -4 2q0 2 -10 4q-9 2 -17 12q-7 7 -15 21q-4 8 -10 18q-6 9 -9 13q-7 9 -7 12q-3 9 -6 15q-1 2 -4 9
t-4 9q-3 8 -3 15q0 4 -2 10q-2 5 -4 5q-1 0 -3 7q-2 8 -2 31q1 14 1 32t-1 30q0 25 2 34q3 9 3 17q0 7 3 18t3 16q0 2 2 8q1 1 4 12q0 6 6 16q4 8 4 9q1 2 2 3q4 4 5 10q5 11 8 16t10 10q3 2 11 10q5 4 10 11q1 1 3 4t3 4q2 1 8 3q8 3 14 9q10 8 16 11q9 3 10 3q4 0 10 2
q2 1 7 3t7 3q8 4 14 4q5 0 11 2q5 3 24 4q17 0 21 2z" />
    <glyph glyph-name="uni0064" unicode="d" horiz-adv-x="578" 
d="M309 428q-8 3 -22 4q-15 0 -16 -1q-1 0 -3.5 -1t-3.5 -2q-1 0 -11 -3q-4 -1 -13 -4q-5 -1 -11 -8q-5 -5 -13 -9t-9 -6l-4 -4.5t-7 -7.5q-9 -11 -9 -12t-2 -5q-3 -5 -6 -17q-4 -9 -9 -25q-2 -7 -6 -19q-2 -6 -2 -12t2 -10q0 -3 2 -15q1 -9 -2 -18q-3 -10 -3 -29
q0 -20 3 -26l3 -12q0 -5 3 -11q2 -7 4 -17q2 -13 6 -20l2.5 -6.5t3.5 -8.5q1 -6 17 -22q17 -16 22 -17q6 -2 7 -2q2 0 10 -3q7 -4 28 -4h10q10 0 39 14q21 10 26 13.5t10 10.5q4 5 10 11l1 3q0 1 1.5 2.5t1.5 2.5q3 5 5 10q2 8 6 11q5 8 5 9q2 4 2 20q0 14 3 23t3 29
q2 23 3 26q2 3 2 7q0 3 -1 6q-3 12 -3 14q0 1 -0.5 4.5t-0.5 4.5q0 3 -2 13q-1 3 -4 21q-1 12 -7 24q-5 15 -6 19q0 9 -4 12q-8 8 -15 14q-9 11 -16 13l-10 5q-3 3 -9 6q-1 0 -5 2zM486 730q6 2 12 2t11 -4q4 -4 8 -10q4 -4 4 -24q0 -10 -1 -46t-1 -73v-77q0 -16 0.5 -34
t0.5 -29.5v-12.5q2 -9 0 -16q0 -7 -3 -13q-2 -4 -2 -9q0 -4 2 -14q2 -7 2 -27q0 -4 -0.5 -13.5t-1.5 -11.5q0 -1 0.5 -11t0.5 -17q2 -22 2 -68q1 -26 1 -60q0 -3 -0.5 -12t-0.5 -13q1 -8 1 -25q-1 -5 -1 -36q0 -24 2 -32q1 -3 1 -6t-2 -8q-5 -10 -7 -13q-3 -4 -8 -7
q-9 -4 -11 -5q-8 -3 -18 1l-15 3q-3 0 -10 -2q-3 -1 -5 -1q-8 -3 -22 -3q-13 0 -17 2t-8 6q-3 3 -5 9q-1 2 -3 15q0 11 -2 15q-1 1 -2.5 3.5t-1.5 3.5q-2 5 -5 6q-3 3 -7 3t-5 -1q-3 0 -10 -11q-10 -12 -20 -21q-10 -10 -18 -14q-6 -2 -10 -6q-2 -2 -5 -4t-4 -3
q-2 -1 -16 -3q-6 -1 -23 -1q-10 0 -17 -3q-8 -4 -20 -4q-14 0 -18 3q-2 1 -7 2t-7 1q-5 0 -14 3q-5 3 -8 3q-2 0 -6 2t-8 6t-14 5q-9 0 -13 2t-22 20l-19 20q0 2 -3 6q-4 7 -8 9q-1 1 -4.5 6t-5.5 8q-7 11 -8 15q-4 6 -6 14q-2 10 -5 19q-1 3 -2.5 9.5t-1.5 8.5q-2 10 -4 12
q-2 6 -2 15q-3 13 -3 14q-2 5 -4 25q0 6 -0.5 15.5t-0.5 11.5q0 8 4 13q3 6 3 13t-2 15q-2 6 1 15q2 8 2 13q0 3 2 9q4 6 5 7t3 7q0 3 2 11q0 3 3 15q1 2 3.5 8.5t4.5 9.5q6 14 8 17q4 8 5 12q4 10 8 13q2 2 11 8q4 2 26 24q24 24 27 25q8 5 16 7q9 3 21 9q10 5 31 6
q19 0 29 2q8 1 15 0q12 -3 17 -3q15 -3 29 -8q15 -6 22 -10q4 -4 6 -4q1 0 16 -15t20 -16q6 0 9 1q4 2 6 7q2 6 2 37q0 28 2 40q2 9 0 16q-1 8 -1 19v14q0 7 0.5 23t0.5 20q-1 9 -1 48v17q0 14 2 21q1 4 6 11q2 3 5 3.5t18 -0.5q17 0 29 -2t17 -2q1 0 5 0.5t6 0.5q1 1 5 2
t5 1z" />
    <glyph glyph-name="uni0065" unicode="e" horiz-adv-x="524" 
d="M294 443q-15 0 -25 1t-13 1q-7 0 -13 -4q-9 -5 -17 -6l-10 -4q-3 0 -12 -9q-11 -11 -14 -17q-1 -2 -3.5 -7.5t-3.5 -7.5t-3.5 -9t-3.5 -10q-4 -11 -6 -22q-4 -12 -2 -19q0 -7 5 -12q2 -3 12 -6q4 -1 15 -1h26q19 1 27 -2q8 -2 11 -2q2 0 6 1q5 1 17 1h19q10 3 23 0
q10 -2 17 -2h5q8 0 11 4q2 2 4 13q1 5 1 8q0 4 -2 11q-2 10 -2 13q0 6 -3 15l-5 15q-3 5 -5 12t-5 12q-5 8 -10 10l-15 9q-10 8 -13 9q-3 3 -13 5zM295 527q2 1 4.5 1t3.5 -1q1 0 4 -0.5t5 -0.5q6 -2 19 -7q16 -6 19 -8l9 -3q2 -1 3 -1l12 -3q9 -3 14 -9q8 -6 14 -9t16 -13
q14 -14 20 -21q10 -10 14 -16q1 -2 3 -5.5l2 -3.5q1 -1 4 -9q0 -1 5 -14q5 -11 6 -20q0 -9 6 -20q6 -13 8 -21q4 -14 4 -26q0 -16 4 -24l3 -15q0 -1 -0.5 -7t-0.5 -9q-1 -6 -6 -18q-3 -8 -7 -10q-5 -1 -12 1q-11 2 -15 0q-6 -2 -12 -2q-8 0 -12 2q-6 2 -12 2q-5 0 -13 -2
q-6 -3 -16 -1q-3 0 -9 0.5t-8 0.5q-7 0 -15 2q-10 2 -14 1q-5 0 -10 -3q-6 -2 -8 -3q-22 0 -46 1q-26 1 -35.5 1t-14.5 -1q-8 -2 -24 -1q-13 2 -20 4q-2 1 -8 1q-6 -3 -10 -7q-5 -5 -7 -13q-3 -8 0 -16q1 -5 1 -16q-1 -4 1 -17q2 -8 9 -23l10 -21q1 -4 9 -14q2 -3 5.5 -7.5
t4.5 -5.5l9 -6q3 -1 6 -4q3 -2 7 -3q5 0 11 -4q4 -2 30 -2q24 0 30 3q7 4 18 3q12 0 17 4q7 7 10 14q6 10 10 14q8 12 10 16q6 9 11 13q4 3 17 3h21h31q24 0 28 -3q3 -3 7 -9q3 -9 3 -10q0 -5 -2 -7l-6 -12q-3 -8 -8 -16q-4 -5 -7 -14q-6 -10 -19 -23q-16 -16 -18 -17
q-7 -3 -16 -10q-8 -5 -29 -17q-15 -7 -34 -10q-5 -1 -16 -3t-13 -2q-10 -3 -18 -3q-3 0 -13 2q-7 2 -20 2h-13q-22 0 -33 3q-6 4 -15 4q-13 3 -19 5q-12 4 -16 8q-6 4 -7 4q-4 1 -7 3l-6 4q-3 3 -9 6q-10 6 -16 12q-10 10 -14 12q-2 2 -5 4.5l-3 2.5q-4 4 -8 12q-6 7 -10 18
q-1 2 -4 15q-2 6 -3 8q-2 1 -6 7l-5 10q-2 3 -4 18q0 13 -4 18q-4 7 -3 15t-1 17q0 2 -1 9t-1 11q-2 14 -4 18q-2 6 -2 11q0 7 3 14q3 11 3 28.5t3 30.5q2 13 11 35q6 18 9 30q3 11 4 13q2 7 5 11q1 2 6 10q2 3 3 5q6 9 8 13q1 2 13 14q2 2 12 11.5t15 13.5q15 15 21 15
q3 1 9 4q5 3 13 3q9 0 13 2q1 1 5.5 4t5.5 4q7 5 16 7t10 3q6 2 12 3q12 2 23 0q10 -2 18 0q6 0 14 2z" />
    <glyph glyph-name="uni0066" unicode="f" horiz-adv-x="314" 
d="M225 741h7.5h8.5h8q13 0 19 -2q5 -3 15 -3q10 -1 15 -5q3 -2 9 -8q3 -5 4 -29q0 -24 -3 -28q-2 -5 -7 -8q-1 0 -5.5 -2t-6.5 -3q-7 -4 -14 -2q-11 0 -18 -1q-6 -1 -19 -6q-9 -6 -14 -12q-8 -8 -12 -14q-4 -5 -6 -15q-1 -5 -1 -47q1 -38 4 -44q3 -7 8 -10q3 -2 14 -2
q9 0 15 2q8 3 21 2q15 0 17 -2q3 -1 5 -6q1 -1 3 -6.5t3 -8.5q3 -11 2 -28q-2 -20 -3 -24q-2 -6 -4 -11q-3 -3 -20 -4q-22 0 -29 1q-14 0 -19 -1q-7 0 -11 -4q-3 -3 -5 -11q-1 -7 0 -15q2 -8 1 -17q-2 -10 -2 -36q-1 -15 -1 -33l2 -44q1 -22 1 -31.5t-1 -13.5q-1 -5 -1 -82
q1 -78 3 -84q3 -6 3 -14q0 -7 -3 -10q-2 -4 -10 -8q-9 -3 -29 -3q-19 0 -28 -3q-6 -2 -8 -2t-5 1l-12 3q-6 2 -16 2q-11 0 -14 3q-4 1 -6 8q-1 6 -1 25v21q0 40 2 44q2 3 2 26q0 21 -3 27q-2 6 -2 17q0 13 3 19q2 8 -1 15q-2 7 -1 30q0 7 1 17v10v9.5t-0.5 22t-0.5 26.5
q0 12 -0.5 28.5t-1 26t-0.5 12.5q0 12 -2 14t-13 2q-9 0 -29 2q-13 0 -22 3q-4 2 -8 6q-3 5 -3 11q0 16 1 27q0 16 3 28q3 6 9 9q7 4 16 4q3 0 8.5 -0.5t7.5 -0.5q10 0 13 1q5 0 11 6q7 7 8 10q0 1 0.5 5t0.5 7q0 8 3 13q2 6 2 17q0 13 -2 18q-3 6 -3 17q0 10 2 16q3 6 3 13
q0 8 3 17q1 3 3 8.5t2 7.5q2 9 5 16q5 11 10 16l14 14q8 8 18 13q9 7 17 9q2 1 7.5 3t7.5 2q3 1 7 2l4 1q4 2 10 2q7 0 15 2q3 1 19 4z" />
    <glyph glyph-name="uni0067" unicode="g" horiz-adv-x="574" 
d="M296 410q-8 2 -17 2q-10 0 -18 -2q-3 -1 -19 -3q-11 -1 -20 -10q-2 -2 -7 -8.5t-7 -8.5q-5 -9 -7 -9l-2 -2t-2 -1q-2 -1 -7 -6q-4 -4 -7 -12t-3 -11q0 -4 -5 -12q-4 -10 -4 -14q0 -5 -2 -11q-1 -3 -1 -21q0 -13 2 -31q3 -17 -1 -27q-2 -10 -2 -15v-6q0 -12 3 -16
q3 -6 3 -11l3 -9l2 -4q2 -3 3 -5q1 -1 4 -10q2 -7 6 -12q2 -3 5 -8l4 -5q2 -4 9 -9l8 -5q1 0 9 -4t10 -6q4 -4 10 -4q1 0 8 -1.5t11 -2.5q12 -2 17 -2h4q10 2 12 4q1 1 3.5 2.5t3.5 1.5q2 2 11 4q4 1 14 6l12 9l9 9q6 6 7 12l9 18q6 11 7 25q2 19 4 22q2 5 2 55q0 48 -4 62
q-4 17 -8 22q-5 13 -6 16q-2 8 -3 8q-1 1 -3 7q-1 7 -11 14q-11 7 -13 11q-5 5 -9 8q-6 5 -14 5q-1 0 -6 0.5t-7 0.5zM226 492q5 2 19 2q1 0 22 -3q12 -2 18 -2q5 0 17 -5q4 -2 13 -8q4 -4 16 -9q13 -7 16 -12q2 -3 10 -11q7 -7 13 -8q8 -2 11 -1q5 1 8 5q2 3 4 14q0 5 3 17
q6 9 8 11q4 4 13 7q10 2 11 3q3 2 14 -1q9 -3 34 -3q24 -1 28 -5t4 -17q0 -7 -1 -33q0 -44 2 -56q2 -10 0 -15q-1 -2 -1 -85q0 -80 -2 -90q-1 -5 -1 -16q-1 -5 1 -13q2 -9 1 -25q0 -7 -1 -15v-9v-5q0 -5 0.5 -13t0.5 -15q2 -33 4 -37q1 -4 1 -6q0 -4 -2 -11q-2 -16 -1 -27
q0 -18 -3 -25q-3 -8 -3 -18t-2 -14l-4 -12q-2 -6 -7 -19l-7 -14q-1 -1 -3 -8q-1 -2 -2.5 -6t-1.5 -5q-3 -6 -6 -9q-1 -3 -12 -14t-14 -13l-4 -4q-3 -3 -7 -6t-12 -8t-20.5 -9t-29 -7.5t-41.5 -6t-54 -2.5h-10q-126 0 -155 44q-2 3 -7 8q-1 1 -4 3.5t-5 4.5q-9 7 -10 9
q-3 3 -9 15q-2 4 -6 11l-3 8q-3 12 -3 19q0 12 2 15l7 7q5 3 17 2q6 -1 25 -1q13 0 23 2q9 1 20 0q11 -3 15 -7q1 -1 8 -11q4 -9 11 -17q8 -12 10 -14q1 -2 6 -7q6 -6 9 -8q7 -5 20 -10q13 -4 27 -3q15 2 17 3q4 2 22 2q19 0 24 4l6 5q3 3 5 4l12 12q10 12 11 14q0 2 4 6
q4 6 4 14q0 3 1.5 8.5t1.5 6.5q1 2 3 18q0 9 3 18q0 1 3 11q0 9 3 13q2 6 2 10q0 7 -3 11q-2 6 -2 14q0 10 -1 13q-2 4 -6 8t-8 4q-5 0 -15 -9q-14 -12 -16 -13q-5 -2 -10 -10t-9 -10q-12 -3 -13 -3q-8 -2 -10 -4t-6 -4t-10 -2q-9 0 -16 -3q-11 -4 -14 -3q-1 1 -13 3
q-8 0 -12 2q-1 1 -17 3q-10 1 -21 4q-3 1 -8.5 3t-8.5 3q-8 3 -18 11q-7 7 -15 11q-9 6 -10 7t-10 7q-7 4 -20 18q-14 16 -17 27q-8 16 -9 17q-5 8 -5 12q-4 16 -5 19q-4 14 -5 15q0 1 -4 13q-3 7 -4 34q0 25 -3 34q-2 5 -2 10q0 3 1 7q0 3 0.5 9t0.5 9q2 12 2 15q2 6 2 13
q0 8 4 16q2 3 4 8.5t3 6.5q1 6 4 11l4 8q1 1 5 11q2 4 5 13q0 5 2 7t4 10l6 12q1 3 8 10q4 3 10 12q2 4 10 12q5 6 10 7q5 2 16 11q16 11 20 12q8 5 17 7q6 3 24 5q14 2 24 4z" />
    <glyph glyph-name="uni0068" unicode="h" horiz-adv-x="584" 
d="M159 726q2 1 9 1t9 -1q8 -3 10 -5q6 -4 9 -7t5 -10q1 -6 0 -11q-2 -4 -4 -19q-1 -8 -1 -34q0 -20 3 -27q2 -9 0 -16t0 -14q1 -7 0 -22v-21q0 -2 0.5 -5.5l0.5 -3.5q0 -1 -0.5 -4t-0.5 -5q-2 -6 -2 -34v-16v-12v-7q2 -7 6 -11q3 -6 8 -6q3 0 7 4q1 1 3.5 4t3.5 4q6 6 9 7
l4 3q0 2 10 12q10 11 16 13q6 3 8 5q4 3 7 4q2 1 6.5 3t6.5 3q8 2 21 2q16 2 18 3q10 0 18 -1q18 -2 29 -2q14 0 26 -5q13 -4 18 -7l12 -8q5 -2 8 -5q1 0 6 -3t8 -5q9 -5 13 -9q0 -1 1 -2l3 -6q1 -1 5 -5.5t6 -6.5q3 -4 8 -12q1 -2 2 -3q1 -2 2.5 -7t1.5 -7q3 -6 5 -14
q0 -1 1.5 -5.5t1.5 -5.5q1 -1 2.5 -5t2.5 -6q3 -11 3 -22q0 -4 -0.5 -10.5t-0.5 -8.5q-2 -6 0 -11l0.5 -11.5t0.5 -30v-36.5q0 -74 -1 -80q-2 -9 -1 -23q3 -11 3 -34q0 -19 2 -27q1 -4 1 -7t-2 -10q-2 -14 -2 -26q0 -17 -4 -24q-4 -9 -8.5 -12t-9.5 -3q-2 1 -10 3l-15 3
q-10 1 -27 -1q-14 -1 -27 -4q-10 -1 -14 2q-3 1 -8 8q0 1 -1.5 4.5t-2.5 5.5q0 8 1 14q3 10 1 18q-1 4 -1 135q1 71 1 131q0 10 -1 19q-2 19 -4 21q-3 9 -3 12q-2 9 -5 16q-4 9 -12 15q-9 7 -12 7q-2 1 -5.5 3t-5.5 3l-12 8q-6 2 -18 1q-6 -1 -29 -1q-17 0 -22 -3
q-1 0 -3 -1l-9 -3q-6 -2 -9 -5q-2 -1 -13 -12q-9 -7 -9 -10q0 -2 -2 -4q-3 -2 -5 -7q-3 -5 -7 -20q-3 -11 -3 -18q1 -4 -1 -10t-2 -162q0 -118 -0.5 -138t-4.5 -23q-5 -4 -13 -3l-17.5 0.5t-30.5 0.5q-23 -1 -29 -1q-12 0 -17 3q-6 2 -10 12q-4 11 -5 30v13.5v16.5v15
q0 26 2 31q2 3 4 13q0 7 -4 15q-3 7 -3 20q0 8 1 38t1 36q0 14 -3 19q-2 4 -2 12q2 6 2 14q2 10 2 54q0 47 2 52q3 7 0 12q-2 6 -2 70t2 70q2 7 0 14t-1 16q0 3 0.5 8.5t0.5 7.5t-2 56t-2 58q0 9 4 13t43 4q38 0 44 2z" />
    <glyph glyph-name="uni0069" unicode="i" horiz-adv-x="243" 
d="M106 509q3 2 8 2q4 0 11 -1q14 0 24 -2q5 -2 16 -2q7 0 11 -4l5 -10q1 -1 4 -14q1 -2 2 -8t1 -8q3 -8 1 -12t-2 -17q-2 -14 0 -27q0 -13 2 -17t2 -30q0 -22 -3 -37q-3 -10 -3 -15q0 -4 2 -19q3 -18 3 -32q1 -8 -2 -22q-3 -9 -3 -22q0 -7 1 -28q0 -38 3 -47q2 -8 2 -14
t-2 -14q-3 -7 -1 -14q3 -4 3 -9q0 -3 -2 -13q-3 -6 -3 -20q0 -15 1 -19q1 -8 -3 -15q-3 -8 -7 -12t-9 -4q-7 0 -14 4q-9 3 -17 2q-13 -2 -23 -1q-12 1 -24 -2q-9 -2 -16 0t-11 8q-4 5 -4.5 8t0.5 16q0 4 0.5 14t1.5 12q0 11 1 15q1 5 -1 13q-3 6 -3 65t3 65q2 6 2 12t-2 12
q-2 3 -3 48v65q0 20 2 30q2 7 -1 17q-2 6 -2 11q0 3 1 8q0 3 0.5 10t0.5 9q0 1 -0.5 10.5t-0.5 15.5q0 18 3 25q5 8 6 8q3 3 18 3t21 3zM133 730q10 2 11 2q2 0 18 -2q17 -4 18 -5q5 -5 7 -9q3 -5 3 -46q0 -40 -3 -46q-5 -7 -8 -8q-5 -3 -15 -5q-9 -1 -15 0q-6 2 -19 2
q-11 0 -22 -3q-8 -3 -21 -3q-13 2 -15 4q-4 1 -9 6q-5 4 -7 12q-3 5 -3 21q0 13 2 21t2 17t-2 17q-2 4 -2 12q2 4 6 8q5 5 15 5q5 0 20 -1q34 0 39 1z" />
    <glyph glyph-name="uni006A" unicode="j" horiz-adv-x="257" 
d="M83 511q8 4 22 4q8 -1 38 -1q26 0 30 1h4q3 0 8 -4t8 -13q3 -11 3 -79q0 -70 -3 -76t-3 -13q0 -8 3 -13q2 -5 2 -72v-120v-65q0 -11 -2 -17v-11q0 -3 2 -25t2 -35v-8q0 -10 -1 -20q-2 -16 -5 -22q-4 -8 -4 -18q0 -11 -2 -15q0 -2 -3 -11q-4 -8 -12 -16q-2 -2 -7 -8t-7 -8
q-8 -8 -13 -11q-1 0 -6.5 -4t-12 -7.5t-21 -7t-33.5 -4.5h-8q-33 0 -48.5 9.5t-15.5 16.5q0 5 2 13q3 5 1 10q-1 3 -1 11q0 6 2 12t7 11q6 6 9 7q4 2 8 2q1 0 4 0.5t5 0.5q4 2 12 8q9 9 10 13q4 6 4 12l4 12q3 4 3 52v26q0 20 -2 32q-2 10 0 24t2 35q0 19 -3 27q-2 8 -2 16
q0 9 2 17t2 22q0 16 2 32q1 17 -1 26q-2 7 -2 31q0 27 1 34q0 2 0.5 15.5t0.5 21.5q1 14 1 18q0 8 -3 16t-2 20q2 14 3 17q2 6 2 17q0 12 -2 22q-1 8 0 18q1 9 5 14q5 5 11 8zM74 736l6 3q3 -1 7 -2q9 -3 52 -3q42 0 48 -3q3 -1 7 -8q5 -7 6 -11q2 -8 2 -28q-2 -27 -3 -30
q-3 -15 -3 -17q-1 -8 -6 -13t-37 -5q-17 -1 -33 -1l-8 -2q-2 0 -7 -0.5t-7 -0.5q-4 -1 -12 -1q-6 0 -8 2q-1 0 -4 2l-3 2q-1 1 -3 4t-3 4q-2 5 -4 13q-3 12 -1 25q1 16 0 31t0 21q2 7 5 11q3 5 9 7z" />
    <glyph glyph-name="uni006B" unicode="k" horiz-adv-x="502" 
d="M81 725q8 3 51 3q44 0 47 -2q2 -1 7 -6q4 -5 3 -15q0 -9 2 -17q2 -4 2 -20q0 -3 -0.5 -10.5t-1.5 -9.5q-1 -3 1 -12q1 -8 -2 -17q-3 -7 -2 -24q2 -19 3 -21q2 -8 2 -48q0 -42 -2 -46q-3 -6 -3 -51q0 -11 0.5 -23.5t0.5 -20.5v-9q2 -6 2 -14q0 -7 -2 -19q-1 -13 1 -21
q3 -6 3 -13q0 -5 4 -9q3 -3 9 -3q6 3 9 5q5 3 10 12q5 10 6 13q1 2 3 5.5l2 3.5q5 5 6 9q1 1 7 10l2.5 5l1.5 3q0 2 4 4q2 0 2 2q3 2 5 3q4 2 8 9q4 6 6 14q3 9 11 18q11 11 17 20l12 15l7 10q4 8 7 12q3 6 9 14l3 3q6 7 9 9q4 4 10 8q3 2 18 1q8 -1 19 -1q15 0 28 1t18 1
q8 0 15 -3q10 -3 12 -7t2 -7q0 -5 -5 -15t-10 -15q-6 -6 -8 -9q-1 -1 -11 -14q-2 -2 -5.5 -6.5t-4.5 -5.5q-1 -2 -15 -18q-13 -13 -16 -20q-5 -10 -7 -12q-5 -7 -5 -9q-2 -5 -11 -16q-7 -7 -13 -16t-9 -13q-7 -9 -7 -13q-2 -5 -7 -12q-4 -7 -1 -18q3 -9 5 -13q2 -1 4 -5
l1 -2.5t2 -3.5q3 -6 5 -11q2 -4 8 -13q6 -5 7 -10q2 -6 5 -9q1 -1 4 -6t4 -7q7 -9 9 -16t5 -9q1 -2 4 -5q1 -1 2.5 -4t2.5 -4q1 -2 4.5 -7.5t4.5 -8.5q5 -7 14 -24q5 -11 10 -19q4 -4 7 -10q1 -3 4 -9q5 -5 7 -9q8 -10 9 -13q4 -6 9 -11l4 -5t5 -7q0 -1 1.5 -4t1.5 -4
q0 -2 2 -8q2 -4 2 -6t-2 -5q-1 -4 -6 -6q-2 -2 -15 -2q-16 0 -20 1q-8 2 -17 -2q-8 -3 -20 -3q-3 1 -11.5 2t-10.5 1q-4 0 -11 1t-8 1t-5 1t-5 2q-2 1 -8 7q-4 4 -8 12q-4 9 -9 15q-3 4 -9 13q-3 9 -3 12q0 6 -9 19.5t-15 20.5l-11 18q-6 12 -6 15q-2 7 -7 13q-7 9 -7 13
q-2 8 -5 10q-2 6 -8 12l-8 16q-1 3 -2.5 7l-1.5 4q-1 1 -3 8q-2 6 -7 16q-1 3 -5.5 10t-6.5 9q-9 11 -11 12q-4 3 -9 3q-4 0 -7 -3q-5 -4 -5 -14q-1 -7 1 -16q2 -6 -1 -11q-2 -8 -2 -10q0 -3 2 -11q3 -6 1 -11v-5t-0.5 -10t-0.5 -12q0 -7 -0.5 -18t-0.5 -12q-2 -10 1 -17
q2 -12 2 -28q0 -19 -3 -28q-2 -9 0 -19q3 -9 3 -19q0 -9 -4 -13q-7 -7 -11 -9q-6 -3 -19 -3t-20 4q-6 4 -8 4t-10 -4q-9 -3 -23 -2q-16 0 -22 2q-5 2 -7 6q-1 1 -5 11q-3 8 -3 20v23v62q0 50 1 51t3 7t-1 11q-3 7 -3 12q0 4 1 11q2 11 0 24q-1 15 1 20q3 5 3 12.5t-3 11.5
q-2 3 -2 19q0 11 1 50q0 21 0.5 49t0.5 29q0 14 2 20q0 9 -2 13q-2 6 -2 18q0 13 2 17q2 6 2 33q0 31 1 33q0 3 -2 21q-2 20 -2 62q-1 26 -1 33q0 15 4 24q1 3 6 13q2 2 10 4z" />
    <glyph glyph-name="uni006C" unicode="l" horiz-adv-x="250" 
d="M68 723q7 7 16 7t15 -2q9 -3 12 -3q9 0 13 2q8 2 16 2q9 0 14 -3q3 -1 17 -3q12 0 15 -3q3 -4 5 -8q1 -3 1 -10t-1 -21q-1 -15 -1 -32q0 -8 -3 -15q-2 -9 0 -16q2 -8 1 -20q-2 -14 -2 -16q-1 -2 1 -9q1 -6 0 -15q-2 -9 0 -17t2 -18v-18v-66v-66q0 -26 1 -45q1 -21 1 -27
q0 -11 -3 -20t-2 -23q2 -15 3 -17q2 -4 2 -27t-3 -33q-2 -6 -2 -33q0 -21 2 -29q3 -5 3 -11q0 -1 -1.5 -6t-1.5 -7q-3 -8 -3 -14q0 -1 1 -4q1 -6 2 -8q3 -5 3 -22v-11q0 -8 -6 -20q-5 -10 -8 -11.5t-16 -2.5h-52q-26 1 -31 1.5t-9 4.5t-8 12q-2 6 -2 15q0 12 2 16q2 6 2 13
t-2 15v7q0 1 1 29q1 15 1 24t-1 18t-1 22q0 2 0.5 7t0.5 6q1 2 1.5 12t0.5 14q0 21 -1 23t-1 14.5t1 29.5t1 31q0 9 -1 29t-1 23q0 8 1 14q1 8 1 16t-1 19q-2 26 -3 30q0 13 2 20t2 18q0 8 -1 35q-1 23 -1 36t1 18q2 14 1 24q0 12 -2 20q-3 9 -3 12q-1 5 2 15q3 7 3 14
q0 6 -2 14t-2 25t8 25z" />
    <glyph glyph-name="uni006D" unicode="m" horiz-adv-x="905" 
d="M322 515q10 2 15 2t13 -2q5 -2 24 -2q14 0 20 -2q1 -2 14 -6q7 -2 23 -10q10 -5 12 -7l8 -6q8 -5 17 -14q8 -9 12 -18q3 -9 7 -13q5 -5 8 -6q6 -2 11 -2q6 0 11 6q1 1 7.5 8t10.5 11q13 14 18 21q6 8 9 11q1 1 18 12q17 8 25 8q5 0 14 3q6 3 36 3q17 1 23 1q9 0 17 -3
q6 -3 15 -3q5 0 15 -4q9 -3 14 -3q3 0 9 -2l27 -26q21 -21 25 -29q1 -3 4 -9q0 -2 2 -5t3 -4q0 -2 1.5 -5.5t2.5 -5.5t4 -14q0 -4 3 -13q2 -4 4 -19q2 -7 4 -43q0 -29 3 -39q2 -7 2 -9.5t-2 -7.5q-2 -6 -2 -51v-55q0 -29 -1 -53q0 -46 1 -51q1 -3 3 -19q0 -14 -1 -17
q-1 -2 -8 -9q-5 -5 -14 -5l-21 -3q-11 -3 -37 -3q-27 2 -31 3q-2 0 -7 2t-7 2q-7 4 -8 7q-3 6 -3 8t2 28q0 16 3 31q1 4 1 15q0 1 -1 5.5t-2 5.5q-3 6 -2 16q1 6 1 20q0 18 -1 30q-1 21 2 27q2 7 0 21q0 3 -0.5 11t-1.5 10q0 5 2 17q1 10 -1 19q-2 10 0 15q3 5 2 29
q0 24 -2 28q-2 6 -2 12q-1 7 -7 14q-8 10 -10 16q-2 7 -11 16l-5 5l-4 3q-4 2 -9 2q-3 0 -12 3q-1 0 -7.5 2t-9.5 3q-11 4 -13 2l-9 -3q-7 -3 -15 -5q-15 -6 -24 -10q-14 -7 -18 -11q-3 -3 -7 -11t-7 -11q-4 -6 -5 -7q-3 -6 -4 -9q-3 -4 -1 -12q0 -10 -2 -17q-4 -10 -4 -23
q-1 -4 -1.5 -17.5t-0.5 -19.5q0 -23 -2 -31q-1 -3 1 -14q2 -7 0 -16q-3 -15 -3 -17q-1 -6 2 -16q2 -11 1 -14q0 -4 -2 -12q-1 -8 1 -14q3 -7 3 -61t-3 -59q-1 -5 -6 -10q-2 -2 -8 -5q-3 -1 -27 -3q-22 0 -27 2q-7 2 -13 0t-13 -2t-8 1q-5 2 -9 4q-8 3 -12 8q-1 1 -4 12
q0 12 1 19q3 9 3 21q0 10 -3 18q-3 7 -3 19t2 16q3 9 3 11q1 4 -1 16q-4 11 -2 14q2 4 2 13q1 10 -1 20q-2 13 0 15q1 3 1 10q0 5 -2 11t-2 10t2 12q2 4 3 30q0 22 -2 30q-1 4 -3 31q-1 24 -6 36q-8 14 -19 24q-13 13 -22 17l-16 8q-8 2 -17 2q-13 0 -22 -5q-12 -6 -17 -6
q-10 -2 -17 -6q-10 -4 -12 -8t-15 -15q-13 -13 -15 -18q-4 -7 -4 -17t-4 -18q-4 -10 -4 -14q0 -8 3 -12q2 -8 1 -22q0 -5 -0.5 -15.5t-0.5 -13.5q0 -18 1 -24q2 -8 -1 -19q-3 -9 -1 -17q3 -8 3 -21q0 -14 -3 -20q-2 -8 0 -14q3 -6 2 -26q-1 -11 -1 -25q1 -2 1 -42
q0 -37 -4 -41q-6 -6 -10 -7q-4 -2 -46 -2q-43 2 -47 3q-6 1 -11 5q-5 5 -6 8q-1 2 -3 14q-3 10 0 20q1 5 1 12.5t-1 21.5q-1 13 -1 25l2 55v96q0 47 -1 51q-2 10 -2 25q-1 14 1 28q0 2 0.5 11.5t0.5 13.5q-1 8 -1 17v5q0 5 0.5 13t0.5 15q0 30 -2 34q-3 9 -3 11q0 3 3 9
q4 4 12 7q7 2 23 2q10 0 19 -3q6 -2 17 1q9 3 23 3q12 0 19 -6q7 -5 8 -12q3 -4 3 -16t1 -14q2 -4 5 -7q6 -3 7 -3q2 0 10 6q2 2 6.5 5.5t5.5 4.5l12 12q6 6 20 16q12 8 22 9q12 2 13 2l6 3q2 0 10 4q1 0 7.5 2t9.5 3z" />
    <glyph glyph-name="uni006E" unicode="n" horiz-adv-x="576" 
d="M344 521q6 2 7 2t5 -1.5t7 -2.5q7 -3 16 -5q1 -1 19 -3q15 0 23 -4q12 -7 17 -11q10 -6 13 -9q5 -2 9 -8t5 -8t13 -14q11 -11 15 -20q5 -13 5 -16q2 -9 5 -16q3 -12 3 -35q0 -22 -2 -32q-2 -6 -1 -12q3 -6 3 -26q2 -18 3 -24q2 -4 2 -31q0 -24 -2 -30q-2 -7 -1 -22
q0 -18 2 -24q1 -3 1 -44v-20.5t-0.5 -17t-0.5 -7.5q-1 -2 -1.5 -8t-0.5 -8q-1 -7 1 -17q3 -6 3 -14q0 -7 -6 -17q-8 -10 -10 -11q-1 0 -41 -2q-38 0 -45 4q-9 3 -13 2q-7 0 -9 2q-5 2 -7 7q-3 5 -2 26q0 6 0.5 22t0.5 22q1 13 1 27q0 1 -0.5 8t-0.5 12q-1 7 -1 20t1 33
q0 10 0.5 20t0.5 16.5v6.5q0 12 -1 21q-2 10 -2 21q0 7 1 17q2 24 1 27q-1 6 1 12q3 5 3 10t-5 15q-6 10 -6 17q-1 5 -11 18q-13 13 -18 17q-4 4 -13 10q-4 2 -6 4q-3 3 -12 6q-8 5 -19 4q-5 0 -17 -3q-1 0 -6.5 -1.5t-8.5 -2.5l-15 -3q-6 -1 -14 -9q-4 -5 -15 -14
q-8 -7 -13 -15q-4 -10 -4 -11q0 -3 -2 -11q-1 -1 -4 -14q0 -4 -3 -13q-3 -4 -3 -39q0 -34 3 -44q2 -10 2 -27q0 -20 -2 -25q-3 -6 -3 -22q2 -14 -1 -24q-1 -8 0 -13q0 -1 5 -17q2 -12 2 -15l-3 -9q-3 -3 -3 -13v-20q1 -7 1 -29q-1 -18 -4 -22t-13 -7q-6 -3 -48 -4
q-40 0 -45 2l-9 6q-4 4 -6 11q-3 7 -3 28q0 18 2 26q2 5 1 15q-2 9 0 19q1 10 -1 16q-2 8 -2 19q2 16 3 18q0 1 0.5 8t0.5 12q0 13 -2 23q-2 14 -2 46q0 39 1 42q2 7 -1 14q-2 10 -2 17q0 2 3 17q3 9 1 16q-2 8 -2 13t2 11q2 4 2 9q0 4 -2 8q-3 6 -3 49q0 46 2 49q4 6 8 7
q4 4 12 4q12 0 18 -2q11 -2 25 0t24 2q11 1 17 -2q1 -1 4 -3.5t4 -3.5q5 -8 6 -10q1 -4 0 -16q-2 -12 4 -21q6 -10 8 -11q2 -2 5 -2q1 0 4 1q3 2 4 2q6 6 9 10q3 6 13 14q4 3 13 12q4 6 13 13q4 4 16 10q7 2 9 4q2 1 14 5q14 4 16 5t17 3q9 0 18 3z" />
    <glyph glyph-name="uni006F" unicode="o" horiz-adv-x="575" 
d="M294 441q-6 3 -9 3l-3.5 -1t-6.5 -2q-12 -3 -17 -4q-10 0 -19 -6q-7 -3 -17 -11q-7 -7 -9 -7l-9 -7q-10 -7 -11 -13q-6 -9 -7 -16q-1 -3 -3 -10.5t-3 -10.5q-3 -17 -4 -18q-2 -8 -2 -15q0 -5 -2 -13q-3 -6 -3 -31q-1 -13 -1 -18q0 -8 2 -14q2 -7 4 -36t3 -33q1 -1 3 -13
q0 -5 5 -17l4 -9q0 -1 4 -7q4 -8 9 -11q1 -2 4 -6t4 -5q2 -4 8 -10q1 -1 4.5 -3.5t4.5 -3.5q5 -4 19 -7q16 -4 23 -4q8 0 14 -2t12 -2q7 0 15 3q2 1 6 2l4 1q2 0 6 2l9 3q6 2 22 17q18 20 21 24q4 8 6 10q0 1 2.5 5t3.5 6q3 6 3 11q0 4 3 11q3 8 4 40q0 29 2 51q1 10 1 15.5
t-1 6.5q-2 4 -2 26q0 21 -3 27q-3 8 -4 16q-2 10 -2 13q0 4 -5 12q-5 10 -8 12q-1 1 -5.5 6.5t-6.5 8.5q-10 12 -15 16q-10 8 -15 10q-7 4 -21 5q-18 2 -21 3zM267 523q2 1 31 1q30 -2 34 -3l6 -3t5 -2q4 -2 13 -5l24 -6q13 -2 21 -6q1 -1 20 -14q2 -2 11.5 -9.5t13.5 -10.5
l15 -11q2 0 6 -4q5 -5 8 -11l3.5 -6t5.5 -8q1 -2 4.5 -7t4.5 -7q2 -2 10 -15q4 -10 5 -11q2 -2 4 -7q1 -3 3 -17q0 -7 3 -16q4 -6 4 -12q1 -2 2 -5l1 -3q2 0 2 -14t3 -23t3 -27t-3 -24q-2 -8 -2 -17q0 -11 -3 -17q-3 -7 -4 -24q0 -16 -2 -20q-1 -4 -5 -6q-3 -3 -3 -8
q-1 -1 -2.5 -5t-1.5 -6q-1 -3 -4 -6l-4 -6q-2 -7 -11 -21q-9 -17 -19 -29l-13 -13q-2 0 -9 -7l-10 -10q-5 -4 -9 -6q-2 -1 -6 -2.5t-6 -2.5q-8 -2 -12 -6q-4 -3 -20 -9q-5 -1 -22 -8q-9 -2 -9 -4q-1 0 -9 -2l-12 -3q-6 -2 -9 -2q-6 0 -13 3q-9 3 -19 0q-12 -3 -28 -3
q-5 0 -12.5 0.5l-7.5 0.5q-1 1 -18 3q-6 1 -23 5q-12 5 -18 6q-10 4 -20 9t-14 9q-1 1 -3 4l-2 3q-2 5 -12 8q-10 6 -14 8l-10 10q-6 7 -13 13q-5 4 -10 11q-5 5 -8 18q-6 14 -9 20q-5 7 -6 14q-2 7 -5 12q-2 7 -5 11q0 1 -1.5 5t-1.5 6q0 3 -2 17q-2 12 -4 18q-3 5 -3 22
q0 5 0.5 14t0.5 10q1 7 0 14q-2 4 -2 17q0 11 3 20q4 12 4 23t2 15l4 8q3 9 4 14q1 3 7 16l6 10q0 5 5 13q4 8 7 17q0 5 4 11q1 2 9 10q10 10 15 14q2 2 8.5 8t9.5 8q6 5 14 13l9 6q1 1 5.5 3t6.5 2l5 3q0 2 5 4q4 2 12 4l7 1.5t10 2.5q7 2 15 4q1 0 8.5 1t12.5 1q17 2 19 3
q6 3 10 3z" />
    <glyph glyph-name="uni0070" unicode="p" horiz-adv-x="580" 
d="M345 437q-10 5 -24 6q-18 0 -23 -1q-3 0 -18 -3l-16 -4q-7 -1 -18 -9l-25 -24q-17 -18 -21 -27q-4 -11 -5 -22q-1 -7 -4 -22q-1 -2 -5 -14q-2 -6 -2 -59q0 -55 3 -60q1 -3 3 -15q0 -11 5 -20q1 -3 4 -8t3 -6q3 -6 9 -15q2 -4 10 -16q1 -1 4 -3t4 -3l8 -4q5 -2 7 -5
q2 -2 3 -2q3 -1 6 -4l7 -3.5t8 -4.5q7 -3 9 -3h1q2 2 25 2q23 1 34 6q11 4 13 6q1 1 3 1l8 6q10 10 13 14q5 7 5 8q2 4 6 8l6 10q0 1 2 7q1 1 3 5t2 5q3 3 7 16q1 4 2.5 12.5t1.5 10.5q3 13 3 14q2 6 2 16q0 13 -3 20q-3 6 -3 17q0 10 2 18q3 6 3 13q0 5 -3 13q-2 10 -2 20
q0 12 -2 16q0 2 -1 5t-2 5q0 6 -7 15q-6 10 -7 12q-3 5 -8 12q-2 3 -13 17q-1 2 -5 6t-5 6q-3 5 -13 9zM335 522q1 1 7 1t12 -2q12 -3 19 -3q7 -1 27 -6q5 -2 12.5 -4l7.5 -2q1 0 5.5 -1.5t5.5 -1.5l11 -7q3 -1 14 -10q14 -14 22 -21q15 -14 23 -31q10 -18 11 -20q2 -2 4 -6
q2 -6 2 -9q0 -1 4 -15q5 -15 6 -19q1 -2 3 -9.5t3 -10.5q3 -14 3 -21v-11q-1 -11 -1 -14q0 -7 4 -17q3 -11 3 -17v-7q-2 -16 -3 -18q-1 -1 -3 -13q0 -14 -1 -19q-1 -10 -5 -19t-5 -23q-1 -13 -6 -22q-1 -1 -4 -6t-4 -7q0 -1 -2.5 -6.5t-4.5 -8.5q-4 -13 -7 -16q-1 -2 -6 -7
q-2 -1 -7 -6q-4 -4 -6 -10q-2 -3 -11 -15q-10 -10 -19 -16q-14 -8 -16 -9q-1 0 -6 -2q-2 -1 -3 -1q-10 -5 -15 -7q-12 -6 -14 -8l-11 -7q-5 -2 -24 -4q-17 0 -25 -2q-8 0 -13 3t-18 3q-15 2 -17 3q-8 4 -13 5q-9 3 -19 7q-5 1 -16 8q-12 9 -16 14q-3 3 -8 9l-2 2q0 2 -5 5
q-6 2 -10 2q-5 0 -7 -2q-3 -1 -5 -6q-1 -4 0 -13q1 -3 2 -10.5t1 -9.5q0 -19 1 -27q0 -21 -1 -29q0 -2 -1 -12t-2 -13q0 -11 1 -14t1 -14v-16q-1 -4 1 -14q1 -6 1 -42q-2 -22 -3 -26q-4 -8 -5 -9q-2 -3 -61 -3q-44 0 -51.5 1t-9.5 7q-1 8 0 16q2 7 2 63q-1 16 -1 33t1 24v36
q0 4 -0.5 17t-0.5 18q-1 10 -1 20q0 12 1 28q1 12 1 21.5t-1 12.5q-2 6 -2 18t2 20q2 12 1 25q0 17 -3 25q-2 7 -2 9t1 6q3 12 3 13q2 6 2 42t-3 45q-2 10 -2 11t2 17t2 61q0 48 -2 56q-2 6 -2 8t1 4t1 19q0 14 5 18q3 5 9 7q8 4 12 5l7.5 2.5t5.5 1.5q7 0 8 -1q1 0 5 -2
l6 -3q7 -3 11 -2q3 0 17 4q3 1 8 2t6 1t4 -2t5 -3q7 -5 11 -11q3 -6 3 -23q0 -16 2 -22q2 -5 6 -7q3 -3 7 -3q2 0 8 6q5 7 13 11q5 5 11 13q3 6 21 20l17 14h10q15 3 22 5q13 4 23 6z" />
    <glyph glyph-name="uni0071" unicode="q" horiz-adv-x="576" 
d="M298 424q-6 1 -12 1h-3h-8h-10q-20 -1 -34 -8q-16 -8 -17 -9q-4 -2 -10 -8q-7 -7 -7 -8q0 -2 -7 -12q-7 -9 -10 -17q-2 -6 -2 -11q0 -4 -2 -10q-1 -3 -7 -19q-4 -14 -3 -25q2 -16 1 -30q0 -19 -3 -25q-2 -8 -2 -12l3 -15q0 -3 0.5 -9.5t0.5 -8.5q0 -8 3 -14l6 -18
q5 -12 5 -16q0 -7 4 -12q5 -10 7 -13q1 -2 3 -5.5t2 -4.5l6 -7l10 -10q12 -14 16 -16q1 -2 23 -8q11 -3 27 -7q9 0 15 2q6 3 18 3q9 0 18 4q12 9 16 13q9 9 14 19l7 14l3 6q1 1 3 5q1 2 7 8q5 4 7 12q0 2 1 7t2 7q2 10 2 13q-1 2 1 20q2 19 3 21t1 5.5t-1 7.5q-1 5 -1 12
q2 2 0 10q-1 4 -1 25q0 4 -0.5 13.5t-1.5 11.5t-2 8.5t-1 7.5q0 6 -6 20q-4 11 -6 11q-1 1 -5 7q-3 5 -7 16q-1 3 -7 15q-6 6 -10 9q-3 1 -8.5 5.5t-8.5 5.5q-7 7 -15 9q-3 2 -17 4zM229 506q7 0 17.5 0.5t12.5 0.5q8 0 10 -2q3 -3 11 -6q7 -3 16 -5q4 0 16 -6q9 -4 11 -7
q3 -3 12 -9q10 -8 17 -15l9 -12l6 -9q2 -3 7 -5q2 -1 7 -1q2 0 5 5q3 3 7 16q4 14 4 20q0 7 2 13t7 8q5 4 14 4q5 -1 42 -1h17.5t15.5 -0.5t7 -0.5q7 0 12 -5q4 -4 5 -9t1 -32q0 -33 -3 -41q-3 -6 -1 -13q3 -7 3 -28q0 -18 -2 -34q-2 -12 -2 -17q0 -1 1 -4.5t2 -5.5
q2 -4 -1 -11q-3 -10 -2 -31q0 -25 3 -31q3 -5 3 -17q0 -6 -1 -29v-21q0 -20 1 -28q1 -4 1 -9t-1 -13q-2 -16 -5 -25q-2 -11 0 -18q2 -10 2 -13q0 -6 -2 -10q-2 -5 0 -13q1 -4 3 -40t2 -42q0 -1 -0.5 -11.5t-0.5 -26.5v-31q0 -11 -0.5 -43t-1.5 -33q0 -8 -65 -8
q-31 0 -46 2.5t-17.5 6t-3.5 11.5q-1 13 3 29q2 13 2 27v6q-3 6 -4 7q-2 4 -2 19q-2 18 -1 20q0 8 1 12q1 7 1 32v22q0 35 -0.5 41t-3.5 9t-9 3q-4 0 -12 -7q-2 -1 -6.5 -5.5t-6.5 -5.5q-1 -1 -5 -4t-6 -5l-12 -9q-6 -6 -9 -6q-6 -3 -12 -3q-10 -2 -12 -4q-6 -3 -9 -5
t-22 -6q-12 -2 -16 -2q-5 0 -17 4q-14 5 -23 7q-7 0 -19 4q-17 7 -19 8l-10 4q-3 0 -7 3q-5 2 -12 7q-5 4 -17 11q-7 7 -10 7t-10 9q-10 12 -11 15q-1 1 -6 13q-5 7 -5 11q-4 8 -7 13q-8 12 -9 14q-6 9 -8 14q-5 10 -5 20t-5 22q-5 14 -6 24q0 3 -0.5 13t-0.5 15q0 16 -2 24
q-2 10 -2 20q0 12 3 21l5 15q2 5 0 13q-2 9 0 16q3 12 3 15q1 8 5 13q6 6 10 20q3 13 8 20q3 3 9 15q7 12 9 14q3 3 6 9q1 2 9 13q8 9 16 13q5 4 25 15q14 7 22 9q5 0 8 3t7 5q6 3 13 3q10 2 12 3q1 1 25 3z" />
    <glyph glyph-name="uni0072" unicode="r" horiz-adv-x="371" 
d="M137 510q1 1 5 1q5 0 5 -1q1 0 4 -1.5t4 -1.5q7 -2 11 -6q5 -4 8 -9q2 -4 2 -32q0 -7 0.5 -14t0.5 -12v-5q2 -4 6 -6q5 -1 9 1t10 10q6 6 6 9q0 1 6 9q5 9 12 12q8 5 9 9q1 1 4 4.5t4 5.5q3 3 15 9t14 6q2 2 6 2q6 0 13 3q5 2 17 5q7 0 13 2q6 1 11 0q5 -2 6 -5
q3 -6 4 -13q2 -10 2 -26v-9v-7.5v-4.5q-2 -6 -2 -17q-2 -14 -4 -19q-1 -5 -6 -9l-9 -6q-7 -3 -19 -3q-14 0 -27 -4q-3 -1 -11 -3t-11 -3q-15 -3 -16 -3t-5 -1t-5 -2q-3 -1 -5 -6l-9 -12q-6 -6 -10 -14q-4 -9 -6 -18q-2 -8 -4 -13q-2 -6 -4 -8q-1 -2 -3 -12q0 -9 2 -14
q2 -4 2 -21q0 -5 -0.5 -11.5l-0.5 -6.5q-2 -2 -2 -16q0 -4 -0.5 -14t-0.5 -14q-2 -14 0 -19q2 -3 2 -10q0 -5 -1 -23q-1 -14 -1 -28.5t1 -30.5q0 -10 0.5 -25.5t0.5 -17.5q-2 -16 -4 -20q-5 -8 -7 -9q-4 -3 -18 -4q-10 0 -22 -3q-5 -2 -7 -2t-10 3q-11 3 -22 1q-8 -2 -11 -2
q-2 0 -6 1q-6 3 -11 3q-4 0 -7 3q-2 2 -4 12q-3 11 -4 13q-2 6 0 19l3 36v31q0 20 -1 36q0 7 -0.5 14.5t-0.5 12.5v4q0 3 2 13q1 10 0 17q-2 10 -3 11q0 3 2 13q2 7 1 17q-2 9 0 19q2 8 0 15q0 7 -3 13q-2 8 0 14q3 6 3 16q1 6 -1 24q-2 16 -2 19t2 17q1 7 1 43q0 30 -2 38
q-3 5 -3 10q0 3 2 9q1 3 6 5q5 3 33 3q6 0 15 0.5t14 1t6 0.5q6 0 6 2z" />
    <glyph glyph-name="uni0073" unicode="s" horiz-adv-x="465" 
d="M211 524q4 0 13.5 0.5t12.5 0.5q20 0 31 -1q17 -2 26 -4q8 -2 15 -2q8 0 15 -4q2 0 14 -8l15 -9q3 -2 9 -5l4 -3t6 -4q2 -2 8 -7.5t9 -8.5t7 -7.5t5 -5.5l6 -6q3 -9 3 -13q0 -1 1 -6t2 -7q3 -4 3 -14q0 -9 -2 -13q-3 -3 -10 -6q-8 -4 -11 -4q-4 0 -8 2q-5 1 -13 -1t-14 0
q-6 3 -25 3q-18 1 -22 4q-3 3 -9 13q-1 2 -3.5 8t-3.5 7q-5 7 -13 14l-12 12q-2 1 -12 3q-2 1 -8.5 2t-8.5 1q-6 1 -16 1q-10 -2 -11 -3q-9 -3 -14 -3q-8 0 -14 -4q-1 0 -5 -2.5t-6 -3.5q-10 -6 -14 -10q-6 -9 -7 -12q0 -1 -3 -20q0 -15 1 -19t8 -13q6 -8 9 -11q1 -1 6 -4.5
t8 -5.5t9 -5l5 -4q6 -2 11 -1q8 1 16 -4q10 -6 15 -6q2 -1 6.5 -2t5.5 -1q2 -1 5 -2l2 -2q2 -2 12 -6q9 -3 15 -1q6 1 15 -2q3 -1 8.5 -3.5t7.5 -3.5q8 -4 11 -6q6 -5 18 -6q10 -1 24 -8q13 -5 18 -10q3 -3 11 -7q7 -3 9 -8q0 -1 2.5 -5.5t4.5 -7.5q3 -7 7 -11q1 -1 5 -9
q3 -12 3 -14q0 -8 3 -16q5 -12 6 -18q1 -5 1 -8t-1 -5q-3 -6 -3 -18q-2 -16 -5 -23q-1 -8 -5 -12q-3 -6 -5 -9q-3 -4 -3 -8q0 -2 -4 -6q-1 -1 -3.5 -4t-3.5 -4t-4 -5.5t-4 -5.5q-5 -5 -11 -13q-10 -8 -16 -12q-5 -2 -16 -9q-4 -3 -14 -8q-9 -2 -11 -4q-1 -1 -9 -5
q-6 -2 -16 -4q-9 0 -17 -5q-8 -4 -34 -5q-29 -2 -33 -3q-6 0 -12 -2q-8 0 -12 2q-6 3 -12 3l-7 1q-7 2 -10 3q-12 2 -15 2q-1 0 -6 1.5t-7 1.5l-15 6q-1 1 -4 2.5t-4 2.5q-2 0 -12 6q-8 3 -16 8q-2 1 -12 8q-6 5 -8 8q-2 4 -10 9q-8 7 -10 16q-4 13 -9 20t-10 16q-3 9 -3 12
q0 6 4 13q3 5 8 7q7 2 22 1q6 0 14.5 -0.5t9.5 -0.5q4 0 20 2q16 3 22 1q4 -1 10 -4q4 -2 8 -10q3 -5 17 -26t22 -25q7 -6 20 -7q11 0 19 -2q5 -3 12 0q6 2 20 2q15 1 21 6q3 3 11 7q5 0 12 7q6 8 6 9l1 2q2 0 7 9q5 8 5 27q0 18 -5 28q-3 8 -7 12q-2 1 -8 7q-1 1 -14 6
q-8 2 -13 5q-2 2 -8 5l-16 8q-2 1 -7.5 3t-6.5 2q-3 0 -7 2q-4 3 -18 3q-12 0 -20 3q-2 1 -6 3.5t-5 2.5q-4 4 -11 4q-14 3 -17 4q-5 1 -17 6l-23 11q-18 9 -22 10q-5 1 -12 8l-5 6l-8 10q-10 12 -12 18q-3 5 -6 14q-3 6 -3 24l-2 22l1 3v9v9q2 20 7 29q4 10 6 12q3 3 6 9
q1 2 4 7t4 7q4 6 5 7q4 4 6 7q2 4 10 12q5 5 15 9q2 1 19 8q12 4 13 4q4 2 6 4q2 1 8 5l14 7q10 5 22 4q18 0 26 1z" />
    <glyph glyph-name="uni0074" unicode="t" horiz-adv-x="367" 
d="M202 644q8 2 10 2h1t4 -1t4 -1q5 -3 8 -8q1 -6 0 -16q0 -6 -2 -34l-2 -28l2 -22q1 -20 4 -24q3 -3 11 -5q7 -1 26 -1h22h26q14 0 19 -5q7 -7 8 -10q2 -3 2 -29q-1 -28 -3 -32q-4 -6 -7 -6q-6 -2 -10 -2q-5 -2 -13 1q-10 2 -28 2h-30q-10 0 -16 -7q-4 -4 -10 -13
q-2 -5 -1 -17q3 -10 0 -23q-2 -12 -2 -18l2 -50v-59q0 -18 -1 -22q-2 -8 -2 -22q0 -13 2 -25q3 -7 3 -17q0 -11 4 -19q3 -13 10 -20q3 -3 9 -12q4 -5 19 -6q7 -1 17.5 -1t19.5 1q21 1 24 -3q3 -3 7 -9q3 -6 3 -12q0 -14 -1 -23q0 -19 -4 -25q-5 -7 -9 -10q-10 -5 -17 -6
q-5 -2 -32 -4q-12 -1 -50 -1q-27 0 -36 3q-6 1 -11 4q-1 1 -9 4q-6 1 -11 4q-1 0 -8 3t-11 5q-14 7 -19 12t-8 15q-4 12 -4 16q-3 9 -4 13q-3 7 -2 18v77v87q0 4 -0.5 14.5t-1.5 12.5q0 5 -2 15q-1 10 2 21q2 14 2 17l-3 9q-2 4 -2 9t2 13q2 7 0 15t-2 15q0 6 -2 12
q-1 5 -6 8q-5 2 -11 4q-8 2 -13 2q-5 1 -12 -2l-12 -4q-7 -2 -18 0q-11 3 -15 7q-5 3 -9 11q-2 6 -2 24q1 18 6 28q6 10 8 12q5 3 10 2q4 -1 20 -1q14 0 20 -3q8 -2 10 -2q6 3 11 5q8 4 13 9q6 5 8 16q1 11 -2 17q-4 9 -5 23q-2 17 1 22q6 9 10 12q6 6 16 10q4 2 13 5l4 2
q3 2 5 3q3 2 17 8q12 4 14 6q4 2 10 2q4 0 12 2z" />
    <glyph glyph-name="uni0075" unicode="u" horiz-adv-x="581" 
d="M150 509q6 2 9 2q1 0 5 -1.5t7 -2.5q10 -5 12 -7q5 -3 8 -8q3 -6 3 -9q0 -6 -3 -11q-2 -6 -2 -10t2 -10q3 -12 3 -16q2 -12 2 -15q2 -5 0 -14q0 -2 -1 -8.5t-1 -9.5l-4 -24q-2 -13 1 -20q3 -12 3 -13q0 -4 -3 -10t-3 -20q0 -18 1 -20q1 -3 3 -15q0 -12 -1 -16
q-2 -7 0 -12q3 -5 3 -11q0 -4 -4 -14q-3 -10 0 -27q2 -19 0 -24q-1 -5 1 -12q1 -1 2.5 -4.5t1.5 -5.5q0 -1 2.5 -5t3.5 -6q3 -2 10 -15q3 -8 7 -12q1 -3 6 -8q2 -4 8 -6q3 -1 30 -1q13 1 18 1q8 0 14 -3q7 -3 13 -1q6 0 14 4q7 3 23 19q18 20 18 21q4 4 4 6q0 1 2 7
q1 2 5 16t4 23q-1 7 -1 22q0 14 1 20q0 11 -2 16q-2 6 -2 9q0 4 2 6q0 1 2 11q0 3 0.5 13t0.5 15q1 17 -2 27t-1 20t2 20q0 9 -2 17q-2 6 -1 28q0 5 0.5 11t0.5 9.5v4.5v4t-0.5 10t-0.5 12q-1 23 1 30q5 10 6 11q1 0 4.5 3t5.5 4q6 3 19 3q7 0 35 -1q46 0 52 -3q4 -3 9 -11
q5 -9 5 -24q0 -14 -3 -23q-3 -7 -3 -19q0 -11 2 -19q2 -9 1 -12q0 -17 -1 -31q0 -8 -0.5 -25.5t-0.5 -23.5q0 -18 2 -28q2 -4 2 -22q0 -15 -2 -25q-3 -7 -3 -22q0 -8 1 -30q1 -44 3 -47t2 -27q0 -23 3 -30q1 -2 3 -16q0 -9 -3 -21q-3 -9 -3 -21q0 -9 -5 -14t-19 -5
q-3 0 -20.5 0.5t-28.5 0.5q-33 1 -37 5q-4 3 -7 13q-1 3 -2 11.5t-1 10.5q-1 8 -4 14q-3 3 -7 5t-10 2q-5 0 -14 -10q-3 -3 -8.5 -9.5t-7.5 -8.5q-6 -8 -10 -12q-1 -1 -4 -3.5t-4 -3.5q-3 -3 -11 -7q-3 -3 -14 -6q-7 -1 -12 -4q-3 -3 -14 -3t-16 -3q-6 -1 -14 -1h-11
q-18 0 -24 2q-2 1 -10 1q-2 0 -7 1.5t-8 1.5q-2 1 -7 3t-7 3q-3 1 -17 8q-12 5 -20 11q-6 3 -13 10q-6 8 -11 13l-8 7q-2 0 -8 6q-6 7 -8 11q-3 8 -4 17q0 12 -3 15q-2 3 -6 11q-3 5 -3 22q0 18 -2 21q-2 4 -2 21q-2 22 -3 25q-2 6 -2 12q0 5 1 14q2 14 4 26q2 9 0 15t-1 19
q1 7 1 14.5t-1 18.5q-2 22 -2 29v41q1 18 1 41v12q0 3 -2 19q-1 9 -1 12.5t1 6.5q6 9 7 10q5 4 9 6q5 3 37 3q34 0 39 2z" />
    <glyph glyph-name="uni0076" unicode="v" horiz-adv-x="495" 
d="M37 504q2 1 12 1q4 1 16 -2q8 -3 15 -3q9 0 15 3q12 3 13 3t10 -3q2 -1 9 -8l9 -12q3 -9 3 -13q4 -18 4 -21q1 -2 3 -10.5t3 -11.5q4 -9 9 -18q8 -12 11 -23q2 -6 6 -21q0 -6 3 -12q0 -1 2 -7l3 -9q1 -2 3 -9.5t3 -10.5q2 -9 5 -17q1 -2 4 -14q0 -5 2 -11q4 -8 6 -13
q3 -9 3 -15t5 -18q3 -12 6 -17q2 -4 2 -8q0 -3 2 -9q3 -9 3 -13q1 -6 8 -16l9 -9q0 -1 4 -1q5 0 9 3q5 3 6 8q2 6 2 8q0 3 9 30q9 22 14 40q5 12 5 18q0 8 3 14q2 6 8 17q5 8 4 14q0 2 -0.5 5t-0.5 4t2 8t4 11q6 18 16 38q11 22 13 40q2 15 4 25l4 12q3 9 3 11q0 1 1 3
q3 8 4 12q2 8 8 14q4 4 10 8q6 2 14 2t16 2q6 2 18 2q3 0 9 -0.5t7 -1.5q1 0 6 -0.5t8 -0.5q9 0 15 -3q5 -4 8 -12q2 -6 2 -8q0 -3 -1 -6q-2 -8 -3 -11q0 -3 -6 -15t-11 -30q-6 -15 -6 -19q0 -3 -5 -11q-4 -11 -7 -16q-2 -6 -2 -13q0 -9 -3 -15q-2 -10 -2 -12q0 -5 -5 -13
q-4 -10 -7 -16t-7 -18q-4 -10 -8 -16q-5 -7 -9 -18q-5 -12 -5 -23q-1 -13 -6 -22q-1 -3 -3.5 -9t-2.5 -7q0 -2 -6 -13q-5 -6 -6 -16q0 -6 -5 -21q-6 -14 -6 -19q-2 -7 -9 -22q-9 -17 -10 -29q0 -4 -1 -10.5t-1 -7.5q0 -2 -4 -9q-2 -5 -4 -11q-4 -10 -5 -11q-2 -5 -9 -8
q-7 -5 -9 -5q-3 0 -9 -2q-5 -2 -46 -2q-46 0 -54 -1q-7 -1 -11 -1q-5 0 -9 2q-6 3 -9 8q-3 3 -5 11q-3 6 -3 13q-1 2 -2 5.5t-1 5.5q-4 8 -7 20q-5 17 -6 17q-1 1 -3 9t-3 9q-1 0 -3 6q0 1 -2.5 6l-3.5 7l-7 14q-3 6 -3 19q-2 14 -3 16q-3 5 -5 12q-1 2 -4 10t-4 11
q-6 15 -9 20q-4 7 -5 14q-2 10 -4 12l-2 6q-4 12 -6 16q-3 6 -7 22q-1 12 -5 19q-1 2 -3.5 6t-2.5 5q-1 1 -3.5 7t-3.5 8q-4 14 -4 17l-3 9q-1 3 -5 13l-4 16q-2 8 -7 18q-6 10 -7 22q-2 11 -5 18q-3 6 -5 14l-2 4t-1 3q-2 2 -2 11q0 8 4 13q4 4 13 5q9 2 14 4z" />
    <glyph glyph-name="uni0077" unicode="w" horiz-adv-x="827" 
d="M19 503q4 2 30 2q25 1 30 -2q4 -2 11 -2t13 2q7 2 13 0q4 -1 9 -6l6 -9q1 -2 3 -7t3 -7q3 -12 3 -15q1 -8 5 -17q5 -10 4 -15q0 -10 4 -20q4 -16 4 -19q0 -6 3 -11q3 -9 3 -15q2 -10 6 -15q5 -10 5 -11q0 -2 2 -24q1 -12 4 -29q1 -2 2.5 -9t2.5 -9q2 -8 2 -13q0 -6 3 -13
q2 -8 2 -14q0 -2 1 -7.5t2 -7.5q3 -12 3 -16q2 -8 5 -15q3 -6 3 -16t3 -19q6 -12 11 -17q7 -8 11 -8t7 3q1 1 6 10q4 7 5 21q0 14 2 18q0 3 4 11q4 6 4 9q0 5 3 14q4 12 4 16q0 6 3 12q3 7 5 17q2 9 9 29q7 21 7 27q0 9 2 12q0 1 5 17q4 14 7 23q3 6 7 26q2 15 4 22
q4 7 5 14q3 9 3 16q0 2 3 11q0 2 2 6.5t2 6.5q0 6 4 18q2 9 8 17q8 5 10 5q9 3 10 4q5 2 14 0q10 -2 20 -2q14 0 16 1q2 0 22 -2q16 -1 25 0q5 1 13 1q6 -3 7 -4q4 -4 5 -7q3 -6 3 -10q3 -10 3 -11l3 -9q2 -6 4 -7l5 -5q2 -4 0 -12t4 -26q6 -15 9 -21q2 -2 2 -15
q1 -12 6 -20q5 -12 6 -21q4 -14 4 -25q1 -12 6 -21q3 -5 8 -20q4 -12 4 -20q2 -11 5 -15q3 -9 3 -12q0 -9 3 -20q3 -9 6 -16q2 -2 4 -10q1 -2 3 -8l3 -9l3 -12q0 -4 2 -8q2 -7 5 -8q2 -2 8 -5q4 -1 9 1t9 10q4 7 5 20q0 11 2 15q3 3 3 15q2 16 4 20q0 2 1.5 6.5t1.5 6.5
q0 4 2 8q1 2 3 14q0 9 2 15q3 3 3 13q2 9 5 13l3 6l2 3q1 3 3 20v12l1 7q0 5 5 8q4 6 7 19q4 16 4 29l2 19q0 2 4 8q4 4 6 13q3 6 3 21q0 12 2 18q3 8 10 17q8 12 12 14q4 4 11 4q9 0 16 3q10 3 23 1q12 -3 19 -3q4 0 12 2q5 3 10 3q4 0 9 -5q6 -6 6 -10q1 -3 -1 -12
q-1 -2 -3 -9t-3 -10q-5 -12 -7 -14l-1 -4q-1 -3 -2 -5q-1 -4 -4 -13q-3 -4 -3 -13t-5 -19q-6 -12 -6 -17q0 -6 -2 -10q-1 -1 -5 -13l-5 -15q0 -6 -2 -8q-1 -1 -5 -13l-10 -20q-6 -10 -7 -21q0 -7 -3 -19q-1 -3 -4 -9l-7 -14q-5 -9 -6 -26q-1 -16 -7 -26q-7 -15 -10 -24
q0 -4 -4 -21q0 -7 -3 -13q-1 -2 -7 -10q-4 -6 -7 -11q0 -3 -4 -13q-4 -7 -3 -20q1 -12 -4 -21q-1 -2 -3.5 -9t-3.5 -10q-5 -11 -7 -15q-3 -7 -8 -10q-3 -2 -18 -3h-24h-19q-11 0 -17 -2t-10 -2q-2 0 -4 1h-3q-6 3 -11 3q-10 3 -19 7q-12 7 -14 10q0 1 -5 17q-2 13 -6 21
q-4 10 -4 13q0 4 -2 8q-1 2 -3 16q0 8 -3 20q0 2 -2 7.5t-3 8.5q-3 7 -5 16q0 1 -2 7.5t-3 9.5q-5 13 -7 22q-3 8 -5 19l-4 16q0 6 -4 16q-2 10 -4 16l-3 8q-2 3 -4 10q-4 7 -4 19q0 10 -2 20q0 2 -2 8.5t-2 8.5q-2 9 -4 11q0 2 -4 10q-3 12 -3 13q-1 3 -4 9q-1 0 -3.5 2
t-4.5 3q-3 1 -8 1q-5 -3 -6 -4q-4 -4 -7 -10q-1 -2 -2.5 -7t-1.5 -7q-2 -9 -3 -10q-2 -4 -5 -13q-4 -7 -5 -26q0 -16 -4 -25q-5 -13 -5 -16q-2 -11 -5 -18l-5 -12q-2 -5 -4 -13q-1 -3 -2.5 -11t-1.5 -11q-2 -12 -7 -22q-5 -9 -7 -21q-2 -11 -4 -13l-1 -7q-1 -6 -1 -11
q0 -14 -5 -20q-6 -9 -8 -13q-4 -9 -5 -22q0 -10 -3 -22q-1 -2 -3 -8l-3 -9l-3 -6t-2 -5q-5 -5 -8 -6q-6 -3 -28 -4q-25 0 -29 1q-5 1 -20 0q-8 -1 -30 -1q-17 1 -22 7q-6 4 -8 10q-3 6 -3 8q0 1 -8 27q-10 28 -11 33q-2 10 -7 20q-4 10 -6 21q0 4 -5 17q-5 10 -8 22l-6 16
q-1 0 -1 7q0 6 -5 19q-3 12 -6 17l-5 12q-4 12 -4 17q0 9 -5 19t-5 13q0 2 -4 16q-1 4 -4 9l-2 6q-2 2 -2 7q-4 12 -6 20q-6 16 -6 19q-3 9 -5 14q-3 4 -6 15q-2 9 -5 10q-1 1 -2.5 3.5t-1.5 3.5q-3 4 -3 17q-2 16 -4 19q-4 8 -4 13q-3 14 -4 15q-3 7 -2 12q0 3 5 10
q3 3 9 7z" />
    <glyph glyph-name="uni0078" unicode="x" horiz-adv-x="480" 
d="M30 500h3.5h3.5h4q5 0 7 -2t12 -2q8 -1 16 1q6 3 30 3q21 0 32 -3q10 -4 12 -6q2 -1 7 -6q1 -1 7 -10q1 -5 9 -13q6 -5 9 -15q0 -2 1.5 -6l1.5 -4q1 -1 3 -7q0 -1 3 -7.5t4 -9.5q7 -12 11 -17q2 -2 4.5 -7t3.5 -6q3 -9 3 -11q0 -6 7 -13q6 -8 6 -11q6 -6 8 -7q8 -5 14 -4
t12 6q6 6 6 10q4 9 6 11q3 3 6 9q1 1 3 10q2 8 5 11l5 10q3 6 10 13q6 6 9 14q2 4 5 13q0 1 3 10q6 9 10 13l11 15q3 8 9 11q7 3 16 5q10 3 16 3q3 0 10 -1q3 0 17 -0.5t21 -0.5q24 0 27 -3q1 -2 4 -9q0 -8 -2 -13l-3.5 -7t-3.5 -6q-5 -5 -9 -15t-9 -13l-6 -9q-2 -4 -8 -12
q-4 -5 -11 -17q-6 -12 -10 -16q-5 -5 -9 -13q-4 -7 -11 -16l-11 -18q-5 -10 -10 -13q-4 -3 -9 -13q-2 -7 -10 -17q-6 -8 -6 -13l-1.5 -6.5t-2.5 -10.5q-2 -11 1 -17t9 -14q2 -2 4.5 -7t3.5 -6q6 -9 9 -13q8 -8 13 -20q6 -12 10 -16q3 -2 8 -12q6 -12 8 -17q3 -11 7 -14
q1 -4 6 -11q1 -2 10 -14q2 -2 5 -6t4 -5q2 -6 7 -11q1 -2 4 -6t3 -5q1 -1 2.5 -3.5t4.5 -6.5t5 -7q2 -5 6.5 -12.5t5.5 -8.5q4 -10 3 -14q0 -6 -3 -9q-2 -4 -6 -6q-1 0 -5.5 -0.5t-6.5 -0.5q-7 0 -17 2q-10 3 -48 3q-28 1 -34 2.5t-14 9.5q-9 7 -16 17q-3 4 -9 13l-8 16
q-4 10 -6 12q-1 0 -2 2.5t-2 4.5q-3 9 -3 13q-2 10 -3 11t-2.5 3.5t-1.5 3.5q-1 1 -3 4.5t-4 5.5q-4 6 -6 12q-5 10 -7 13q-1 2 -5 11q0 1 -2 5l-3 6q-1 5 -7 11q-3 3 -12 6h-13q-7 -1 -9 -5q-3 -3 -5 -13q-3 -11 -4 -13q-3 -6 -5 -8q0 -1 -8 -11q-6 -8 -9 -14t-5 -16
q-1 -7 -8 -17q-8 -8 -11 -16q-1 -2 -4 -9.5t-3 -8.5q-2 -10 -5 -13q-1 -2 -7 -12q-4 -10 -6 -12q-1 -2 -5 -6l-6 -6q-3 -2 -9 -2q-5 0 -25 1q-17 1 -27 1t-19 -1q-17 -2 -22 1q-3 1 -9 7q-2 4 -2 9q0 6 3 10q1 4 8 15q5 10 8 13l3 4q0 2 2 4t4 10q4 8 12 15q9 7 11 11
q3 3 7 13q5 12 10 20q7 14 7 15q2 5 9 13l15 22q8 14 12 18q6 9 8 13q5 10 7 12q0 1 2 5.5t3 7.5q4 8 5 8q3 3 3 7q2 9 1 19q-2 14 -3 15q0 1 -9 12q-10 10 -14 20q-6 12 -9 15q-5 5 -6 9q-1 1 -3.5 4.5t-4.5 5.5q-4 8 -7 11q-1 3 -12 14q-10 11 -13 19q-4 11 -6 11
q-3 3 -4 8q-2 6 -8 14t-8 9q-1 0 -7 6q-4 4 -4 6q0 1 -6 11t-6 13v8q0 2 4 8q4 4 8 6z" />
    <glyph glyph-name="uni0079" unicode="y" horiz-adv-x="494" 
d="M395 516q1 1 6.5 1t12.5 -1q4 0 17 -0.5t20 -0.5q22 0 25 -2q4 -2 6 -6q3 -5 3 -13q0 -10 -6 -23q-7 -12 -7 -18l-3 -12q-3 -7 -4 -9q-2 -2 -6 -10q-2 -2 -4 -6l-2 -3l-5 -12l-4 -16q-2 -6 -2 -14q0 -9 -6 -21l-9 -18l-3 -6t-2 -5q-3 -3 -3 -12q-2 -11 -6 -20
q-6 -12 -11 -17q-6 -6 -7 -17q0 -11 -4 -21q-2 -8 -4 -13q-3 -4 -3 -10q0 -2 -1.5 -7t-2.5 -7l-4 -10q-2 -2 -4 -9q0 -2 -2.5 -9t-3.5 -10l-10 -20q-4 -6 -7 -14l-4 -12q-1 -2 -2 -7t-1 -7q0 -8 -2 -12t-6 -14q-4 -8 -8 -20q-2 -10 -7 -17q-3 -6 -5 -12q0 -2 -3 -8
q-3 -5 -4 -11l-4 -16q-2 -10 -2 -14t-6 -16l-6 -18q0 -2 -3 -14q-1 -2 -3 -6.5t-2 -5.5q-2 -2 -4 -17q-2 -12 -5 -22q-4 -11 -6 -19t-6 -17q-2 -6 -10 -7t-52 -1q-59 0 -59 3v6q0 2 2 8q3 6 3 10q0 1 1 5t2 5t3 11q2 12 3 14q2 6 2 9t2 7q3 7 7 18q4 16 4 17q0 3 3 11
q2 8 4 10q3 3 5 13q4 10 4 18q2 7 0 18q0 8 -2 16q-2 10 -7 22q-3 12 -6 18l-2 6q0 2 -3 5q-2 2 -7 12q-3 5 -8 20q-3 7 -5 20q0 8 -8 22q-8 15 -11 27q-3 9 -7 25q-2 4 -4 9.5t-2 6.5t-4 7q-3 3 -5 12t-7 23q-6 16 -6 19l-6 12q-3 4 -6 13q0 4 -6 14q-5 10 -6 18q0 5 -5 20
q-5 12 -5 16q-2 7 -4 8q-1 1 -2.5 3t-1.5 3l-5 15q-3 9 -3 16q-1 3 -1 7q0 1 -4 7q-2 4 -6 8q-3 5 -3 9q0 1 -1.5 6t-1.5 7l-7 18q-4 10 -4 13q0 5 4 9q5 5 7 6q5 3 30 3q23 0 31 -2q6 -2 20 -2q4 0 12 0.5t10 0.5q7 1 11 -2q5 -2 7 -6q0 -1 2 -5.5t3 -6.5q2 -10 3 -10
q2 -2 2 -7q0 -1 1 -5t2 -5q1 -2 3 -15q0 -6 3 -15l6 -12q3 -7 5 -16q0 -8 4 -18q2 -5 7 -20q4 -8 4 -20q0 -11 1 -13q3 -6 7 -10q5 -7 5 -11q0 -3 2 -7q2 -6 2 -17q1 -13 7 -24q3 -7 6 -19q0 -1 2 -7.5t3 -9.5l5 -15q2 -2 2 -9q0 -4 4 -12q1 -4 6 -17q4 -7 7 -9q1 -1 6 -1
q3 0 7 2q6 6 10 12q7 10 8 20q3 15 5 23q4 14 9 25q5 9 5 21q2 13 3 14l6 9q3 4 5 13q0 3 1 9.5t2 8.5q2 11 5 15q2 3 5 9q2 4 2 8q0 6 5 14q5 15 5 18q2 8 4 12l5 15q1 4 4 24q1 15 5 24q3 8 8 13q4 4 4 10q3 9 4 11q5 7 6 8l9 6q2 1 6 2z" />
    <glyph glyph-name="uni007A" unicode="z" horiz-adv-x="477" 
d="M82 500h47q7 -1 18 -1t19 1h47q38 0 47 -1q14 0 30 -2t19 -2q2 0 18 2q8 1 33 1h28q11 0 15 1t10 -1q3 -1 10 -8q6 -6 7 -20q0 -14 2 -18t2 -12q0 -7 -2 -15q-3 -7 -3 -21q0 -13 -2 -16q-1 -1 -4.5 -6t-5.5 -8q-4 -8 -19 -23q-11 -11 -15 -17q-1 -3 -12 -16
q-11 -11 -11 -13q-1 -3 -3 -6q-1 0 -6.5 -6t-8.5 -10q-15 -15 -20 -18q-2 -2 -6 -5.5t-5 -4.5q-1 -3 -23 -25q-19 -19 -22 -25q-6 -8 -13 -17l-12 -17q-2 -4 -6 -8q-3 -2 -14 -13q-10 -6 -14 -13q-4 -2 -10 -11q-5 -6 -7 -11q-2 -4 -2 -11t2 -11q0 -1 1.5 -2.5t2.5 -1.5
q2 -1 20 -1q16 0 28 3q13 3 19 1t13 -2q6 0 16 2q8 2 14 0q9 -3 48 -3t55 2l15 2q0 1 4 -1l9 -9q5 -5 7 -14v-28q-2 -21 -3 -27q-4 -6 -7 -8q-3 -3 -78 -3h-81q-12 0 -19 -2q-6 -1 -17 -1q-6 0 -14 2q-9 3 -16 3h-16q-8 -2 -30 -2q-24 0 -31 -3q-6 -1 -8.5 -1t-8.5 1
q-7 3 -17 3q-5 0 -19 -1h-15q-11 0 -16 2q-6 3 -10 13q-6 12 -5 18q0 15 1 24q2 17 3 19q2 6 1 10q0 5 -2 9q-1 4 0 12q2 9 7 14q9 12 12 18q6 12 10 14q5 5 9 6q5 2 11 10q7 7 7 9q1 3 3 5q0 1 10 8q2 1 6 4t5 4q4 4 6 10q1 1 3 5t3 5q5 7 14 18q2 3 6.5 9t5.5 7l4 4
q3 4 6 7q8 10 35 37q28 28 29 30q0 4 9 9l8 8q0 2 9 13q2 2 7 9t6 9q6 8 9 14q4 8 3 12q0 3 -5 8q-4 5 -25 5q-22 0 -30 -3q-7 -3 -15 -3q-5 0 -19 1q-6 0 -20 0.5t-17 1.5q-9 0 -37 2q-14 1 -22.5 1t-15.5 -1q-13 -1 -16 0q-4 1 -8 11l-5 15q0 2 -2 14q-1 5 -1 15q0 5 4 13
q4 7 7 9q4 3 32 4zM115 950q22 1 59 1q56 0 56 -2l-2 -2q-3 -5 -10 -7q-5 -2 -18 -2h-16q-33 0 -39 -1q-9 -2 -15 0q-4 0 -10 6q-5 5 -5 7z" />
    <glyph glyph-name="uni007B" unicode="{" horiz-adv-x="302" 
d="M271 738q8 3 11 3h2q3 0 11 -2t10 -2q4 -4 6 -8q4 -7 3 -24q-1 -18 -5 -21q-3 -3 -11 -5q-12 -3 -17 -5q-7 -1 -17 -6q-4 -1 -10 -4l-3.5 -2t-5.5 -4q-8 -4 -9 -5q-3 -3 -6 -10q-4 -9 -6 -18q0 -8 -4 -14q-2 -3 -7 -13q-5 -8 -5 -19q-1 -7 -1 -19q3 -10 1 -22
q0 -14 -2 -26q-1 -7 -1 -18q-1 -4 1 -12q2 -9 1 -16q0 -6 -3 -15q-4 -8 -4 -13q0 -8 -3 -14t-5 -14q-1 -5 -10 -18q-9 -12 -15 -16q-2 -1 -14 -10q-2 -1 -5 -3l-3 -2l-10 -6q-6 -5 -20 -9q-9 -3 -21 -5q-9 0 -13 -4t-4 -9q0 -4 2 -8q0 -3 6 -7q5 -3 10 -5q4 -2 17 0
q11 1 20 -5l9 -6q1 0 6 -5q3 -5 13 -9q8 -4 14 -10q6 -8 7 -10q1 -1 2 -5t1 -5q2 -6 6 -12l4 -8q2 -2 4 -8q1 -2 3 -6.5t2 -6.5q3 -5 4 -57q0 -48 3 -56q2 -10 2 -31q1 -25 6 -33q8 -14 10 -18q5 -10 5 -11t4 -5t12 -7q7 -2 15 -8q6 -4 11 -7q2 -1 12 -1q9 0 13 -3
q5 -3 8 -8q0 -1 1.5 -4t1.5 -4q1 -1 2 -6.5t2 -8.5q2 -9 2 -11.5t-2 -5.5q-4 -6 -10 -9q-8 -6 -10 -7t-9 -1q-1 0 -6 1.5t-8 2.5q-5 1 -14 4q-3 2 -16 4q-4 0 -19 3q-8 2 -10 4l-4 2t-7 3q-9 3 -15 9q-5 7 -12 8q-9 2 -10 3t-15 12q-12 12 -14 15q-2 4 -8 10q-6 8 -7 10
q0 1 -0.5 5t-0.5 6q0 6 -5 18q-4 11 -6 19q-1 2 -2.5 8t-2.5 8q-2 3 -2 17q0 9 1 37q0 50 -2 56q-2 8 -2 17v15q0 5 -7 20q-8 16 -8 17q0 2 -4 6t-12 9q-10 7 -10 8q-4 2 -6 6q-5 5 -8 5q-1 0 -4.5 2t-5.5 2q-4 3 -13 3t-15 3q-6 4 -9 7q-4 6 -4 8q-1 1 -1.5 7t-0.5 8
q0 8 -3 17q-2 3 -2 5q0 1 1 4q3 5 9 10q5 5 11 7q2 0 12 5q8 6 15 6q9 2 14 6q4 3 16 9q7 3 14 10q6 8 10 20l5 15q1 1 3 9t6 14l3 6t2 5q0 7 -1 11q-3 9 -3 27q-1 22 1 27t2 12q-2 6 -2 17q-1 9 2 17q1 4 3 21q0 15 2 17l1 3q1 4 2 6q2 8 3 8l1 4q2 4 2 6q4 9 7 14q4 6 4 8
q7 8 15 16q15 15 16 15t9 6q7 7 9 7l10 4q4 2 13 8q6 4 15 6q3 1 10.5 2t10.5 1q9 0 18 3q4 0 14 6z" />
    <glyph glyph-name="uni007C" unicode="|" horiz-adv-x="239" 
d="M84 810l3 1l2.5 -0.5t4.5 -1.5q5 -2 23 -2q20 0 26 -1q10 0 16 -4q3 -1 8 -6q4 -4 4 -8q2 -4 4 -14q1 -10 0 -14q-3 -4 -3 -80q0 -19 -0.5 -38.5t-0.5 -32v-13.5t0.5 -13t0.5 -21q1 -20 1 -32v-9q0 -13 2 -25q1 -10 -2 -22q-4 -10 -3 -17q2 -6 2 -28q0 -26 2 -32
q2 -8 1 -15q-1 -2 -3 -27q0 -24 1 -28q1 -7 0 -29q-1 -13 -1 -61l-2 -41v-9q1 -3 3 -67v-70v-19v-22v-26q0 -9 2 -27q2 -10 2 -15q0 -3 -1 -7q-2 -10 -2 -21t-4 -19q-4 -6 -8 -8q-2 -1 -18 -5q-10 -1 -13 -1t-7 1q-6 2 -23 4q-16 1 -21 5q-6 4 -8 10q-3 5 -3 24q0 20 2 23
q1 1 2 4t1 4q0 2 -2 16q-4 11 -4 30t-3 23q-2 6 -2 11t4 19q3 14 3 18q-2 4 -2 75t3 80t2 14q-2 6 -3 7q-2 5 -1 26q0 22 -2 40q-1 18 0 27q1 5 3 51v32l1 19q0 7 -2 21q0 12 -4 16q-2 6 -2 11q0 8 3 14q3 7 3 39q0 33 2 36q1 4 -1 11q-2 8 -2 29v18l-1 10q-2 7 1 11
q1 3 1 36q0 30 -2 40q-1 8 0 14q2 8 -1 16q-3 9 -3 19q0 9 9 17q6 6 12 9z" />
    <glyph glyph-name="uni007D" unicode="}" horiz-adv-x="298" 
d="M2 736q8 4 23 4q17 0 27 -5t15 -5q1 0 6.5 -1.5t8.5 -1.5q16 -5 17 -5q9 -4 11 -5q6 -3 16 -7q15 -9 16 -10q5 -5 11 -13q5 -7 12 -12q8 -5 13 -15q6 -12 9 -21t5 -25q1 -9 4 -20q3 -8 4 -73q0 -63 3 -71q3 -9 3 -11q2 -9 5 -16l5 -7q4 -6 6 -8l7 -6q1 0 7 -4
q2 -2 5.5 -6t4.5 -5q4 -5 13 -12q9 -4 20 -5q5 0 17 -3q6 -4 10 -8q3 -3 6 -9v-24q-1 -19 -6 -25q-7 -7 -10 -8q-4 -2 -10 -4q-7 -2 -8 -3q0 -1 -8 -3l-12 -4q-4 -3 -8 -3q-1 0 -7 -6q-4 -4 -20 -22q-15 -14 -17 -21t-1 -9q0 -2 -2 -14q-3 -8 -3 -44q0 -32 -2 -38
q-3 -4 -3 -7q0 -2 2 -6q3 -3 3 -19q1 -16 -2 -22t-3 -20q0 -13 -5 -22q-7 -9 -8 -16l-7 -14q-3 -6 -9 -14l-6 -8v-1q-1 -1 -1 -2l-2 -3l-3 -3q-4 -5 -13 -11q-8 -6 -18 -6q-9 0 -21 -6l-14 -6q-2 0 -9 -5t-18 -8q-7 -3 -22 -5q-4 0 -12 -0.5t-10 -0.5q-10 0 -16 3q-5 4 -7 7
q-3 6 -3 22q0 18 3 22q3 5 6 7q1 0 5 0.5t7 0.5q5 0 17 3q7 1 14 6q1 1 10 7q3 1 13 11q9 11 13 18l5 12q0 2 2 10q3 9 3 17q2 13 4 17q2 6 3 45q1 22 1 29q0 13 -3 19q-3 8 -1 11q0 1 1 5.5t1 7.5q1 7 6 19q3 7 6 17q2 9 5 13l5 10q0 2 4 8q6 9 15 18l10 10l6 5q1 1 4 2
t4 1q6 0 12 6q8 5 19 5q12 1 19 4q6 3 10 7q2 2 6 8q1 5 0 8q-3 3 -13 6q-12 4 -16 4q-9 3 -14 5q-9 5 -15 6q-11 4 -18 10l-17 13q-7 5 -12 14l-9 12q-3 6 -3 14t-3 13q-1 4 -6 11q-4 7 -4 41t-3 40q-2 8 -3 45q0 34 -4 50q-1 2 -4 8.5t-4 8.5q-2 5 -10 9q-8 6 -12 13
q-5 7 -16 13q-10 6 -18 6t-17 4q-10 6 -12 7q-3 3 -5 7q-1 2 -1 14t1 14t4 5z" />
    <glyph glyph-name="uni007E" unicode="~" horiz-adv-x="517" 
d="M126 379q4 3 9 3t12 -3q12 -3 17 -3q9 0 20 -4q7 -3 20 -6l11 -3l10 -5q8 -2 18 -6q12 -2 20 -7q9 -4 19 -4l9 -1q1 -1 8 -3q8 -2 12 -4q1 -1 4 -2.5t4 -2.5q2 -2 9 -4q8 -3 18 -1q10 1 16 -2t17 -3q10 0 20 5q9 4 9 5q2 0 6 4q9 6 10 7q4 4 8 10q1 1 2.5 4t2.5 4l2.5 3
t4.5 5q8 6 11 9q9 3 13 5q6 3 10 3l9 -3q8 -5 9 -8q3 -3 5 -9q1 -3 1 -11q1 -2 -2 -14q-4 -10 -4 -16q-2 -9 -4 -11q-2 -4 -7 -9q-2 -2 -4.5 -5.5t-3.5 -4.5q-1 -5 -6 -9q-4 -4 -4 -10q-2 -5 -5 -10q-4 -6 -11 -13l-18 -11q-3 -1 -10.5 -4.5t-8.5 -3.5q-9 -5 -15 -6
q-9 -3 -40 -3h-14q-18 0 -19 1q-1 0 -17 6q-14 4 -18 4q-6 0 -12 3q-7 1 -26 11q-16 8 -25 8q-1 0 -16 3q-5 2 -13 6q-3 2 -13 4q-6 0 -16 4q-10 2 -14 2q-7 0 -13 -3q-9 -2 -18 1q-6 2 -16 2q-6 -2 -11 -4q-5 -4 -9 -9q-4 -6 -6 -8q-3 -6 -3 -9q-1 -6 -8 -13q-8 -8 -16 -11
q-7 -4 -9 -4q-3 0 -13 5q-14 8 -15 9q-3 2 -3 17v10l1 5q1 1 5 11q1 8 6 15q3 5 5 12q0 7 5 12q2 3 7 13q6 8 13 15q12 10 19 17q8 8 17 8q7 0 13 2l9 6q3 5 10 7z" />
    <glyph glyph-name="uni00A0" unicode="&#xa0;" horiz-adv-x="278" 
 />
    <glyph glyph-name="uni00A1" unicode="&#xa1;" horiz-adv-x="307" 
d="M132 476q5 4 8.5 5t19.5 1q21 -1 29 -4q8 -2 10 -6q3 -6 3 -16v-8q0 -11 -1 -29q-1 -13 -1 -17q0 -8 4 -17q3 -9 2 -14q-2 -5 -4 -11q-1 -7 2 -17t3 -32v-27v-63q1 -55 4 -62q3 -6 3 -24v-25q-2 -46 -3 -48q0 -6 1 -11q2 -8 2 -20q0 -14 -2 -18q-1 -3 -4 -6q-1 -1 -12 -1
q-10 0 -12 -2h-3q-1 0 -15 1q-18 2 -27 2q-12 0 -18 6q-7 7 -8 9q-2 5 -4 16q-1 5 -1 13t1 15q0 9 3 21q2 3 4 17v57q-1 36 -4 62q-2 19 0 26q2 8 2 15t2 19q3 11 1 15v26q0 22 2 28t2 25q-1 11 -1 29q0 2 0.5 14t0.5 19q0 24 2 28t9 9zM142 670q12 1 41 1q19 -2 23 -3
q5 -2 7 -6q1 -2 1 -13t-1 -33q-1 -32 -1.5 -38t-4.5 -10q-7 -7 -10 -8q-5 -2 -15 -1q-6 2 -33 2q-17 0 -20.5 0.5t-7.5 5.5q-3 2 -8 12q-4 6 -4 43q1 36 3 40l6 6q4 2 24 2z" />
    <glyph glyph-name="uni00A2" unicode="&#xa2;" horiz-adv-x="495" 
d="M348 590q3 1 5 1h1q2 0 10 -2q7 0 11 -4q3 -1 7 -5q2 -2 2 -11q0 -7 -2 -13q-4 -6 -6 -17q-1 -3 -3.5 -9t-2.5 -7q-2 -3 -4 -13q0 -3 -3 -12q-3 -6 -3 -23t5 -24t10 -10t15 -5q7 0 13 -3q6 -6 9 -11q9 -12 16 -21q9 -11 11 -15q2 -2 6 -12q3 -8 4 -28t-3 -26l-8 -8
q-4 -2 -9 -2q-3 0 -9 2q-1 0 -10 1t-16 2q-12 1 -34 1q-13 0 -17 2t-6 6q0 1 -0.5 5t-0.5 6q0 6 -7 20q-3 7 -12 22q-5 7 -10 13q-4 4 -10 7q-5 3 -12 3q-6 0 -22 2q-15 2 -20 0q-1 0 -13 -10q-6 -8 -9 -8q-1 0 -9 -8q-9 -7 -10 -14q-3 -9 -5 -14q-5 -10 -6 -14
q-2 -6 -2 -11t-3 -13q-3 -6 -3 -16q0 -7 2 -17q2 -8 1 -15q-2 -6 -2 -24q1 -17 -2 -29q-2 -12 -2 -19q0 -9 3 -18q5 -11 6 -12q2 -4 2 -7q0 -4 2 -10q0 -5 4 -13q3 -6 5 -16q1 -10 8 -17q6 -6 14 -10q6 -2 12 -8q7 -5 12 -7q6 -2 16 -2t16 2q8 4 12 7q2 2 7.5 7t7.5 7
q6 7 13 12q6 5 6 9l3 6l1 4l2 6q2 11 5 14q2 3 9 10q6 5 15 4q12 0 16 1q1 0 20 3q14 2 25 2t19 -4q7 -4 9 -7q3 -6 4 -9q0 -9 -1 -13q-2 -7 -7 -16q-4 -8 -4 -13q0 -3 -5 -10q-3 -5 -7 -14q-4 -10 -12 -17l-6 -6l-3 -4q0 -3 -9 -8q-8 -4 -13 -9q-12 -9 -23 -14
q-20 -11 -22 -13q-5 -4 -21 -5q-15 0 -20 -3q-7 -3 -26 -3q-21 0 -28 -5q-9 -6 -11 -10q-4 -4 -4 -12q0 -7 -3 -12q-4 -4 -4 -11q-2 -8 -5 -17q-4 -10 -5 -11q-1 -6 -1 -12q0 -3 -0.5 -9.5t-0.5 -7.5q-1 -6 -10 -15q-10 -10 -13 -10h-2q-4 0 -8 1t-9 6q-3 5 -3 16t3 17
q1 2 2 5t1 5q0 3 3 12q2 8 2 13t2 13q0 1 1 5l2 8t2 7q5 18 5 19q1 4 -1 10q-1 2 -10 11q-8 7 -14 8q-7 0 -11 2q-6 2 -14 12l-7 7t-9 9.5t-8 7.5q-14 14 -18 22q-6 13 -8 15q-3 5 -6 15q0 7 -4 11q-4 6 -5 8q-1 1 -2 5t-1 5q-2 7 -3 7q-3 3 -4 6q-3 6 -3 17q-1 11 -4 18
q-3 6 -3 13l0.5 11t0.5 19q2 25 3 28q0 1 0.5 3.5l0.5 2.5q0 8 1 15q0 11 3 20q3 5 3 18q0 14 2 14l4 10q2 9 9 21q7 15 12 19q2 2 4.5 5t3.5 4q2 5 4 7q1 1 2.5 3.5t1.5 3.5q3 3 3 6q0 2 9 11q10 10 23 16q14 8 15 9q1 0 7 2q7 0 9 1q3 1 11 5l11 7q6 4 11 4q11 3 11 4
q6 2 22 2h21q22 -1 26 -1q13 0 15 2q5 2 7 6q3 6 3 15q1 11 4 18q1 1 2.5 5.5t1.5 5.5q2 2 6 18q3 21 3 23t0.5 6.5t1.5 5.5q0 3 5 8t9 7z" />
    <glyph glyph-name="uni00A3" unicode="&#xa3;" 
d="M307 672h3.5h4.5h5q6 0 22 -2q15 0 27 -6q3 -1 9.5 -4t8.5 -4q8 -2 11 -2t9 -2t11 -9q7 -7 15 -8q7 0 15 -7q7 -7 11 -13q6 -9 9 -13q5 -7 7 -15q2 -9 5 -12q3 -6 4 -9q2 -6 2 -20q0 -13 -5 -23q-5 -7 -9 -12q-6 -2 -8 -2q-3 0 -11 2q-6 3 -17 3t-20 -3l-15 -3
q-6 0 -10 2q-1 1 -10 4q-5 0 -10 5t-8 15q-4 12 -4 15q0 7 -1 10q-2 4 -6 10q-2 4 -10 12q-7 8 -14 9q-1 0 -8.5 1.5t-11.5 2.5q-12 3 -19 2l-15 -5q-10 -2 -16 -6l-8 -3q-1 0 -2.5 -1.5t-2.5 -1.5q-5 -4 -7 -10q-4 -6 -4 -12q-2 -10 -4 -12q-1 -3 -3 -29q-2 -27 -3 -28
q-2 -4 2 -15q3 -10 1 -20q-2 -12 -2 -15q-2 -6 2 -17q3 -12 8 -16q3 -4 6.5 -4.5t20.5 -0.5q10 -1 28 -1t35 1q40 0 47 -2q5 -1 11 -7q2 -3 5 -6v-5q1 -3 1 -18q0 -18 -1 -25q-1 -12 -5 -16q-1 -1 -5.5 -4t-6.5 -4q-9 -4 -17 -4q-10 0 -17 3q-5 2 -22 2q-16 0 -19 -1
q-5 -2 -30 0h-28q-3 -1 -7 -10q-3 -8 -3 -47v-20.5t0.5 -18t0.5 -8.5q0 -8 -2 -14q-1 -4 -1 -16q1 -11 -1 -17q-2 -8 -2 -12t2 -10q1 -2 2 -7t1 -6q0 -7 6 -14q2 -5 7 -10q3 -3 12 -3q12 -2 13 -2q2 0 22 2h14h18h17q35 0 42 1q12 2 19 -1q8 -2 13 -1l9.5 0.5t16.5 0.5h10
t8 -0.5l3 -0.5q3 -3 8 -3q3 -1 8 -6q3 -4 3 -14q0 -13 1 -17q2 -6 -1 -14q-3 -7 -3 -16q0 -8 -2 -12q-2 -5 -6 -6q-3 -2 -87 -2q-85 0 -90 1q-7 1 -10 0q-4 -2 -38 -2q-32 0 -40 -2q-6 -1 -14 1t-16 -1q-7 -2 -9 -2q-3 0 -6 1q-4 1 -13 1q-5 0 -11 -2q-3 -1 -5 -1t-5 1
q-2 1 -38 3q-33 0 -41 4q-9 4 -10 7q-1 1 -4 9q0 2 -3 11q-2 8 -2 21q0 14 4 25q3 9 7 12t24 4q20 0 26 3q4 2 10 4q5 2 8 6q2 4 1 9q-3 9 -3 23v63q0 45 2 51l3 15q1 6 -1 13q-1 3 -8 15q-4 7 -11 11q-5 0 -21 2q-15 0 -25 2t-13 5q-2 1 -7 11q-3 7 -3 13q0 4 1 14
q0 17 2 21q3 6 6 9q5 5 9 7q2 1 22 3q17 0 25 4q8 5 12 11q5 7 7 16q4 9 2 13q-1 3 -3 19q0 5 -0.5 12t-0.5 9q0 11 1 14q0 2 1 5.5t1 4.5q2 2 4 26q1 23 8 32t10 18q3 10 9 16l7 9q0 2 9 11q7 8 12 11q4 3 11 5q9 3 11 5q3 2 13 7l9 3q0 1 11 7q11 5 20 5t13 2t12 2
q10 0 13 3q8 2 17 1q11 -2 16 1z" />
    <glyph glyph-name="uni00A4" unicode="&#xa4;" horiz-adv-x="475" 
d="M272 468q-13 5 -18 5q-1 0 -5.5 -0.5t-7.5 -0.5q-12 -2 -13 -3q-4 -2 -14 -2q-12 0 -19 -3q-2 -2 -7 -4t-6 -3q-4 -1 -15 -12q-3 -3 -9 -8.5t-8 -7.5l-11 -11q-5 -8 -8 -16q-4 -12 -4 -35v-15q0 -10 6 -25q2 -4 4.5 -10.5l2.5 -6.5q0 -4 4 -9q4 -6 10 -14q2 -2 7.5 -7
t7.5 -7q9 -7 16 -8q7 0 13 -4l9 -6q6 -2 27 -2h12q9 0 25 4q18 7 19 8q7 7 9 11q5 7 9 9q2 2 8 4q3 0 7 4q2 2 6 8q1 5 4 7q1 1 2.5 3.5t1.5 3.5q2 2 4 15l2 14q1 1 3 10q1 5 1 7q0 5 -3 13q0 2 -1.5 8t-1.5 8q-2 8 -5 17l-7 14q-3 3 -11 13q-10 8 -15 16q-7 8 -12 10
q-9 3 -19 8zM53 579q3 3 12 3t14 -3q5 -2 16 -13l12 -10q1 0 8 -9q5 -8 11 -10t12 -2q1 0 5 1t5 2t11 4q4 0 10 4q5 3 12 5q6 2 12 2q7 0 13 3q7 2 28 2t25 -2q6 -2 16 -2q11 0 17 -4q6 -6 11 -6q5 -2 7 -4q1 -1 6.5 -3t8.5 -3q9 -3 16 -3q5 0 12 7q7 4 10 10l17 17
q15 14 21 14q8 0 15 -4q5 -3 13 -7l2 -1.5t3 -2.5q3 -1 8 -10l7 -9q2 -2 4 -6q3 -3 3 -8q0 -3 -2 -9q-1 -1 -3.5 -4.5t-4.5 -5.5q-10 -10 -16 -14q-3 -3 -8 -8.5t-6 -6.5q-5 -10 -6 -15q-1 -4 -1 -16q3 -11 4 -12l8 -16q5 -11 5 -19q0 -4 3 -16q3 -7 3 -24q0 -4 -1 -14
t-2 -14q-3 -12 -3 -24q0 -11 -4 -16q-1 -2 -3.5 -5.5t-2.5 -4.5q-2 -2 -5 -8q-1 -2 -1 -15t4 -21q6 -11 10 -13q2 -3 10 -11q3 -2 9 -9l4 -4q7 -7 9 -11q1 -2 1 -3q0 -3 -3 -7q-2 -3 -13 -12l-17 -17q-10 -10 -12 -10q-4 -2 -7 -2q-5 0 -10 3q-7 2 -10 5q-4 1 -8 9
q-4 5 -11 11q-9 5 -14 12q-8 6 -12 6h-10q-6 -3 -9 -4q-5 -3 -12 -4q-1 -1 -21 -8q-14 -5 -26 -7l-20 -4q-8 -2 -18 0q-4 1 -10.5 2.5t-7.5 1.5q-6 0 -20 6q-12 5 -19 5q-9 1 -14 5q-3 3 -9 6q-3 3 -11 1q-7 0 -14 -5q-2 -1 -7 -5t-6 -5q-6 -8 -9 -14q-4 -6 -10 -10l-11 -7
q-4 -3 -11 -3q-5 0 -23 18q-20 20 -21 24q-3 6 -3 12q0 4 2 10l8 12q6 8 13 12q4 2 11 9q4 6 7 12q4 5 4 13q0 5 -2 7q-1 1 -5 7q-1 2 -5 12q-1 2 -3 8.5t-3 8.5q-1 3 -5 18q0 7 -2 13q-2 4 -2 21q-1 17 2 22q2 4 2 6q0 5 4 13q4 14 6 17q2 4 2 13q0 10 4 17q4 8 3 20
q0 11 -2 15q-1 5 -12 15q-3 4 -8.5 9t-6.5 5q-6 4 -9 10q-5 6 -5 13q0 6 2 10q2 5 9 13q11 13 15 16q6 4 11 7z" />
    <glyph glyph-name="uni00A5" unicode="&#xa5;" horiz-adv-x="472" 
d="M435 665q8 1 14 1h5q7 0 11 -2q4 -1 8 -7q3 -3 3 -9t-3 -9q-6 -9 -7 -11t-3 -7t-3 -7q-6 -12 -8 -17q-4 -7 -6 -17q0 -6 -4 -14t-8 -12t-8 -18q-1 -3 -3.5 -9.5t-3.5 -7.5q0 -1 -3 -5t-5 -7q-6 -8 -6 -18q-1 -11 -6 -17q-8 -12 -10 -16q-2 -3 -5.5 -11t-4.5 -10
q-4 -14 -4 -16q0 -3 -2 -7t-7 -9q-2 -2 -8 -10q0 -1 -2 -5.5t-3 -5.5q-2 -6 -2 -8t-2 -8l-6 -9q-2 -6 -2 -11q0 -8 3 -11q2 -3 7 -6q4 -4 18 -4q17 -2 23 -1q10 1 25 0q17 -2 21 -5q6 -3 10 -8q3 -3 3 -9t-3 -12q-2 -4 -7 -10q-2 -2 -8 -5q-1 0 -6.5 -1.5t-8.5 -2.5
q-15 -3 -18 -3q-6 -1 -13 2q-3 2 -36 3q-33 0 -37 -1q-4 -2 -10 -7q-4 -6 -4 -7q0 -4 -3 -11t-3 -16q0 -5 4 -19q4 -13 5 -14q0 -1 12 -5q9 -4 25 -4q17 -2 20 -4q6 -2 12 1q8 2 23 2q18 1 24 4q7 2 9 1q1 0 11 -5q4 -3 10 -9q2 -4 2 -16q0 -10 -2 -16q-2 -4 -8 -8
q-4 -3 -16 -3q-6 1 -17 1l-13 -1h-23h-24l-13 -1q-10 0 -13 1q-8 1 -13 -3q-2 -1 -8 -7q-2 -4 -2 -21q-1 -13 1 -27q4 -11 2 -20q0 -14 1 -19q1 -11 -2 -18q-4 -8 -8 -9q-3 -3 -20 -4q-15 0 -20 -3q-6 -2 -9 -2q-4 0 -12 3q-9 3 -24 3q-18 0 -21 2q-5 3 -7 8q-4 7 -3 30
q1 13 1 31q0 15 -1 24q0 5 -1 12v6q0 2 -4 8q-6 6 -19 9q-12 3 -20 3q-5 0 -13 -2q-2 -1 -10.5 -2.5t-12.5 -2.5q-12 -3 -26 -3q-12 0 -18 3q-2 1 -7 2t-7 1q-5 0 -11 3q-4 3 -6 9q-1 4 -1 15q2 10 4 14q6 6 8 7q6 2 29 2q26 1 29 3q5 3 16 3q10 0 20 -2q8 -2 11 -2
q1 0 5 -0.5t6 -0.5q8 -2 13 0q7 3 9 8q1 2 3 5.5t3 5.5q2 6 2 9l-2 19q0 16 -3 22t-11 11q-7 5 -14 5q-4 0 -20 -1q-29 -2 -33 -3q-6 -2 -12 -2q-6 -2 -16 2q-14 2 -21 1q-11 -1 -17 3q-7 4 -8 7q-3 5 -3 16t3 16q2 5 8 7q2 1 8.5 3.5t7.5 2.5q8 3 21 3q10 -2 28 -2
q15 -1 24 1q5 0 10 5q4 3 6 9q0 6 -2 9q-3 9 -3 10l-3 9q-1 1 -3 4l-1 2q-1 3 -6 9q-3 5 -7 16q-3 9 -13 29q-9 16 -9 20q0 6 -6 16l-6 14q0 4 -5 12q-5 6 -10 19q-3 7 -8 15q-6 9 -7 13q-1 3 -2.5 8t-1.5 6q-2 8 -5 14q-4 10 -8 14q-1 1 -4 5t-4 6q-1 1 -5 9q-3 6 -3 11
q-3 8 -7 18q-6 12 -6 14q0 4 3 10q5 7 8 8q4 3 57 3q54 -1 58 -3t6 -2q3 -2 6 -5q5 -7 5 -8q1 -1 3 -12q0 -4 3 -13l5 -10l4 -12l2 -6q1 -7 2 -11q7 -19 11 -25q7 -16 8 -29q1 -14 6 -25q4 -8 9 -23l6 -18q3 -4 3 -14q2 -11 7 -21q4 -9 7 -19q2 -7 5 -12q5 -5 5 -14
q2 -8 4 -13q3 -3 7 -5q4 -3 10 0q7 4 9 8q4 6 6 12q0 5 3 11q3 4 3 13l3 12q3 6 3 9q2 7 5 11q1 5 8 16q5 12 5 20q1 11 8 26q8 18 10 30q2 18 3 20q2 5 4 11l6 12l4 12q0 4 3 10q3 4 3 15q3 13 4 15l5 10q1 1 4 5.5t4 5.5q6 8 8 11q3 4 13 4q5 1 30 1h31z" />
    <glyph glyph-name="uni00A6" unicode="&#xa6;" horiz-adv-x="243" 
d="M124 298h9q4 0 19 -3q8 -2 13 -4t6 -5q1 0 6 -8q3 -6 2 -16q0 -8 -2 -22q-1 -12 0 -18q2 -8 2 -17q0 -10 -3 -16q-2 -6 -2 -16v-29v-30q-1 -12 1 -18q3 -9 3 -15q2 -8 2 -29q0 -26 -1 -32q-2 -15 -4 -18q0 -1 -7 -11q-5 -5 -22 -6q-7 -1 -19.5 -1t-23.5 1q-28 1 -31 4
q-4 5 -5 11q-1 4 -1 7t1 9q3 8 3 21t1 15q3 5 0 18q-2 14 -2 35q-1 12 -1 27q0 1 2 45v20.5t0.5 17.5t0.5 8q0 16 -1 27v24q3 6 6 10q4 7 6 7l4 2q3 3 20 3zM108 767q4 2 9 2q6 0 12 -2t21 -2q14 0 20 -3q4 -4 5 -9q1 -6 0 -16q-1 -6 -1 -29q2 -23 3 -26q1 -5 1 -68
q-1 -34 -1 -66v-19q0 -17 -2 -20q-1 -7 1 -15q3 -6 3 -18q1 -10 -3 -14q-6 -6 -10 -6q-3 -1 -46 -1q-39 1 -43 4q-4 1 -7 7q-2 4 -2 11q0 8 -2 12q-1 6 1 14q3 15 3 20q0 9 2 13t2 8q0 2 -2 8q-2 4 -2 12q0 6 -4 16q-2 8 -2 12q0 1 3 11q3 8 2 20q-1 8 -1 22v42q0 36 2 44
q2 6 2 14q-2 4 0 9q1 7 5 9q3 2 16 2q11 0 15 2z" />
    <glyph glyph-name="uni00A7" unicode="&#xa7;" horiz-adv-x="497" 
d="M262 433q-11 4 -25 4h-21q-5 0 -9 -4l-6 -4q-5 -3 -9 -7q-9 -6 -11 -11q-1 -1 -4.5 -5t-5.5 -6q-6 -6 -9 -12q-1 -3 -1 -14q0 -9 -2 -13q-3 -5 -3 -9q0 -3 4 -13q3 -9 9 -17q3 -4 10 -11q3 -2 7 -6q3 -3 15 -8q15 -7 23 -9q5 -2 17 -5q3 -1 7.5 -1t7.5 1q7 1 23 17l8 8
t7 8l4 4q3 9 5 14l3 8q2 0 4 7q3 6 5 18q1 5 1 9.5t-1 6.5q0 5 -4 9q-1 1 -2.5 3.5t-1.5 3.5t-1.5 3.5t-2.5 3.5q-1 4 -9 8q-9 5 -15 9q-9 7 -17 10zM240 691q2 0 8 1t8 2q5 0 7 -2l2.5 -1t3.5 -1q5 -3 17 0q6 1 15 1q4 0 12 -5q9 -4 18 -4q10 0 22 -5q10 -5 12 -5
q1 0 4 -1.5t4 -1.5q6 -3 9 -8q2 -6 2 -12q0 -2 3 -14q2 -6 2 -8.5t-5 -12.5q-7 -12 -10 -13q-4 -1 -15 0q-10 2 -15 4q-2 1 -4.5 3t-3.5 2q-5 3 -14 5q-6 1 -24 1q-11 0 -23 2q-6 2 -25 2q-16 0 -30 -5q-14 -4 -18 -10l-4 -8q-2 -2 -4 -5q-3 -4 -3 -20q1 -12 1.5 -14.5
t4.5 -5.5q6 -6 9 -12q5 -5 5 -8q1 -2 3 -4q4 -4 14 -7q9 -3 21 -9q8 -5 20 -6q9 -1 17 -4q6 -2 6 -4l4 -1t7 -2q2 -1 9.5 -3t10.5 -3q8 -3 16 -8l14 -10q6 -4 17 -8q8 -3 12 -7q2 -2 4 -6l4 -8q0 -1 3 -5t4 -6q6 -10 9 -16q4 -10 4 -19q0 -12 2 -16t2 -10q0 -5 -2 -9
q-1 -1 -3 -12l-4 -16q-6 -11 -12 -19q-10 -12 -13 -15l-2 -2l-11 -11l-12 -10q-4 -3 -7 -6q-5 -4 -8 -10q-1 -3 0 -6q2 -4 7 -9q5 -3 5 -6q5 -3 10 -5q11 -4 16 -9t7 -11q0 -1 2 -5l3 -6q4 -6 8 -10q5 -5 6 -9q3 -3 5 -13q1 -3 2 -6.5l1 -3.5q2 -2 2 -14t-4 -21l-7 -21
q-2 -11 -7 -16l-4 -8l-6 -8q-4 -6 -10 -14q-2 -4 -11 -13q-5 -5 -11 -8q-2 -1 -7 -1q-3 0 -7 -2l-3.5 -2t-5.5 -3q-8 -6 -17 -8q-9 -5 -23 -7q-8 -1 -16 -4q-4 -3 -21 -3h-42l-29 2q-1 1 -13 3q-10 0 -18 4q-11 4 -22 6q-19 5 -20 6q-4 1 -13 4q-3 1 -8 6q-2 4 -4 12
q-2 12 -1 22q0 13 2 17q0 4 4 10q1 5 6 7h10q11 -3 15 -6q10 -5 14 -6l7 -2q3 -3 16 -6q13 -5 33 -5q21 0 30 3q4 1 13.5 2t11.5 1q15 1 27 9q2 2 8 6.5t7 5.5q3 3 5 11q3 10 3 11q2 4 2 14q0 8 -3 17q-4 6 -11 13q-2 2 -7.5 7t-6.5 6q-5 4 -18 9q-3 1 -10 3t-8 2
q-9 3 -24 9q-19 8 -20 11l-6 3q-2 1 -16 3q-12 2 -21 5q-9 5 -10 6q-2 3 -10 4q-8 3 -16 10q-10 8 -17 15t-10 13q-3 9 -3 11q-3 9 -4 10q-2 5 -4 13q-3 15 -3 16l-1.5 7t-2.5 10q-2 6 -2 9t1 6q1 2 8 19q6 14 7 16q1 1 2 4q2 3 3 4q4 8 5 9q3 5 13 14q11 11 17 13
q6 3 13 10q4 4 7 10q0 6 -1 7q-3 6 -6 10q-4 6 -18 16q-14 11 -17 15q-3 3 -5 13l-7 18l-6 12q-1 2 -1 10q2 8 2 17q1 5 4 17q3 9 4 13q1 3 4 13q2 6 6 10q6 7 17 14q5 5 17 13q5 3 8 3q2 0 14 5q3 2 9.5 5.5t8.5 4.5q4 4 13 6q2 2 26 4q26 3 28 3z" />
    <glyph glyph-name="uni00A8" unicode="&#xa8;" horiz-adv-x="251" 
d="M184 717q2 1 26 1q22 0 26 -2q3 -2 7 -6q3 -4 3 -22l2 -20q0 -7 -2 -15q-2 -15 -5 -18q-1 -2 -6 -7q-4 -4 -8 -5q-2 -1 -4 -1q-3 0 -10 2q-10 2 -18 2t-14 2q-7 5 -8 7q-4 8 -5 13q-3 8 -3 25q2 21 4 25q1 8 7 14q5 5 8 5zM28 719q4 3 9 3q2 0 14 -2q4 -1 12 -4
q2 -1 3 -1q1 -1 3.5 -2t3.5 -1q3 -2 5 -7q3 -5 3 -16t2 -17q3 -6 0 -14q-2 -8 -2 -11q0 -5 -3 -9q-2 -4 -6 -9q-5 -3 -17 -3q-5 0 -12.5 -0.5t-8.5 -0.5q-10 -2 -12 -1q-3 0 -9 6q-4 3 -9 17q-4 13 -4 29t2 22q2 4 10 10q2 2 6 5l4 3z" />
    <glyph glyph-name="uni00AB" unicode="&#xab;" horiz-adv-x="474" 
d="M401 427q8 2 11 2q6 0 11 -3q6 -2 9 -9q3 -5 0 -19q-2 -12 -8 -19q-8 -11 -9 -15q-5 -10 -7 -16q-2 -5 -7 -11q-7 -10 -7 -11q-2 -2 -7 -14q-2 -9 -6 -13q-3 -6 -4 -9q-2 -5 -7 -14q-5 -7 -5 -18t4 -17q5 -7 6 -11q2 -6 2 -8q0 -3 7 -19q2 -5 5 -11l3 -6q0 -2 5 -9
q1 -1 3.5 -6l3.5 -7q2 -4 2 -7q3 -5 6 -9l6 -12q0 -2 3 -8q2 -2 10 -16q6 -12 6 -16q0 -9 -4 -13t-8 -4q-5 -2 -14 0t-14 0q-3 -2 -10 -2q-8 2 -21 2q-15 2 -19 4q-3 1 -5 6q0 1 -12 17q-3 4 -8 10.5t-6 7.5q-1 2 -3 7t-3 7q-5 10 -7 13q-3 3 -5 7q0 1 -1 3.5t-2 3.5l-4 8
q-2 4 -8 12q-5 10 -5 12q-3 7 -4 7q0 1 -4 6.5t-6 9.5q-6 12 -9 15q-2 0 -4 7q-3 5 -3 10q0 3 2 9q1 1 3.5 5t3.5 5q5 5 7 11q3 8 8 16q7 12 11 17q5 5 11 17q7 10 7 16q2 7 7 13q8 11 12 20q2 3 6.5 11t5.5 11q2 3 6 7l3 5q5 5 8 7q7 3 26 3q22 0 26 2zM139 429q5 3 10 3
q7 0 11 -3q8 -3 17 -2q9 0 15 -3q5 -2 10 -7q3 -6 3 -12q0 -7 -3 -13q-4 -6 -4 -8q-2 0 -8 -14q-2 -4 -12 -19q-6 -8 -7 -10q-1 -3 -1 -9l-3 -12l-10 -15l-6 -9t-5 -8t-3.5 -9.5t-3.5 -9.5q-3 -7 -3 -18q1 -2 2.5 -9t1.5 -9q4 -10 6 -12t4 -6q0 -1 1 -4t2 -4q3 -6 5 -8
q4 -6 6 -12q2 -8 7 -13q7 -9 8 -13q3 -9 3 -11q3 -9 5 -13q5 -10 7 -12q6 -9 9 -15q5 -10 5 -14q0 -5 -4 -9q-8 -5 -10 -6q-4 -3 -13 -3h-27h-28q-8 0 -13 5q-2 2 -8 10l-2.5 5t-1.5 5q0 6 -7 18q-5 12 -17 26q-2 3 -6.5 10.5t-5.5 8.5l-4 8l-6 12l-6 10q0 1 -2 5q0 4 -6 12
q-7 9 -7 13q-1 1 -2.5 6t-2.5 7q-5 9 -5 22q0 14 3 18q4 6 9 11l6 8q4 6 8 11q3 3 6 8l4 5l1 2q1 2 2 3q3 6 6 10t5 15l3 12l3 4q2 5 4 7q3 5 10 12q5 3 9 11q3 8 8 13q4 5 9 9q6 4 10 4q6 2 9 5z" />
    <glyph glyph-name="uni00AD" unicode="&#xad;" horiz-adv-x="659" 
d="M112 496q4 2 8 2q5 0 11 -3q6 -2 26 -2q15 1 27 -2q8 -3 18 1q9 3 19 3q6 0 29 -1q42 -2 48 -2q2 0 13 0.5t17 0.5q12 1 46 1q28 -2 32 -2t36 2q27 0 37 2q5 1 18 -1q3 -1 8 -2.5t6 -1.5q8 0 10 1q3 1 19 3q12 1 20 -2q6 -2 8 -6q4 -7 5 -17q3 -12 2 -21q-2 -4 -2 -14
q1 -2 1 -13q0 -9 -1 -22t-1 -27t1 -21q0 -18 3 -22q2 -6 2 -13t-2 -13q-2 -3 -3 -40v-19q0 -17 2 -31q2 -13 1 -21q-1 -5 -6 -12q-5 -5 -7 -6q-6 -2 -16 -2q-14 -2 -17 -3q-6 -3 -11 -3q-3 0 -12 3q-7 2 -12 0q-3 -1 -9 -1q-1 0 -5 1.5t-6 2.5l-9 6q-3 3 -3 38q0 36 -3 40
q-2 6 -2 11q0 9 3 18q3 10 3 39v15v11.5v7.5q1 9 -1 15q-2 8 -8 9q-6 2 -9 2q-4 0 -12 3t-22 3t-21 -3q-7 -2 -14 0q-8 2 -23 2q-10 1 -121 1q-102 0 -112 -2h-13q-3 0 -11 8q-7 7 -8 19q-2 14 -2 20q0 2 0.5 10.5t0.5 12.5q2 15 7 22q6 8 9 11z" />
    <glyph glyph-name="uni00AF" unicode="&#xaf;" horiz-adv-x="374" 
d="M157 719h3.5h4.5h5q1 0 12.5 -0.5t19.5 -0.5q13 -1 29 -1l10 0.5t18 0.5q12 1 30 1q8 0 18 -2q11 -1 15 0q2 2 16 1q12 0 16 -2q5 -2 14 1q14 2 21 1q10 0 14 -4q3 -1 7 -10q2 -5 2 -7t-1 -6q-3 -12 -3 -13q-2 -8 -2 -15q0 -9 -5 -14t-12 -7q-8 -3 -19 -1q-10 2 -27 2
h-21q-36 0 -43 -3q-5 -2 -7 -2t-8 2q-8 2 -19 1q-10 -2 -17 -2q-8 0 -12 3t-18 2q-16 -2 -18 -3q-7 0 -10 1q-6 1 -17 -1q-9 -3 -12 -3t-11 3q-9 3 -17 3q-5 0 -17 -1q-8 0 -18.5 -0.5l-10.5 -0.5h-12h-12h-27h-30q-12 0 -16 3q-6 3 -10 11t-6 23q-2 12 -2 16q0 3 2 9
q2 3 2 4q3 5 9 7q5 3 97 3h44q47 0 51 1z" />
    <glyph glyph-name="uni00B0" unicode="&#xb0;" horiz-adv-x="190" 
d="M112 694q-4 3 -11 3h-4h-6h-6q-10 -1 -17 -7q-9 -4 -11 -8q-3 -3 -5 -10q0 -14 1 -23q1 -14 6 -22q3 -7 6 -7q1 -1 13 -3q8 -2 11.5 -2t13.5 2q13 3 19 9t9 16q5 11 4 17l-3 15q-4 10 -5 11q-1 3 -6 5q-6 3 -9 4zM70 735q6 1 26 1q18 0 23 -2q5 -1 16 -8q7 -6 15 -15
q9 -9 11 -13q3 -6 3 -14q2 -12 4 -14q2 -5 4 -13q3 -17 3 -21t-6 -11q-3 -5 -12 -14q-3 -2 -14 -13q-10 -9 -17 -14q-8 -6 -14 -8q-5 -2 -10 -2h-5q-12 0 -21 3q-2 0 -16 5q-4 1 -15 10q-3 3 -8.5 7.5t-6.5 5.5q-4 4 -8 10q0 1 -2 6.5t-3 7.5q-3 12 -3 22q0 16 2 20
q2 6 2 14q0 7 3 13l14 14q9 11 17 17t18 6z" />
    <glyph glyph-name="uni00B1" unicode="&#xb1;" horiz-adv-x="539" 
d="M46 197q3 3 8 3q4 0 9 -3q4 -2 62 -3q11 0 28 -0.5t25 -1t9 -0.5q6 0 16 2q6 1 15.5 1t25.5 -1l32 -2l24 2q1 0 41 0.5t69 0.5q90 -1 94 -4q5 -2 5 -6q2 -4 4 -12q1 -10 1 -15v-8q-1 -14 0 -19q1 -3 1 -6q0 -4 -2 -12q-3 -13 -8 -18q-4 -4 -8.5 -4.5t-26.5 -0.5
q-33 2 -37 3q-8 1 -17 -1q-8 -2 -33 -2q-13 1 -19 1q-9 0 -16 -2q-12 -2 -28 0q-15 2 -133 2q-113 0 -123 -3q-6 -2 -7 -2q-2 0 -6 1q-8 4 -9 5q-2 2 -3 2t-5 6q-3 4 -3 16q0 4 -3 19q-3 9 -3 21q0 15 1 17q0 3 8 13q7 8 12 11zM271 638q4 3 10 3q3 0 17 -2q11 0 15 -2
q2 0 6 -6l5 -15q1 -9 1 -20t-1 -29v-21v-19v-13q0 -5 1 -14v-2q1 -3 8 -6q5 -3 61 -3h76q21 0 28 -3q8 -3 10 -5q0 -2 2 -4q2 0 4 -9q1 -4 1 -8t-1 -9q-2 -10 -2 -29q1 -18 -3 -26q-4 -6 -7 -9q-3 -2 -34 -3q-17 -1 -42 -1q-1 0 -19.5 0.5t-31.5 0.5q-24 1 -30 1
q-12 0 -15 -3q-5 -5 -5 -9q-1 -6 -1 -26v-21q0 -39 3 -45q2 -6 2 -9q0 -6 -3 -9q-2 -6 -6 -10q-2 -5 -6 -7q-6 -3 -29 -3q-14 -1 -23 -1t-16 1q-15 3 -16 3q-3 2 -11 8q-6 4 -8 13q-2 7 -1 14q1 2 3 31q1 14 1 44q0 18 -2 22q-3 3 -9 6q-8 3 -14 2q-8 -2 -61 -2
q-55 0 -60 -2q-6 -3 -11 -3t-10 5q-6 5 -11 7q-4 2 -7 5q-4 4 -4 10q-1 3 -1 12q0 1 1 5t2 5q2 3 1 10q-2 6 -2 20q0 13 3 19q3 4 12 8q8 2 18 6q10 3 18 1q9 0 19 -2q15 0 20 1q9 1 13 0q4 -2 13 -2q8 0 14 2q6 1 15 -1t21 0q11 2 16 5q5 1 6 7v57v29q0 22 1 28q2 5 5 10
q4 4 8 6q4 3 21 3q19 2 22 3z" />
    <glyph glyph-name="uni00B2" unicode="&#xb2;" horiz-adv-x="258" 
d="M112 729h51q19 0 23.5 -1t11.5 -5q10 -4 10 -6q1 0 9 -6q8 -5 14 -13q8 -10 8 -11t2 -7.5t3 -10.5l6 -18q2 -3 2 -29q0 -25 -5 -35q-5 -8 -5 -12t-3 -8q-4 -9 -8 -11q-5 -5 -9 -13q-3 -7 -11 -10q-1 -2 -5.5 -5t-6.5 -4q-5 -5 -11 -9q-2 -1 -11 -10l-4 -6q0 -2 -5 -7
q-6 -4 -10 -12l-6 -8q-2 0 -6 -4q-1 -1 -4 -3t-4 -3l-2.5 -2t-3.5 -3l-2.5 -1.5t-3.5 -1.5t-10 -9t-9 -10l2 -4q4 -2 27 -2q27 0 34 -3q12 -3 25 -2q20 2 22 3q4 2 13 2t13 -2q5 -3 7 -6q2 -4 2 -7q1 -2 1 -7t-1 -11q0 -14 -4 -19q-4 -4 -13 -4q-4 0 -19 1h-21l-12 1
q-6 2 -8 0q-6 -2 -79 -2q-76 0 -79 2q-4 1 -6 5q-2 2 -4 12q-2 6 -2 10q0 3 1 7q2 8 2 13t4 11l9 12q9 9 14 13q7 7 15 13t11 9q1 1 6 5.5t8 7.5q10 9 16 18q4 7 11 12q7 6 13 13q5 8 13 12q10 4 13 9l11 11q1 1 3.5 4t5.5 7t5 6q8 14 12 18q3 6 5 12q1 6 0 18q-2 14 -4 17
q-3 6 -7 10q-5 5 -18 9t-27 4q-13 -1 -20 -6q-5 -3 -12 -10q-5 -7 -5 -9q0 -1 -2 -5l-3 -6q-5 -9 -9 -12q-5 -5 -14 -7q-15 -3 -20 -3q-12 -1 -20 7t-8 17q0 10 5 21q5 12 5 14t6 10l6 9q0 2 9 11t25 17q15 7 42 8z" />
    <glyph glyph-name="uni00B3" unicode="&#xb3;" horiz-adv-x="276" 
d="M120 755q9 3 23 3q15 0 24 -3q6 -3 12 -3q5 0 15 -5q10 -6 15 -6q7 -2 11 -5q5 -3 12 -11q7 -7 13 -15q6 -6 8 -17q3 -9 6 -15q2 -4 2 -24q0 -19 -2 -25q-4 -8 -6 -14q-3 -7 -8 -13q-6 -4 -12 -10q-6 -4 -11 -7q-6 -4 -6 -5q0 -3 1 -4q0 -2 9 -6q2 -1 12 -7q1 -2 4 -5.5
t4 -4.5q0 -2 3 -7.5t4 -8.5q6 -10 6 -12q1 -1 3 -9q0 -3 3 -12q2 -6 1 -11q0 -6 -6 -24q-5 -15 -5 -20q0 -4 -2 -8q-4 -6 -10 -12q-10 -8 -12 -10q-6 -2 -11 -9q-4 -4 -13 -10q-8 -3 -16 -4q-13 -3 -14 -3q-5 -3 -18 -3t-25 -3q-10 -2 -12.5 -2t-9.5 2q-12 5 -17 6
q-7 3 -18 3q-8 0 -14 2q-6 3 -11 3q-8 2 -10 4q-3 2 -7 9q-2 2 -7 8t-6 8q-10 10 -13 22q-4 12 -4 23q0 12 4 16l9 6q6 2 11 2t15 2q9 2 19 0q11 -2 12 -5q4 -4 4 -11q2 -9 6 -15q6 -8 9 -11q1 -1 4 -3t5 -2l8 -4q4 -2 14 -4q12 -2 15 -2q5 -1 12 3q4 4 10 6q3 0 11 6
q4 3 12 7q4 3 8 12q5 8 5 14q0 4 -6 18q-6 10 -6 14l-8 8q-7 7 -17 12q-9 4 -33 5q-22 0 -26 2q-5 2 -6 6q-3 3 -3 19q0 14 2 20q1 2 5 6q1 1 19 3q17 2 23 3q3 3 8 3q7 0 9 1q5 2 12 9q6 6 12 16q4 8 6 10l3 6v8l-4 8q-1 1 -4 5.5t-4 5.5q-5 6 -10 9q-1 1 -11 6l-12 4
q-10 0 -16 -1q-11 -2 -19 -5q-4 -1 -13 -4q-7 -4 -9 -8q-2 -3 -5 -10q-1 -6 -8 -13q-6 -8 -12 -9q-2 0 -14 -3q-8 -1 -16 1q-7 1 -13 7q-5 5 -5 23t7 32q8 14 16 18q6 3 13 7l14 7q8 5 16 5q10 2 12 4q4 2 11 2q8 0 14 3z" />
    <glyph glyph-name="uni00B4" unicode="&#xb4;" horiz-adv-x="212" 
d="M149 743l4 2l10 -2q10 -2 20 -1q9 2 15 1q6 0 12 -4q6 -2 8 -6q3 -6 3 -8q0 -4 -6 -12l-12 -21l-8 -16q-6 -12 -7 -15q-8 -16 -10 -22q-2 -7 -8 -19q-4 -6 -6 -12l-7 -14q-5 -10 -7 -12t-7 -16q-5 -12 -5 -15t-5 -8q-8 -8 -16 -10q-5 -2 -14 -5q-7 0 -12 2q-8 2 -15 2
t-13 2q-6 3 -7 7q-1 1 -1 3.5t1 5.5q2 4 2 12q0 1 1 6t2 7q1 1 3 4l1 3q1 2 5 12q2 7 4 15q2 6 2 9q0 2 6 14q6 16 6 19q0 6 6 20q4 9 9 25q2 14 2 18q-1 4 2 12q3 6 8 11q3 3 17 4q14 2 17 2z" />
    <glyph glyph-name="uni00B5" unicode="&#xb5;" horiz-adv-x="559" 
d="M123 668q6 2 11 2q6 0 12 -2q7 -2 12 -5q4 -1 7 -7t3 -11q2 -6 0 -25q-2 -10 -2 -21q0 -6 1 -13v-12.5v-18.5v-20q0 -34 -2 -42q-2 -5 0 -11q2 -8 2 -11q0 -7 3 -13q3 -9 1 -16q-3 -9 -3 -30q0 -23 3 -32q2 -10 2 -17q0 -9 2 -15q2 -8 2 -12t3 -10q4 -6 14 -16
q12 -11 27 -19q17 -7 23 -9q8 -2 15 -2q5 0 25 2q19 2 30 9q12 5 18 11q5 4 9 11q4 10 5 12q0 5 5 10l7 11l2 5.5t3 8.5q3 10 4 19q1 4 2 15t1 14q2 13 -1 27q-2 7 -2 19q1 9 -1 13q-2 6 -2 8l3 9q2 5 1 21q-3 13 -1 23q2 8 2 50q1 18 1 30q0 18 -2 26q-1 8 -1 17q2 5 8 9
q7 5 23 5q15 0 21 3q5 2 13 0q2 -1 8 -2t8 -1q6 0 14 -4q6 -5 9 -10q2 -5 2 -17v-37q0 -39 1 -54v-37v-20q2 -13 0 -31v-82q0 -59 2 -69q1 -3 1 -6t-2 -10q-2 -10 -2 -20q0 -2 0.5 -9t0.5 -10q3 -8 0 -17q-2 -11 -4 -14q-2 -5 -7 -8q-6 -3 -19 -3t-21 -2q-7 -3 -16 1
q-11 4 -14 8q-5 5 -6 13q0 6 -3 12q0 1 -1 3q-2 5 -2 6q-2 5 -4 6q-5 3 -11 1q-7 0 -10 -5q-2 -2 -5 -10q-2 -8 -4 -10q-1 -2 -8 -7q-9 -6 -15 -9q-2 -1 -7.5 -4t-6.5 -4q-12 -3 -23 -3q-19 -2 -22 -3h-8h-9q-1 0 -3 0.5t-3 1.5t-11 5t-13 7q-7 5 -11 6q-5 3 -15 10
q-7 7 -12 7t-8 -3q-4 -4 -6 -10q-2 -7 -1 -12q2 -8 2 -32q0 -21 2 -35q3 -10 1 -16q-1 -7 0 -13q1 -4 0 -13q-2 -8 -2 -37t2 -34q3 -3 3 -7q0 -3 -2 -7q0 -1 -6 -7q-3 -2 -29 -3q-29 -2 -33 -3q-8 -2 -11 -2q-4 0 -10 2q-1 1 -4.5 3t-5.5 3q-4 2 -6 8q-2 8 -2 37q0 28 2 38
q1 3 3 23q0 16 -3 25q-2 5 -2 13q0 5 1 19q0 8 0.5 20.5t0.5 13.5q0 2 -0.5 13t-0.5 18q-1 23 1 30q1 7 0 13q-2 7 1 21q2 16 0 22t-2 26q0 21 2 27q3 7 3 25q-2 19 -4 24q-2 6 -1 26q0 6 0.5 17t0.5 14q0 9 2 19q1 8 -2 17q-2 9 -1 13q1 2 1 18q0 4 -0.5 13t-0.5 11
q-1 11 1 17q3 4 3 11l-1 9v14q0 17 -2 19q0 1 2 7q0 1 7 11q5 4 24 3q20 0 24 2z" />
    <glyph glyph-name="uni00B6" unicode="&#xb6;" horiz-adv-x="685" 
d="M293 797q6 2 9 2q1 -1 4 -2t4 -1q6 -2 36 -2q34 -2 37 -3q9 0 12 1q6 2 54 2q29 1 36 1q13 0 16 -3t8 -15q2 -7 4 -28q0 -13 -0.5 -16t-5.5 -7q-9 -6 -15 -9q-2 0 -6.5 -1.5t-5.5 -1.5q-4 0 -7 -1q-5 -2 -9 -8t-4 -11q0 -6 3 -7q2 -2 2 -12q0 -9 3 -13q2 -4 2 -8
q0 -5 -3 -11q-2 -5 -3 -46v-90q0 -52 -2 -54q0 -3 -2 -7q0 -3 2 -9q2 -10 2 -100q1 -94 4 -100q2 -5 -1 -15t-2 -13q3 -5 1 -20q-1 -9 -1 -48q0 -29 -3 -37q-3 -5 -2 -9q0 -2 1.5 -6t1.5 -5q1 -7 -1 -25q-3 -20 0 -27q2 -10 2 -18v-21q-2 -12 -4 -15q-1 -2 -3 -4.5t-2 -3.5
q-4 -4 -9 -6t-15 -1q-9 0 -17 2q-6 3 -17 3q-9 0 -17 3q-7 2 -11 6t-3 25q0 22 -3 28q-2 7 3 22q5 12 5 16q0 2 -2 8q-2 5 -3 258v51v47.5v43t-0.5 38t-0.5 31v24v15v5.5l0.5 6.5t0.5 17v20.5q1 41 3 48q2 6 2 10t-6 11q-4 5 -13 12q-8 5 -13 4q-7 0 -11 -2q-5 -2 -11 0
q-8 2 -13 2t-17 -2q-11 -1 -19 -8q-8 -6 -9 -12q-3 -8 -4 -10q-2 -6 -2 -11q0 -9 3 -13q2 -5 2 -27v-102q0 -82 2 -89q3 -8 3 -15t-4 -15t-3 -15q2 -6 2 -20q1 -6 1 -38t-1 -71q0 -97 2 -102q2 -7 3 -7l0.5 -2t0.5 -4q0 -6 -3 -12q-3 -9 -2 -24q1 -16 -2 -25q-2 -10 -1 -13
q0 -9 -1 -12q-2 -5 1 -16q3 -10 3 -24v-18q0 -30 -3 -37q-3 -6 -7 -10q-3 -3 -10 -3q-3 0 -15 1q-24 2 -26 3q-3 1 -16 1q-10 0 -16 6q-5 7 -5 15q0 7 -2 25q-1 8 -1 19v9q1 10 1 17q2 21 0 29q0 2 -0.5 6.5t-1.5 6.5q0 5 2 13q1 4 1 16q-2 9 0 16v68q0 57 -2 65q-1 3 -1 12
q1 2 1.5 10.5t0.5 12.5q0 16 2 18q0 7 -1 14q-2 11 -4 16t-7 7q-7 4 -22 5q-11 1 -25 4q-5 2 -15 5q-6 2 -19 10l-20 12q-8 3 -13 8q-2 1 -4.5 4t-2.5 4q-1 3 -13 15l-10 12q-1 3 -3 5q-3 6 -3 11q-3 10 -3 11t-1.5 3.5t-2.5 3.5q-3 3 -5 7q-1 1 -3 6t-3 7q-4 12 -4 20
q-2 12 -3 14v7q-1 7 -1 12q0 15 2 23q2 6 2 21q0 13 3 25q4 10 4 19q0 2 0.5 6.5t1.5 5.5q0 1 2 5l3 6l4 10q4 6 8 13q10 14 18 22q2 3 18 19q9 9 9 11q2 3 4 5q4 4 10 7q8 4 12 8q3 3 13 8q2 1 14 4q5 0 17 6q10 4 18 6q6 0 16 4q7 4 15 4q15 0 23 1q3 0 23 0.5t33 0.5
q40 1 47 4z" />
    <glyph glyph-name="uni00B7" unicode="&#xb7;" horiz-adv-x="228" 
d="M130 342h2h4h5q6 0 12 -3q6 -6 8 -9q4 -6 4 -42q0 -39 -1 -42q-2 -5 -5 -10q-4 -4 -8 -6q-3 -1 -5 -1t-9 2q-8 2 -36 2q-26 0 -30 3q-3 3 -7 13q-3 9 -3 42q0 34 2 39q3 6 7 8q4 3 8 3q5 0 14 -3q13 -2 17 -1q9 0 13 3q4 2 8 2z" />
    <glyph glyph-name="uni00B8" unicode="&#xb8;" horiz-adv-x="208" 
d="M86 11q6 2 10 2q5 0 9 -4q5 -5 5 -11q0 -4 -6 -15q-5 -9 -4 -13q2 -3 17 -4q18 -2 24 -5q11 -3 23 -15q14 -12 14 -14q1 -2 1 -8t-1 -14q0 -20 -3 -27q-2 -9 -5 -14q0 -1 -2 -5t-3 -5l-7 -7q-9 -3 -13 -5q-9 -2 -24 -9q-16 -6 -48 -6q-29 0 -40 3q-8 2 -12 6q-6 4 -7 8
q-3 5 -3 7l1 4q1 3 2 5q3 6 8 11q4 4 8 4q4 2 7 0q2 0 10 -2q11 -3 15 -6q8 -3 21 -2q11 2 16 4q5 5 9 8q8 8 10 11q3 4 3 10q0 4 -2 10q-3 5 -9 10q-6 6 -13 8t-15 -1q-3 0 -9 -0.5t-8 -0.5q-8 0 -14 3q-7 5 -7 10q-1 6 8 17t11 19t11 19q3 5 12 14z" />
    <glyph glyph-name="uni00B9" unicode="&#xb9;" horiz-adv-x="254" 
d="M160 721q3 3 10 3t11 -2q6 -2 8 -6q4 -6 4 -10q0 -5 -4 -15q-3 -10 0 -17q0 -1 1.5 -5.5t1.5 -5.5q1 -1 -2 -12q-3 -9 -3 -122q0 -112 3 -119q3 -5 2 -11q0 -2 -1.5 -9t-1.5 -8q-5 -11 -6 -12q-2 -3 -7 -5q-2 -1 -4 -1t-11 2q-12 2 -20 5q-2 1 -7 3t-6 2q-4 2 -6 6
q-3 3 -3 25q0 23 2 27q3 4 3 24q0 19 -2 23q-3 5 -3 69q0 63 2 67q1 1 2 3.5t1 3.5v8q0 4 -4 4q-3 2 -17 -6q-3 -2 -9.5 -5.5t-8.5 -4.5q-6 -3 -13 -10q-8 -7 -12 -7q-6 0 -11 3q-7 2 -9 6q-3 4 -3 29q0 27 2 28q2 3 7 5q6 3 13 3q7 1 16 7q2 2 5.5 4t4.5 3t7 4q5 4 9 9
q5 6 15 10q9 4 25 4q17 2 19 3z" />
    <glyph glyph-name="uni00BA" unicode="&#xba;" horiz-adv-x="322" 
d="M192 630q-10 6 -17 6q-4 0 -12 -2t-17 -2q-3 0 -7.5 -0.5t-5.5 -0.5q-1 -1 -4 -3t-4 -3q-3 -3 -11 -9l-10 -10q-4 -8 -6 -13q-5 -15 -6 -20v-6.5v-8.5v-9q0 -15 6 -22q4 -6 10 -12t10 -8l8 -4l9 -6q3 -2 27 -2t28 2q1 1 4.5 2.5t5.5 1.5q5 2 16 9q10 9 14 21t4 19
q0 1 -0.5 8t-0.5 11q-1 12 -4 22q-2 9 -7 16t-11 12q-9 7 -19 11zM120 709q4 4 14 4q5 0 23 -1q33 -1 43 -6q8 -4 18 -6q8 0 14 -4q3 -1 14 -9q7 -7 11 -9q2 -1 10 -7q9 -7 12 -13q8 -11 10 -12q4 -4 4 -6q1 -3 3 -6q2 -2 6 -15q0 -10 3 -16q2 -6 2 -7q2 -2 2 -24
q2 -26 2 -28q1 -5 -3 -11q-2 -3 -5 -12q0 -6 -2 -10l-3 -9q0 -1 -1 -3.5t-2 -3.5q-3 -5 -8 -12l-6 -9q0 -2 -7 -9q-4 -7 -10 -13q-5 -5 -14 -8q-10 -3 -10 -5q-5 -3 -11 -6q-11 -5 -11 -7q-2 -2 -5 -3q-5 -3 -15 -3q-11 0 -20 -3q-8 -2 -25 -2q-11 0 -20 3l-8 4q-6 3 -9 3
q-3 1 -17 7l-22 11q-13 7 -14 9q-6 4 -9 12q-2 6 -12 18q-9 11 -13 18q-2 5 -8 14q-3 6 -3 15q0 11 -3 19t-3 13q0 1 5 17q5 20 6 28q0 13 2 17q0 3 4 7q0 1 3 5t4 6l8 12q2 3 13 12l15 12q6 4 6 5q0 3 5 6q5 5 12 7q6 2 13 6q10 7 12 8z" />
    <glyph glyph-name="uni00BB" unicode="&#xbb;" horiz-adv-x="475" 
d="M38 427q6 3 13 3t9 -2l29 -2l31 -3q5 -2 7 -8q3 -4 5 -11q0 -5 8 -15q7 -13 15 -23q9 -12 11 -19q0 -4 5 -14q1 -3 4.5 -10.5t5.5 -10.5q8 -16 10 -18q4 -4 6 -11q5 -10 10 -15q6 -8 6 -17q0 -10 -6 -24q-2 -5 -5 -12l-4 -7q-2 -4 -13 -17q-13 -19 -14 -20q-1 -3 -4 -8
t-4 -6q-6 -6 -8 -10q0 -1 -8 -13q-3 -8 -6 -11q-2 -2 -4 -10q-2 -6 -6 -13q-3 -6 -7 -10l-9 -6q-5 -2 -41 -2t-38 1t-5 4q-1 3 -1 5q0 4 4 14q4 12 4 15q2 6 4 10q4 6 5 7l1 4l2 6q2 9 4 11q2 4 7 9q6 6 9 14t6 11l8 16q4 8 8 20q3 12 4 14q2 12 1 19q0 9 -5 19q-1 3 -4.5 9
t-4.5 7l-12 15q-7 8 -8 14l-2 6q-2 7 -3 10q-5 12 -9 16q-5 6 -7 13q-1 2 -4 14q0 6 -2 8q-1 0 -5 6q-4 8 -4 11q0 7 3 10q1 5 8 7zM294 430q2 1 16 1q16 -2 25 -5q13 -4 16 -7q4 -2 6 -8q0 -2 1.5 -5.5t2.5 -4.5q0 -3 5 -10q4 -7 6 -13q1 -1 3 -6t3 -7q1 -3 8 -10
q1 -1 3.5 -4.5t3 -4.5t2 -3.5t2.5 -3.5q0 -1 2.5 -5t3.5 -6q7 -9 13 -23q7 -17 15 -25q7 -7 9 -14q1 -4 1 -7q0 -4 -2 -12q-5 -15 -7 -20l-6 -12q0 -2 -8 -12q-7 -9 -9 -15q-3 -4 -5 -11l-3 -4q-2 0 -5 -7q-5 -10 -6 -14q-2 -8 -7 -13q-2 -2 -10 -12q-6 -8 -8 -14l-4 -8
q-1 -1 -1 -2t-5 -11q-7 -7 -9 -8q-6 -3 -40 -3q-22 -1 -28 -1q-9 0 -12 2t-7 9v10q0 3 3 9l6 9q3 5 5 12q2 8 7 18q4 11 6 11q1 1 5 9q5 10 5 14q2 6 6 12l7 11q1 2 6 10q4 4 6 11l4 16q2 10 2 15t-8 21q-2 4 -4.5 10t-3.5 7l-5 10q-1 2 -4 9.5t-4 10.5q-4 14 -5 14l-3 4
q-2 4 -3 7q-2 4 -8 13q-5 5 -7 12q-2 3 -5 12q-2 7 -4 8l-3 6q-2 2 -2 7t6 11t8 7q2 2 11 2t11 1z" />
    <glyph glyph-name="uni00BC" unicode="&#xbc;" horiz-adv-x="657" 
d="M529 290q-2 2 -4 2t-5 -3l-2 -4l-1 -2q0 -3 -6 -11l-6 -10q-3 -5 -8 -9q-2 -2 -6 -6.5t-5 -6.5q-3 -3 -5 -9q0 -4 -4 -10q-1 -1 -4 -4.5t-4 -4.5q-5 -5 -5 -7q-1 -3 -3 -6l-4 -5l-5 -7q-3 -6 -11 -14q-6 -8 -6 -10q0 -3 3 -6t5 -3q3 0 7 2q4 3 33 3q31 0 34 2l8 4
q5 4 5 63q0 61 -1 62zM527 385q5 3 29 3q25 0 32 -6q6 -5 6 -15q-1 -5 -1 -40q0 -32 2 -37q3 -6 3 -13q0 -9 -3 -15q-3 -9 -3 -25q0 -17 3 -26q3 -7 3 -12q0 -1 -1.5 -6t-2.5 -8q-2 -10 -1 -16q3 -7 8 -8q3 -2 21 -2q16 0 20 -4t6 -11q3 -6 3 -14q0 -6 -2 -12q-1 -1 -3 -3.5
t-3 -3.5l-10 -5q-5 -3 -12 -3t-13 -2q-6 -1 -11 -5q-4 -7 -4 -27v-28q-2 -6 -6 -10q-6 -5 -16 -5q-11 0 -18 3q-6 3 -13 3q-5 0 -10 6q-6 5 -5 20q0 15 2 21q1 5 -3 13t-9 9q-4 2 -50 2t-52 -2t-21 0q-14 2 -18 4q-4 0 -6 5q-2 3 -2 34t2 34q1 1 3 4l2 2q3 3 4 5q1 0 3.5 4
t3.5 6q4 8 9 13q1 1 8 11q9 12 10 13q6 5 6 7q0 3 5 8q3 4 9 13q4 8 14 18t14 16q4 4 4 8q3 5 7 11q3 4 9 13t10 13q6 8 11 13t9 13q5 7 9 10q4 5 9 6zM108 614q4 1 12 1q4 -1 18 -1l13 -2q2 0 4 -6q2 -4 2 -167q0 -162 -3 -167q-2 -6 -6 -8q-3 -2 -26 -2q-24 0 -28 3
q-4 4 -4 31v113v48q0 36 2 41q3 9 3 17q1 10 -3 14q-3 3 -6 2q-2 0 -10 -4q-9 -6 -12 -9q-7 -7 -15 -10q-9 -5 -21 -5q-13 0 -17 4t-4 26q0 21 7 28t15 11q12 5 14 5q6 2 10 6q3 3 9 7q2 1 7 5t6 5q8 6 13 6l9 3q7 2 11 5zM452 626q2 3 15 3q12 0 21 -3l12 -3q5 0 8 -3
q4 -4 4 -12q-2 -10 -5 -17q-5 -10 -9 -14q-5 -7 -6 -11q-2 -5 -12 -19q-10 -13 -11 -18q0 -3 -3 -9q-1 -2 -8 -12q-6 -8 -6 -12q-2 -8 -10 -18l-13 -19l-4 -8l-3 -3q-3 -3 -5 -10q-1 -2 -5.5 -10t-6.5 -12q-10 -18 -11 -20q0 -3 -8 -19t-11 -19t-9 -15q-3 -7 -15 -24
q-10 -13 -11 -20q-4 -10 -10 -18q-9 -9 -11 -15t-4 -10l-8 -12q-6 -8 -9 -14t-5 -12q0 -2 -5 -10q-4 -4 -17 -30l-14 -27q-3 -2 -5 -7l-6 -9q-4 -4 -6 -8q-1 -1 -9 -17q-3 -7 -10 -18q-3 -3 -9 -13q-6 -12 -8 -14q-3 -3 -8 -15q-7 -17 -8 -20q-4 -10 -6 -12q-4 -6 -8 -7
q-6 -2 -15 -2q-11 0 -20 -3q-7 -3 -15 -3q-7 2 -9 7q-5 4 -5 10q0 5 2 9q0 3 7 17q5 12 9 16q0 1 2 5l3 6q3 5 3 8q0 2 5 7l6 9q1 1 2 3.5t1 3.5q1 1 4 4.5t4 5.5q5 5 9 11q3 5 3 9t3 9q3 6 6 9l11 16q1 2 5.5 9.5t5.5 9.5q6 9 10 13q5 4 7 12q0 2 1 5l1 3q1 1 5 9l2 6
q2 6 3 8q2 6 9 17l12 16q6 6 8 13q2 6 2 7q2 2 4 9q1 4 10 20q3 3 7 9l3 5q1 1 14 23q11 20 18 27q5 7 7 12q0 4 4 10q3 6 4 7q3 6 4 10q5 9 9 15q1 1 4 5.5t4 5.5q3 6 5 9q4 4 6 10q2 5 6 9t6 9q6 9 7 11q3 4 6 11q0 3 5 13q5 6 7 13t7 16q5 10 9 16q6 6 9 14q2 6 10 16
q4 4 9 14q6 10 7 11z" />
    <glyph glyph-name="uni00BD" unicode="&#xbd;" horiz-adv-x="687" 
d="M528 375q1 1 7 1q7 0 13 -2q12 -3 23 -3q17 -1 30 -6q4 -2 11.5 -5t8.5 -3q9 -6 10 -7q4 -2 4 -4q0 -1 6 -7q6 -8 14 -16q7 -11 8 -23q3 -15 3 -16q3 -4 3 -11q0 -1 -3 -16q-3 -8 -3 -16q0 -6 -2 -12q-3 -6 -3 -9q-2 -6 -9 -20q-6 -13 -11 -18q-1 0 -5.5 -3t-7.5 -4
q-10 -6 -12 -8t-8 -10q-2 -3 -21 -24q-21 -21 -25 -23l-12 -8q-4 -4 -8 -10q-2 -2 -4.5 -5.5t-3.5 -4.5t-4 -3t-4 -3q-4 -4 -4 -5q0 -3 2 -5q1 -1 18 -1h19q34 0 40 3l9 3q5 1 13 -2t25 -4q18 -1 20 -4q4 -4 4 -19t-3 -20q-2 -5 -6 -6q-4 -2 -22 -2t-24 -3q-6 -2 -12 -2
q-7 0 -11 2q-7 3 -27 3t-26 -3q-4 -2 -19 -2q-16 0 -19 2q-1 1 -5 2t-5 1q-9 0 -18 -3q-11 -3 -17 -3h-6q-13 0 -17 3q-1 1 -4.5 3.5t-4.5 3.5q-4 5 -4 14q0 8 2 14q1 3 3 15q2 10 3 12q2 4 11 13q3 3 7.5 7t5.5 5q2 1 10 3q5 2 10 9q3 8 11 16q5 7 13 11q9 6 12 10
q6 8 12 11q7 4 10 10q6 9 12 15q5 6 17 15q7 5 11 11q1 1 5 6t6 7q6 6 8 14q2 5 7 15q5 9 5 17q0 9 -4 17q-4 9 -12 15q-5 5 -15 10q-8 4 -19 4q-12 0 -21 -5q-9 -4 -12 -8q-3 -3 -9 -13q-1 -3 -5 -9.5t-4 -7.5l-5 -9q0 -2 -4 -4q-2 -2 -13 -2t-13 1q-6 3 -15 3q-11 1 -16 6
q-4 5 -4 14q0 7 2 15q3 5 5 14q2 10 3 11q0 1 7 10q1 2 5 6t5 6l6 4q5 4 7 5q13 7 14 8q7 4 13 6q6 0 12 3q4 2 12 4t8 3zM107 596q8 3 29 4q18 0 27 -3q6 -4 9 -7q3 -5 3 -19q0 -15 -3 -21q-2 -6 -2 -11q0 -7 3 -11q1 -7 1 -17v-16q0 -25 -2 -33q-2 -6 0 -11q3 -6 2 -17
q0 -12 -3 -20q-2 -7 -2 -62q1 -55 3 -59q3 -6 3 -22q0 -12 -0.5 -15t-5.5 -7q-3 -7 -10 -9q-4 -2 -13 -2t-18 3t-13 5q-5 2 -6 6q-2 3 -2 85q0 83 -2 89q-1 7 0 16q2 10 2 34v13t-0.5 11.5l-0.5 4.5q-1 3 -6 3q-3 0 -9 -2q-3 -3 -13 -7l-15 -10q-5 -3 -10 -5q-3 0 -9 -3
q-6 -2 -8 -2t-8 2q-1 1 -3.5 3t-3.5 3q-1 3 -3 20q0 18 2 23q1 1 3.5 4t3.5 4q6 6 10 9q6 3 10 7t7 6q8 5 11 5q7 2 8 4q1 0 4.5 2.5t5.5 3.5q8 5 11 11q7 7 13 10zM467 609q3 2 25 2q21 0 25 -4q5 -5 5 -19q0 -13 -4 -22q-4 -8 -7 -11l-8 -12l-7 -11q-6 -6 -8 -10
q-5 -7 -6 -11q-1 -6 -12 -25q-2 -4 -5 -9t-5 -8.5t-2 -4.5q-1 -1 -4 -5.5t-4 -5.5q-4 -8 -5 -9q-2 -2 -6 -10q-1 -3 -3 -7t-3 -4q-3 -3 -6 -11q-5 -10 -9 -14q-6 -8 -7 -11q0 -1 -0.5 -3.5t-0.5 -4.5q0 -4 -2 -8q-3 -5 -8 -8q-7 -7 -11 -16q-6 -14 -7 -17q0 -2 -6 -10
l-11 -14q-6 -7 -7 -14q-2 -10 -4 -12q-1 -1 -2.5 -4t-2.5 -4t-3 -5q-1 -1 -2.5 -4t-2.5 -4q-6 -9 -7 -10q-4 -6 -7 -15q-2 -5 -6 -13q-3 -6 -4 -10q-1 -2 -11 -17q-4 -5 -10 -11q-2 -2 -4 -8q-2 -8 -5 -11q-4 -6 -7 -12q-1 -2 -4.5 -7.5t-5.5 -7.5q-5 -7 -7 -12
q-1 -3 -6 -13l-4 -7l-6 -8l-8 -16q-2 -8 -4 -8q-1 -1 -3 -4q-2 -2 -3 -4q-6 -13 -7 -16t-6 -13q-3 -3 -7 -11q-3 -5 -7 -13q-1 -1 -4 -5.5t-4 -5.5q-6 -6 -10 -8q-5 -2 -18 -4q-11 -1 -15 -1h-4q-6 0 -9 3q-4 1 -8 7q-3 3 -5 11q0 9 2 12q3 5 4 5l4 6q2 3 7 13q2 2 4.5 7
t3.5 6q6 9 9 13q6 8 6 12q4 8 8 12l8 10q1 2 3 3q6 12 7 15q3 11 6 14l1 3.5t2 5.5q2 9 7 14q5 7 6 7q2 0 5 7q3 3 6 9q1 1 2.5 3.5t1.5 3.5q1 1 2.5 3.5t1.5 3.5l6 12q1 3 4 8t3 6q2 4 8 12l5 10q0 1 4 9q3 6 9 14q1 3 4 7l3 4q2 2 8 14q7 13 12 20q8 8 8 15q2 6 2 9
q0 2 4 6q5 5 6 10q1 1 3.5 5.5t3.5 6.5q4 6 4 9q0 2 2 6q1 3 5 7q5 5 7 9q9 12 10 13l5 10q0 1 2 6l3 6l7 14q4 8 10 14q7 7 10 15q4 10 9 15q2 2 6 11q0 4 4 8q1 2 3 5.5l2 3.5q2 1 4 8q4 8 7 12q6 8 9 14l9 12q4 8 4 11q0 5 5 15q1 2 4 7.5t4 6.5t3.5 3t3.5 3z" />
    </font>
</defs>
</svg>
